/* XPM */
static char *_jli8_e15yb[] = {
/* columns rows colors chars-per-pixel */
"82 82 111 2 ",
"   c #060507",
".  c #928308",
"X  c #DAC707",
"o  c #414224",
"O  c #CCCA99",
"+  c #868686",
"@  c #7C6706",
"#  c #E0E4B1",
"$  c #BBA505",
"%  c #E4E5DA",
"&  c #282726",
"*  c #6A5D07",
"=  c #F2E550",
"-  c #74726F",
";  c #A8A47F",
":  c #CFC364",
">  c #625108",
",  c #AD9005",
"<  c #B0A950",
"1  c #42380B",
"2  c #817408",
"3  c #FBFDD3",
"4  c #E7D721",
"5  c #C4B305",
"6  c #FCF691",
"7  c gray9",
"8  c #474646",
"9  c #A8A7A6",
"0  c #383836",
"q  c #5F5F5C",
"w  c #C9C8C8",
"e  c #898556",
"r  c #DCC72A",
"t  c #9D9C98",
"y  c #E9DB4F",
"u  c #CCBE44",
"i  c #B9B8B3",
"p  c #D9D9D3",
"a  c #A39509",
"s  c #FCF470",
"d  c #947A05",
"f  c #7C794E",
"g  c #DCDDA3",
"h  c #91918E",
"j  c #5E543A",
"k  c #B59A05",
"l  c #525251",
"z  c #8D6E06",
"x  c #C6AA06",
"c  c #696A68",
"v  c #989454",
"b  c #F7EB6E",
"n  c #ECECE3",
"m  c #352D11",
"M  c #FCFEFB",
"N  c #A08604",
"B  c #4F4617",
"V  c #EEEDB9",
"C  c #CEB809",
"Z  c #B1B092",
"A  c #7A7A78",
"S  c #675F39",
"D  c #FBFAB2",
"F  c #7F732F",
"G  c gray48",
"H  c #9A9B9A",
"J  c #949492",
"K  c #BFBEBE",
"L  c #7E7E7D",
"P  c #535353",
"I  c #CBCCCA",
"U  c #DDDDD5",
"Y  c #74736D",
"T  c #716A4F",
"R  c #746F4E",
"E  c #6C6015",
"W  c #7A724E",
"Q  c #403F40",
"!  c #7B6E31",
"~  c #8A6F14",
"^  c #81754E",
"/  c #7A776B",
"(  c #73716C",
")  c #BBBCBA",
"_  c gray54",
"`  c #979797",
"'  c #C1C1BC",
"]  c #EBEDEA",
"[  c #3C3C3C",
"{  c #C1C1BB",
"}  c #DBDDDA",
"|  c #9D9D9B",
" . c #AAABAA",
".. c #5C5C5B",
"X. c #838383",
"o. c #6D6D6D",
"O. c #6C695E",
"+. c #7B7040",
"@. c #232223",
"#. c #7B6914",
"$. c #141315",
"%. c #877A3F",
"&. c #7C774F",
"*. c #313032",
"=. c #5D5C5D",
"-. c gray42",
";. c #4E4E4E",
":. c #685B24",
">. c #8D803F",
",. c #7E7B6B",
"<. c #887E4D",
/* pixels */
"M M M M M M M M M M M M M M M M M M M M M M M M M M M M M M M M M M M M M M M M M M M M M M M M M M M M M M M M M M M M M M M M M M M M M M M M M M M M M M M M M M ",
"M M M M M M M M M M M M M M M M M M M M M M M M M M M M M M M M M M M M M M M M M M M M M M M M M M M M M M M M M M M M M M M M M M M M M M M M M M M M M M M M M M ",
"M M M M M M M M M M M M M M M M M M M M M M M M M M M M M M M M M M M M M M M M M M M M M M M M M M M M M M M M M M M M M M M M M M M M M M M M M M M M M M M M M M ",
"M M M M M M M M M M M M M M M M M M M M M M M M M M M M M M M M M M M M n n V % % # # # % n n n M M M M M M M M M M M M M M M M M M M M M M M M M M M M M M M M M M ",
"M M M M M M M M M M M M M M M M M M M M M M M M M M M M M M M M n % # # # V V V V D D V V V V # # # % n M M M M M M M M M M M M M M M M M M M M M M M M M M M M M M ",
"M M M M M M M M M M M M M M M M M M M M M M M M M M M M M n # # # V 3 3 M M M M M M M M M M M M 3 3 V # # # n M M M M M M M M M M M M M M M M M M M M M M M M M M M ",
"M M M M M M M M M M M M M M M M M M M M M M M M M M M % g # V 3 M M M M M M M M M M M M M M M M M M M 3 3 V # g % M M M M M M M M M M M M M M M M M M M M M M M M M ",
"M M M M M M M M M M M M M M M M M M M M M M M M M % g # 3 3 M M M M M M M M M M M M M M M M M M M M M M M 3 3 D # g % M M M M M M M M M M M M M M M M M M M M M M M ",
"M M M M M M M M M M M M M M M M M M M M M M M n - f D 3 M 3 M 3 M M M M M M M M M M M M M M M M M M M M 3 3 3 3 3 D e - % M M M M M M M M M M M M M M M M M M M M M ",
"M M M M M M M M M M M M M M M M M M M M M M i 8 q 9 % 3 3 3 3 3 M M M M M M M M M M M M M M M M M M M 3 3 3 3 3 3 n 9 q 8 i M M M M M M M M M M M M M M M M M M M M ",
"M M M M M M M M M M M M M M M M M M M M M + 0 + i i i 3 3 3 3 3 3 3 3 M M M M M M M M M M M M M M M 3 3 3 3 3 3 3 w Z i A 0 + M M M M M M M M M M M M M M M M M M M ",
"M M M M M M M M M M M M M M M M M M M n c 0 h 9 9 9 9 p 3 3 3 3 3 3 3 M M M M M M M M M M M M M M M 3 3 3 3 3 3 # 9 9 9 9 + 0 c n M M M M M M M M M M M M M M M M M ",
"M M M M M M M M M M M M M M M M M M n l & h t t 9 9 9 i 3 3 3 3 3 3 3 3 3 3 M M M M M M M M M 3 3 3 3 3 3 3 3 3 i 9 9 9 t t + 0 l % M M M M M M M M M M M M M M M M ",
"M M M M M M M M M M M M M M M M M n 8 & A h h h t 9 9 9 w 3 3 3 3 3 3 3 3 3 3 3 3 3 3 3 3 3 3 3 3 3 3 3 3 3 3 g 9 9 t t h h h - & l p M M M M M M M M M M M M M M M ",
"M M M M M M M M M M M M M M M M n l 7 c + + + h h t t 9 9 V 3 3 3 3 3 3 3 3 3 3 3 3 3 3 3 3 3 3 3 3 3 3 3 3 D Z t t t h h + + + q & l n M M M M M M M M M M M M M M ",
"M M M M M M M M M M M M M M M M c 7 8 - - A + + h h h t t i 3 3 3 3 3 3 3 3 3 3 3 3 3 3 3 3 3 3 3 3 3 3 3 3 O h t h h h + + A - c 8 & q M M M M M M M M M M M M M M ",
"M M M M M M M M M M M M M M M + 7 & l q c - A A + + h h t t # 3 3 3 3 3 3 3 3 3 3 3 3 3 3 3 3 3 3 3 3 3 3 V t h h h + + A A - c q l 0 & A M M M M M M M M M M M M M ",
"M M M M M M M M M M M M M M i 7 & 0 l l q c c - A + + h h h 9 3 3 3 3 3 3 3 3 3 3 3 3 3 3 3 3 3 3 3 3 3 3 i h h + + + A - c c q l l 0 0 & 9 M M M M M M M M M M M M ",
"M M M M M M M M M M M M M n 0 7 & 0 8 8 l q q c - A + + + h + O 3 3 3 3 3 3 3 3 3 3 3 3 3 3 3 3 3 3 3 3 g h + + + A A - c c q l l 8 0 & & 0 % M M M M M M M M M M M ",
"M M M M M M M M M M M M M A   7 & 0 0 0 8 l q q c - - A + + + h V 3 3 3 3 3 3 3 3 3 3 3 3 3 3 D D 3 D D ; + + + A - - c q q l 8 8 0 0 & & 7 c M M M M M M M M M M M ",
"M M M M M M M M M M M M w 7 7 7 7 & & 0 0 8 l l q c c - A A A A Z 3 D 3 D 3 3 3 D D D D D D D D D D D O A + A A - c c q q l 8 8 0 0 0 & & & & i M M M M M M M M M M ",
"M M M M M M M M M M M M q   7 7 7 & & & 0 0 8 l l q q c c - - A A g D D D D D D D D D D D D D D D D V h A A - - c c q l l 8 0 0 0 & & & & & 7 l M M M M M M M M M M ",
"M M M M M M M M M M M w 7 7 7 7 7 7 7 & & 0 0 8 8 l l q q c c - c h D D D D D D D D D D D D D 6 6 D Z c - - c c q q l l 8 0 0 & & & & & & & & 7 i M M M M M M M M M ",
"M M M M M M M M M M M c   7 7 7 7 7 7 7 & & 0 0 8 8 l l q q q c c q O D 6 6 6 6 6 6 6 6 6 6 6 6 6 g - c c c c q q l 8 8 0 0 & & & & & & & & & 7 q M M M M M M M M M ",
"M M M M M M M M M M p 7 7 7 7 7 7 7 7 7 7 & & 0 0 0 8 8 l l l q q q f 6 6 6 6 6 6 6 6 6 6 6 6 6 D v q c q q q l l 8 8 0 0 & & & 7 7 7 7 7 7 & 7 & w M M M M M M M M ",
"M M M M M M M M M M h   7 7 7 7 7 7 7 7 7 7 & & & 0 0 0 8 8 l l l l 8 ; 6 b 6 s 6 6 6 6 6 6 6 6 O q q q l l l l 8 8 0 0 & & 7 7 7 7 7 7 7 7 7 & 7 + M M M M M M M M ",
"M M M M M M M M M M 8   7           7 7 7 7 7 & & & 0 0 0 0 8 8 8 8 8 l g s b b b b b b b b s 6 - l l l l l 8 8 0 0 0 & & 7 7 7 7 7 7 7 7 7 7 7 7 8 M M M M M M M M ",
"M M M M M M M M M p 7                   7 7 7 7 7 & & & & 0 0 0 0 0 o 0 e s b b b b b b b b s < 8 l 8 8 8 8 8 0 0 & & & 7 7 7 7 7 7 7 7 7 7 7 7 7 7 w M M M M M M M ",
"M M M M M M M M M 9                       7 7 7 7 7 7 & & & & & 0 0 0 0 0 : s = b b b b b b y l 0 8 8 0 0 0 0 0 & & & 7 7 7 7 7 7 7 7 7 7 7 7 7 7   h M M M M M M M ",
"M M M M M M M M M c                           7 7 7 7 7 7 & & & & & & & & q b = = = = = = b e & 0 0 0 0 0 0 & & & & 7 7 7 7           7 7 7 7 7 7   q M M M M M M M ",
"M M M M M M M M M 0                             7 7 7 7 7 7 7 & & & & & & 7 < = y = = y = : m & m & & & & & & & & 7 7 7 7               7 7 7 7 7 7 0 n M M M M M M ",
"M M M M M M M M % &                               7 7 7 7 7 7 7 7 7 7 7 7 7 0 y y y y y = S 7 & & & & & & & 7 7 7 7 7 7                   7 7 7 7 7 7 p M M M M M M ",
"M M M M M M M M w                                         7 7 7 7 7 7 7 7 7   f = 4 4 = < 7 7 7 7 7 7 7 7 7 7 7 7 7 7                       7 7 7 7   i M M M M M M ",
"M M M M M M M M i                                             7 7 7 7 7 7 7 7 7 : 4 r y o   7 7 7 7 7 7 7 7 7 7 7                             7 7 7   9 M M M M M M ",
"M M M M M M M M 9                                               7 7 7 7 7 7 7   S y 4 e   7 7 7 7 7 7 7 7 7 7 7                               7 7 7   h M M M M M M ",
"M M M M M M M M h                                                                 < u 7                                                               + M M M M M M ",
"M M M M M M M M h 7 & & m m m m m m 1 1 1 1 1 1 1 1 1 o o B B B o o B B B B B B 0 e ; 0 B B B B B B B B B B B B B 1 1 1 1 1 1 1 1 1 1 m m m m m m m 7 A M M M M M M ",
"M M M M M M M M Z . $ 5 C X X X X X X 4 4 4 4 4 4 4 4 4 4 4 4 4 4 4 4 r r r r r 4 < ; 4 r 4 4 r r r r r r r r r r r r r r r X X X C C C C C C 5 $ k 2 ; M M M M M M ",
"M M M M M M M M Z 2 k 5 C C X X X X X X X X X X X X X X X X X X C C C C C C C C r j & r C C C C C C C 5 x x x C C C C C C 5 5 5 5 5 5 5 x x x x $ , 2 ; M M M M M M ",
"M M M M M M M M i 2 k $ 5 C C C X X X X X X X X X X X X X X X C C C C C C C 5 C v 7 7 f r C C C C C C 5 x x 5 5 5 5 5 5 5 5 5 5 5 5 x x x x x $ k , 2 Z M M M M M M ",
"M M M M M M M M w 2 a $ 5 C C C X X X X X X X X X X X X X X X C 5 5 5 5 5 5 x u o 7 7 & < C C C C C 5 x x x x 5 5 5 5 5 5 x x x x x x x x x $ $ , , 2 i M M M M M M ",
"M M M M M M M M w F N k 5 5 C C C X X X X X X X X X X X X X C 5 x x x x x x C F 7 7 7 7 j r x 5 x x x x x x x x x x x x x x x x x x x $ $ $ $ k a N @ w M M M M M M ",
"M M M M M M M M % F . a $ 5 C C C C C C C C X X X X X X C C C x $ x x x x x $ & 7 7 7 7 7 v 5 x x x x $ $ x x x x x x x x x x x x $ $ $ k k k , N . @ p M M M M M M ",
"M M M M M M M M n f 2 a k 5 5 5 C C C C C C C C C C C C C C x $ $ $ $ $ $ x S   7 7 7 7   o x k $ $ k k k $ $ x x $ $ $ $ x x $ $ $ $ k k k k a N 2 F n M M M M M M ",
"M M M M M M M M M e @ N a $ 5 x 5 5 5 5 C C C C C C C 5 5 x x $ k k k k x a 7 7 7 7 7 7 7   F x k k k k k k $ $ $ $ $ $ $ $ $ $ $ $ k k , , , N d @ e M M M M M M M ",
"M M M M M M M M M Z * . a k $ $ 5 x x x 5 5 5 5 5 5 5 x x $ $ k k k k k $ o   7 7 7 7 7 7 7 & a , , , , , k k k k k k k $ $ $ $ k k k k , , , . d * t M M M M M M M ",
"M M M M M M M M M w * 2 . a $ $ $ $ $ $ $ $ x x x x x x $ $ k k , , , k F   7 7 7 7 7 7 7 7   j k N , , , , k k k k k k k k k k k k k , , , N d @ * w M M M M M M M ",
"M M M M M M M M M n f * . N a k k $ $ $ $ $ $ $ $ $ $ $ k k k , , , , a &   7 7 7 7 7 7 7 7 7 7 . N N N N , , , , , , k k k k k k , , , N N d z * S % M M M M M M M ",
"M M M M M M M M M M t > 2 . , , , k k k k k k $ k k k k k k k , N N , >   7                 7   1 , d N N N , , , , , , , , , , , , , , N N d @ > h M M M M M M M M ",
"M M M M M M M M M M w j * 2 . N a , , , , , , k k k k , , , , N N N d 7                           @ N d N N N N N N N N , , , , , , , N d d @ * B i M M M M M M M M ",
"M M M M M M M M M M n A > @ d . N , , , , , , , , , , , N N N d d N 1                             & d d d N N N N N N N N , , , , N N N d z @ B c n M M M M M M M M ",
"M M M M M M M M M M M i B * @ d N N N N N N , , , , N N N N N d d @                                 > d d d d N N N N N N N N N N N N d 2 @ * 1 9 M M M M M M M M M ",
"M M M M M M M M M M M n - B @ 2 d N N N N N N N N N N N N N d d d &                                 7 z d d d d d d d N N N N N N d d 2 @ * B S % M M M M M M M M M ",
"G M M M M M M M M M M M i B G G z d N N N <.,.G ,.>.N N N d d d >                                     1 d d d d d d d d d d d d d d d @ * > 1 9 M M M M M M M M M M ",
"G M M M M M M M M M M M n A G G @ 2 d N <.G G G G <.N N N d d 2 7                                       @ d d d d d d d d d d d d z @ * > 1 - n M M M M M M M M M M ",
"G M M M M M M M M M M M M w j B * @ z d ,.G >.N N N N N N d . 1                                         & d z z z z d d d d d d z @ * > 1 B w M M M M M M M M M M M ",
"G M M M M M M M M M M M M M 9 B > * @ d G G N N N N N N d N @                                             > d z z z z z z z 2 z @ * > B 1 t M M M M M M M M M M M M ",
"G M M M M M M M M M M M M M n A 1 > * @ G G N N N N N d d . &                                             7 z z z z z z z z @ @ * > B 1 - % M M M M M M M M M M M M ",
"G M M M M M M M M M M M M M G G c 1 G G G G G G G . . d N :.;.-.G -.=.*.                                *.=.( G / ^ ~ @ @ @ @ G G G G G G G G G G G ] M M M M M M M ",
"G M M M M M M M M M M M M M G G w S G G G G G G G d d d &.G G G G G G G ;.                            ;.G G G G G G G ! @ * * G G G G G G G G G G G ] M M M M M M M ",
"G M M M M M M M M M M M M M G G M w j 1 G G * @ z z 2 %.G -.*.$.  $.*.-.G ;.                        ;.G G Q $.& #.W G G E > > B 1 8 i M M M ] _ G  .M M M M M M M M ",
"G M M M M M M M M M M M M M G G M M i j G G > * @ @ #.G -.$.          $.-.G @.                    @.G G $.      B @ R G T > B m 8 i n M M ] _ G H M M M M M M M M M ",
"G M M M M M M M M M M M M M G G M M M w G G B > > * +.G *.              *.G ;.                    Q G Q         7 > :.G Y 1 m j i M M M M H G _ ] M M M M M M M M M ",
"G M M M M M M M M M M M M M G G M M M M G G 1 1 1 > O.G $.              $.G -.                    =.G @.          m > 1 1 m c w M M M M  .G G } M M M M M M M M M M ",
"G M M M M M M M M M M M M M G G M M M M G G t 8 m 1 o.G G G G G G G G G G G G                     -.G               1 m o h p M M M M ) G G I M M M M M M M M M M M ",
"G M M M M M M M M M M M M M G G M M M M G G n i c & G G G G G G G G G G G G G                     G G               7 q i n M M M M I G G ) M M M M M M M M M M M M ",
"G M M M M M M M M M M M M M G G M M M M G G M M p t G G $.                                        G G             8 h p n M M M M } G G H M M M M M M M M M M M M M ",
"G M M M M M M M M M M M M M G G M M M M G G M M M n X.G ..7                                       -.G @.    7 8 h w U G _ M M M ] G G _ M M M M M M M M M M M M M M ",
"G M M M M M M M M M M M M M G G M M M M G G M M M M  .G | 9 c 0 7                                 ;.G Q 0 c 9 w n M I G  .M M ] _ G _ ] M M M M M M M M M M M M M M ",
"G M M M M M M M M M M M M M G G M M M M G G M M M M } G G { % w t - l 0 [ G =.                7 & P G L K p n M M M _ G } M M H G _ ] M M M M M M M M M M M M M M M ",
"G M M M M M M M M M M M M M G G M M M M G G M M M M M  .G G  .] n % ' ` G G X.- c q q c - A h 9 i p J G _ I ] M } _ G H M M H G _ ] M M M M M M M M M M M M M M M M ",
"G G G G G G G G G G G M M M G G M M M M G G M M M M M M  .G G G G G G G G { % % % p G G % n n n M M M H G G G G G G _ ] M } G G G G G G G G G G G G M M M M M M M M ",
"G G G G G G G G G G G M M M G G M M M M G G M M M M M M M }  ._ G G _ ) ] M M M M M G G M M M M M M M M I H G G _ ) M M M ] G G G G G G G G G G G G M M M M M M M M ",
"M M M M M M M M M M M M M M M M M M M M M M M M M M M M M M M M M M M M M M M M M M M M M M M M M M M M M M M M M M M M M M M M M M M M M M M M M M M M M M M M M M ",
"M M M M M M M M M M M M M M M M M M M M M M M M M M M M M M M M M M M M M M M M M M M M M M M M M M M M M M M M M M M M M M M M M M M M M M M M M M M M M M M M M M ",
"M M M M M M M M M M M M M M M M M M M M M M M M M M M M M M M M M M M M M M M M M M M M M M M M M M M M M M M M M M M M M M M M M M M M M M M M M M M M M M M M M M ",
"M M M M M M M M M M M M M M M M M M M M M M M M M M M M M M M M M M M M M M M M M M M M M M M M M M M M M M M M M M M M M M M M M M M M M M M M M M M M M M M M M M ",
"M M M M M M M M M M M M M M M M M M M M M M M M M M M M M M M M M M M M M M M M M M M M M M M M M M M M M M M M M M M M M M M M M M M M M M M M M M M M M M M M M M ",
"M M M M M M M M M M M M M M M M M M M M M M M M M M M M M M M M M M M M M M M M M M M M M M M M M M M M M M M M M M M M M M M M M M M M M M M M M M M M M M M M M M ",
"M M M M M M M M M M M M M M M M M M M M M M M M M M M M M M M M M M M M M M M M M M M M M M M M M M M M M M M M M M M M M M M M M M M M M M M M M M M M M M M M M M ",
"M M M M M M M M M M M M M M M M M M M M M M M M M M M M M M M M M M M M M M M M M M M M M M M M M M M M M M M M M M M M M M M M M M M M M M M M M M M M M M M M M M ",
"M M M M M M M M M M M M M M M M M M M M M M M M M M M M M M M M M M M M M M M M M M M M M M M M M M M M M M M M M M M M M M M M M M M M M M M M M M M M M M M M M M "
};
