/* XPM */
static char *i950z_6q6po[] = {
/* columns rows colors chars-per-pixel */
"64 64 8 1 ",
"  c #2B0D10",
". c #341014",
"X c #612128",
"o c #FF1831",
"O c #8E7B63",
"+ c #BDAB94",
"@ c #FBE9D1",
"# c None",
/* pixels */
"################################################################",
"################################################################",
"################################################################",
"################################################################",
"################################################################",
"################################################################",
"################################################################",
"################################################################",
"################################################################",
"################################################################",
"################################################################",
"################################################################",
"################################################################",
"################################################################",
"################################################################",
"################################################################",
"################################################################",
"################################################################",
"################################################################",
"################################################################",
"################################################################",
"################################################################",
"###########################XXXXXXXXXX###########################",
"########################XXXXXXXXXXXXXXXX########################",
"######################XXXXXXXXXXXXXXXXXXX#######################",
"#####################XXXXXXXXXXXXXXXXXXXXX######################",
"####################XXXXXXXXXXXXX.....XXXXX#####################",
"####################XXXXXXXX............XXX#####################",
"####################XXXXXX................X#####################",
"#####################XXX...X..XX.X....X...X#####################",
"######################X....XX..XX..XXXX...######################",
"##########################...OOO.XX.....########################",
"############################OOooO.Ooo###########################",
"############################++oo+O+oo###########################",
"############################+++++++++###########################",
"###########################+++@+@+@++###########################",
"#########################++++ @ @ @ ++##########################",
"########################+++++  @    ++##########################",
"########################++++++ @+ @ +++#########################",
"#######################++++O+++++++++++#########################",
"######################+++++O+++++++++O++########################",
"######################++++OO+++++++++O++########################",
"######################O+++O++++++++++OO++#######################",
"#####################OO++OO++++++++++OO++#######################",
"#####################OO+OXO+++++++++++O++#######################",
"####################XXOOOX.+++++++++++OO++######################",
"####################.XXOXOX++++++++++++.+X######################",
"#####################.X.X.O++++++++++++.XX######################",
"######################...+X++++++++++++#.#######################",
"######################X#X++++++++++++OO#########################",
"########################+++OO+++++++OO##########################",
"########################++++OOO+++OOO###########################",
"########################++++++OOOOOOOO##########################",
"########################+++++OOOOOOOOO##########################",
"########################++++OOOOOOOOOO##########################",
"########################+++OOOOOOOOO++##########################",
"########################X+OOO#####O+++##########################",
"#######################.X.OX######.+.O##########################",
"#######################X.X.#######X.X.##########################",
"################################################################",
"################################################################",
"################################################################",
"################################################################",
"################################################################"
};
