/* XPM */
static char *yv3wk_suowp[] = {
/* columns rows colors chars-per-pixel */
"64 64 19 1 ",
"  c #1D1B10",
". c #36230F",
"X c #41280F",
"o c #4F3112",
"O c #423E1D",
"+ c #583B1E",
"@ c #633B13",
"# c #413E25",
"$ c #413E2D",
"% c #4F4E46",
"& c #6F6A41",
"* c #6E6A49",
"= c #6A6A67",
"- c #83837B",
"; c #8E8E8E",
": c gray60",
"> c #A7A7A6",
", c gray69",
"< c None",
/* pixels */
"<<<<<<<<<<<<<<<<<<<<<<<<<<<<<<<<<<<<<<<<<<<<<<<<<<<<<<<<<<<<<<<<",
"<<<<<<<<<<<<<<<<<<<<<<<<<<<<<<<<<<<<<<<<<<<<<<<<<<<<<<<<<<<<<<<<",
"<<<<<<<<<<<<<<<<<<<<<<<<<<<<<<<<<<<<<<<<<<<<<<<<<<<<<<<<<<<<<<<<",
"<<<<<<<<<<<<<<<<<<<<<<<<<<<<<<<<<<<<<<<<<<<<<<<<<<<<<<<<<<<<<<<<",
"<<<<<<<<<<<<<<<<<<<<<<<<<<<<<<<<<<<<<<<<<<<<<<<<<<<<<<<<<<<<<<<<",
"<<<<<<<<<<<<<<<<<<<<<<<<<<<<<<<<<<<<<<<<<<<<<<<<<<<<<<<<<<<<<<<<",
"<<<<<<<<<<<<<<<<<<<<<<<<<<<<<<<<<<<<<<<<<<<<<<<<<<<<<<<<<<<<<<<<",
"<<<<<<<<<<<<<<<<<<<<<<<<<<<<<<<<<<<<<<<<<<<<<<<<<<<<<<<<<<<<<<<<",
"<<<<<<<<<<<<<<<<<<<<<<<<<<<<<<<<<<<<<<<<<<<<<<<<<<<<<<<<<<<<<<<<",
"<<<<<<<<<<<<<<<<<<<<<<<<<<<<<<<<<<<<<<<<<<<<<<<<<<<<<<<<<<<<<<<<",
"<<<<<<<<<<<<<<<<<<<<<<<<<<<<<<<<<<<<<<<<<<<<<<<<<<<<<<<<<<<<<<<<",
"<<<<<<<<<<<<<<<<<<<<<<<<<<<<<<<<<<<<<<<<<<<<<<<<<<<<<<<<<<<<<<<<",
"<<<<<<<<<<<<<<<<<<<<<<<<<<<<<<<<<<;;;;;<<<<<<<<<<<<<<<<<<<<<<<<<",
"<<<<<<<<<<<<<<<<<<<<<<<<<<<<<<<<<;;;;;;;<<<<<<<<<<<<<<<<<<<<<<<<",
"<<<<<<<<<<<<<<<<<<<<<<<<<<<<<<<<<;;;;;;;<<<<<<<<<<<<<<<<<<<<<<<<",
"<<<<<<<<<<<<<<<<<<<<<<<<<<<<<<<<<=======<<<<<<<<<<<<<<<<<<<<<<<<",
"<<<<<<<<<<<<<<<<<<<<<<<<<<<<<<<<<=***==*<<<<<<<<<<<<<<<<<<<<<<<<",
"<<<<<<<<<<<<<<<<<<<<<<<<<<<<<<<<<**$  = <<<<<<<<<<<<<<<<<<<<<<<<",
"<<<<<<<<<<<<<<<<<<<<<<<<<<<<<<<<<$$*  $ <<<<<<<<<<<<<<<<<<<<<<<<",
"<<<<<<<<<<<<<<>>><<<<<<<<<<<<<<<<<$$**$$<<<<<<<<<<<<<<<<<<<<<<<<",
"<<<<<<<<<<<<<====><<<<<<<<<>>>><<$  $$$<<<<<<<<<<<<<<<<,<<<<<<<<",
"<<<<<<<<<<<<<=====><<<<<<<-----<$$#  $ <<<<<<<<<<<<<<<<,<<<<<<<<",
"<<<<<<<<<<<<<=====><<<<<**$$--@$$$$< <$<<<<<<<<<<<<<<<,,<<<<<<<<",
"<<<<<<<<<<<<=======><<<*$$$$$X@#**$$$<<<<<<<<<<<<<<<<,,<<<<<<<<<",
"<<<<<<<<<<<<=======><<*$$$$$$$@@#*$*$<<<<<<<<<<<<<<<,,<<<<<<<<<<",
"<<<<<<<<<<<<=======><*$$<<$*$$@@***$$<<<<<<<<<<<<<<,,<<<<<<<<<<<",
"<<<<<<<<<<<<=======>*$$<<$$***$@X$***<<<<<<<<<<<<,,,<<<<<<<<<<<<",
"<<<<<<<<<<<=========$$<<<$$$$**XX*#**<<<<<<<<<<<,,,<<<<<<<<<<<<<",
"<<<<<<<<<<<=========$<<<<$$$$$*XX#*$*<<<<<<<<<<,,,<<<<<<<<<<<<<<",
"<<<<<<<<<<<=========$<<<<$***$$XX**$*<<<<<<<<<<,,<<<<<<<<<<<<<<<",
"<<<<<<<<<<<=========$<<<<<<$$$$$XO<$$<<<<<<O=,,,<<<<<<<<<<<<<<<<",
"<<<<<<<<<<<=====%===$<<<<<#$$#<$X<<<$**<:::<==,<<<<<<<<<<<<<<<<<",
"<<<<<<<<<<<===%=%===$$<<<<<$$<<<<<<<$$$-::&**==<<<<<<<<<<<<<<<<<",
"<<<<<<<<<<<===%%%===$$<<<<#$$$++++<<<$$---#*#==<<<<<<<<<<<<<<<<<",
"<<<<<<<<<<<===%%====<<<<<+++==++XXo<<<<<<==#<<<<<<<<<<<<<<<<<<<<",
"<<<<<<<<<<<<=======%<<<<++++==XX@Xoo<<<<<==<<<<<<<<<<<<<<<<<<<<<",
"<<<<<<<<<<<<=======%<<<++XXXXX@@XXoo<<<<<<<<<<<<<<<<<<<<<<<<<<<<",
"<<<<<<<<<<<<======%<<<<.XXXX@@@@XXXX<<<<<<<<<<<<<<<<<<<<<<<<<<<<",
"<<<<<<<<<<<<======%<<<<oXX@X@@@@XXXX<<<<<<<<<<<<<<<<<<<<<<<<<<<<",
"<<<<<<<<<<<<=====%%<<<<XXX@@@@@@<X##*<<<<<<<<<<<<<<<<<<<<<<<<<<<",
"<<<<<<<<<<<<<====%%<<<<XXX@@@@@@<<<#*<<<<<<<<<<<<<<<<<<<<<<<<<<<",
"<<<<<<<<<<<<<===%%<<<<<<X#@@@@@<<<<##&<<<<<<<<<<<<<<<<<<<<<<<<<<",
"<<<<<<<<<<<<<<%%%<<<<<<<#@@@@@@<<<<<##*<<<<<<<<<<<<<<<<<<<<<<<<<",
"<<<<<<<<<<<<<<<<<<<<<<<<@@@@@@<<<<<<##***<<<<<<<<<<<<<<<<<<<<<<<",
"<<<<<<<<<<<<<<<<<<<<<<<<@@@@@@<<<<<<<##*#<<<<<<<<<<<<<<<<<<<<<<<",
"<<<<<<<<<<<<<<<<<<<<<<<<@@@@@<<<<<<<<<##<<<<<<<<<<<<<<<<<<<<<<<<",
"<<<<<<<<<<<<<<<<<<<<<<<*@@@@<<<<<<<<<@##<<<<<<<<<<<<<<<<<<<<<<<<",
"<<<<<<<<<<<<<<<<<<<<<<<*##<<<<<<<<<<<@##X<<<<<<<<<<<<<<<<<<<<<<<",
"<<<<<<<<<<<<<<<<<<<<<<<###<<<<<<<<<<<@#XX<<<<<<<<<<<<<<<<<<<<<<<",
"<<<<<<<<<<<<<<<<<<<<<<@##<<<<<<<<<<<@@@@X<<<<<<<<<<<<<<<<<<<<<<<",
"<<<<<<<<<<<<<<<<<<<<<<@@#<<<<<<<<<<<@@@X<<<<<<<<<<<<<<<<<<<<<<<<",
"<<<<<<<<<<<<<<<<<<<<<@@XX<<<<<<<<<<<@@@X<<<<<<<<<<<<<<<<<<<<<<<<",
"<<<<<<<<<<<<<<<<<<<<@@@X<<<<<<<<<<<<@@@X<<<<<<<<<<<<<<<<<<<<<<<<",
"<<<<<<<<<<<<<<<<<<<<@XX<<<<<<<<<<<<<@@@<<<<<<<<<<<<<<<<<<<<<<<<<",
"<<<<<<<<<<<<<<<<<<<@@XX<<<<<<<<<<<<<@@@<<<<<<<<<<<<<<<<<<<<<<<<<",
"<<<<<<<<<<<<<<<<<<<@XX<<<<<<<<<<<<<@@@X<<<<<<<<<<<<<<<<<<<<<<<<<",
"<<<<<<<<<<<<<<<<<<@XX<<<<<<<<<<<<<<@@@X<<<<<<<<<<<<<<<<<<<<<<<<<",
"<<<<<<<<<<<<<<<<<<@XX<<<<<<<<<<<<<<@@XX<<<<<<<<<<<<<<<<<<<<<<<<<",
"<<<<<<<<<<<<<<<<<*@X<<<<<<<<<<<<<<<<XXXX<<<<<<<<<<<<<<<<<<<<<<<<",
"<<<<<<<<<<<<<<<<<###*<<<<<<<<<<<<<<#XXXXX<<<<<<<<<<<<<<<<<<<<<<<",
"<<<<<<<<<<<<<<<<<####**<<<<<<<<<<<<#XXX#&&<<<<<<<<<<<<<<<<<<<<<<",
"<<<<<<<<<<<<<<<<<<<<<<<<<<<<<<<<<<<<<<<<<<<<<<<<<<<<<<<<<<<<<<<<",
"<<<<<<<<<<<<<<<<<<<<<<<<<<<<<<<<<<<<<<<<<<<<<<<<<<<<<<<<<<<<<<<<",
"<<<<<<<<<<<<<<<<<<<<<<<<<<<<<<<<<<<<<<<<<<<<<<<<<<<<<<<<<<<<<<<<"
};
