/* XPM */
static char *f370d_rl4iu[] = {
/* columns rows colors chars-per-pixel */
"64 64 81 1 ",
"  c #0E0421",
". c #0F0926",
"X c #110623",
"o c #150A25",
"O c #1A0D27",
"+ c #160C2A",
"@ c #1C0E29",
"# c #16112D",
"$ c #1D112C",
"% c #1E1432",
"& c #1D1A37",
"* c #1D1D3C",
"= c #23142C",
"- c #231632",
"; c #261935",
": c #291933",
"> c #251C3A",
", c #2B1E3B",
"< c #26213F",
"1 c #2D203D",
"2 c #31223E",
"3 c #291F40",
"4 c #252141",
"5 c #2D2444",
"6 c #2C2748",
"7 c #2E2848",
"8 c #352643",
"9 c #372946",
"0 c #392946",
"q c #302649",
"w c #332A4B",
"e c #3B2D4C",
"r c #352E50",
"t c #392F51",
"y c #363355",
"u c #3C3254",
"i c #3D3559",
"p c #3C3859",
"a c #413455",
"s c #423759",
"d c #44395D",
"f c #493C5F",
"g c #433D62",
"h c #4A3E62",
"j c #454166",
"k c #4B4165",
"l c #4D446A",
"z c #4E486B",
"x c #534867",
"c c #51476D",
"v c #51496E",
"b c #584D6E",
"n c #544B73",
"m c #584D70",
"M c #574F78",
"N c #584F78",
"B c #555176",
"V c #595076",
"C c #5B537D",
"Z c #5E587F",
"A c #5E5680",
"S c #5F5980",
"D c #625B83",
"F c #655E88",
"G c #676188",
"H c #6B658D",
"J c #6E698F",
"K c #6D6791",
"L c #726C95",
"P c #746F98",
"I c #76719A",
"U c #7A759E",
"Y c #7C77A0",
"T c #7F7AA4",
"R c #807BA5",
"E c #837EA8",
"W c #8884AE",
"Q c #8B88B1",
"! c #918EB7",
"~ c #9491BA",
"^ c None",
/* pixels */
"^^^^^^^^^^^^^^^^^^^^^^^^^^^^^^^^^^^^^^^^^^^^^^^^^^^^^^^^^^^^^^^^",
"^^^^^^^^^^^^^^^^^^^^^^^^^^^^^^^^^^^^^^^^^^^^^^^^^^^^^^^^^^^^^^^^",
"^^^^^^^^^^^^^^^^^^^^^^^^^^^^^^^^^^^^^^^^^^^^^^^^^^^^^^^^^^^^^^^^",
"^^^^^^^^^^^^^^^^^^^^^^^^^^^^^^^^^^^^^^^^^^^^^^^^^^^^^^^^^^^^^^^^",
"^^^^^^^^^^^^^^^^^^^^^^^^^^^^^^^^^^^^^^^^^^^^^^^^^^^^^^^^^^^^^^^^",
"^^^^^^^^^^^^^^^^^^^^^^^^^^^^^^^^^^^^^^^^^^^^^^^^^^^^^^^^^^^^^^^^",
"^^^^^^^^^^^^^^^^^^^^^^^^^^w<+^^^^^^^^^^^+3^^^^^^^^^^^^^^^^^^^^^^",
"^^^^^^^^^^^^^^^^^^^^^^^^^vDi^^^^^^^^^^^^>dg>^^^^^^^^^^^^^^^^^^^^",
"^^^^^^^^^^^^^^^^^^^^^^^^gD5^^^^^^^^^^^^^^^wu$^^^^^^^^^^^^^^^^^^^",
"^^^^^^^^^^^^^^^^^^^^^^^qZ%^^^^^^^^^^^^^^^^ -8+^^^^^^^^^^^^^^^^^^",
"^^^^^^^^^^^^^^^^^^^^^^^ZqX^^^^^^^^^^^^^^^^^o5,^^^^^^^^^^^^^^^^^^",
"^^^^^^^^^^^^^^^^^^^^^^ckO^^^^^^^^^^^^^^^^^^ @t>^^^^^^^^^^^^^^^^^",
"^^^^^^^^^^^^^^^^^^^^^>B=@^^^^^^^^^^^^^^^^^^X$-q^^^^^^^^^^^^^^^^^",
"^^^^^^^^^^^^^^^^^^^^^kt@O^^^^^^^^^^^^^^^^^^^@$t,^^^^^^^^^^^^^^^^",
"^^^^^^^^^^^^^^^^^^^^yk$=X^^^^^^^^^^^^^^^^^^^o=-u%^^^^^^^^^^^^^^^",
"^^^^^^^^^^^^^^^^^^^<F3@=X^^^^^^^^^^^^^^^^^^^o=@ww^^^^^^^^^^^^^^^",
"^^^^^^^^^^^^^^^^^^^CF4=O^^^^^^^lzvzvcg^^^^^^^@@wc-^^^^^^^^^^^^^^",
"^^^^^^^^^^^^^^^^^^qHd$=o^^^^^sKYUYUUUFg^^^^^^@==hwo^^^^^^^^^^^^^",
"^^^^^^^^^^^^^^^^^^ZZ===O^^^^>LHCCCCCCCCl+^^^^@==>c,^^^^^^^^^^^^^",
"^^^^^^^^^^^^^^^^^4Iv@==o^^^^>CACZCCCCZCc+^^^^@==-CtX^^^^^^^^^^^^",
"^^^^^^^^^^^^^^^^^gKi$==O^^^^-haalCCCkadh+^^^^@==-gh-^^^^^^^^^^^^",
"^^^^^^^^^^^^^^^^%HA>===o^^^^>a188fCa882a+^^^^@==@qN3^^^^^^^^^^^^",
"^^^^^^^^^^^^^^^^lHC>===O^^^^+a0828M,28euo^^^^@==$qAh$^^^^^^^^^^^",
"^^^^^^^^^^^^^^^^zHn;====X^^^+8ccshChsng,X^^^o===$8Nc@^^^^^^^^^^^",
"^^^^^^^^^^^^^^^^zKi@==@=O^^^@=gcCCCCMca=O^^^@=@=-@hc$^^^^^^^^^^^",
"^^^^^^^^^^^^^^^^nHu@=$O==$O@@qhchnnnhkl>@O@===o==@hc-^^^^^^^^^^^",
"^^^^^^^^^^^^^^^wLn>===o===,atehkke8ahkh9iu-===o===6Muo^^^^^^^^^^",
"^^^^^^^^^^^^^^^qPlO===O==@lAcafhh288hhhtMAsO==O===$MaX^^^^^^^^^^",
"^^^^^^^^^^^^^^^wPl@===O==OlCalhhh280hkhhfCsO==o===$Mto^^^^^^^^^^",
"^^^^^^^^^^^^^^^qPl@===X@=@lCehlhk208chhhaZd@=Oo===%MaX^^^^^^^^^^",
"^^^^^^^^^^^^^^^dK6@===Xo@@qs8hhhe802afhh8a3@@ X====tf@^^^^^^^^^^",
"^^^^^^^^^^^^^^+HA>====X^^@@:8hhhe802ahhh1-$@^^o==-=3N5^^^^^^^^^^",
"^^^^^^^^^^^^^^+HC>====o^^^X-hhhfe202affcd$X^^^O====5N1^^^^^^^^^^",
"^^^^^^^^^^^^^^+HZ-====@^^^^^88ha82820as,>^^^^.====$6C1^^^^^^^^^^",
"^^^^^^^^^^^^^^+JC>@==:@^^^^o;282:::::88,=^^^^.$===@8N1^^^^^^^^^^",
"^^^^^^^^^^^^^^+JA;====OX^^^O;mNbf2=2knca=+^^+.@===$5M8^^^^^^^^^^",
"^^^^^^^^^^^^^^+HA;=-$,vDDZZNfcJDN8=aCZcfgMAASAh;==@8M3^^^^^^^^^^",
"^^^^^^^^^^^^^^+JC;$=OgW~~~~UDhHDV8=aCChcAT~~~~Tr@=$8N1^^^^^^^^^^",
"^^^^^^^^^^^^^^+JA;==@dKYQ!~PChfPCh0cCNacAT~!QYHw@==8N2^^^^^^^^^^",
"^^^^^^^^^^^^^^+HA-==OrnCDLPDmaaIAb0NCc2fMDYKAAv5@=@3C3^^^^^^^^^^",
"^^^^^^^^^^^^^^+KA>@=X^5igMCCw:2LAc0NCh,:aCAnii>^X==qN5^^^^^^^^^^",
"^^^^^^^^^^^^^^^GDh%$X^^^^wlae;=bKcaNna@20dhq^^^^X=-nN,^^^^^^^^^^",
"^^^^^^^^^^^^^^^uLAw+X^^^^^^-1:@8hAnba,O21-^^^^^^+ogNaO^^^^^^^^^^",
"^^^^^^^^^^^^^^^7KAh>X^^^^^^^$=O8aLAc82O=@^^^^^^^X3vDtX^^^^^^^^^^",
"^^^^^^^^^^^^^^^^wlAv%^^^^^^^@=@0aPCma,O=@^^^^^^^>MAg,^^^^^^^^^^^",
"^^^^^^^^^^^^^^^^^^pnl7^^^^^X==O2aICc82O=@^^^^^^rcci^^^^^^^^^^^^^",
"^^^^^^^^^^^^^^^^^^^^pk5^^^^O==O1hJCN0,O==O^^^^qly^^^^^^^^^^^^^^^",
"^^^^^^^^^^^^^^^^^^^^^^^^^O@===oaJCbCh8O===@O^^^^^^^^^^^^^^^^^^^^",
"^^^^^^^^^^^^^^^^^^^^^^oo--:::=>FZe2sVg:=:::=$oo^^^^^^^^^^^^^^^^^",
"^^^^^^^^^^^^^^^^^^^+-====-==-@5t212:9e<$#:=$==:=-+^^^^^^^^^^^^^^",
"^^^^^^^^^^^^^^^^^^rMpui7,;>;=:===::==%=:=1<:1<<<>>#^^^^^^^^^^^^^",
"^^^^^^^^^^^^^^^^^^rDHHGSZZSp47778q777777<:::<::::=#^^^^^^^^^^^^^",
"^^^^^^^^^^^^^^^^^^^gvMCASSDiwaaauaaaaaaa<$=======$^^^^^^^^^^^^^^",
"^^^^^^^^^^^^^^^^^^^^*6wpjgj7<990990222001#$$$$$#^^^^^^^^^^^^^^^^",
"^^^^^^^^^^^^^^^^^^^^^yvpyw&1,>>><11<1<<1<<#=$==$^^^^^^^^^^^^^^^^",
"^^^^^^^^^^^^^^^^^^^^^gACCC4000002002002009$====#^^^^^^^^^^^^^^^^",
"^^^^^^^^^^^^^^^^^^^^^gACZB<00000e000000009#====$^^^^^^^^^^^^^^^^",
"^^^^^^^^^^^^^^^^^^^^^pCCZZ<900000000000009#====$^^^^^^^^^^^^^^^^",
"^^^^^^^^^^^^^^^^^^^^^gACBB<900000000000002#====$^^^^^^^^^^^^^^^^",
"^^^^^^^^^^^^^^^^^^^^^gACCC<0000000000000e9#===:$^^^^^^^^^^^^^^^^",
"^^^^^^^^^^^^^^^^^^^jpyBBCC4qe000000e000098#====&65^^^^^^^^^^^^^^",
"^^^^^^^^^^^^^^^^^^^pBSBzlv<522292922290282#=-5wuw>^^^^^^^^^^^^^^",
"^^^^^^^^^^^^^^^^^^^^*7kVZzywrrrryyrrrrttrrwrp01%#^^^^^^^^^^^^^^^",
"^^^^^^^^^^^^^^^^^^^^^^#<7w7565527<5555555555>#^^^^^^^^^^^^^^^^^^"
};
