/* XPM */
static char *yukh3_8etne[] = {
/* columns rows colors chars-per-pixel */
"64 64 206 2 ",
"   c #746E7B",
".  c #756F7C",
"X  c #76707C",
"o  c #76707D",
"O  c #78727E",
"+  c #79737F",
"@  c #797480",
"#  c #7A7480",
"$  c #7A7581",
"%  c #7B7581",
"&  c #7B7681",
"*  c #7B7682",
"=  c #7C7782",
"-  c #7C7783",
";  c #7D7783",
":  c #7D7882",
">  c #7D7982",
",  c #7D7883",
"<  c #7E7883",
"1  c #7E7984",
"2  c #7F7A84",
"3  c #7F7A85",
"4  c #7F7B85",
"5  c #807A85",
"6  c #807B85",
"7  c #807A86",
"8  c #807B86",
"9  c #807C86",
"0  c #817C86",
"q  c #817D86",
"w  c #817C87",
"e  c #817D87",
"r  c #827D86",
"t  c #827D87",
"y  c #827E87",
"u  c #837E87",
"i  c #837F87",
"p  c #827D88",
"a  c #837D88",
"s  c #827E88",
"d  c #837E88",
"f  c #837F88",
"g  c #847F88",
"h  c #847F89",
"j  c #848088",
"k  c #848089",
"l  c #858089",
"z  c #848189",
"x  c #858189",
"c  c #858289",
"v  c #84808A",
"b  c #85808A",
"n  c #85818A",
"m  c #86818A",
"M  c #86828A",
"N  c #86838A",
"B  c #87838A",
"V  c #86828B",
"C  c #87828B",
"Z  c #86838B",
"A  c #87838B",
"S  c #87848B",
"D  c #87838C",
"F  c #88858B",
"G  c #88838C",
"H  c #88848C",
"J  c #88858C",
"K  c #89858C",
"L  c #88848D",
"P  c #89858D",
"I  c #88868C",
"U  c #89868C",
"Y  c #89878C",
"T  c #89868D",
"R  c #89878D",
"E  c #8A868D",
"W  c #8A878D",
"Q  c #89858E",
"!  c #8A868E",
"~  c #8B868E",
"^  c #8A878E",
"/  c #8B878E",
"(  c #8A868F",
")  c #8B878F",
"_  c #8A888D",
"`  c #8B888E",
"'  c #8B898E",
"]  c #8B888F",
"[  c #8B898F",
"{  c #8C888F",
"}  c #8C898F",
"|  c #8C8A8F",
" . c #8B8790",
".. c #8C8790",
"X. c #8C8890",
"o. c #8D8890",
"O. c #8C8990",
"+. c #8D8990",
"@. c #8D8991",
"#. c #8E8991",
"$. c #8D8A90",
"%. c #8D8B90",
"&. c #8D8A91",
"*. c #8D8B91",
"=. c #8E8A90",
"-. c #8E8A91",
";. c #8E8B91",
":. c #8E8A92",
">. c #8E8B92",
",. c #8F8B92",
"<. c #8F8B93",
"1. c #8D8C90",
"2. c #8E8C90",
"3. c #8E8C91",
"4. c #8F8C91",
"5. c #8E8D91",
"6. c #8F8D91",
"7. c #8E8C92",
"8. c #8F8C92",
"9. c #8F8D92",
"0. c #8F8C93",
"q. c #8F8D93",
"w. c #908C92",
"e. c #908D92",
"r. c #908C93",
"t. c #908D93",
"y. c #908E92",
"u. c #908E93",
"i. c #918E93",
"p. c #918F93",
"a. c #918D94",
"s. c #908E94",
"d. c #918E94",
"f. c #918F94",
"g. c #928F94",
"h. c #928F95",
"j. c #919094",
"k. c #929094",
"l. c #929095",
"z. c #939095",
"x. c #929195",
"c. c #939195",
"v. c #939295",
"b. c #939096",
"n. c #939196",
"m. c #939296",
"M. c #949295",
"N. c #949196",
"B. c #949296",
"V. c #949396",
"C. c #959396",
"Z. c #949297",
"A. c #959297",
"S. c #959397",
"D. c #969397",
"F. c #959496",
"G. c #959497",
"H. c #959597",
"J. c #969497",
"K. c #969597",
"L. c #959398",
"P. c #969398",
"I. c #969498",
"U. c #969598",
"Y. c #979598",
"T. c #979599",
"R. c #979698",
"E. c #979699",
"W. c #979799",
"Q. c #97969A",
"!. c #989698",
"~. c #989798",
"^. c #989699",
"/. c #989799",
"(. c #999799",
"). c #98979A",
"_. c #99979A",
"`. c #999899",
"'. c #999999",
"]. c #98989A",
"[. c #99989A",
"{. c #99999A",
"}. c #9A989A",
"|. c #9A999A",
" X c #9A999B",
".X c #9B999B",
"XX c #9A9A9B",
"oX c #9B9A9B",
"OX c #9A9B9B",
"+X c #9B9B9B",
"@X c #9B9A9C",
"#X c #9B9B9C",
"$X c #9B9B9D",
"%X c #9C9B9C",
"&X c #9C9C9C",
"*X c #9D9D9C",
"=X c #9C9C9D",
"-X c #9D9C9D",
";X c #9C9D9D",
":X c #9D9D9D",
">X c #9E9D9D",
",X c #9D9E9D",
"<X c #9E9E9D",
"1X c #9E9E9E",
"2X c #9E9F9E",
"3X c None",
/* pixels */
"3X3X3X3X3X3X3X3X3X3X3X3X3X3X3X3X3X3X3X3X3X3X3X3X3X3X3X3X3X3X3X3X3X3X3X3X3X3X3X3X3X3X3X3X3X3X3X3X3X3X3X3X3X3X3X3X3X3X3X3X3X3X3X3X",
"3X3X3X3X3X3X3X3X3X3X3X3X3X3X3X3X3X3X3X3X3X3X3X3X3X3X3X3X3X3X3X3X3X3X3X3X3X3X3X3X3X3X3X3X3X3X3X3X3X3X3X3X3X3X3X3X3X3X3X3X3X3X3X3X",
"3X3X3X3X3X3X3X3X3X3X3X3X3X3X3X3X3X3X3X3X3X3X3X3X3X3X3X3X3X3X3X3X3X3X3X3X3X3X3X3X3X3X3X3X3X3X3X3X3X3X3X3X3X3X3X3X3X3X3X3X3X3X3X3X",
"3X3X3X3X3X3X3X3X3X3X3X3X3X3X3X3X3X3X3X3X3X3X3X3X3X3X3X3X3X3X3X3X3X3X3X3X3X3X3X3X3X3X3X3X3X3X3X3X3X3X3X3X3X3X3X3X3X3X3X3X3X3X3X3X",
"3X3X3X3X3X3X3X3X3X3X3X3X3X3X3X3X3X3X3X3X3X3X3X3X3X3X3X3X3X3X3X3X3X3X3X3X3X3X3X3X3X3Xm.d.} U 3X3X3X3X3X3X3X3X3X3X3X3X3X3X3X3X3X3X",
"3X3X3X3X3X3X3X3X3X3X3X3X3X3X3X3X3X3X3X3X3X3X3X3X3X3X3X3X3X3X3X3X3X3X3X3X3X3X3X3X3X3XU.v.1._ 3X3X3X3X3X3X3X3X3X3XX.X.3X3X3X3X3X3X",
"3X3X3X3X3X3X3X3X3X3X3X3X3X3X3X3X3X3X3X3X3X3X3X3X3X3X3X3X3X3X3X3X3X3X3X3X3X3X3X3X3X3X{.C.[ Z 3X3X3X3X3X3X3X3X3X3XL L 3X3X3X3X3X3X",
"3X3X3X3X3X3X3X3X3X3X3X3X3X3X3X3X3X3X3X3X3X3X3X3X3X3X3X3X3X3X3X3X3X3X3X3X3X3X3X3X3X3X&XG.T d 3X3X3X3X3X3X3X3X3X3X+ + 3X3X3X3X3X3X",
"3X3X3X3X3X3X3X3X3X3X3X3X3X3X3X3X3X3X3X3X3X3X3X3X3X3X3X3X3X3X3X3X3X3X3X3X3X3X3X3X3X3X{.v.K a 3X3X3X3X3X3X3X3X3X3Xy y 3X3X3X3X3X3X",
"3X3X3X3X3X3X3X3X3X3X3X3X3X3X3X3X3X3X3X3X3X3X3X3X3X3X3X3X3X3X3X3X3X3X3X3X3X3X3X3X3X3X<.X.G n 3X3X3X3X3X3X3X3X3X3XJ J 3X3X3X3X3X3X",
"3X3X3X3X3X3X3X3X3X3X3X3X3X3X3X3X3X3X3X3X3X3X3X3X|.G.%.I 3X3X3X3X3X3X3X3X3X3X3X3X3X3XQ L C m 3X3X3X3X3X3X3X3X3X3XF F 3X3X3X3X3X3X",
"3X3X3X3Xg g 3X3X3X3X3X3X3X3X3X3XX.X.3X3X3X3X3X3X<X`.5.U 3X3X3X3X3X3X3X3X3X3X3X3X3X3X> : & % 3X3X3X3X3X3X3X3X3X3XF F 3X3X3X3X3X3X",
"3X3X3X3X& & 3X3X2 2 3X3X3X3X3X3X3X3X3X3X3X3X3X3X+XS.E f 3X3X3X3X3X3X3X3X3X3X3X3X3X3XG.c.;.] 3X3X3X3X3X3X3X3X3X3XF F 3X3X3X3X3X3X",
"3X3X3X3X3 3 3X3X6 6 3X3X3X3X3X3XX.X.3X3X3X3X3X3XC.9.M 9 3X3X3X3X3X3X3X3X3X3X3X3X3X3X,.#.) Q 3X3X3X3X3X3X3X3X3X3XU U 3X3X3X3X3X3X",
"3X3X3X3Xm V 3X3X6 6 3X3X3X3X3X3Xo.Q k q 3X3X3X3X) H d 8 3X3X3X3X3X3X3X3X3X3X3X3X3X3Xg u 0 6 3X3X3X3X3X3X3X3X'.M._ c 3X3X3X3X3X3X",
"3X3X3X3X7 7 3X3X< < 3X3X3X3X3X3X3X3Xo X . . 3X3X$ $ % % 3X3X3X3X3X3X3X3X3X3X3X3X3X3Xk.9.W S 3X3X3X3X3X3X3X3XV.v.3X3X3X3X3X3X3X3X",
"3X3X3X3X  . O # $ * - , 3X3X3X3X3X3X3X3Xs s 3X3XN k 8 1 3X3X3X3X3X3X3X3X3X3X3X3X3X3X2X&X^.D.3X3X3X3X3X3XR.c.| K 3X3X3X3X3X3X3X3X",
"3X3X3X3X3X3XH H A f < % 3X3X3X3X3X3X3X3X:.+./ O.d.>.n 8 3X3X3X3X3X3X3X3X3X3X3X3X3X3X1X;X`.y.j , 3X3XO.+.-.;.3X3X3X3X3X3X3X3X3X3X",
"3X3X3X3X3X3X3X3X}.S.} A 3X3X3X3X3X3X3X3X3X3XS.I.U.f.H d 3X3X3X3X3X3X3X3X3X3X3X3X3X3X,X&X[.Z.-.)  .X.X.X.3X3X3X3X3X3X3X3X3X3X3X3X",
"3X3X3X3X3X3X3X3X2XOXV.p.3X3X3X3X3X3X3X3X3X3XY.T.E.B.$.U 3X3X3X3X3X3X3X3X3X3X3X3X3X3X3X3XI.h.) D 3X3X3X3X3X3X3X3X3X3X3X3X3X3X3X3X",
"3X3X3X3X3X3X3X3X).I.g.8.3X3X3X3X3X3X3X3X3X3XB.S.U.c.} F 3X3X3X3X3X3X3X3X3X3X3X3X3X3X3X3XOXV.P a 3X3X3X3X3X3X3X3X3X3X3X3X3X3X3X3X",
"3X3X3X3X3X3X3X3X#XXX~.p.V 8 3X3X3X3X3X3X3X3X3X3XOXF.E j 3X3X3X3X3X3X3X3X3X3X3X3X3X3X3X3X&XG.T u 3X3X3X3X3X3X3X3X3X3X3X3X3X3X3X3X",
"3X3X3X3X3X3X3X3X<X*X+XG.+.L 3X3X3X3X3X3X3X3X3X3X&XH.^ k 3X3X3X3X3X3X3X3X3X3X3X3X3X3X3X3X$XF.T y 3X3X3X3X3X3X3X3X3X3X3X3X3X3X3X3X",
"3X3X3X3X3X3X3X3X>X*X%XE.d.&.3X3X3X3X3X3X3X3X3X3X-X^.3.U 3X3X3X3X3X3X3X3X3X3X3X3X3X3X3X3XZ.8.Z e 3X3X3X3X3X3X3X3X3X3X3X3X3X3X3X3X",
"3X3X3X3X3X3X3X3XS.A.B.g.&.) 3X3X3X3X3X3X3X3X3X3XA.d.E M 3X3X3X3X3X3X3X3X3X3X3X3X3X3X.XE.d.~ g 9 3X3X3X3X3X3X3X3X3X3X3X3X3X3X3X3X",
"3X3X3X3X3X3X3X3X{ ] ) L v s 3X3X3X3X3X3X3X3X3X3X|.M.P d 3X3X3X3X3X3X3X3X3X3X3X3X3X3X+XT.w.G w 1 3X3X3X3X3X3X3X3X3X3X3X3X3X3X3X3X",
"3X3X3X3X3X3X3X3X3X3X1 , = & 3X3X3X3X3X3X3X3X3X3X&XU.$.D 3X3X3X3X3X3X3X3X3X3X3X3X3X3X` F r 1 3X3X3X3X3X3X3X3X3X3X3X3X3X3X3X3X3X3X",
"3X3X3X3X. . 3X3X3X3X6 2 , = 3X3X3X3X3X3X3X3X3X3X,XOXG.$.p ; 3X3X3X3X3X3X3X3X3X3X3X3X( D t 3 3X3X3X3X3X3X3X3X3X3X3X3X3X3X3X3X3X3X",
"3X3X3X3Xe e 3X3X3X3X9.} M i 3X3X3X3X3X3X3X3X3X3X3X3X(.B.X.k , @ 3X3X3X3X3X3X3X3X3X3XY.f.H y 3X3X3X3X3X3X3X3X3X3X3X3X3X3X3X3X3X3X",
"3X3X3X3XJ J 3X3X3X3XXXH.%.I 3X3X3X3X3X3X3X3X3X3X3X3X3X3X[.U.f.*./ P T S z f 3X3X3X3X_.c.H a 3X3X3X3X3X3X3X3X3X3X3X3X3X3X3X3X3X3X",
"3X3X3X3X^ W 3X3X3X3X&X~.6.^ 3X3X3X3X3X3X3X3X3X3X3X3X3X3X3X3Xt.t.r.t.h.n.C.g./ C 3X3XD.g./ B 3X3X3X3X3X3X3X3X3X3Xl l 3X3X3X3X3X3X",
"3X3X3X3XJ.J.3X3Xq.g.I.C.%.R 3X3X3X3X3X3X3X3X3X3X3X3X3X3X3X3X3X3X3X3X3X3XG.H.U.n.O.) ,.;.K M 3X3X3X3X3X3X3X3X3X3X3 3 3X3X3X3X3X3X",
"3X3X3X3X3X3X{.{.{.).I.k.$.~ 3X3X3X3X3X3X3X3X3X3X3X3X3X3X3X3X3X3X3X3X3X3X3X3X[.^.J.B.l.-.C d 3X3X3X3X3X3X3X3X3X3X6 6 3X3X3X3X3X3X",
"3X3X3X3X3X3X[.}. XoX+XXX(.S.u.1.3X3X3X3X3X3X3X3X3X3X3X3X3X3X3X3X3X3X3X3X3X3XJ.!.|.J.+.H 3X3X3X3X3X3X3X3X3X3X3X3X& & 3X3X3X3X3X3X",
"3X3X3X3X3X3X3X3X3X3XH.R.|.%X%X^.e.] 3X3X3X3X3X3X3X3X3X3X3X3X3X3X3X3X3X3X3X3XD.!.oXK.E g 3X3X3X3X& & 3X3X3X3X3X3X3X3X3X3X3X3X3X3X",
"3X3X3X3X3X3X3X3X3X3X3X3Xz.A.^./.S.d.X.L A V 3X3X3X3X3X3X3X3X3X3X3X3X3X3X3X3Xh.Z. XW.3.U 3X3X3X3X6 6 3X3X3X3X3X3X3X3X3X3X3X3X3X3X",
"3X3X3X3X3X3X3X3X3X3X3X3X3X3X3X3Xb.l.g.g.j.8.P C 3X3X3X3X3X3X3X3X3X3X3X3X3X3XO.q.G.F.3.^ 3X3X3X3X3 3 3X3X3X3X0 0 3X3X3X3X3X3X3X3X",
"3X3X3X3X3X3X3X3X3X3X3X3X3X3X3X3X3X3X^.R.I.S.S.x.;.] 3X3X3X3X3X3X3X3X3X3X3X3X0.s.c.g.$.^ 3X3X3X3Xx x 3X3Xt t 3X3X3X3X3X3X3X3X3X3X",
"3X3X3X3X3X3X3X3X3X3X3X3X3X3X3X3X3X3X3X3X&XXX).E.Q.B.} H 3X3X3X3X3X3X3X3X3X3Xn.l.r.{ A z 3X3X3X3Xh.;.V w 3X3X3X3X3X3X3X3X3X3X3X3X",
"3X3X3X3X3X3X3X3X3X3X3X3X3X3X3X3X3X3X3X3X3X3XU.E._.S.;.! 3X3X3X3X3X3X3X3X3X3XQ.S.t.! h 0 3X3X3X3X$.$.3X3X3X3X3X3X3X3X3X3X3X3X3X3X",
"3X3X3X3X3X3X3X3X3X3X3X3X3X3X3X3X3X3X3X3X3X3X%X|.K.j.O.V 3 & 3X3X3X3X3X3X3X3X#X].b.X.n t 3X3X3X3XB B 3X3X3X3X3X3X3X3X3X3X3X3X3X3X",
"3X3X3X3X3X3X3X3X3X3X3X3X3X3X3X3X3X3X3X3X3X3X3X3X=.;.t.8.^ F 3X3X3X3X3X3X3X3X:X%X_.z.` B 3X3X3X3Xx x 3X3X3X3X3X3X3X3X3X3X3X3X3X3X",
"3X3X3X3X3X3X3X3X3X3X3X3X3X3X3X3X3X3X3X3X3X3X3X3X+.t.I.S.3.^ 3X3X3X3X3X3X3X3X:X:X:X/.5.Y 3X3X3X3XJ J 3X3X3X3X3X3X3X3X3X3X3X3X3X3X",
"3X3X3X3X3X3X3X3X3X3X3X3X3X3X3X3X3X3X3X3X3X3X3X3Xz.D..X(.9.^ 3X3X3X3X3X3X3X3X{.OX*X'.6.^ 3X3X3X3XJ J 3X3X3X3X3X3X3X3X3X3X3X3X3X3X",
"3X3X3X3X3X3X3X3X3X3X3X3X3X3X3X3X3X3X3X3X3X3X3X3X$X=X1X{.y.' 3X3X3X3X3X3X3X3XU.].-X{.e.^ 3X3X3X3XS S 3X3X3X3X3X3X3X3X3X3X3X3X3X3X",
"3X3X3X3X3X3X3X3X3X3X3X3X3X3X3X3X3X3X3X3X3X3X3X3X:X;X#XW.k.4.3X3X3X3X3X3X'./.R.).=X{.6._ 3X3X3X3X0 0 3X3X3X3X3X3X3X3X3X3X3X3X3X3X",
"3X3X3X3X3X3X3X3X3X3X3X3X3X3X3X3X3X3X3X3X3X3X3X3X,X&XXXI.e.$.3X3X3X3X3X3X+X|.E./.%X[.k.*.3X3X3X3Xj j 3X3X3X3X3X3X3X3X3X3X3X3X3X3X",
"3X3X3X3X3X3X3X3X3X3X3X3X3X3X3X3X3X3X3X3X3X3X3X3XJ.R.}.Y.,.( 3X3X3X3X3X3X3X3X[.[.[./.G.y.K z 3X3XJ J 3X3X3X3X3X3X3X3X3X3X3X3X3X3X",
"3X3X3X3X3X3X3X3X3X3X3X3X3X3X3X3X3X3X3X3X3X3X3X3X,.t.z.g.O.! 3X3X3X3X3X3X3X3X:X&X X^.C.B.J.v.%.I S N 3X3X3X3X3X3X3X3X3X3X3X3X3X3X",
"3X3X3X3X3X3X3X3X3X3X3X3X3X3X3X3X3X3X3X3X3X3X3X3XJ.G.C.f.X.Q 3X3X3X3X3X3X3X3X3X3X:X%X[./.]./.K.p.E M 3X3X3X3X3X3X3X3X3X3X3X3X3X3X",
"3X3X3X3X3X3X3X3X3X3X3X3X3X3X3X3X3X3X3X3X3X3X3X3X=X@X].S.i.>.3X3X3X3X3X3X3X3X3X3X3X3X:X#X/.E.].M.K f 3X3X3X3X3X3X3X3X3X3X3X3X3X3X",
"3X3X3X3X3X3X3X3X3X3X3X3X3X3X3X3X3X3X3X3X3X3X3X3X:X:X:X|.M.p.3X3X3X3X3X3X3X3X3X3X3X3X:X+XR.R.|.R.2.R 3X3X3X3X3X3X3X3X3X3X3X3X3X3X",
"3X3X3X3X3X3X3X3X3X3X3X3X3X3X3X3X3X3X3X3X3X3X3X3X-X-X-X.XU.V.3X3X3X3X3X3X3X3X3X3X3X3X3X3Xn.I..X XB.u.3X3X3X3X3X3X3X3X3X3X3X3X3X3X",
"3X3X3X3X3X3X3X3X3X3X3X3X3X3X3X3X3X3X3X3X3X3X3X3XoX X).].XXK.' c 3X3X3X3X3X3X3X3X3X3X3X3XB.U.+X;XXXc.N 4 3X3X3X3X3X3X3X3X3X3X3X3X",
"3X3X3X3X3X3X3X3X3X3X3X3X3X3X3X3X3X3X3X3X3X3X3X3X[.).R.).=X Xk.%.3X3X3X3X3X3X3X3X3X3X..o.:.h.).=X=XG.P y 3X3X3X3X3X3X3X3X3X3X3X3X",
"3X3X3X3X3X3X3X3X3X3X3X3X3X3X3X3X3X3X3X3X3X3X3X3X3X3XI./.=X%XD.{ 5 + 3X3X3X3X3X3X3X3X-.,.u.B.[.#X#XC.H t 3X3X3X3X3X3X3X3X3X3X3X3X",
"3X3X3X3X3X3X3X3X3X3X3X3X3X3X3X3X3X3X3X3X3X3X3X3X3X3XI./.&X&X^.d.P v 3X3X3X3X3X3XO.7.k.C.J.Y.^.Y.A.,.b 7 3X3X3X3X3X3X3X3X3X3X3X3X",
"3X3X3X3X3X3X3X3X3X3X3X3X3X3X3X3X3X3X3X3X3X3X3X3X3X3X%X%X;X;X#XR.t.X.) ) | $.-.w.x.V.G.J.Y.J.N.8.P n 3X3X3X3X3X3X3X3X3X3X3X3X3X3X",
"3X3X3X3X3X3X3X3X3X3X3X3X3X3X3X3X3X3X3X3X3X3X3X3X3X3X3X3X%X#X|.H.t.,.l.U.|.[.N.f.z.C.J.J.A.z.w.P 2 # 3X3X3X3X3X3X3X3X3X3X3X3X3X3X",
"3X3X3X3X3X3X3X3X3X3X3X3X3X3X3X3X3X3X3X3X3X3X3X3X3X3X3X3X3X3X<.<.t.f.N.T.%X%XT.b.r.0.d.g.z.z.k.p.3X3X3X3X3X3X3X3X3X3X3X3X3X3X3X3X",
"3X3X3X3X3X3X3X3X3X3X3X3X3X3X3X3X3X3X3X3X3X3X3X3X3X3X3X3X3X3X:.a.I.E.D.Z.S.A.c.h.g.i.0.<.r.d.c.M.3X3X3X3X3X3X3X3X3X3X3X3X3X3X3X3X",
"3X3X3X3X3X3X3X3X3X3X3X3X3X3X3X3X3X3X3X3X3X3X3X3X3X3X3X3X3X3X3X3XN.A.P.N.q.&.+.&.7.8.8.t.z.B.V.V.3X3X3X3X3X3X3X3X3X3X3X3X3X3X3X3X",
"3X3X3X3X3X3X3X3X3X3X3X3X3X3X3X3X3X3X3X3X3X3X3X3X3X3X3X3X3X3X3X3X3X3X3X3XO.O.X.@.0.t.8.i.N.B.f.t.3X3X3X3X3X3X3X3X3X3X3X3X3X3X3X3X",
"3X3X3X3X3X3X3X3X3X3X3X3X3X3X3X3X3X3X3X3X3X3X3X3X3X3X3X3X3X3X3X3X3X3X3X3X3X3X#.t.L.I.h.d.N.N.p.9.3X3X3X3X3X3X3X3X3X3X3X3X3X3X3X3X"
};
