/* XPM */
static char *_dbmb_eiazy[] = {
/* columns rows colors chars-per-pixel */
"64 64 8 1 ",
"  c #2B0D10",
". c #341014",
"X c #612128",
"o c #FF1831",
"O c #8E7B63",
"+ c #BDAB94",
"@ c #FBE9D1",
"# c None",
/* pixels */
"################################################################",
"################################################################",
"################################################################",
"################################################################",
"################################################################",
"################################################################",
"################################################################",
"################################################################",
"################################################################",
"################################################################",
"################################################################",
"################################################################",
"################################################################",
"################################################################",
"################################################################",
"################################################################",
"################################################################",
"################################################################",
"################################################################",
"################################################################",
"##########################XXXXXXXXXX############################",
"#######################XXXXXXXXXXXXXXXX#########################",
"#####################XXXXXXXXXXXXXXXXXXX########################",
"####################XXXXXXXXXXXXXXXXXXXXX#######################",
"###################XXXXXXXXXXXXX.....XXXXX######################",
"###################XXXXXXXX............XXX######################",
"###################XXXXXX................X######################",
"####################XXX...X..XX.X....X...X######################",
"#####################X....XX..XX..XXXX...#######################",
"#########################...OOO.XX.....#########################",
"###########################OOooO.Ooo############################",
"###########################++oo+O+oo############################",
"###########################+++++++++############################",
"##########################+++@+@+@++############################",
"##########################++ @ @ @ ++###########################",
"########################++++  @    ++###########################",
"#######################++++++ @+ @ +++##########################",
"#######################+++++++++++++++##########################",
"######################++++O+++++++++O+##########################",
"#####################+++++O+++++++++O++#########################",
"#####################++++OO+++++++++O++#########################",
"#####################O+++O++++++++++OO++########################",
"####################OO++OO+++++++++++O++########################",
"####################OO+OXO+++++++++++O++########################",
"###################XXOOOX.++++++++++++O++#######################",
"###################.XXOXOX++++++++++++.+X#######################",
"####################.X.X.O++++++++++++.XX#######################",
"#####################...+X++++++++++OO#.########################",
"#####################X#X+++O+++++OOOO###########################",
"#######################++++++O++OOOOO###########################",
"#######################+++++OOOOOOOOO###########################",
"#######################++++OOOOOOOOOO###########################",
"#######################+++OOOOOOOOO++###########################",
"#######################X+OOOOOOOOO+++###########################",
"######################.X.OX######.+.O###########################",
"######################X.X.#######X.X.###########################",
"################################################################",
"################################################################",
"################################################################",
"################################################################",
"################################################################",
"################################################################",
"################################################################",
"################################################################"
};
