/* XPM */
static char *hiaem_kdfus[] = {
/* columns rows colors chars-per-pixel */
"64 64 8 1 ",
"  c #2B0D10",
". c #341014",
"X c #612128",
"o c #FF1831",
"O c #8E7B63",
"+ c #BDAB94",
"@ c #FBE9D1",
"# c None",
/* pixels */
"################################################################",
"################################################################",
"################################################################",
"################################################################",
"################################################################",
"################################################################",
"################################################################",
"################################################################",
"################################################################",
"################################################################",
"################################################################",
"################################################################",
"################################################################",
"################################################################",
"################################################################",
"################################################################",
"################################################################",
"################################################################",
"################################################################",
"################################################################",
"################################################################",
"######################XXXXXXXXXXXXXXXXX#########################",
"####################XXXXXXXXXXXXXXXXXXXXX#######################",
"###################XXXXXXXXXXXXXXXXXXXXXXX######################",
"###################XXXXXXXXXXXXXXXXXXXXXXX######################",
"###################XXXXXXXXXXXXX.....XXXXX######################",
"###################XXXXXXXX............XXX######################",
"####################XXXXX................#######################",
"######################X...X..XX.X....X...#######################",
"#######################...XX..XX..XXXX..########################",
"#########################...OOO.XX...###########################",
"###########################OOooO.Ooo############################",
"###########################++oo+O+oo############################",
"###########################+++++++++############################",
"##########################+++@+@+@++############################",
"########################++++ @ @ @ ++###########################",
"#######################+++++  @    ++###########################",
"#######################++++++ @+ @ +++##########################",
"######################++++O+++++++++++##########################",
"#####################+++++O+++++++++O++#########################",
"#####################++++OO+++++++++O++#########################",
"#####################O+++O++++++++++OO++########################",
"####################OO++OO++++++++++OO++########################",
"####################OO+OXO+++++++++++O++########################",
"###################XXOOOX.+++++++++++OO++#######################",
"###################.XXOXOX++++++++++++.+X#######################",
"####################.X.X.O++++++++++++.XX#######################",
"#####################...+X++++++++++++#.########################",
"#####################X#X+++++++++OOOOO##########################",
"#######################+++++++++OOOOO###########################",
"#######################+++++OO++OOOOO###########################",
"#######################++++OOOOOOOOOO###########################",
"#######################+++OOOOOOOOO++###########################",
"#######################X+OOOOOOOOO+++###########################",
"######################.X.OX#OOOOO.+.O###########################",
"######################X.X.#######X.X.###########################",
"################################################################",
"################################################################",
"################################################################",
"################################################################",
"################################################################",
"################################################################",
"################################################################",
"################################################################"
};
