/* XPM */
static char *_kvop_t2hyn[] = {
/* columns rows colors chars-per-pixel */
"64 64 139 2 ",
"   c #040302",
".  c #0B0502",
"X  c gray4",
"o  c #1B0E04",
"O  c #110D0B",
"+  c #1E1006",
"@  c #15100E",
"#  c #1D120C",
"$  c #1A1410",
"%  c #1A1B1E",
"&  c #210C03",
"*  c #21140A",
"=  c #28150E",
"-  c #221A16",
";  c #2A1E15",
":  c #201A18",
">  c #3C1E14",
",  c #2D221A",
"<  c #31261E",
"1  c #1C1D21",
"2  c #1F2024",
"3  c #222226",
"4  c #2D2524",
"5  c #232428",
"6  c #2B2729",
"7  c #27282C",
"8  c #2B292B",
"9  c #322721",
"0  c #342926",
"q  c #3E2D26",
"w  c #332B2B",
"e  c #3F2F28",
"r  c #37302B",
"t  c #3D312C",
"y  c #323133",
"u  c #3B3431",
"i  c #3A3B3D",
"p  c #4C1904",
"a  c #431C0E",
"s  c #541B04",
"d  c #5B1E05",
"f  c #5F2006",
"g  c #642207",
"h  c #662408",
"j  c #69260A",
"k  c #6B2A0D",
"l  c #763615",
"z  c #412F27",
"x  c #492F27",
"c  c #43332B",
"v  c #48372F",
"b  c #49382F",
"n  c #413331",
"m  c #4A3B35",
"M  c #473D3D",
"N  c #4B3E3D",
"B  c #533830",
"V  c #603F33",
"C  c #46413E",
"Z  c #50413F",
"A  c #5E423C",
"S  c #6C473B",
"D  c #6B553C",
"F  c #71573C",
"G  c #4B4543",
"H  c #4C4845",
"J  c #4F4C4A",
"K  c #514841",
"L  c #5F4B45",
"P  c #504B49",
"I  c #5F534D",
"U  c #4F4F52",
"Y  c #535356",
"T  c #575859",
"R  c #5B5B5C",
"E  c #6B4F47",
"W  c #6A524D",
"Q  c #70534C",
"!  c #7A574E",
"~  c #7B584E",
"^  c #725A54",
"/  c #7C5E54",
"(  c #777777",
")  c #824622",
"_  c #8F562D",
"`  c #91572E",
"'  c #955F35",
"]  c #8F653D",
"[  c #976237",
"{  c #9D673A",
"}  c #9F693B",
"|  c #8B5E4F",
" . c #865D52",
".. c #846643",
"X. c #8D6B45",
"o. c #946C44",
"O. c #977147",
"+. c #997247",
"@. c #9A7349",
"#. c #8C6155",
"$. c #89695F",
"%. c #926755",
"&. c #996758",
"*. c #926A5F",
"=. c #9C6B5D",
"-. c #A77342",
";. c #A07059",
":. c #896B64",
">. c #976D61",
",. c #996E62",
"<. c #9F7366",
"1. c #967368",
"2. c #A37365",
"3. c #A6776A",
"4. c #A7796B",
"5. c #AA7B6D",
"6. c #A77E72",
"7. c #B38352",
"8. c #85807D",
"9. c #AC8175",
"0. c #A18178",
"q. c #AE867A",
"w. c #B28476",
"e. c #B58779",
"r. c #B6897C",
"t. c #B98D7F",
"y. c #848484",
"u. c #93908E",
"i. c #999897",
"p. c #A68E87",
"a. c #A88980",
"s. c #B78C80",
"d. c #BB8F82",
"f. c #BC9083",
"g. c #B99B93",
"h. c #AEA09C",
"j. c #A4A2A2",
"k. c #B1B1B1",
"l. c None",
/* pixels */
"l.l.l.l.l.l.l.l.l.l.l.l.l.l.l.l.l.l.l.l.l.l.l.l.l.l.l.l.l.l.l.l.l.l.l.l.l.l.l.l.l.l.l.l.l.l.l.l.l.l.l.l.l.l.l.l.l.l.l.l.l.l.l.l.",
"l.l.l.l.l.l.l.l.l.l.l.l.l.l.l.l.l.l.l.l.l.l.l.l.l.l.l.l.l.l.l.l.l.l.l.l.l.l.l.l.l.l.l.l.l.l.l.l.l.l.l.l.l.l.l.l.l.l.l.l.l.l.l.l.",
"l.l.l.l.l.l.l.l.l.l.l.l.l.l.l.l.l.l.l.l.l.l.l.l.l.l.l.l.l.l.l.l.l.l.l.l.l.l.l.l.l.l.l.l.l.l.l.l.l.l.l.l.l.l.l.l.l.l.l.l.l.l.l.l.",
"l.l.l.l.l.l.l.l.l.l.l.l.l.l.l.l.l.l.l.l.l.l.l.l.l.l.l.l.l.l.l.l.l.l.l.l.l.l.l.l.l.l.l.l.l.l.l.l.l.l.l.l.l.l.l.l.l.l.l.l.l.l.l.l.",
"l.l.l.l.l.l.l.l.l.l.l.l.l.l.l.l.l.l.l.l.l.l.l.l.l.l.l.l.l.          l.l.l.l.l.l.l.l.l.l.l.l.l.l.l.l.l.l.l.l.l.l.l.l.l.l.l.l.l.l.",
"l.l.l.l.l.l.l.l.l.l.l.l.l.l.l.l.l.l.l.l.l.l.l.l.l.l.l.l.          .   l.l.l.l.l.l.l.l.l.l.l.l.l.l.l.l.l.l.l.l.l.l.l.l.l.l.l.l.l.",
"l.l.l.l.l.l.l.l.l.l.l.l.l.l.l.l.l.l.l.l.l.l.l.l.l.l.l.    # B q $ B l.l.l.l.l.l.l.l.l.l.l.l.l.l.l.l.l.l.l.l.l.l.l.l.l.l.l.l.l.l.",
"l.l.l.l.l.l.l.l.l.l.l.l.l.l.l.l.l.l.l.l.l.l.l.l.l.l.l.  O ,.4.4.3.2.l.l.l.l.l.l.l.l.l.l.l.l.l.l.l.l.l.l.l.l.l.l.l.l.l.l.l.l.l.l.",
"l.l.l.l.l.l.l.l.l.l.l.l.l.l.l.l.l.l.l.l.l.l.l.l.l.l.l.  @ e.d.^ r./ l.l.l.l.l.l.l.l.l.l.l.l.l.l.l.l.l.l.l.l.l.l.l.l.l.l.l.l.l.l.",
"l.l.l.l.l.l.l.l.l.l.l.l.l.l.l.l.l.l.l.l.l.l.l.l.l.l.l.l./ 6.f.9.d.<.l.l.l.l.l.l.l.l.l.l.l.l.l.l.l.l.l.l.l.l.l.l.l.l.l.l.l.l.l.l.",
"l.l.l.l.l.l.l.l.l.l.l.l.l.l.l.l.l.l.l.l.l.l.l.l.l.l.l.l.,.0 1.:.E A n l.l.l.l.l.l.l.l.l.l.l.l.l.l.l.l.l.l.l.l.l.l.l.l.l.l.l.l.l.",
"l.l.l.l.l.l.l.l.l.l.l.l.l.l.l.l.l.l.l.l.l.l.l.l.l.l.l.l.l.  - O     X p l.l.l.l.l.l.l.l.l.l.l.l.l.l.l.l.l.l.l.l.l.l.l.l.l.l.l.l.",
"l.l.l.l.l.l.l.l.l.l.l.l.l.l.l.l.l.l.l.l.l.l.l.l.l.l.l.l.l.X         . p l.l.l.l.l.l.l.l.l.l.l.l.l.l.l.l.l.l.l.l.l.l.l.l.l.l.l.l.",
"l.l.l.l.l.l.l.l.l.l.l.l.l.l.l.l.l.l.l.l.l.l.l.l.l.l.l.l.> 3 w O     & g l.l.l.l.l.l.l.l.l.l.l.l.l.l.l.l.l.l.l.l.l.l.l.l.l.l.l.l.",
"l.l.l.l.l.l.l.l.l.l.l.l.l.l.l.l.l.l.l.l.l.l.l.l.l.l.g s s a c W L = p g g l.l.l.l.l.l.l.l.l.l.l.l.l.l.l.l.l.l.l.l.l.l.l.l.l.l.l.",
"l.l.l.l.l.l.l.l.l.l.l.l.l.l.l.l.l.l.l.l.l.l.l.-.k g g g d s a m | s d g g g l.l.l.l.l.l.l.l.l.l.l.l.l.l.l.l.l.l.l.l.l.l.l.l.l.l.",
"l.l.l.l.l.l.l.l.l.l.l.l.l.l.l.l.l.l.l.l.l.l.l.X.{ k g g g d s s s d h g g j ) l.l.l.l.l.l.l.l.l.l.l.l.l.l.l.l.l.l.l.l.l.l.l.l.l.",
"l.l.l.l.l.l.l.l.l.l.l.l.l.l.l.l.l.l.l.l.l.l.l.6 ..} k g g g g d s d g g h ` 7.l.l.l.l.l.l.l.l.l.l.l.l.l.l.l.l.l.l.l.l.l.l.l.l.l.",
"l.l.l.l.l.l.l.l.l.l.l.l.l.l.l.l.l.l.l.l.l.l.M 2 7 ..} l h g g g f g g h ` 7.;.l.l.l.l.l.l.l.l.l.l.l.l.l.l.l.l.l.l.l.l.l.l.l.l.l.",
"l.l.l.l.l.l.l.l.l.l.l.l.l.l.l.l.l.l.l.l.l.l.W 3 5 6 F O.` g g g g g g ` +.%.4.l.l.l.l.l.l.l.l.l.l.l.l.l.l.l.l.l.l.l.l.l.l.l.l.l.",
"l.l.l.l.l.l.l.l.l.l.l.l.l.l.l.l.l.l.l.l.l.d.6.6 2 5 1 u +.[ ' l j j ` @.w ! t.l.l.l.l.l.l.l.l.l.l.l.l.l.l.l.l.l.l.l.l.l.l.l.l.l.",
"l.l.l.l.l.l.l.l.l.l.l.l.l.l.l.l.l.l.l.l.l.d.t.E 1 2 5 2 w r D o.] ] o.w 1 ~ t.l.l.l.l.l.l.l.l.l.l.l.l.l.l.l.l.l.l.l.l.l.l.l.l.l.",
"l.l.l.l.l.l.l.l.l.l.l.l.l.l.l.l.l.l.l.l.l.d.d.*.w 1 5 5 3 3 3 3 3 3 5 5 3 ! d.d.l.l.l.l.l.l.l.l.l.l.l.l.l.l.l.l.l.l.l.l.l.l.l.l.",
"l.l.l.l.l.l.l.l.l.l.l.l.l.l.l.l.l.l.l.l.d.d.d.r.A 1 5 5 5 5 5 5 5 5 5 5 1 ! d.d.l.l.l.l.l.l.l.l.l.l.l.l.l.l.l.l.l.l.l.l.l.l.l.l.",
"l.l.l.l.l.l.l.l.l.l.l.l.l.l.l.l.l.l.l.l.d.d.f.w.#.w 1 5 5 5 5 5 5 5 5 3 % ! e.f.d.l.l.l.l.l.l.l.l.l.l.l.l.l.l.l.l.l.l.l.l.l.l.l.",
"l.l.l.l.l.l.l.l.l.l.l.l.l.l.l.l.l.l.l.l.d.d.s.,.&.% 1 5 5 5 5 5 5 5 5 3 w  .2.d.d.l.l.l.l.l.l.l.l.l.l.l.l.l.l.l.l.l.l.l.l.l.l.l.",
"l.l.l.l.l.l.l.l.l.l.l.l.l.l.l.l.l.l.l.l.f.d.5.=.l.1 1 5 5 5 5 5 5 5 5 3 n ;.=.w.e.l.l.l.l.l.l.l.l.l.l.l.l.l.l.l.l.l.l.l.l.l.l.l.",
"l.l.l.l.l.l.l.l.l.l.l.l.l.l.l.l.l.l.l.l.d.d.2.l.l.1 1 1 5 5 5 5 5 5 5 3 l.l. .#.G 7 l.l.l.l.l.l.l.l.l.l.l.l.l.l.l.l.l.l.l.l.l.l.",
"l.l.l.l.l.l.l.l.l.l.l.l.l.l.l.l.l.l.l.:.d.d.2.l.l.l.% 2 5 5 5 5 5 5 5 3 l.l.1 2 1 5 l.l.l.l.l.l.l.l.l.l.l.l.l.l.l.l.l.l.l.l.l.l.",
"l.l.l.l.l.l.l.l.l.l.l.l.l.l.l.l.l.l.l.7 ^ r.2.l.l.l.1 1 3 5 5 5 5 5 5 3 l.l.1 1 1 3 5 l.l.l.l.l.l.l.l.l.l.l.l.l.l.l.l.l.l.l.l.l.",
"l.l.l.l.l.l.l.l.l.l.l.l.l.l.l.l.l.l.l.5 7 y w l.l.l.1 1 2 5 5 5 5 5 3 5 l.l.l.1 1 3 7 l.l.l.l.l.l.l.l.l.l.l.l.l.l.l.l.l.l.l.l.l.",
"l.l.l.l.l.l.l.l.l.l.l.l.l.l.l.l.l.l.l.l.2 1 1 l.l.l.% 1 1 5 5 5 7 i i y - l.l.1 1 1 5 l.l.l.l.l.l.l.l.l.l.l.l.l.l.l.l.l.l.l.l.l.",
"l.l.l.l.l.l.l.l.l.l.l.l.l.l.l.l.l.l.l.l.5 3 1 l.l.l.1 % 2 5 5 $ w H u G + l.l.l.1 1 l.l.l.l.l.l.l.l.l.l.l.l.l.l.l.l.l.l.l.l.l.l.",
"l.l.l.l.l.l.l.l.l.l.l.l.l.l.l.l.l.l.l.l.5 3 1 l.l.+ % % # # * + < u # G + l.l.l.1 1 5 l.l.l.l.l.l.l.l.l.l.l.l.l.l.l.l.l.l.l.l.l.",
"l.l.l.l.l.l.l.l.l.l.l.l.l.l.l.l.l.l.l.l.l.5 1 l.l.+ + + + + + o 9 u * C # l.l.l.l.1 2 l.l.l.l.l.l.l.l.l.l.l.l.l.l.l.l.l.l.l.l.l.",
"l.l.l.l.l.l.l.l.l.l.l.l.l.l.l.l.l.l.l.l.5 5 3 1 l.+ + + + + + o , J C H % l.l.l.l.Q G 2 l.l.l.l.l.l.l.l.l.l.l.l.l.l.l.l.l.l.l.l.",
"l.l.l.l.l.l.l.l.l.l.l.l.l.l.l.l.l.l.l.l.5 5 2 8 l.* ; o & + + + + 3 7 7 3 l.l.l.&.3.q.M l.l.l.l.l.l.l.l.l.l.l.l.l.l.l.l.l.l.l.l.",
"l.l.l.l.l.l.l.l.l.l.l.l.l.l.l.l.l.l.l.l.2 % N >.l., 8.K K K J U U Y T T T T l.p.0.0.g.h.l.l.l.l.l.l.l.l.l.l.l.l.l.l.l.l.l.l.l.l.",
"l.l.l.l.l.l.l.l.l.l.l.l.l.l.l.l.l.l.l.# % Z q.e.S ; j.k.k.k.k.k.k.k.k.k.k.k.k.k.k.k.k.k.k.k.k.k.k.k.k.l.l.l.l.l.l.l.l.l.l.l.l.l.",
"l.l.l.l.l.l.l.l.l.l.l.l.l.l.l.l.l.l.l.o z 9.r.;.A , i.y.y.y.y.y.y.y.y.y.y.y.y.y.y.y.8.y.y.y.y.y.y.y.y.l.l.l.l.l.l.l.l.l.l.l.l.l.",
"l.l.l.l.l.l.l.l.l.l.l.l.l.l.l.l.l.l.l.l.l.=.=.=.l.m u.R T T T T T T T T T R ( ( ( ( ( ( ( ( ( ( ( ( l.l.l.l.l.l.l.l.l.l.l.l.l.l.",
"l.l.l.l.l.l.l.l.l.l.l.l.l.l.l.l.l.l.l.l.l.l.l.l.l.m W 3 % 3 2 2 3 3 2 1 2 3 l.l.l.l.l.l.l.l.l.l.l.l.l.l.l.l.l.l.l.l.l.l.l.l.l.l.",
"l.l.l.l.l.l.l.l.l.l.l.l.l.l.l.l.l.l.l.l.l.l.l.l.v v c 4 % 5 5 5 5 5 7 3 5 5 5 l.l.l.l.l.l.l.l.l.l.l.l.l.l.l.l.l.l.l.l.l.l.l.l.l.",
"l.l.l.l.l.l.l.l.l.l.l.l.l.l.l.l.l.l.l.l.l.l.l.l.v v c q 3 1 5 5 5 5 5 3 5 5 5 l.l.l.l.l.l.l.l.l.l.l.l.l.l.l.l.l.l.l.l.l.l.l.l.l.",
"l.l.l.l.l.l.l.l.l.l.l.l.l.l.l.l.l.l.l.l.l.l.l.l.v v v c 3 1 5 5 5 5 5 5 5 5 5 5 l.l.l.l.l.l.l.l.l.l.l.l.l.l.l.l.l.l.l.l.l.l.l.l.",
"l.l.l.l.l.l.l.l.l.l.l.l.l.l.l.l.l.l.l.l.l.l.l.l.v v v c , % 2 5 5 5 5 5 5 5 5 5 l.l.l.l.l.l.l.l.l.l.l.l.l.l.l.l.l.l.l.l.l.l.l.l.",
"l.l.l.l.l.l.l.l.l.l.l.l.l.l.l.l.l.l.l.l.l.l.l.l.v v v c 4 1 1 3 5 5 5 5 5 5 5 5 l.l.l.l.l.l.l.l.l.l.l.l.l.l.l.l.l.l.l.l.l.l.l.l.",
"l.l.l.l.l.l.l.l.l.l.l.l.l.l.l.l.l.l.l.l.l.l.l.l.v v v c 0 1 1 1 5 5 3 2 1 2 5 5 5 l.l.l.l.l.l.l.l.l.l.l.l.l.l.l.l.l.l.l.l.l.l.l.",
"l.l.l.l.l.l.l.l.l.l.l.l.l.l.l.l.l.l.l.l.l.l.l.l.l.v v v z 0 % 1 % 3 3 : % 4 l.l.l.l.l.l.l.l.l.l.l.l.l.l.l.l.l.l.l.l.l.l.l.l.l.l.",
"l.l.l.l.l.l.l.l.l.l.l.l.l.l.l.l.l.l.l.l.l.l.l.l.v v v v c c l.l.l.q t t c c l.l.l.l.l.l.l.l.l.l.l.l.l.l.l.l.l.l.l.l.l.l.l.l.l.l.",
"l.l.l.l.l.l.l.l.l.l.l.l.l.l.l.l.l.l.l.l.l.l.l.l.v v v v v l.l.l.l.c v v v v l.l.l.l.l.l.l.l.l.l.l.l.l.l.l.l.l.l.l.l.l.l.l.l.l.l.",
"l.l.l.l.l.l.l.l.l.l.l.l.l.l.l.l.l.l.l.l.l.l.l.l.v m v v v l.l.l.l.c v v v v l.l.l.l.l.l.l.l.l.l.l.l.l.l.l.l.l.l.l.l.l.l.l.l.l.l.",
"l.l.l.l.l.l.l.l.l.l.l.l.l.l.l.l.l.l.l.l.l.l.l.l.v v v v l.l.l.l.z c v v v l.l.l.l.l.l.l.l.l.l.l.l.l.l.l.l.l.l.l.l.l.l.l.l.l.l.l.",
"l.l.l.l.l.l.l.l.l.l.l.l.l.l.l.l.l.l.l.l.l.l.l.v v v v v l.l.l.l.z v v v l.l.l.l.l.l.l.l.l.l.l.l.l.l.l.l.l.l.l.l.l.l.l.l.l.l.l.l.",
"l.l.l.l.l.l.l.l.l.l.l.l.l.l.l.l.l.l.l.l.l.l.l.v v m v b l.l.l.l.z v v v l.l.l.l.l.l.l.l.l.l.l.l.l.l.l.l.l.l.l.l.l.l.l.l.l.l.l.l.",
"l.l.l.l.l.l.l.l.l.l.l.l.l.l.l.l.l.l.l.l.l.l.l.t e t w t l.l.l.l.c v v v l.l.l.l.l.l.l.l.l.l.l.l.l.l.l.l.l.l.l.l.l.l.l.l.l.l.l.l.",
"l.l.l.l.l.l.l.l.l.l.l.l.l.l.l.l.l.l.l.l.l.l.l.5 5 5 3 1 l.l.l.l.4 w b v l.l.l.l.l.l.l.l.l.l.l.l.l.l.l.l.l.l.l.l.l.l.l.l.l.l.l.l.",
"l.l.l.l.l.l.l.l.l.l.l.l.l.l.l.l.l.l.l.l.l.l.l.l.5 5 2 1 l.l.l.l.% 6 6 3 l.l.l.l.l.l.l.l.l.l.l.l.l.l.l.l.l.l.l.l.l.l.l.l.l.l.l.l.",
"l.l.l.l.l.l.l.l.l.l.l.l.l.l.l.l.l.l.l.l.l.l.l.l.5 5 1 1 l.l.l.l.1 5 3 1 l.l.l.l.l.l.l.l.l.l.l.l.l.l.l.l.l.l.l.l.l.l.l.l.l.l.l.l.",
"l.l.l.l.l.l.l.l.l.l.l.l.l.l.l.l.l.l.l.l.l.l.l.l.5 3 1 l.l.l.l.l.2 5 1 l.l.l.l.l.l.l.l.l.l.l.l.l.l.l.l.l.l.l.l.l.l.l.l.l.l.l.l.l.",
"l.l.l.l.l.l.l.l.l.l.l.l.l.l.l.l.l.l.l.l.l.l.l.l.5 5 2 1 l.l.l.l.5 5 3 5 l.l.l.l.l.l.l.l.l.l.l.l.l.l.l.l.l.l.l.l.l.l.l.l.l.l.l.l.",
"l.l.l.l.l.l.l.l.l.l.l.l.l.l.l.l.l.l.l.l.l.l.l.l.5 5 3 1 l.l.l.l.5 5 5 3 7 l.l.l.l.l.l.l.l.l.l.l.l.l.l.l.l.l.l.l.l.l.l.l.l.l.l.l.",
"l.l.l.l.l.l.l.l.l.l.l.l.l.l.l.l.l.l.l.l.l.l.l.7 5 5 5 2 % l.l.l.2 2 2 3 5 5 l.l.l.l.l.l.l.l.l.l.l.l.l.l.l.l.l.l.l.l.l.l.l.l.l.l.",
"l.l.l.l.l.l.l.l.l.l.l.l.l.l.l.l.l.l.l.l.l.l.l.1 1 1 1 1 1 l.l.l.l.1 1 1 1 1 l.l.l.l.l.l.l.l.l.l.l.l.l.l.l.l.l.l.l.l.l.l.l.l.l.l."
};
