/* XPM */
static char *_x2b6_70zvk[] = {
/* columns rows colors chars-per-pixel */
"64 64 129 2 ",
"   c #030202",
".  c #0F0602",
"X  c #0C0807",
"o  c gray4",
"O  c #1D0E04",
"+  c #1E1006",
"@  c #1D120C",
"#  c #0E0F11",
"$  c #1D1612",
"%  c #1C1817",
"&  c #171A1E",
"*  c #1A1B1E",
"=  c #24150B",
"-  c #2D1308",
";  c #301003",
":  c #201711",
">  c #231A15",
",  c #2A1D18",
"<  c #2D221A",
"1  c #33221E",
"2  c #1C1D21",
"3  c #1F2025",
"4  c #212226",
"5  c #2B2524",
"6  c #232428",
"7  c #29272A",
"8  c #2D292B",
"9  c #352520",
"0  c #3A2721",
"q  c #342924",
"w  c #3E2E26",
"e  c #342D2B",
"r  c #3B2E2B",
"t  c #3C342E",
"y  c #322E31",
"u  c #343134",
"i  c #3C3534",
"p  c #411503",
"a  c #4D1A05",
"s  c #4A1C0A",
"d  c #541B03",
"f  c #5B1D05",
"g  c #441F12",
"h  c #642207",
"j  c #682307",
"k  c #672408",
"l  c #69270B",
"z  c #6C2A0D",
"x  c #66311D",
"c  c #7F3F1C",
"v  c #4B2F23",
"b  c #44342C",
"n  c #48372F",
"m  c #49382F",
"M  c #473735",
"N  c #403A35",
"B  c #493C32",
"V  c #433C3B",
"C  c #523B34",
"Z  c #494039",
"A  c #544534",
"S  c #53403A",
"D  c #5C433D",
"F  c #68473D",
"G  c #644F38",
"H  c #695239",
"J  c #414244",
"K  c #4C4947",
"L  c #4E4B4A",
"P  c #544340",
"I  c #5F4943",
"U  c #664D48",
"Y  c #755247",
"T  c #75564D",
"R  c #78564E",
"E  c #6A5652",
"W  c #715B56",
"Q  c #755E59",
"!  c #7C605A",
"~  c #777777",
"^  c #804420",
"/  c #874A24",
"(  c #8A4F28",
")  c #8B5029",
"_  c #90552C",
"`  c #935A30",
"'  c #996236",
"]  c #98663B",
"[  c #A06B3D",
"{  c #80574B",
"}  c #875D52",
"|  c #895E53",
" . c #8B6742",
".. c #946F47",
"X. c #967147",
"o. c #9E7549",
"O. c #8F6254",
"+. c #85675E",
"@. c #936558",
"#. c #946A5D",
"$. c #9B6A5C",
"%. c #A0774A",
"&. c #A5794D",
"*. c #9F6E60",
"=. c #947167",
"-. c #9B776C",
";. c #A37366",
":. c #A27866",
">. c #A3766A",
",. c #A97A6C",
"<. c #A27D72",
"1. c #AE7E71",
"2. c #B88960",
"3. c #A98175",
"4. c #AD8579",
"5. c #B08275",
"6. c #B28579",
"7. c #B58A7D",
"8. c #B88C7F",
"9. c #848484",
"0. c #898989",
"q. c #908E8C",
"w. c #B78C80",
"e. c #BB8F82",
"r. c #BC9083",
"t. c #A5A4A3",
"y. c #B2B2B2",
"u. c #C49689",
"i. c None",
/* pixels */
"i.i.i.i.i.i.i.i.i.i.i.i.i.i.i.i.i.i.i.i.i.i.i.i.i.i.i.i.i.i.i.i.i.i.i.i.i.i.i.i.i.i.i.i.i.i.i.i.i.i.i.i.i.i.i.i.i.i.i.i.i.i.i.i.",
"i.i.i.i.i.i.i.i.i.i.i.i.i.i.i.i.i.i.i.i.i.i.i.i.i.i.i.i.i.i.i.i.i.i.i.i.i.i.i.i.i.i.i.i.i.i.i.i.i.i.i.i.i.i.i.i.i.i.i.i.i.i.i.i.",
"i.i.i.i.i.i.i.i.i.i.i.i.i.i.i.i.i.i.i.i.i.i.i.i.i.i.i.i.i.i.i.i.i.i.i.i.i.i.i.i.i.i.i.i.i.i.i.i.i.i.i.i.i.i.i.i.i.i.i.i.i.i.i.i.",
"i.i.i.i.i.i.i.i.i.i.i.i.i.i.i.i.i.i.i.i.i.i.i.i.i.i.i.i.i.i.i.i.i.i.i.i.i.i.i.i.i.i.i.i.i.i.i.i.i.i.i.i.i.i.i.i.i.i.i.i.i.i.i.i.",
"i.i.i.i.i.i.i.i.i.i.i.i.i.i.i.i.i.i.i.i.i.i.i.i.i.i.i.i.i.i.i.i.i.            i.i.i.i.i.i.i.i.i.i.i.i.i.i.i.i.i.i.i.i.i.i.i.i.i.",
"i.i.i.i.i.i.i.i.i.i.i.i.i.i.i.i.i.i.i.i.i.i.i.i.i.i.i.i.i.i.i.i.      X     X   i.i.i.i.i.i.i.i.i.i.i.i.i.i.i.i.i.i.i.i.i.i.i.i.",
"i.i.i.i.i.i.i.i.i.i.i.i.i.i.i.i.i.i.i.i.i.i.i.i.i.i.i.i.i.i.i.i.  @ 0 F , 0 { i.i.i.i.i.i.i.i.i.i.i.i.i.i.i.i.i.i.i.i.i.i.i.i.i.",
"i.i.i.i.i.i.i.i.i.i.i.i.i.i.i.i.i.i.i.i.i.i.i.i.i.i.i.i.i.i.i.i.  D 1.1.,.,.*.i.i.i.i.i.i.i.i.i.i.i.i.i.i.i.i.i.i.i.i.i.i.i.i.i.",
"i.i.i.i.i.i.i.i.i.i.i.i.i.i.i.i.i.i.i.i.i.i.i.i.i.i.i.i.i.i.i.i.  W u.=.+.6.b i.i.i.i.i.i.i.i.i.i.i.i.i.i.i.i.i.i.i.i.i.i.i.i.i.",
"i.i.i.i.i.i.i.i.i.i.i.i.i.i.i.i.i.i.i.i.i.i.i.i.i.i.i.i.i.i.i.i.M -.7.8.w.5.@.i.i.i.i.i.i.i.i.i.i.i.i.i.i.i.i.i.i.i.i.i.i.i.i.i.",
"i.i.i.i.i.i.i.i.i.i.i.i.i.i.i.i.i.i.i.i.i.i.i.i.i.i.i.i.i.i.i.i.i.B C -.I C b i.i.i.i.i.i.i.i.i.i.i.i.i.i.i.i.i.i.i.i.i.i.i.i.i.",
"i.i.i.i.i.i.i.i.i.i.i.i.i.i.i.i.i.i.i.i.i.i.i.i.i.i.i.i.i.i.i.i.i.@ X >       - i.i.i.i.i.i.i.i.i.i.i.i.i.i.i.i.i.i.i.i.i.i.i.i.",
"i.i.i.i.i.i.i.i.i.i.i.i.i.i.i.i.i.i.i.i.i.i.i.i.i.i.i.i.i.i.i.i.i.# o         ; i.i.i.i.i.i.i.i.i.i.i.i.i.i.i.i.i.i.i.i.i.i.i.i.",
"i.i.i.i.i.i.i.i.i.i.i.i.i.i.i.i.i.i.i.i.i.i.i.i.i.i.i.i.i.i.i.i.s 9 7 0     . a j i.i.i.i.i.i.i.i.i.i.i.i.i.i.i.i.i.i.i.i.i.i.i.",
"i.i.i.i.i.i.i.i.i.i.i.i.i.i.i.i.i.i.i.i.i.i.i.i.i.i.i.i.i.i.h f d s g P +.r p f h h i.i.i.i.i.i.i.i.i.i.i.i.i.i.i.i.i.i.i.i.i.i.",
"i.i.i.i.i.i.i.i.i.i.i.i.i.i.6 3 V Q r.i.i.i.i.i.i.i.i.i.l h h h f d a 9 Y x f h h h h i.i.i.i.i.i.i.i.i.i.i.i.i.i.i.i.i.i.i.i.i.",
"y.y.y.y.i.i.4 6 6 6 6 6 6 2 i W 4.e.w.r.w.i.r.r.w.e.e.2.` k h h k f f d d d h h h h h k i.i.i.i.i.i.i.i.i.i.i.i.i.i.i.i.i.i.i.i.",
"0.t.y.t.#.! 4 2 6 6 4 4 2 2 P e.8.w.r.r.r.r.e.w.w.w.w.:.&.` k h h h h h f d f h h h ( ] i.i.i.i.i.i.i.i.i.i.i.i.i.i.i.i.i.i.i.i.",
"~ 9.t.Z v 8.W 3 4 3 2 2 2 & M *.*.;.6.5.6.5.5.*.*.*.R 8 e X.` k h h h h h h h h k ) o.B i.i.i.i.i.i.i.i.i.i.i.i.i.i.i.i.i.i.i.i.",
"i.0.0.v @.5.8.U 4 4 i.i.i.i.i.i.i.$.$.$.$.$.$.$.$.$.} e 4 e X.' ^ h h k h h h h ) o.b y 7.i.i.i.i.i.i.i.i.i.i.i.i.i.i.i.i.i.i.i.",
"i.i.y.i.$.$.>.$.i.i.i.i.i.i.i.i.i.i.i.i.i.i.i.i.$.$.$.D 3 3 e A &./ z z h h h ) o.t 3 u 7.w.r.i.i.i.i.i.i.i.i.i.i.i.i.i.i.i.i.i.",
"i.i.i.i.i.i.i.i.i.i.i.i.i.i.i.i.i.i.i.i.i.i.i.i.i.i.i.i.8 2 6 3 m  . .] c c ) o.t 2 6 u 7.r.r.w.r.i.i.i.i.i.i.i.i.i.i.i.i.i.i.i.",
"i.i.i.i.i.i.i.i.i.i.i.i.i.i.i.i.i.i.i.i.i.i.i.i.i.i.i.i.i.2 4 6 6 3 8 G H H H N 3 6 6 y >.6.r.w.e.r.u.E i.i.i.i.i.i.i.i.i.i.i.i.",
"i.i.i.i.i.i.i.i.i.i.i.i.i.i.i.i.i.i.i.i.i.i.i.i.i.i.i.i.i.2 2 6 6 6 6 3 2 3 3 3 6 6 6 6 | *.>.7.w.r.r.<.i 6 6 i.i.i.i.i.i.i.i.i.",
"i.i.i.i.i.i.i.i.i.i.i.i.i.i.i.i.i.i.i.i.i.i.i.i.i.i.i.i.i.i.2 4 6 6 6 6 6 6 6 6 6 6 6 6 i.i.$.$.,.6.6.,.i 3 4 6 i.i.i.i.i.i.i.i.",
"i.i.i.i.i.i.i.i.i.i.i.i.i.i.i.i.i.i.i.i.i.i.i.i.i.i.i.i.i.i.2 4 6 6 6 6 6 6 6 6 6 6 6 6 i.i.i.i.$.$.$.T 5 2 2 3 4 6 i.6 i.i.i.i.",
"i.i.i.i.i.i.i.i.i.i.i.i.i.i.i.i.i.i.i.i.i.i.i.i.i.i.i.i.i.i.i.& 3 6 6 6 6 6 6 6 6 6 6 6 i.i.i.i.i.i.i.5 2 2 2 * 2 2 3 6 y i.i.i.",
"i.i.i.i.i.i.i.i.i.i.i.i.i.i.i.i.i.i.i.i.i.i.i.i.i.i.i.i.i.i.i.2 2 6 6 6 6 6 6 6 6 6 6 i.i.i.i.i.i.i.i.i.i.i.i.2 2 & e I 3.w.i.i.",
"i.i.i.i.i.i.i.i.i.i.i.i.i.i.i.i.i.i.i.i.i.i.i.i.i.i.i.i.i.i.i.2 * 3 3 6 6 6 6 6 6 6 6 i.i.i.i.i.i.i.i.i.i.i.i.i.i.I | $.1.r.w.i.",
"i.i.i.i.i.i.i.i.i.i.i.i.i.i.i.i.i.i.i.i.i.i.i.i.i.i.i.i.i.i.i.2 * * 6 6 6 6 6 6 6 6 6 i.i.i.i.i.i.i.i.i.i.i.i.i.i.i.i.i.;.6.i.i.",
"i.i.i.i.i.i.i.i.i.i.i.i.i.i.i.i.i.i.i.i.i.i.i.i.i.i.i.i.i.i.i.i.3 & 3 3 6 6 6 4 4 6 6 i.i.i.i.i.i.i.i.i.i.i.i.i.i.i.i.i.i.i.i.i.",
"i.i.i.i.i.i.i.i.i.i.i.i.i.i.i.i.i.i.i.i.i.i.i.i.i.i.i.i.i.i.i.i.2 * * 3 6 6 6 u J J 8 @ i.i.i.i.i.i.i.i.i.i.i.i.i.i.i.i.i.i.i.i.",
"i.i.i.i.i.i.i.i.i.i.i.i.i.i.i.i.i.i.i.i.i.i.i.i.i.i.i.i.i.i.i.i.* 2 * 2 6 4 @ Z t i t O i.i.i.i.i.i.i.i.i.i.i.i.i.i.i.i.i.i.i.i.",
"i.i.i.i.i.i.i.i.i.i.i.i.i.i.i.i.i.i.i.i.i.i.i.i.i.i.i.i.i.i.i.i.$ % % @ + + + i < q t + i.i.i.i.i.i.i.i.i.i.i.i.i.i.i.i.i.i.i.i.",
"i.i.i.i.i.i.i.i.i.i.i.i.i.i.i.i.i.i.i.i.i.i.i.i.i.i.i.i.i.i.i.i.+ + + + + + + i < q i @ i.i.i.i.i.i.i.i.i.i.i.i.i.i.i.i.i.i.i.i.",
"i.i.i.i.i.i.i.i.i.i.i.i.i.i.i.i.i.i.i.i.i.i.i.i.i.i.i.i.i.i.i.i.+ + + + + + + t K L i 2 6 i.i.i.i.i.i.i.i.i.i.i.i.i.i.i.i.i.i.i.",
"i.i.i.i.i.i.i.i.i.i.i.i.i.i.i.i.i.i.i.i.i.i.i.i.i.i.i.i.i.i.i.i.+ + + + + + @ : 6 6 7 6 6 6 i.i.i.i.i.i.i.i.i.i.i.i.i.i.i.i.i.i.",
"i.i.i.i.i.i.i.i.i.i.i.i.i.i.i.i.i.i.i.i.i.i.i.i.i.i.i.i.i.i.i.i.= : $ $ % 2 3 3 4 6 6 6 6 6 6 i.i.i.i.i.i.i.i.i.i.i.i.i.i.i.i.i.",
"i.i.i.i.i.i.i.i.i.i.i.i.i.i.i.i.i.i.i.i.i.i.i.i.i.i.i.i.i.i.i.i.1 q & 3 2 2 3 6 6 6 6 6 6 6 6 6 i.i.i.i.i.i.i.i.i.i.i.i.i.i.i.i.",
"i.i.i.i.i.i.i.i.i.i.i.i.i.i.i.i.i.i.i.i.i.i.i.i.i.i.i.i.i.i.i.i.N w 5 * 2 * 2 3 4 6 6 6 6 6 6 6 6 i.i.i.i.i.i.i.i.i.i.i.i.i.i.i.",
"i.i.i.i.i.i.i.i.i.i.i.i.i.i.i.i.i.i.i.i.i.i.i.i.i.i.i.i.i.i.i.i.b w w 2 2 * 2 * 4 6 6 6 6 6 6 6 6 6 i.i.i.i.i.i.i.i.i.i.i.i.i.i.",
"i.i.i.i.i.i.i.i.i.i.i.i.i.i.i.i.i.i.i.i.i.i.i.i.i.i.i.i.i.i.i.i.i.m b 5 2 2 2 2 2 4 6 6 6 6 6 6 6 6 6 i.i.i.i.i.i.i.i.i.i.i.i.i.",
"i.i.i.i.i.i.i.i.i.i.i.i.i.i.i.i.i.i.i.i.i.i.i.i.i.i.i.i.i.i.i.i.i.m w w < * 2 * 2 2 4 6 6 6 6 6 6 6 6 i.i.i.i.i.i.i.i.i.i.i.i.i.",
"i.i.i.i.i.i.i.i.i.i.i.i.i.i.i.i.i.i.i.i.i.i.i.i.i.i.i.i.i.i.i.i.i.m b w b 4 2 * 2 2 2 3 6 6 6 6 6 6 6 i.i.i.i.i.i.i.i.i.i.i.i.i.",
"i.i.i.i.i.i.i.i.i.i.i.i.i.i.i.i.i.i.i.i.i.i.i.i.i.i.i.i.i.i.i.i.i.m n w w q 3 * 2 & & 2 2 3 * 4 4 2 3 i.i.i.i.i.i.i.i.i.i.i.i.i.",
"i.i.i.i.i.i.i.i.i.i.i.i.i.i.i.i.i.i.i.i.i.i.i.i.i.i.i.i.i.i.i.i.i.m n b w w 5 2 2 2 2 2 * 3 4 w w w w i.i.i.i.i.i.i.i.i.i.i.i.i.",
"i.i.i.i.i.i.i.i.i.i.i.i.i.i.i.i.i.i.i.i.i.i.i.i.i.i.i.i.i.i.i.i.i.n n b w w i.2 2 2 & 5 5 9 w w w b B n i.i.i.i.i.i.i.i.i.i.i.i.",
"i.i.i.i.i.i.i.i.i.i.i.i.i.i.i.i.i.i.i.i.i.i.i.i.i.i.i.i.i.i.i.i.n n n n w i.i.i.i.i.i.i.i.b w w w w b n i.i.i.i.i.i.i.i.i.i.i.i.",
"i.i.i.i.i.i.i.i.i.i.i.i.i.i.i.i.i.i.i.i.i.i.i.i.i.i.i.i.i.i.i.i.n n b b w i.i.i.i.i.i.i.i.i.b w w w b b n i.i.i.i.i.i.i.i.i.i.i.",
"i.i.i.i.i.i.i.i.i.i.i.i.i.i.i.i.i.i.i.i.i.i.i.i.i.i.i.i.i.i.i.i.n n n b w i.i.i.i.i.i.i.i.i.i.w w w b b n i.i.i.i.i.i.i.i.i.i.i.",
"i.i.i.i.i.i.i.i.i.i.i.i.i.i.i.i.i.i.i.i.i.i.i.i.i.i.i.i.i.i.i.n n n n w i.i.i.i.i.i.i.i.i.i.i.i.w w w b n n i.i.i.i.i.i.i.i.i.i.",
"i.i.i.i.i.i.i.i.i.i.i.i.i.i.i.i.i.i.i.i.i.i.i.i.i.i.i.i.i.i.i.n n n b w i.i.i.i.i.i.i.i.i.i.i.i.i.w w w n n i.i.i.i.i.i.i.i.i.i.",
"i.i.i.i.i.i.i.i.i.i.i.i.i.i.i.i.i.i.i.i.i.i.i.i.i.i.i.i.i.i.n n n b w w i.i.i.i.i.i.i.i.i.i.i.i.i.i.w w b n n i.i.i.i.i.i.i.i.i.",
"i.i.i.i.i.i.i.i.i.i.i.i.i.i.i.i.i.i.i.i.i.i.i.i.i.i.i.i.i.i.M n n b w w i.i.i.i.i.i.i.i.i.i.i.i.i.i.i.b w n n i.i.i.i.i.i.i.i.i.",
"i.i.i.i.i.i.i.i.i.i.i.i.i.i.i.i.i.i.i.i.i.i.i.i.i.i.i.i.i.i.r n n w w i.i.i.i.i.i.i.i.i.i.i.i.i.i.i.i.q q w b B i.i.i.i.i.i.i.i.",
"i.i.i.i.i.i.i.i.i.i.i.i.i.i.i.i.i.i.i.i.i.i.i.i.i.i.i.i.i.i.6 e q w w i.i.i.i.i.i.i.i.i.i.i.i.i.i.i.i.2 & 2 8 e i.i.i.i.i.i.i.i.",
"i.i.i.i.i.i.i.i.i.i.i.i.i.i.i.i.i.i.i.i.i.i.i.i.i.i.i.i.i.i.6 6 4 b i.i.i.i.i.i.i.i.i.i.i.i.i.i.i.i.i.i.& 2 4 6 6 i.i.i.i.i.i.i.",
"i.i.i.i.i.i.i.i.i.i.i.i.i.i.i.i.i.i.i.i.i.i.i.i.i.i.i.i.i.6 6 2 * i.i.i.i.i.i.i.i.i.i.i.i.i.i.i.i.i.i.i.2 2 2 2 6 i.i.i.i.i.i.i.",
"i.i.i.i.i.i.i.i.i.i.i.i.i.i.i.i.i.i.i.i.i.i.i.i.i.i.i.i.i.6 4 2 * i.i.i.i.i.i.i.i.i.i.i.i.i.i.i.i.i.i.i.i.2 * 2 4 6 i.i.i.i.i.i.",
"i.i.i.i.i.i.i.i.i.i.i.i.i.i.i.i.i.i.i.i.i.i.i.i.i.i.i.i.6 6 2 2 2 i.i.i.i.i.i.i.i.i.i.i.i.i.i.i.i.i.i.i.i.i.2 2 2 3 6 6 i.i.i.i.",
"i.i.i.i.i.i.i.i.i.i.i.i.i.i.i.i.i.i.i.i.i.i.i.i.i.i.i.4 4 3 2 2 2 2 i.i.i.i.i.i.i.i.i.i.i.i.i.i.i.i.i.i.i.i.2 2 2 & 4 4 3 i.i.i.",
"i.i.i.i.i.i.i.i.i.i.i.i.i.i.i.i.i.i.i.i.i.i.i.i.i.i.i.i.2 i.& 2 i.i.i.i.i.i.i.i.i.i.i.i.i.i.i.i.i.i.i.i.i.i.2 & 2 2 i.2 i.i.i.i.",
"i.i.i.i.i.i.i.i.i.i.i.i.i.i.i.i.i.i.i.i.i.i.i.i.i.i.i.i.i.i.i.i.i.i.i.i.i.i.i.i.i.i.i.i.i.i.i.i.i.i.i.i.i.i.i.i.i.i.i.i.i.i.i.i.",
"i.i.i.i.i.i.i.i.i.i.i.i.i.i.i.i.i.i.i.i.i.i.i.i.i.i.i.i.i.i.i.i.i.i.i.i.i.i.i.i.i.i.i.i.i.i.i.i.i.i.i.i.i.i.i.i.i.i.i.i.i.i.i.i."
};
