/* XPM */
static char *si28n_xpp25[] = {
/* columns rows colors chars-per-pixel */
"64 64 138 2 ",
"   c #030201",
".  c #0A0604",
"X  c #0D0806",
"o  c #0C0A08",
"O  c #1C0D03",
"+  c #100B0A",
"@  c #1E1006",
"#  c #1D120B",
"$  c #111113",
"%  c #1E1613",
"&  c #1C1817",
"*  c #15181D",
"=  c #1A1A1E",
"-  c #2E0F03",
";  c #23160D",
":  c #25180F",
">  c #371A0F",
",  c #241914",
"<  c #201D1F",
"1  c #291F1C",
"2  c #2D221A",
"3  c #31251D",
"4  c #1C1D21",
"5  c #211F22",
"6  c #1F2024",
"7  c #222225",
"8  c #2B2524",
"9  c #232428",
"0  c #2B292A",
"q  c #312721",
"w  c #3A2722",
"e  c #332924",
"r  c #3D2C25",
"t  c #322B2B",
"y  c #3D312C",
"u  c #2C2D30",
"i  c #343032",
"p  c #3C3432",
"a  c #3F3833",
"s  c #3B3A3A",
"d  c #4B1A06",
"f  c #441C0E",
"g  c #551B03",
"h  c #5C1E05",
"j  c #421E10",
"k  c #631F05",
"l  c #42271E",
"z  c #642107",
"x  c #682509",
"c  c #6C2A0D",
"v  c #753515",
"b  c #422A22",
"n  c #43332B",
"m  c #48372F",
"M  c #49382F",
"N  c #413331",
"B  c #4A3934",
"V  c #4A3F3F",
"C  c #5B3E35",
"Z  c #4F4031",
"A  c #46413D",
"S  c #4C413B",
"D  c #504133",
"F  c #614034",
"G  c #684538",
"H  c #7B4A38",
"J  c #69533A",
"K  c #72593D",
"L  c #7A5C3D",
"P  c #434446",
"I  c #4A4541",
"U  c #4A4847",
"Y  c #4C4A4A",
"T  c #564846",
"R  c #594846",
"E  c #674D45",
"W  c #6C4C43",
"Q  c #66524E",
"!  c #6D534C",
"~  c #77554D",
"^  c #7A574E",
"/  c #6B5753",
"(  c #7B5D54",
")  c #735D58",
"_  c #7E625A",
"`  c #746E69",
"'  c #73706F",
"]  c #737375",
"[  c #767678",
"{  c #7C7C7C",
"}  c #864924",
"|  c #925A30",
" . c #91673F",
".. c #9D673B",
"X. c #9E683B",
"o. c #846543",
"O. c #9E6F42",
"+. c #876052",
"@. c #8E6155",
"#. c #8F675C",
"$. c #976759",
"%. c #996758",
"&. c #92685C",
"*. c #9B6A5B",
"=. c #A67444",
"-. c #AB7846",
";. c #A16D5E",
":. c #AE7F56",
">. c #8D6C62",
",. c #9F6E60",
"<. c #9F7569",
"1. c #9F7B71",
"2. c #A37466",
"3. c #A6786B",
"4. c #AA7B6E",
"5. c #A37E73",
"6. c #AD7F71",
"7. c #B48555",
"8. c #AE8173",
"9. c #AE8478",
"0. c #B38476",
"q. c #B0877B",
"w. c #B4897C",
"e. c #B98C7F",
"r. c #8D8886",
"t. c #93908E",
"y. c #979595",
"u. c #BB8F82",
"i. c #A7928C",
"p. c #BC9083",
"a. c #AB9792",
"s. c #AC9F9B",
"d. c #B6A39E",
"f. c #A3A2A1",
"g. c #ABACAC",
"h. c #B5AEAC",
"j. c #B2B2B2",
"k. c None",
/* pixels */
"k.k.k.k.k.k.k.k.k.k.k.k.k.k.k.k.k.k.k.k.k.k.k.k.k.k.k.k.k.k.k.k.k.k.k.k.k.k.k.k.k.k.k.k.k.k.k.k.k.k.k.k.k.k.k.k.k.k.k.k.k.k.k.k.",
"k.k.k.k.k.k.k.k.k.k.k.k.k.k.k.k.k.k.k.k.k.k.k.k.k.k.k.k.k.k.k.k.k.k.k.k.k.k.k.k.k.k.k.k.k.k.k.k.k.k.k.k.k.k.k.k.k.k.k.k.k.k.k.k.",
"k.k.k.k.k.k.k.k.k.k.k.k.k.k.k.k.k.k.k.k.k.k.k.k.k.k.k.k.k.k.k.k.k.k.k.k.k.k.k.k.k.k.k.k.k.k.k.k.k.k.k.k.k.k.k.k.k.k.k.k.k.k.k.k.",
"k.k.k.k.k.k.k.k.k.k.k.k.k.k.k.k.k.k.k.k.k.k.k.k.k.k.k.k.k.k.k.k.k.k.k.k.k.k.k.k.k.k.k.k.k.k.k.k.k.k.k.k.k.k.k.k.k.k.k.k.k.k.k.k.",
"k.k.k.k.k.k.k.k.k.k.k.k.k.k.k.k.k.k.k.k.k.k.k.k.k.k.k.k.k.k.k.k.k.k.k.k.k.k.k.k.k.k.k.k.k.k.k.k.k.k.k.k.k.k.k.k.k.k.k.k.k.k.k.k.",
"k.k.k.k.k.k.k.k.k.k.k.k.k.k.k.k.k.k.k.k.k.k.k.k.k.k.k.k.k.k.            k.k.k.k.k.k.k.k.k.k.k.k.k.k.k.k.k.k.k.k.k.k.k.k.k.k.k.k.",
"k.k.k.k.k.k.k.k.k.k.k.k.k.k.k.k.k.k.k.k.k.k.k.k.k.k.k.k.k.    o X   + X k.k.k.k.k.k.k.k.k.k.k.k.k.k.k.k.k.k.k.k.k.k.k.k.k.k.k.k.",
"k.k.k.k.k.k.k.k.k.k.k.k.k.k.k.k.k.k.k.k.k.k.k.k.k.k.k.k.  o w W C w W k.k.k.k.k.k.k.k.k.k.k.k.k.k.k.k.k.k.k.k.k.k.k.k.k.k.k.k.k.",
"k.k.k.k.k.k.k.k.k.k.k.k.k.k.k.k.k.k.k.k.k.k.k.k.k.k.k.k.  o 3.0.6.0.2.k.k.k.k.k.k.k.k.k.k.k.k.k.k.k.k.k.k.k.k.k.k.k.k.k.k.k.k.k.",
"k.k.k.k.k.k.k.k.k.k.k.k.k.k.k.k.k.k.k.k.k.k.k.k.k.k.k.k.  1 w.p.! w.( k.k.k.k.k.k.k.k.k.k.k.k.k.k.k.k.k.k.k.k.k.k.k.k.k.k.k.k.k.",
"k.k.k.k.k.k.k.k.k.k.k.k.k.k.k.k.k.k.k.k.k.k.k.k.k.k.k.k.k.>.>.p.u.u.2.k.k.k.k.k.k.k.k.k.k.k.k.k.k.k.k.k.k.k.k.k.k.k.k.k.k.k.k.k.",
"k.k.k.k.k.k.k.k.k.k.k.k.k.k.k.k.k.k.k.k.k.k.k.k.k.k.k.k.k.&., ( E n w 8 k.k.k.k.k.k.k.k.k.k.k.k.k.k.k.k.k.k.k.k.k.k.k.k.k.k.k.k.",
"k.k.k.k.k.k.k.k.k.k.k.k.k.k.k.k.k.k.k.k.k.k.k.k.k.k.k.k.k.k.  o       o d k.k.k.k.k.k.k.k.k.k.k.k.k.k.k.k.k.k.k.k.k.k.k.k.k.k.k.",
"k.k.k.k.k.k.k.k.k.k.k.k.k.k.k.k.k.k.k.k.k.k.k.k.k.k.k.k.k.k.$ o       X g k.k.k.k.k.k.k.k.k.k.k.k.k.k.k.k.k.k.k.k.k.k.k.k.k.k.k.",
"k.k.k.k.k.k.k.k.k.k.k.k.k.k.k.k.k.k.k.k.k.k.k.k.k.k.k.k.k.l 9 n ,     - z k.k.k.k.k.k.k.k.k.k.k.k.k.k.k.k.k.k.k.k.k.k.k.k.k.k.k.",
"k.k.k.k.k.k.k.k.k.k.k.k.k.k.k.k.k.k.k.k.k.k.k.k.k.k.z z g g d l ) _ > g z z k.k.k.k.k.k.k.k.k.k.k.k.k.k.k.k.k.k.k.k.k.k.k.k.k.k.",
"k.k.k.k.k.k.k.k.k.k.k.k.k.k.k.k.k.k.k.k.k.k.k.k.-.v z z z h g j b H g z z z z k.k.k.k.k.k.k.k.k.k.k.k.k.k.k.k.k.k.k.k.k.k.k.k.k.",
"k.k.k.k.k.k.k.k.k.k.k.k.k.k.k.k.k.k.k.k.k.k.k.k.K =.v z x z h h g g h z x z c | k.k.k.k.k.k.k.k.k.k.k.k.k.k.k.k.k.k.k.k.k.k.k.k.",
"k.k.k.k.k.k.k.k.k.k.k.k.k.k.k.k.k.k.k.k.k.k.k.0 6 J =.v z z z z k g g z z c X.7.k.k.k.k.k.k.k.k.k.k.k.k.k.k.k.k.k.k.k.k.k.k.k.k.",
"k.k.k.k.k.k.k.k.k.k.k.k.k.k.k.k.k.k.k.k.k.k.k.I 6 7 J =.} c z z z z z k c X.:.*.k.k.k.k.k.k.k.k.k.k.k.k.k.k.k.k.k.k.k.k.k.k.k.k.",
"k.k.k.k.k.k.k.k.k.k.k.k.k.k.k.k.k.k.k.k.k.k.u.( 7 9 9 Z  .X.c x z z z c X.o.+.6.k.k.k.k.k.k.k.k.k.k.k.k.k.k.k.k.k.k.k.k.k.k.k.k.",
"k.k.k.k.k.k.k.k.k.k.k.k.k.k.k.k.k.k.k.k.k.k.u.9.t 6 9 6 9 ^ O.O.} v v X.o.7 ^ u.k.k.k.k.k.k.k.k.k.k.k.k.k.k.k.k.k.k.k.k.k.k.k.k.",
"k.k.k.k.k.k.k.k.k.k.k.k.k.k.k.k.k.k.k.k.k.k.u.u.~ = 9 9 6 6 7 Z L L L K 0 4 ^ u.k.k.k.k.k.k.k.k.k.k.k.k.k.k.k.k.k.k.k.k.k.k.k.k.",
"k.k.k.k.k.k.k.k.k.k.k.k.k.k.k.k.k.k.k.k.k.k.u.u.<.a 6 9 9 9 9 6 6 4 4 5 9 5 ^ u.u.k.k.k.k.k.k.k.k.k.k.k.k.k.k.k.k.k.k.k.k.k.k.k.",
"k.k.k.k.k.k.k.k.k.k.k.k.k.k.k.k.k.k.k.k.k.u.u.p.w.E 5 7 9 9 9 9 9 9 9 9 9 4 ^ u.u.k.k.k.k.k.k.k.k.k.k.k.k.k.k.k.k.k.k.k.k.k.k.k.",
"k.k.k.k.k.k.k.k.k.k.k.k.k.k.k.k.k.k.k.k.k.u.p.u.3.*.t 4 9 9 9 9 9 9 9 9 9 4 ^ 0.p.u.k.k.k.k.k.k.k.k.k.k.k.k.k.k.k.k.k.k.k.k.k.k.",
"k.k.k.k.k.k.k.k.k.k.k.k.k.k.k.k.k.k.k.k.k.u.u.u.*.k.* 4 9 9 9 9 9 9 9 9 6 N @.2.u.p.k.k.k.k.k.k.k.k.k.k.k.k.k.k.k.k.k.k.k.k.k.k.",
"k.k.k.k.k.k.k.k.k.k.k.k.k.k.k.k.k.k.k.k.k.u.u.3.*.k.= 4 7 9 9 9 9 9 9 9 7 t ;.*.6.1.i k.k.k.k.k.k.k.k.k.k.k.k.k.k.k.k.k.k.k.k.k.",
"k.k.k.k.k.k.k.k.k.k.k.k.k.k.k.k.k.k.k.k.k.u.u.2.k.k.k.4 4 9 9 9 9 9 9 9 7 k.k.W W p 9 k.k.k.k.k.k.k.k.k.k.k.k.k.k.k.k.k.k.k.k.k.",
"k.k.k.k.k.k.k.k.k.k.k.k.k.k.k.k.k.k.k.k./ q.p.2.k.k.k.4 4 9 9 9 9 9 9 9 9 k.k.4 * 4 9 k.k.k.k.k.k.k.k.k.k.k.k.k.k.k.k.k.k.k.k.k.",
"k.k.k.k.k.k.k.k.k.k.k.k.k.k.k.k.k.k.k.k.9 T 5.&.k.k.k.4 4 7 9 9 9 9 9 9 9 k.k.k.4 4 9 9 k.k.k.k.k.k.k.k.k.k.k.k.k.k.k.k.k.k.k.k.",
"k.k.k.k.k.k.k.k.k.k.k.k.k.k.k.k.k.k.k.k.k.7 7 4 k.k.k.4 4 4 9 9 9 9 9 9 7 k.k.k.4 4 7 9 k.k.k.k.k.k.k.k.k.k.k.k.k.k.k.k.k.k.k.k.",
"k.k.k.k.k.k.k.k.k.k.k.k.k.k.k.k.k.k.k.k.k.7 4 4 k.k.k.4 4 4 9 9 7 u P P s # k.k.k.4 4 9 k.k.k.k.k.k.k.k.k.k.k.k.k.k.k.k.k.k.k.k.",
"k.k.k.k.k.k.k.k.k.k.k.k.k.k.k.k.k.k.k.k.k.9 6 4 k.k.k.4 4 = 5 7 % e A 2 I ; k.k.k.4 4 k.k.k.k.k.k.k.k.k.k.k.k.k.k.k.k.k.k.k.k.k.",
"k.k.k.k.k.k.k.k.k.k.k.k.k.k.k.k.k.k.k.k.k.9 9 4 k.k.@ & & @ # @ O q a ; I @ k.k.k.4 4 7 k.k.k.k.k.k.k.k.k.k.k.k.k.k.k.k.k.k.k.k.",
"k.k.k.k.k.k.k.k.k.k.k.k.k.k.k.k.k.k.k.k.k.k.9 4 k.k.@ @ @ @ @ @ O q a : A # k.k.k.k.4 7 k.k.k.k.k.k.k.k.k.k.k.k.k.k.k.k.k.k.k.k.",
"k.k.k.k.k.k.k.k.k.k.k.k.k.k.k.k.k.k.k.k.k.9 9 7 = k.# O O @ @ @ O 2 Y U P 4 k.k.k.*.#./ 9 k.k.k.k.k.k.k.k.k.k.k.k.k.k.k.k.k.k.k.",
"k.k.k.k.k.k.k.k.k.k.k.k.k.k.k.k.k.k.k.k.k.7 7 7 B k.; y O O O O # # = 7 7 7 k.k.k.$.2.e.R k.k.k.k.k.k.k.k.k.k.k.k.k.k.k.k.k.k.k.",
"k.k.k.k.k.k.k.k.k.k.k.k.k.k.k.k.k.k.k.k.k.7 = Q 3.*.2 t.` ` ` ' ] ] [ [ [ [ { g.s.i.a.d.h.j.j.j.j.j.j.k.k.k.k.k.k.k.k.k.k.k.k.k.",
"k.k.k.k.k.k.k.k.k.k.k.k.k.k.k.k.k.k.k.k.# < Q u.0.F : f.g.j.g.j.g.g.g.g.g.g.g.g.g.g.g.g.g.g.g.g.g.g.g.g.k.k.k.k.k.k.k.k.k.k.k.k.",
"k.k.k.k.k.k.k.k.k.k.k.k.k.k.k.k.k.k.k.k.O M 6.0.,.G 3 y.{ { { { { { { r.{ { { { { { { { { { { { { { { { k.k.k.k.k.k.k.k.k.k.k.k.",
"k.k.k.k.k.k.k.k.k.k.k.k.k.k.k.k.k.k.k.k.k.k.%.*.*.k.S r.Y P P P P P P P P P Y k.k.k.k.k.k.k.k.k.k.k.k.k.k.k.k.k.k.k.k.k.k.k.k.k.",
"k.k.k.k.k.k.k.k.k.k.k.k.k.k.k.k.k.k.k.k.k.k.k.k.k.k.m S 2 4 4 6 6 6 4 4 6 6 6 6 k.k.k.k.k.k.k.k.k.k.k.k.k.k.k.k.k.k.k.k.k.k.k.k.",
"k.k.k.k.k.k.k.k.k.k.k.k.k.k.k.k.k.k.k.k.k.k.k.k.k.m m n e 4 6 9 9 9 9 9 9 9 9 9 k.k.k.k.k.k.k.k.k.k.k.k.k.k.k.k.k.k.k.k.k.k.k.k.",
"k.k.k.k.k.k.k.k.k.k.k.k.k.k.k.k.k.k.k.k.k.k.k.k.k.M m m r 7 4 9 9 9 9 9 9 9 9 9 9 k.k.k.k.k.k.k.k.k.k.k.k.k.k.k.k.k.k.k.k.k.k.k.",
"k.k.k.k.k.k.k.k.k.k.k.k.k.k.k.k.k.k.k.k.k.k.k.k.k.m m m n 7 4 9 9 9 9 9 9 9 9 9 9 k.k.k.k.k.k.k.k.k.k.k.k.k.k.k.k.k.k.k.k.k.k.k.",
"k.k.k.k.k.k.k.k.k.k.k.k.k.k.k.k.k.k.k.k.k.k.k.k.k.m m m n 2 4 4 9 9 9 9 9 9 9 9 9 k.k.k.k.k.k.k.k.k.k.k.k.k.k.k.k.k.k.k.k.k.k.k.",
"k.k.k.k.k.k.k.k.k.k.k.k.k.k.k.k.k.k.k.k.k.k.k.k.k.m m B n 8 = 4 6 9 9 9 9 9 9 9 9 9 k.k.k.k.k.k.k.k.k.k.k.k.k.k.k.k.k.k.k.k.k.k.",
"k.k.k.k.k.k.k.k.k.k.k.k.k.k.k.k.k.k.k.k.k.k.k.k.k.m m m n r 7 4 4 7 7 7 4 4 7 7 9 9 k.k.k.k.k.k.k.k.k.k.k.k.k.k.k.k.k.k.k.k.k.k.",
"k.k.k.k.k.k.k.k.k.k.k.k.k.k.k.k.k.k.k.k.k.k.k.k.k.B m m M b r k.= < 8 7 8 7 e k.k.k.k.k.k.k.k.k.k.k.k.k.k.k.k.k.k.k.k.k.k.k.k.k.",
"k.k.k.k.k.k.k.k.k.k.k.k.k.k.k.k.k.k.k.k.k.k.k.k.k.m m m m m n k.k.k.n n n n n k.k.k.k.k.k.k.k.k.k.k.k.k.k.k.k.k.k.k.k.k.k.k.k.k.",
"k.k.k.k.k.k.k.k.k.k.k.k.k.k.k.k.k.k.k.k.k.k.k.k.k.m m m m m m k.k.k.n m m m m k.k.k.k.k.k.k.k.k.k.k.k.k.k.k.k.k.k.k.k.k.k.k.k.k.",
"k.k.k.k.k.k.k.k.k.k.k.k.k.k.k.k.k.k.k.k.k.k.k.k.k.m N m m m k.k.k.k.n M m m k.k.k.k.k.k.k.k.k.k.k.k.k.k.k.k.k.k.k.k.k.k.k.k.k.k.",
"k.k.k.k.k.k.k.k.k.k.k.k.k.k.k.k.k.k.k.k.k.k.k.k.m m M M m k.k.k.k.b m M m k.k.k.k.k.k.k.k.k.k.k.k.k.k.k.k.k.k.k.k.k.k.k.k.k.k.k.",
"k.k.k.k.k.k.k.k.k.k.k.k.k.k.k.k.k.k.k.k.k.k.k.k.m M M M M k.k.k.k.n N M m k.k.k.k.k.k.k.k.k.k.k.k.k.k.k.k.k.k.k.k.k.k.k.k.k.k.k.",
"k.k.k.k.k.k.k.k.k.k.k.k.k.k.k.k.k.k.k.k.k.k.k.k.y y y y y k.k.k.k.n M M m k.k.k.k.k.k.k.k.k.k.k.k.k.k.k.k.k.k.k.k.k.k.k.k.k.k.k.",
"k.k.k.k.k.k.k.k.k.k.k.k.k.k.k.k.k.k.k.k.k.k.k.k.9 9 9 7 4 k.k.k.k.8 y M m k.k.k.k.k.k.k.k.k.k.k.k.k.k.k.k.k.k.k.k.k.k.k.k.k.k.k.",
"k.k.k.k.k.k.k.k.k.k.k.k.k.k.k.k.k.k.k.k.k.k.k.k.k.9 9 6 4 k.k.k.k.4 9 0 7 k.k.k.k.k.k.k.k.k.k.k.k.k.k.k.k.k.k.k.k.k.k.k.k.k.k.k.",
"k.k.k.k.k.k.k.k.k.k.k.k.k.k.k.k.k.k.k.k.k.k.k.k.k.9 9 4 4 k.k.k.k.4 9 7 4 k.k.k.k.k.k.k.k.k.k.k.k.k.k.k.k.k.k.k.k.k.k.k.k.k.k.k.",
"k.k.k.k.k.k.k.k.k.k.k.k.k.k.k.k.k.k.k.k.k.k.k.k.k.9 7 4 k.k.k.k.k.4 9 4 k.k.k.k.k.k.k.k.k.k.k.k.k.k.k.k.k.k.k.k.k.k.k.k.k.k.k.k.",
"k.k.k.k.k.k.k.k.k.k.k.k.k.k.k.k.k.k.k.k.k.k.k.k.k.9 9 6 4 k.k.k.k.7 9 9 9 k.k.k.k.k.k.k.k.k.k.k.k.k.k.k.k.k.k.k.k.k.k.k.k.k.k.k.",
"k.k.k.k.k.k.k.k.k.k.k.k.k.k.k.k.k.k.k.k.k.k.k.k.k.9 9 9 4 k.k.k.k.9 9 9 9 9 k.k.k.k.k.k.k.k.k.k.k.k.k.k.k.k.k.k.k.k.k.k.k.k.k.k.",
"k.k.k.k.k.k.k.k.k.k.k.k.k.k.k.k.k.k.k.k.k.k.k.k.9 9 9 9 4 4 k.k.k.6 4 7 7 9 9 k.k.k.k.k.k.k.k.k.k.k.k.k.k.k.k.k.k.k.k.k.k.k.k.k.",
"k.k.k.k.k.k.k.k.k.k.k.k.k.k.k.k.k.k.k.k.k.k.k.k.6 4 4 4 4 4 k.k.k.k.= 4 4 5 4 k.k.k.k.k.k.k.k.k.k.k.k.k.k.k.k.k.k.k.k.k.k.k.k.k."
};
