/* XPM */
static char *eua2w_w3jn6[] = {
/* columns rows colors chars-per-pixel */
"64 64 133 2 ",
"   c #030201",
".  c #090705",
"X  c #0D0B0B",
"o  c #1D0D03",
"O  c #110C0A",
"+  c #1E1006",
"@  c #15100E",
"#  c #1D120C",
"$  c #141517",
"%  c #1D1714",
"&  c #1C1817",
"*  c #171A1E",
"=  c #1A1B1D",
"-  c #24170F",
";  c #25180F",
":  c #2B190E",
">  c #211813",
",  c #2A1E15",
"<  c #211C1C",
"1  c #281E1C",
"2  c #2E221C",
"3  c #3D261B",
"4  c #1C1D21",
"5  c #201F21",
"6  c #1F2024",
"7  c #222226",
"8  c #2B2423",
"9  c #2F2A26",
"0  c #232428",
"q  c #292629",
"w  c #2D292B",
"e  c #342520",
"r  c #392721",
"t  c #352A24",
"y  c #3E2E26",
"u  c #332D2C",
"i  c #392F2C",
"p  c #3B322D",
"a  c #352F30",
"s  c #373637",
"d  c #3E3733",
"f  c #3F3833",
"g  c #471703",
"h  c #4D1803",
"j  c #571C04",
"k  c #511E0A",
"l  c #5A210B",
"z  c #642106",
"x  c #672409",
"c  c #6B290C",
"v  c #7B3D1A",
"b  c #44342C",
"n  c #48372F",
"m  c #443736",
"M  c #4A3836",
"N  c #43393A",
"B  c #493E3D",
"V  c #5A3E35",
"C  c #7E411E",
"Z  c #46413D",
"A  c #584735",
"S  c #58423F",
"D  c #624E37",
"F  c #6B493F",
"G  c #454240",
"H  c #4D4B4B",
"J  c #5D4641",
"K  c #5E4841",
"L  c #5F4C48",
"P  c #59514B",
"I  c #654943",
"U  c #704F47",
"Y  c #7A5244",
"T  c #715048",
"R  c #7C584E",
"E  c #675350",
"W  c #6C5752",
"Q  c #745950",
"!  c #7E6057",
"~  c #7F6158",
"^  c #706E6C",
"/  c #777777",
"(  c #7A7A7A",
")  c #80431F",
"_  c #814521",
"`  c #90562D",
"'  c #864A30",
"]  c #965D32",
"[  c #976034",
"{  c #996337",
"}  c #91663E",
"|  c #9F683A",
" . c #845C52",
".. c #816241",
"X. c #8E6947",
"o. c #9C6E42",
"O. c #977147",
"+. c #987248",
"@. c #836056",
"#. c #8D6457",
"$. c #926457",
"%. c #966659",
"&. c #9A695B",
"*. c #A07447",
"=. c #A57849",
"-. c #866962",
";. c #8A6C64",
":. c #906F66",
">. c #9F6F61",
",. c #9E7366",
"<. c #9A756A",
"1. c #A37567",
"2. c #A67669",
"3. c #A97A6D",
"4. c #AC7E71",
"5. c #AF8163",
"6. c #A78176",
"7. c #B18376",
"8. c #B48779",
"9. c #B5897C",
"0. c #B98C7F",
"q. c #838383",
"w. c #8B8B8A",
"e. c #959595",
"r. c #9C9C9C",
"t. c #BA8E81",
"y. c #BE9184",
"u. c #A4A4A4",
"i. c #ADADAD",
"p. c #B2B2B2",
"a. c #C19386",
"s. c #C39588",
"d. c None",
/* pixels */
"d.d.d.d.d.d.d.d.d.d.d.d.d.d.d.d.d.d.d.d.d.d.d.d.d.d.d.d.d.d.d.d.d.d.d.d.d.d.d.d.d.d.d.d.d.d.d.d.d.d.d.d.d.d.d.d.d.d.d.d.d.d.d.d.",
"d.d.d.d.d.d.d.d.d.d.d.d.d.d.d.d.d.d.d.d.d.d.d.d.d.d.d.d.d.d.d.d.d.d.d.d.d.d.d.d.d.d.d.d.d.d.d.d.d.d.d.d.d.d.d.d.d.d.d.d.d.d.d.d.",
"d.d.d.d.d.d.d.d.d.d.d.d.d.d.d.d.d.d.d.d.d.d.d.d.d.d.d.d.d.d.d.d.d.d.d.d.d.d.d.d.d.d.d.d.d.d.d.d.d.d.d.d.d.d.d.d.d.d.d.d.d.d.d.d.",
"d.d.d.d.d.d.d.d.d.d.d.d.d.d.d.d.d.d.d.d.d.d.d.d.d.d.d.d.d.d.d.d.d.d.d.d.d.d.d.d.d.d.d.d.d.d.d.d.d.d.d.d.d.d.d.d.d.d.d.d.d.d.d.d.",
"d.d.d.d.d.d.d.d.d.d.d.d.d.d.d.d.d.d.d.d.d.d.d.d.d.d.d.d.d.d.d.d.d.d.d.d.d.d.d.d.d.d.d.d.d.d.d.d.d.d.d.d.d.d.d.d.d.d.d.d.d.d.d.d.",
"d.d.d.d.d.d.d.d.d.d.d.d.d.d.d.d.d.d.d.d.d.d.d.d.d.d.d.d.d.d.d.d.d.d.d.d.d.d.d.d.d.d.d.d.d.d.d.d.d.d.d.d.d.d.d.d.d.d.d.d.d.d.d.d.",
"d.d.d.d.d.d.d.d.d.d.d.d.d.d.d.d.d.d.d.d.d.d.d.d.d.d.d.d.d.d.d.d.d.d.d.d.d.d.d.d.d.d.d.d.d.d.d.d.d.d.d.d.d.d.d.d.d.d.d.d.d.d.d.d.",
"d.d.d.d.d.d.d.d.d.d.d.d.d.d.d.d.d.d.d.d.d.d.d.d.d.d.d.d.d.d.d.d.d.d.d.d.d.d.d.d.d.d.d.d.d.d.d.d.d.d.d.d.d.d.d.d.d.d.d.d.d.q.d.d.",
"d.d.d.d.d.d.d.d.d.d.d.d.d.d.d.d.d.d.d.d.d.d.d.d.d.d.d.d.d.d.d.d.d.d.d.d.d.              d.d.d.d.d.d.d.d.d.d.d.d.d.d.d.d.p.q.( d.",
"d.d.d.d.d.d.d.d.d.d.d.d.d.d.d.d.d.d.d.d.d.d.d.d.d.d.d.d.d.d.d.d.d.d.d.d.    . O   . O d.d.d.d.d.d.d.d.d.d.d.d.d.d.d.d.p.r./ ( d.",
"d.d.d.d.d.d.d.d.d.d.d.d.d.d.d.d.d.d.d.d.d.d.d.d.d.d.d.d.d.d.d.d.d.d.d.d.  2 V F r V %.d.d.d.d.d.d.d.d.d.d.d.d.d.d.d.p.i.w./ d.d.",
"d.d.d.d.d.d.d.d.d.d.d.d.d.d.d.d.d.d.d.d.d.d.d.d.d.d.d.d.d.d.d.d.d.d.d.d.  @.8.6.7.3.%.d.d.d.d.d.d.d.d.d.d.d.d.d.d.d.i.w./ d.d.d.",
"d.d.d.d.d.d.d.d.d.d.d.d.d.d.d.d.d.d.d.d.d.d.d.d.d.d.d.d.d.d.d.d.d.d.d.d.@ <.s.~ <.<.e d.d.d.d.d.d.d.d.d.d.d.d.d.d.p.u.( d.d.d.d.",
"d.d.d.d.d.d.d.d.d.d.d.d.d.d.d.d.d.d.d.d.d.d.d.d.d.d.d.d.d.d.d.d.d.d.d.d.Q ;.9.t.t.3.d.d.d.d.d.d.d.d.d.d.d.d.d.d.p.p.w.( d.d.d.d.",
"d.d.d.d.d.d.d.d.d.d.d.d.d.d.d.d.d.d.d.d.d.d.d.d.d.d.t.d.d.d.d.d.d.d.d.d.1.2 I ! b r r d.d.d.d.d.d.d.d.d.d.d.d.d.p.r.( d.d.d.d.d.",
"d.d.d.d.d.d.d.d.d.d.d.d.d.d.d.d.d.d.d.d.d.d.d.d.9.2.>.3.9.d.d.d.d.d.d.d.0 X . O       d.d.d.d.d.d.d.d.d.d.d.d.p.u.( / d.d.d.d.d.",
"d.d.d.d.d.d.d.d.d.d.d.d.d.d.d.d.d.d.d.d.d.d.d.d.1.&.&.&.&.4.7.d.d.z z j 1 $ X     .   d.d.d.d.d.d.d.d.d.d.d.d.p.e./ d.d.d.d.d.d.",
"d.d.d.d.d.d.d.d.d.d.d.d.d.d.d.d.d.d.d.d.d.d.d.4.&.&.&.&.&.&.>.5.' x x z k 8 1 o       d.d.d.d.d.d.d.d.d.d.d.p.e.( d.d.d.d.d.d.d.",
"d.d.d.d.d.d.d.d.d.d.d.d.d.d.d.d.d.d.d.d.d.d.d.>.&.&.&.&.&.&.I X.o.` x z z l k h g d.d.d.d.d.d.d.d.d.d.d.d.p.i.q./ d.d.d.d.d.d.d.",
"d.d.d.d.d.d.d.d.d.d.d.d.d.d.d.d.d.d.d.d.d.d.4.&.&.&.d.d.&.S J #.m +.] v z x z j z d.d.d.d.d.d.d.d.d.d.d.d.p.e./ d.d.d.d.d.d.d.d.",
"d.d.d.d.d.d.d.d.d.d.d.d.d.d.d.d.d.d.d.d.d.d.%.&.&.&.d.d.d.a  .,.q i A =.) z z z z z d.d.d.d.d.d.d.d.d.d.p.u.q./ d.d.d.d.d.d.d.d.",
"d.d.d.d.d.d.d.d.d.d.d.d.d.d.d.d.d.d.d.d.d.w p  .d.d.d.0 6 B 9.t.6.W 7 A [ z z z z z d.d.d.d.d.d.d.d.d.p.p.q.( d.d.d.d.d.d.d.d.d.",
"d.d.d.d.d.d.d.d.d.d.d.d.d.d.d.d.d.d.d.d.d.4 4 5 d.d.0 0 0 m 2.0.y.t.N t O.v z z x _ d.d.d.d.d.d.d.d.d.p.r.( d.d.d.d.d.d.d.d.d.d.",
"d.d.d.d.d.d.d.d.d.d.d.d.d.d.d.d.d.d.d.d.d.4 4 d.d.d.0 0 7 q T 2.9.y.-.6 D | c _ { d.d.d.d.d.d.d.d.d.p.u.( ( d.d.d.d.d.d.d.d.d.d.",
"d.d.d.d.d.d.d.d.d.d.d.d.d.d.d.d.d.d.d.d.7 = d.d.d.0 0 0 6 * 7 T 2.y.y.-.u ..} *.d.d.d.d.d.d.d.d.d.p.p.w./ d.d.d.d.d.d.d.d.d.d.d.",
"d.d.d.d.d.d.d.d.d.d.d.d.d.d.d.d.d.d.d.6.s M d.d.0 0 0 7 4 4 = 7 T 1.0.y.-.w 7 d.d.d.d.d.d.d.d.d.d.p.u.( d.d.d.d.d.d.d.d.d.d.d.d.",
"d.d.d.d.d.d.d.d.d.d.d.d.d.d.d.d.d.d.d.,.R &.d.7 0 0 0 6 4 4 4 = 7 T 2.y.y.-.q d.d.d.d.d.d.d.d.d.p.i.w.( d.d.d.d.d.d.d.d.d.d.d.d.",
"d.d.d.d.d.d.d.d.d.d.d.d.d.d.d.d.d.d.d.&.&.d.q 0 0 0 7 4 = 4 4 4 = 7 T 2.9.a.-.7 0 d.d.d.d.d.p.d.p.w./ d.d.d.d.d.d.d.d.d.d.d.d.d.",
"d.d.d.d.d.d.d.d.d.d.d.d.d.d.d.d.d.d.d.d.d.d.7 0 0 0 6 4 4 = 4 4 = 4 7 T 2.:.E 0 0 0 d.d.d.d.d.w.p.w.d.d.d.d.d.d.d.d.d.d.d.d.d.d.",
"d.d.d.d.d.d.d.d.d.d.d.d.d.d.d.d.d.d.d.d.d.0 0 0 0 6 = 4 4 4 = = 4 4 d.d.I 0 = 0 0 0 0 0 d.d.3 , P ^ d.d.d.d.d.d.d.d.d.d.d.d.d.d.",
"d.d.d.d.d.d.d.d.d.d.d.d.d.d.d.d.d.d.d.d.d.0 7 7 5 = = s H H s + d.d.d.d.d.= 4 7 0 7 0 0 i <.#.3 : d.( d.d.d.d.d.d.d.d.d.d.d.d.d.",
"d.d.d.d.d.d.d.d.d.d.d.d.d.d.d.d.d.d.d.d.< < # # + + - d 2 p i o d.d.d.d.d.d.d.= 4 4 7 0 5 W y.9.d.d.d.d.d.d.d.d.d.d.d.d.d.d.d.d.",
"d.d.d.d.d.d.d.d.d.d.d.d.d.d.d.d.d.d.d.+ + + + + + + 2 m > Z d.d.d.d.d.d.d.d.d.d.d.4 4 4 = W y.1.&.d.d.d.d.d.d.d.d.d.d.d.d.d.d.d.",
"d.d.d.d.d.d.d.d.d.d.d.d.d.d.d.d.d.d.d.+ + + o + + + 2 H G 2 d.d.d.d.d.d.d.d.d.d.d.d.d.4 4 I 2.&.d.d.d.d.d.d.d.d.d.d.d.d.d.d.d.d.",
"d.d.d.d.d.d.d.d.d.d.d.d.d.d.d.d.d.d.d.+ + + o + # # > < 7 7 p d.d.d.d.d.d.d.d.d.d.d.d.d.= % Y d.d.d.d.d.d.d.d.d.d.d.d.d.d.d.d.d.",
"d.d.d.d.d.d.d.d.d.d.d.d.d.d.d.d.d.d.d.% % % & & = = 4 = 4 7 i b d.d.d.d.d.d.d.d.d.d.d.d.o d.d.d.d.d.d.d.d.d.d.d.d.d.d.d.d.d.d.d.",
"d.d.d.d.d.d.d.d.d.d.d.d.d.d.d.d.d.d.d.t 4 4 4 4 4 6 = 4 4 0 0 w b d.d.d.d.d.d.d.d.d.d.d.d.d.d.d.d.d.d.d.d.d.d.d.d.d.d.d.d.d.d.d.",
"d.d.d.d.d.d.d.d.d.d.d.d.d.d.d.d.d.d.d.y 9 4 4 4 6 7 6 6 4 6 0 0 0 u b d.d.d.d.d.d.d.d.d.d.d.d.d.d.d.d.d.d.d.d.d.d.d.d.d.d.d.d.d.",
"d.d.d.d.d.d.d.d.d.d.d.d.d.d.d.d.d.d.d.y y 2 4 6 0 0 0 0 4 4 6 0 0 0 w m d.d.d.d.d.d.d.d.d.d.d.d.d.d.d.d.d.d.d.d.d.d.d.d.d.d.d.d.",
"d.d.d.d.d.d.d.d.d.d.d.d.d.d.d.d.d.d.d.b y y 7 6 6 0 0 0 0 6 4 7 0 0 0 u b d.d.d.d.d.d.d.d.d.d.d.d.d.d.d.d.d.d.d.d.d.d.d.d.d.d.d.",
"d.d.d.d.d.d.d.d.d.d.d.d.d.d.d.d.d.d.d.b b y i = 4 0 0 0 0 0 7 4 0 0 0 0 p n n d.d.d.d.d.d.d.d.d.d.d.d.d.d.d.d.d.d.d.d.d.d.d.d.d.",
"d.d.d.d.d.d.d.d.d.d.d.d.d.d.d.d.d.d.n n b y y 8 4 0 0 0 0 0 0 0 0 0 0 w n n n n d.d.d.d.d.d.d.d.d.d.d.d.d.d.d.d.d.d.d.d.d.d.d.d.",
"d.d.d.d.d.d.d.d.d.d.d.d.d.d.d.d.d.n n n b y b e 4 4 7 0 0 0 0 0 0 0 0 w b n n n n d.d.d.d.d.d.d.d.d.d.d.d.d.d.d.d.d.d.d.d.d.d.d.",
"d.d.d.d.d.d.d.d.d.d.d.d.d.d.d.d.d.n n n b y y y d.4 4 0 0 0 0 0 0 0 0 i y b b n n d.d.d.d.d.d.d.d.d.d.d.d.d.d.d.d.d.d.d.d.d.d.d.",
"d.d.d.d.d.d.d.d.d.d.d.d.d.d.d.d.n n b b y y y d.d.d.4 4 6 7 0 0 0 0 0 y y y y b n d.d.d.d.d.d.d.d.d.d.d.d.d.d.d.d.d.d.d.d.d.d.d.",
"d.d.d.d.d.d.d.d.d.d.d.d.d.d.d.n n n b b y y d.d.d.d.d.d.4 6 0 0 0 0 0 d.y y y b n n d.d.d.d.d.d.d.d.d.d.d.d.d.d.d.d.d.d.d.d.d.d.",
"d.d.d.d.d.d.d.d.d.d.d.d.d.d.d.n n n b y y d.d.d.d.d.d.d.d.d.0 0 0 0 d.d.d.y y y n n d.d.d.d.d.d.d.d.d.d.d.d.d.d.d.d.d.d.d.d.d.d.",
"d.d.d.d.d.d.d.d.d.d.0 0 i n n n b b y y d.d.d.d.d.d.d.d.d.d.d.0 7 0 d.d.d.y y y b n d.d.d.d.d.d.d.d.d.d.d.d.d.d.d.d.d.d.d.d.d.d.",
"d.d.d.d.d.d.d.0 0 0 0 0 u b n n b y y y d.d.d.d.d.d.d.d.d.d.d.d.d.d.d.d.d.y y y b M d.d.d.d.d.d.d.d.d.d.d.d.d.d.d.d.d.d.d.d.d.d.",
"d.d.d.0 0 0 0 0 0 0 0 7 7 t b y y y y d.d.d.d.d.d.d.d.d.d.d.d.d.d.d.d.d.d.d.t b y b n d.d.d.d.d.d.d.d.d.d.d.d.d.d.d.d.d.d.d.d.d.",
"d.d.d.0 0 0 0 6 4 6 6 4 4 t y y y y d.d.d.d.d.d.d.d.d.d.d.d.d.d.d.d.d.d.d.d.4 8 2 8 u d.d.d.d.d.d.d.d.d.d.d.d.d.d.d.d.d.d.d.d.d.",
"d.d.d.0 0 0 4 4 4 4 4 d.d.d.d.d.d.d.d.d.d.d.d.d.d.d.d.d.d.d.d.d.d.d.d.d.d.d.d.4 4 4 7 d.d.d.d.d.d.d.d.d.d.d.d.d.d.d.d.d.d.d.d.d.",
"d.d.d.0 4 4 4 = 4 d.d.d.d.d.d.d.d.d.d.d.d.d.d.d.d.d.d.d.d.d.d.d.d.d.d.d.d.d.d.4 4 4 4 d.d.0 0 d.d.d.d.d.d.d.d.d.d.d.d.d.d.d.d.d.",
"d.d.d.d.4 4 4 d.d.d.d.d.d.d.d.d.d.d.d.d.d.d.d.d.d.d.d.d.d.d.d.d.d.d.d.d.d.d.d.4 4 4 6 0 0 7 7 d.d.d.d.d.d.d.d.d.d.d.d.d.d.d.d.d.",
"d.d.d.d.4 4 4 d.d.d.d.d.d.d.d.d.d.d.d.d.d.d.d.d.d.d.d.d.d.d.d.d.d.d.d.d.d.d.d.d.4 4 4 0 7 4 d.d.d.d.d.d.d.d.d.d.d.d.d.d.d.d.d.d.",
"d.d.d.d.d.4 4 d.d.d.d.d.d.d.d.d.d.d.d.d.d.d.d.d.d.d.d.d.d.d.d.d.d.d.d.d.d.d.d.d.= 4 4 4 4 d.d.d.d.d.d.d.d.d.d.d.d.d.d.d.d.d.d.d.",
"d.d.d.d.d.4 4 d.d.d.d.d.d.d.d.d.d.d.d.d.d.d.d.d.d.d.d.d.d.d.d.d.d.d.d.d.d.d.d.d.d.4 4 4 d.d.d.d.d.d.d.d.d.d.d.d.d.d.d.d.d.d.d.d.",
"d.d.d.d.d.d.d.d.d.d.d.d.d.d.d.d.d.d.d.d.d.d.d.d.d.d.d.d.d.d.d.d.d.d.d.d.d.d.d.d.d.d.d.d.d.d.d.d.d.d.d.d.d.d.d.d.d.d.d.d.d.d.d.d.",
"d.d.d.d.d.d.d.d.d.d.d.d.d.d.d.d.d.d.d.d.d.d.d.d.d.d.d.d.d.d.d.d.d.d.d.d.d.d.d.d.d.d.d.d.d.d.d.d.d.d.d.d.d.d.d.d.d.d.d.d.d.d.d.d.",
"d.d.d.d.d.d.d.d.d.d.d.d.d.d.d.d.d.d.d.d.d.d.d.d.d.d.d.d.d.d.d.d.d.d.d.d.d.d.d.d.d.d.d.d.d.d.d.d.d.d.d.d.d.d.d.d.d.d.d.d.d.d.d.d.",
"d.d.d.d.d.d.d.d.d.d.d.d.d.d.d.d.d.d.d.d.d.d.d.d.d.d.d.d.d.d.d.d.d.d.d.d.d.d.d.d.d.d.d.d.d.d.d.d.d.d.d.d.d.d.d.d.d.d.d.d.d.d.d.d.",
"d.d.d.d.d.d.d.d.d.d.d.d.d.d.d.d.d.d.d.d.d.d.d.d.d.d.d.d.d.d.d.d.d.d.d.d.d.d.d.d.d.d.d.d.d.d.d.d.d.d.d.d.d.d.d.d.d.d.d.d.d.d.d.d.",
"d.d.d.d.d.d.d.d.d.d.d.d.d.d.d.d.d.d.d.d.d.d.d.d.d.d.d.d.d.d.d.d.d.d.d.d.d.d.d.d.d.d.d.d.d.d.d.d.d.d.d.d.d.d.d.d.d.d.d.d.d.d.d.d.",
"d.d.d.d.d.d.d.d.d.d.d.d.d.d.d.d.d.d.d.d.d.d.d.d.d.d.d.d.d.d.d.d.d.d.d.d.d.d.d.d.d.d.d.d.d.d.d.d.d.d.d.d.d.d.d.d.d.d.d.d.d.d.d.d."
};
