/* XPM */
static char *dbabl_xzw0m[] = {
/* columns rows colors chars-per-pixel */
"64 64 139 2 ",
"   c #030201",
".  c #0A0604",
"X  c #0D0806",
"o  c #0C0A08",
"O  c #1D0E04",
"+  c #100B0A",
"@  c #1E1006",
"#  c #1D130C",
"$  c #111113",
"%  c #1D1714",
"&  c #1E1817",
"*  c #16191E",
"=  c #1A1B1F",
"-  c #2E0F03",
";  c #22150C",
":  c #25180F",
">  c #371A0F",
",  c #221815",
"<  c #211D1D",
"1  c #291F1C",
"2  c #321E13",
"3  c #2D221A",
"4  c #30251E",
"5  c #3B2419",
"6  c #1C1D21",
"7  c #211F20",
"8  c #1F2024",
"9  c #222226",
"0  c #2D2524",
"q  c #2F2826",
"w  c #232428",
"e  c #2C292C",
"r  c #312720",
"t  c #3A2722",
"y  c #342A24",
"u  c #3C2B25",
"i  c #342D2D",
"p  c #3C312D",
"a  c #2C2D30",
"s  c #3D3631",
"d  c #3F3833",
"f  c #343538",
"g  c #3E3738",
"h  c #3C393B",
"j  c #4B1A06",
"k  c #441C0E",
"l  c #551B03",
"z  c #5C1E05",
"x  c #421E10",
"c  c #631F05",
"v  c #42271E",
"b  c #642107",
"n  c #672409",
"m  c #743414",
"M  c #7B3B19",
"N  c #422A22",
"B  c #4A3127",
"V  c #44342C",
"C  c #48372F",
"Z  c #49382F",
"A  c #413331",
"S  c #433A33",
"D  c #4C3A34",
"F  c #4D3C3A",
"G  c #5B3E35",
"H  c #4F4132",
"J  c #46413D",
"K  c #48433F",
"L  c #534333",
"P  c #594735",
"I  c #5A4835",
"U  c #5D443F",
"Y  c #644F38",
"T  c #7B4A38",
"R  c #6A543B",
"E  c #795B3D",
"W  c #454445",
"Q  c #4A4441",
"!  c #4A4847",
"~  c #4F4C4B",
"^  c #554745",
"/  c #534842",
"(  c #5D4D4B",
")  c #5E514B",
"_  c #674D45",
"`  c #6C4A40",
"'  c #6E524A",
"]  c #77554A",
"[  c #7A574E",
"{  c #7E594F",
"}  c #715C57",
"|  c #7B5D54",
" . c #735D58",
".. c #7E625A",
"X. c #686768",
"o. c #767676",
"O. c #814420",
"+. c #874A25",
"@. c #8C532B",
"#. c #955B31",
"$. c #966035",
"%. c #A26E3F",
"&. c #805B4E",
"*. c #977047",
"=. c #82655D",
"-. c #916559",
";. c #92685C",
":. c #9A6A5C",
">. c #A67545",
",. c #A87546",
"<. c #A5794A",
"1. c #AB7B4A",
"2. c #A06C5D",
"3. c #AB7C57",
"4. c #8D6C62",
"5. c #9C756B",
"6. c #9B786E",
"7. c #9D7A70",
"8. c #A16E60",
"9. c #A37365",
"0. c #A57668",
"q. c #A4796C",
"w. c #AA7B6D",
"e. c #AB7E71",
"r. c #AE8478",
"t. c #B28477",
"y. c #B28578",
"u. c #B4897C",
"i. c #B98C7F",
"p. c #959696",
"a. c #9E9E9E",
"s. c #BB8E81",
"d. c #BC9083",
"f. c #A1A1A1",
"g. c #AEA4A1",
"h. c #AAA9A9",
"j. c #B4ABA9",
"k. c gray70",
"l. c None",
/* pixels */
"l.l.l.l.l.l.l.l.l.l.l.l.l.l.l.l.l.l.l.l.l.l.l.l.l.l.l.l.l.l.l.l.l.l.l.l.l.l.l.l.l.l.l.l.l.l.l.l.l.l.l.l.l.l.l.l.l.l.l.l.l.l.l.l.",
"l.l.l.l.l.l.l.l.l.l.l.l.l.l.l.l.l.l.l.l.l.l.l.l.l.l.l.l.l.l.l.l.l.l.l.l.l.l.l.l.l.l.l.l.l.l.l.l.l.l.l.l.l.l.l.l.l.l.l.l.l.l.l.l.",
"l.l.l.l.l.l.l.l.l.l.l.l.l.l.l.l.l.l.l.l.l.l.l.l.l.l.l.l.l.l.l.l.l.l.l.l.l.l.l.l.l.l.l.l.l.l.l.l.l.l.l.l.l.l.l.l.l.l.l.l.l.l.l.l.",
"l.l.l.l.l.l.l.l.l.l.l.l.l.l.l.l.l.l.l.l.l.l.l.l.l.l.l.l.l.l.l.l.l.l.l.l.l.l.l.l.l.l.l.l.l.l.l.l.l.l.l.l.l.l.l.l.l.l.l.l.l.l.l.l.",
"l.l.l.l.l.l.l.l.l.l.l.l.l.l.l.l.l.l.l.l.l.l.l.l.l.l.l.l.l.l.l.l.l.l.l.l.l.l.l.l.l.l.l.l.l.l.l.l.l.l.l.l.l.l.l.l.l.l.l.l.l.l.l.l.",
"l.l.l.l.l.l.l.l.l.l.l.l.l.l.l.l.l.l.l.l.l.l.l.l.l.l.l.l.l.            l.l.l.l.l.l.l.l.l.l.l.l.l.l.l.l.l.l.l.l.l.l.l.l.l.l.l.l.l.",
"l.l.l.l.l.l.l.l.l.l.l.l.l.l.l.l.l.l.l.l.l.l.l.l.l.l.l.l.    o .   + o l.l.l.l.l.l.l.l.l.l.l.l.l.l.l.l.l.l.l.l.l.l.l.l.l.l.l.l.l.",
"l.l.l.l.l.l.l.l.l.l.l.l.l.l.l.l.l.l.l.l.l.l.l.l.l.l.l.  . u ` G t R l.l.l.l.l.l.l.l.l.l.l.l.l.l.l.l.l.l.l.l.l.l.l.l.l.l.l.l.l.l.",
"l.l.l.l.l.l.l.l.l.l.l.l.l.l.l.l.l.l.l.l.l.l.l.l.l.l.l.  + 5.r.e.t.9.l.l.l.l.l.l.l.l.l.l.l.l.l.l.l.l.l.l.l.l.l.l.l.l.l.l.l.l.l.l.",
"l.l.l.l.l.l.l.l.l.l.l.l.l.l.l.l.l.l.l.l.l.l.l.l.l.l.l.  3 u.d.' s.[ l.l.l.l.l.l.l.l.l.l.l.l.l.l.l.l.l.l.l.l.l.l.l.l.l.l.l.l.l.l.",
"l.l.l.l.l.l.l.l.l.l.l.l.l.l.l.l.l.l.l.l.l.l.l.l.l.l.l.l.4.4.d.s.s.0.l.l.l.l.l.l.l.l.l.l.l.l.l.l.l.l.l.l.l.l.l.l.l.l.l.l.l.l.l.l.",
"l.l.l.l.l.l.l.l.l.l.l.l.l.l.l.l.l.l.l.l.l.l.l.l.l.l.l.l.;.& .._ p t 0 l.l.l.l.l.l.l.l.l.l.l.l.l.l.l.l.l.l.l.l.l.l.l.l.l.l.l.l.l.",
"l.l.l.l.l.l.l.l.l.l.l.l.l.l.l.l.l.l.l.l.l.l.l.l.l.l.l.l.l.  o .     X j l.l.l.l.l.l.l.l.l.l.l.l.l.l.l.l.l.l.l.l.l.l.l.l.l.l.l.l.",
"l.l.l.l.l.l.l.l.l.l.l.l.l.l.l.l.l.l.l.l.l.l.l.l.l.l.l.l.l.$ o       . l l.l.l.l.l.l.l.l.l.l.l.l.l.l.l.l.l.l.l.l.l.l.l.l.l.l.l.l.",
"l.l.l.l.l.l.l.l.l.l.l.l.l.l.l.l.l.l.l.l.l.l.l.l.l.l.l.l.v 3 p % .   - b l.l.l.l.l.l.l.l.l.l.l.l.l.l.l.l.l.l.l.l.l.l.l.l.l.l.l.l.",
"l.l.l.l.l.l.l.l.l.l.l.l.l.l.l.l.l.l.l.l.l.l.l.l.l.b b l l j v ....2 l c b l.l.l.l.l.l.l.l.l.l.l.l.l.l.l.l.l.l.l.l.l.l.l.l.l.l.l.",
"l.l.l.l.l.l.l.l.l.l.l.l.l.l.l.l.l.l.l.l.l.l.l.@.b b b b z l k v T l b b n b l.l.l.l.l.l.l.l.l.l.l.l.l.l.l.l.l.l.l.l.l.l.l.l.l.l.",
"l.l.l.l.l.l.l.l.l.l.l.l.l.l.l.l.l.l.l.l.l.l.l.1.O.b b b b b z l l z b b b n l.l.l.l.l.l.l.l.l.l.l.l.l.l.l.l.l.l.l.l.l.l.l.l.l.l.",
"l.l.l.l.l.l.l.l.l.l.l.l.l.l.l.l.l.l.l.l.l.l.e L >.O.b b b b b b l l b b b m %.l.l.l.l.l.l.l.l.l.l.l.l.l.l.l.l.l.l.l.l.l.l.l.l.l.",
"l.l.l.l.l.l.l.l.l.l.l.l.l.l.l.l.l.l.l.l.l.l.Q 6 H %.T b b b b b n b b b m ,.3.l.l.l.l.l.l.l.l.l.l.l.l.l.l.l.l.l.l.l.l.l.l.l.l.l.",
"l.l.l.l.l.l.l.l.l.l.l.l.l.l.l.l.l.l.l.l.l.s.| w 8 H <.$.m b b b b b b m >.3.:.l.l.l.l.l.l.l.l.l.l.l.l.l.l.l.l.l.l.l.l.l.l.l.l.l.",
"l.l.l.l.l.l.l.l.l.l.l.l.l.l.l.l.l.l.l.l.l.s.r.i 8 w i R >.M m n c c m ,.R { u.l.l.l.l.l.l.l.l.l.l.l.l.l.l.l.l.l.l.l.l.l.l.l.l.l.",
"l.l.l.l.l.l.l.l.l.l.l.l.l.l.l.l.l.l.l.l.l.s.s.[ 6 8 8 w Y E *.#.+.+.>.R 6 [ s.s.l.l.l.l.l.l.l.l.l.l.l.l.l.l.l.l.l.l.l.l.l.l.l.l.",
"l.l.l.l.l.l.l.l.l.l.l.l.l.l.l.l.l.l.l.l.l.s.s.5.A 6 w w 8 6 p I P P L 9 6 [ s.d.l.l.l.l.l.l.l.l.l.l.l.l.l.l.l.l.l.l.l.l.l.l.l.l.",
"l.l.l.l.l.l.l.l.l.l.l.l.l.l.l.l.l.l.l.l.l.d.d.u._ 6 9 w w w 8 8 6 9 8 w 6 { s.l.l.l.l.l.l.l.l.l.l.l.l.l.l.l.l.l.l.l.l.l.l.l.l.l.",
"l.l.l.l.l.l.l.l.l.l.l.l.l.l.l.l.l.l.l.l.l.s.d.y.:.p 6 w w w w w w w w 9 = [ s.s.l.l.l.l.l.l.l.l.l.l.l.l.l.l.l.l.l.l.l.l.l.l.l.l.",
"l.l.l.l.l.l.l.l.l.l.l.l.l.l.l.l.l.l.l.l.l.s.s.t.:.w 6 w w w w w w w w 8 A -.i.s.l.l.l.l.l.l.l.l.l.l.l.l.l.l.l.l.l.l.l.l.l.l.l.l.",
"l.l.l.l.l.l.l.l.l.l.l.l.l.l.l.l.l.l.l.l.l.s.d.y.l.6 6 6 w w w w w 9 w 8 U 8.u.d.l.l.l.l.l.l.l.l.l.l.l.l.l.l.l.l.l.l.l.l.l.l.l.l.",
"l.l.l.l.l.l.l.l.l.l.l.l.l.l.l.l.l.l.l.l.l.s.s.q.:.l.= 9 9 w w w w w w 6 F 2.9.5.g l.l.l.l.l.l.l.l.l.l.l.l.l.l.l.l.l.l.l.l.l.l.l.",
"l.l.l.l.l.l.l.l.l.l.l.l.l.l.l.l.l.l.l.l.s.d.s.2.l.l.6 6 9 w w w w w w w l.F F p 9 l.l.l.l.l.l.l.l.l.l.l.l.l.l.l.l.l.l.l.l.l.l.l.",
"l.l.l.l.l.l.l.l.l.l.l.l.l.l.l.l.l.l.l.l.( y.s.8.l.l.6 6 9 w w w w w w w w = * = 9 w l.l.l.l.l.l.l.l.l.l.l.l.l.l.l.l.l.l.l.l.l.l.",
"l.l.l.l.l.l.l.l.l.l.l.l.l.l.l.l.l.l.l.l.w ^ =.' l.l.6 = 8 w w w w w 9 9 l.l.= = 9 w l.l.l.l.l.l.l.l.l.l.l.l.l.l.l.l.l.l.l.l.l.l.",
"l.l.l.l.l.l.l.l.l.l.l.l.l.l.l.l.l.l.l.l.w 6 = * l.l.6 6 6 w w 9 a W W h ; l.6 6 6 w l.l.l.l.l.l.l.l.l.l.l.l.l.l.l.l.l.l.l.l.l.l.",
"l.l.l.l.l.l.l.l.l.l.l.l.l.l.l.l.l.l.l.l.l.w 6 6 l.l.= 6 = < 9 % y J 4 Q @ l.l.6 6 w l.l.l.l.l.l.l.l.l.l.l.l.l.l.l.l.l.l.l.l.l.l.",
"l.l.l.l.l.l.l.l.l.l.l.l.l.l.l.l.l.l.l.l.l.w 8 6 l.@ % & @ ; @ O r s ; J @ l.l.6 6 9 l.l.l.l.l.l.l.l.l.l.l.l.l.l.l.l.l.l.l.l.l.l.",
"l.l.l.l.l.l.l.l.l.l.l.l.l.l.l.l.l.l.l.l.l.w 9 6 l.@ @ @ O @ @ O r d , K # l.l.l.6 9 l.l.l.l.l.l.l.l.l.l.l.l.l.l.l.l.l.l.l.l.l.l.",
"l.l.l.l.l.l.l.l.l.l.l.l.l.l.l.l.l.l.l.l.l.w 9 6 l.@ @ @ @ @ @ O 3 ~ ! W 8 l.l.l.i e 9 l.l.l.l.l.l.l.l.l.l.l.l.l.l.l.l.l.l.l.l.l.",
"l.l.l.l.l.l.l.l.l.l.l.l.l.l.l.l.l.l.l.l.l.w w 9 l.O O O @ @ @ % % < w w w l.l.:.:.6.g l.l.l.l.l.l.l.l.l.l.l.l.l.l.l.l.l.l.l.l.l.",
"l.l.l.l.l.l.l.l.l.l.l.l.l.l.l.l.l.l.l.l.l.w 6 i [ 2 y Q % & 6 w 9 w w w w w l.:.e.d.} l.l.l.l.l.l.l.l.l.l.l.l.l.l.l.l.l.l.l.l.l.",
"l.l.l.l.l.l.l.l.l.l.l.l.l.l.l.l.l.l.l.l.l.6 i 6.w.u W f.p.p.p.p.a.p.a.p.p.a.h.g.j.j.f.h.k.k.k.k.k.k.k.l.l.l.l.l.l.l.l.l.l.l.l.l.",
"l.l.l.l.l.l.l.l.l.l.l.l.l.l.l.l.l.l.l.@ @ i 7.d.0.5 S h.a.a.a.f.a.a.a.f.f.a.a.a.a.a.f.a.f.a.a.a.a.a.a.a.l.l.l.l.l.l.l.l.l.l.l.l.",
"l.l.l.l.l.l.l.l.l.l.l.l.l.l.l.l.l.l.l.l.l.&.w.0.:.B / p.o.o.o.o.o.o.o.o.o.o.o.o.o.o.o.o.o.o.o.o.o.o.o.o.l.l.l.l.l.l.l.l.l.l.l.l.",
"l.l.l.l.l.l.l.l.l.l.l.l.l.l.l.l.l.l.l.l.l.l.:.:.] V ) X.e f f f f f f f f f h l.l.l.l.l.l.l.l.l.l.l.l.l.l.l.l.l.l.l.l.l.l.l.l.l.",
"l.l.l.l.l.l.l.l.l.l.l.l.l.l.l.l.l.l.l.l.l.l.l.l.D C C r = 9 9 9 9 w 9 9 w 8 w l.l.l.l.l.l.l.l.l.l.l.l.l.l.l.l.l.l.l.l.l.l.l.l.l.",
"l.l.l.l.l.l.l.l.l.l.l.l.l.l.l.l.l.l.l.l.l.l.l.l.l.C C 0 6 9 w w w w w w w w w l.l.l.l.l.l.l.l.l.l.l.l.l.l.l.l.l.l.l.l.l.l.l.l.l.",
"l.l.l.l.l.l.l.l.l.l.l.l.l.l.l.l.l.l.l.l.l.l.l.l.C C C 0 6 6 w w w w w w w w w 9 l.l.l.l.l.l.l.l.l.l.l.l.l.l.l.l.l.l.l.l.l.l.l.l.",
"l.l.l.l.l.l.l.l.l.l.l.l.l.l.l.l.l.l.l.l.l.l.l.l.C C A V 7 6 w w w w w w w w w w l.l.l.l.l.l.l.l.l.l.l.l.l.l.l.l.l.l.l.l.l.l.l.l.",
"l.l.l.l.l.l.l.l.l.l.l.l.l.l.l.l.l.l.l.l.l.l.l.l.C C C V 7 6 6 w w w w w w w w w l.l.l.l.l.l.l.l.l.l.l.l.l.l.l.l.l.l.l.l.l.l.l.l.",
"l.l.l.l.l.l.l.l.l.l.l.l.l.l.l.l.l.l.l.l.l.l.l.l.C C C V 9 = 7 w w w w 9 9 9 w w l.l.l.l.l.l.l.l.l.l.l.l.l.l.l.l.l.l.l.l.l.l.l.l.",
"l.l.l.l.l.l.l.l.l.l.l.l.l.l.l.l.l.l.l.l.l.l.l.l.C C C V 7 6 6 7 9 8 9 = = 9 w l.l.l.l.l.l.l.l.l.l.l.l.l.l.l.l.l.l.l.l.l.l.l.l.l.",
"l.l.l.l.l.l.l.l.l.l.l.l.l.l.l.l.l.l.l.l.l.l.l.l.l.C C C y 0 l.l.9 0 0 0 r u l.l.l.l.l.l.l.l.l.l.l.l.l.l.l.l.l.l.l.l.l.l.l.l.l.l.",
"l.l.l.l.l.l.l.l.l.l.l.l.l.l.l.l.l.l.l.l.l.l.l.l.C C C C C C l.l.l.V V C C C l.l.l.l.l.l.l.l.l.l.l.l.l.l.l.l.l.l.l.l.l.l.l.l.l.l.",
"l.l.l.l.l.l.l.l.l.l.l.l.l.l.l.l.l.l.l.l.l.l.l.l.C C C C C C l.l.l.V C C C C l.l.l.l.l.l.l.l.l.l.l.l.l.l.l.l.l.l.l.l.l.l.l.l.l.l.",
"l.l.l.l.l.l.l.l.l.l.l.l.l.l.l.l.l.l.l.l.l.l.l.C C C C C C l.l.l.u V C C D l.l.l.l.l.l.l.l.l.l.l.l.l.l.l.l.l.l.l.l.l.l.l.l.l.l.l.",
"l.l.l.l.l.l.l.l.l.l.l.l.l.l.l.l.l.l.l.l.l.l.l.D C C C C l.l.l.l.u C C C l.l.l.l.l.l.l.l.l.l.l.l.l.l.l.l.l.l.l.l.l.l.l.l.l.l.l.l.",
"l.l.l.l.l.l.l.l.l.l.l.l.l.l.l.l.l.l.l.l.l.l.l.p p p p p l.l.l.l.V C C C l.l.l.l.l.l.l.l.l.l.l.l.l.l.l.l.l.l.l.l.l.l.l.l.l.l.l.l.",
"l.l.l.l.l.l.l.l.l.l.l.l.l.l.l.l.l.l.l.l.l.l.l.w w w 9 6 l.l.l.l.0 p C C l.l.l.l.l.l.l.l.l.l.l.l.l.l.l.l.l.l.l.l.l.l.l.l.l.l.l.l.",
"l.l.l.l.l.l.l.l.l.l.l.l.l.l.l.l.l.l.l.l.l.l.l.l.w w 9 6 l.l.l.l.= w e 0 l.l.l.l.l.l.l.l.l.l.l.l.l.l.l.l.l.l.l.l.l.l.l.l.l.l.l.l.",
"l.l.l.l.l.l.l.l.l.l.l.l.l.l.l.l.l.l.l.l.l.l.l.l.w 9 6 6 l.l.l.l.8 w 9 = l.l.l.l.l.l.l.l.l.l.l.l.l.l.l.l.l.l.l.l.l.l.l.l.l.l.l.l.",
"l.l.l.l.l.l.l.l.l.l.l.l.l.l.l.l.l.l.l.l.l.l.l.l.w 9 6 l.l.l.l.l.8 w = l.l.l.l.l.l.l.l.l.l.l.l.l.l.l.l.l.l.l.l.l.l.l.l.l.l.l.l.l.",
"l.l.l.l.l.l.l.l.l.l.l.l.l.l.l.l.l.l.l.l.l.l.l.l.w w 8 6 l.l.l.l.9 w 9 w l.l.l.l.l.l.l.l.l.l.l.l.l.l.l.l.l.l.l.l.l.l.l.l.l.l.l.l.",
"l.l.l.l.l.l.l.l.l.l.l.l.l.l.l.l.l.l.l.l.l.l.l.l.w w 9 6 l.l.l.l.w w w w w l.l.l.l.l.l.l.l.l.l.l.l.l.l.l.l.l.l.l.l.l.l.l.l.l.l.l.",
"l.l.l.l.l.l.l.l.l.l.l.l.l.l.l.l.l.l.l.l.l.l.l.w w w w 8 = l.l.l.8 8 9 8 w w l.l.l.l.l.l.l.l.l.l.l.l.l.l.l.l.l.l.l.l.l.l.l.l.l.l.",
"l.l.l.l.l.l.l.l.l.l.l.l.l.l.l.l.l.l.l.l.l.l.l.8 6 6 6 6 6 l.l.l.l.6 6 6 6 6 l.l.l.l.l.l.l.l.l.l.l.l.l.l.l.l.l.l.l.l.l.l.l.l.l.l."
};
