/* XPM */
static char *jv18y_da3qy[] = {
/* columns rows colors chars-per-pixel */
"64 64 126 2 ",
"   c #030302",
".  c #080605",
"X  c #0D0907",
"o  c #0C0908",
"O  c #1D0C04",
"+  c #140E0B",
"@  c #1E1006",
"#  c #15100E",
"$  c #1E120A",
"%  c #1D1613",
"&  c #161A1E",
"*  c #1A1B1E",
"=  c #23160D",
"-  c #2B190E",
";  c #331103",
":  c #261A14",
">  c #2A1C14",
",  c #271E1B",
"<  c #29201C",
"1  c #302118",
"2  c #161920",
"3  c #1C1D21",
"4  c #211F21",
"5  c #1F2024",
"6  c #212226",
"7  c #2C2523",
"8  c #232428",
"9  c #2C2A2C",
"0  c #322622",
"q  c #352925",
"w  c #3E2E26",
"e  c #342D2A",
"r  c #3B2E2A",
"t  c #37302B",
"y  c #3E322D",
"u  c #2F2F33",
"i  c #323134",
"p  c #3E3231",
"a  c #3F3833",
"s  c #441704",
"d  c #451806",
"f  c #411808",
"g  c #4D1C09",
"h  c #511701",
"j  c #541A03",
"k  c #5D1E05",
"l  c #631F05",
"z  c #5B2006",
"x  c #5D2109",
"c  c #642207",
"v  c #63250A",
"b  c #682B0E",
"n  c #6F3718",
"m  c #773817",
"M  c #783D1B",
"N  c #402D27",
"B  c #403027",
"V  c #43332B",
"C  c #48372F",
"Z  c #49382F",
"A  c #433534",
"S  c #413B36",
"D  c #4B3C34",
"F  c #433D38",
"G  c #4D3D3A",
"H  c #46403C",
"J  c #514232",
"K  c #54403D",
"L  c #5B433E",
"P  c #5C4B38",
"I  c #654438",
"U  c #644F3A",
"Y  c #6C4A3F",
"T  c #6A533A",
"R  c #7D5332",
"E  c #4C4A49",
"W  c #534543",
"Q  c #5D4640",
"!  c #4F4F51",
"~  c #5C5B5B",
"^  c #624942",
"/  c #6A4D46",
"(  c #614F4D",
")  c #79564C",
"_  c #6B5653",
"`  c #725B55",
"'  c #7B5E55",
"]  c #7F7471",
"[  c #7B7B7B",
"{  c #834520",
"}  c #834C26",
"|  c #8B512A",
" . c #925B31",
".. c #A06C3D",
"X. c #825A4E",
"o. c #886844",
"O. c #957047",
"+. c #967148",
"@. c #9A7349",
"#. c #8D6155",
"$. c #806259",
"%. c #926355",
"&. c #9C6B5D",
"*. c #A67545",
"=. c #A87747",
"-. c #8F6E66",
";. c #9F6E61",
":. c #927065",
">. c #95746B",
",. c #A06F61",
"<. c #A27162",
"1. c #AF7E70",
"2. c #A78074",
"3. c #AE8578",
"4. c #B38376",
"5. c #B38679",
"6. c #B5897C",
"7. c #B98C7F",
"8. c #808080",
"9. c #928885",
"0. c #929393",
"q. c #BA8E81",
"w. c #BC9083",
"e. c #AAAAAA",
"r. c #B1B2B2",
"t. c None",
/* pixels */
"t.t.t.t.t.t.t.t.t.t.t.t.t.t.t.t.t.t.t.t.t.t.t.t.t.t.t.t.t.t.t.t.t.t.t.t.t.t.t.t.t.t.t.t.t.t.t.t.t.t.t.t.t.t.t.t.t.t.t.t.t.t.t.t.",
"t.t.t.t.t.t.t.t.t.t.t.t.t.t.t.t.t.t.t.t.t.t.t.t.t.t.t.t.t.t.t.t.t.t.t.t.t.t.t.t.t.t.t.t.t.t.t.t.t.t.t.t.t.t.t.t.t.t.t.t.t.t.t.t.",
"t.t.t.t.t.t.t.t.t.t.t.t.t.t.t.t.t.t.t.t.t.t.t.t.t.t.t.t.t.t.t.t.t.t.t.t.t.t.t.t.t.t.t.t.t.t.t.t.t.t.t.t.t.t.t.t.t.t.t.t.t.t.t.t.",
"t.t.t.t.t.t.t.t.t.t.t.t.t.t.t.t.t.t.t.t.t.t.t.t.t.t.t.t.t.t.t.t.t.t.t.t.t.t.t.t.t.t.t.t.t.t.t.t.t.t.t.t.t.t.t.t.t.t.t.t.t.t.t.t.",
"t.t.t.t.t.t.t.t.t.t.t.t.t.t.t.t.t.t.t.t.t.t.t.t.t.t.t.t.t.t.t.t.t.t.t.t.t.t.t.t.t.t.t.t.t.t.t.t.t.t.t.t.t.t.t.t.t.t.t.t.t.t.t.t.",
"t.t.t.t.t.t.t.t.t.t.t.t.t.t.t.t.t.t.t.t.t.t.t.t.t.t.t.t.t.t.t.t.t.t.t.t.t.t.t.t.t.t.t.t.t.t.t.t.t.t.t.t.t.t.t.t.t.t.t.t.t.t.t.t.",
"t.t.t.t.t.t.t.t.t.t.t.t.t.t.t.t.t.t.t.t.t.t.t.t.t.t.t.t.t.t.t.t.t.t.t.t.t.t.t.t.t.t.t.t.t.t.t.t.t.t.t.t.t.t.t.t.t.t.t.t.t.t.t.t.",
"t.t.t.t.t.t.t.t.t.t.t.t.t.t.t.t.t.t.t.t.t.t.t.t.t.t.t.t.t.t.t.t.t.t.t.t.t.t.t.t.t.t.t.t.t.t.t.t.t.t.t.t.t.t.t.t.t.t.t.t.t.t.t.t.",
"t.t.t.t.t.t.t.t.t.t.t.t.t.t.t.t.t.t.t.t.t.t.t.t.t.t.t.t.t.t.t.t.t.t.t.t.t.t.t.t.t.t.t.t.t.t.t.t.t.t.t.t.t.t.t.t.t.t.t.t.t.t.t.t.",
"t.t.t.t.t.t.t.t.t.t.t.t.t.t.t.t.t.t.t.t.t.t.t.t.t.t.t.t.t.t.t.t.t.t.t.t.t.t.t.t.t.t.t.t.t.t.t.t.t.t.t.t.t.t.t.t.t.t.t.t.t.t.t.t.",
"t.t.t.t.t.t.t.t.t.t.t.t.t.t.t.t.t.t.t.t.t.t.t.t.t.t.t.t.t.t.t.t.t.t.t.t.t.t.t.t.t.t.t.t.t.t.t.t.t.t.t.t.t.t.t.t.t.t.t.t.t.t.t.t.",
"t.t.t.t.t.t.t.t.t.t.t.t.t.t.t.t.t.t.t.t.t.t.t.t.t.t.t.t.t.t.t.t.t.t.t.t.t.t.t.t.t.t.t.t.t.t.t.t.t.t.t.t.t.t.t.t.t.t.t.t.t.t.t.t.",
"t.t.t.t.t.t.t.t.t.t.t.t.t.t.t.t.t.t.t.t.t.t.t.t.t.t.t.t.t.t.t.t.t.t.t.t.t.t.t.t.t.t.t.t.      t.t.t.t.t.t.t.t.t.t.t.t.t.t.t.t.t.",
"t.t.t.t.t.t.t.t.t.t.t.t.t.t.t.t.t.t.t.t.t.t.t.t.t.t.t.t.t.t.t.t.t.t.t.t.t.t.t.t.t.t.t.  .       t.t.t.t.t.t.t.t.t.t.t.t.t.t.t.t.",
"t.t.t.t.t.t.t.t.t.t.t.t.t.t.t.t.t.t.t.t.t.t.t.t.t.t.t.t.t.t.t.t.t.t.t.t.t.t.t.t.t.t.              t.t.t.t.t.t.t.t.t.t.t.t.t.t.t.",
"t.t.t.t.t.t.t.t.t.t.t.t.t.t.t.t.t.t.t.t.t.t.t.t.t.t.t.t.t.t.t.t.t.t.t.t.t.t.t.t.t.t.#               t.t.t.t.t.t.t.t.t.t.t.t.t.t.",
"t.t.t.t.t.t.t.t.t.t.t.t.t.t.t.t.t.t.t.t.t.t.t.t.t.t.t.t.t.t.t.t.t.t.t.t.t.t.t.t.t.3.$.,   , q + =   t.t.t.t.t.t.t.t.t.t.t.t.t.t.",
"t.t.t.t.t.t.t.t.t.t.t.t.t.t.t.t.t.t.t.t.t.t.t.t.t.t.t.t.t.t.t.t.t.t.t.t.t.t.t.t.t.Q 0 :.Q 1.7.) / X t.t.t.t.t.t.t.t.t.t.t.t.t.t.",
"t.t.t.t.t.t.t.t.t.t.t.t.t.t.t.t.t.t.t.t.t.t.t.t.t.t.t.t.t.t.t.t.t.t.t.t.t.t.c c f     0 ' q.5.<.t.t.t.t.t.t.t.t.t.t.t.t.t.t.t.t.",
"t.t.t.t.t.t.t.t.t.t.t.t.t.t.t.t.t.t.t.t.t.t.t.t.t.t.t.t.t.t.t.t.t.t.t.| c c c x ,       o X.,.t.t.t.t.t.t.t.t.t.t.t.t.t.t.t.t.t.",
"t.t.t.t.t.t.t.t.t.t.t.t.t.t.t.t.t.t.t.t.t.t.t.t.t.t.t.t.t.t.t.t.t.2 J | l c k j g : X O   N ^ t.t.t.t.t.t.t.t.t.t.t.t.t.t.t.t.t.",
"t.t.t.t.t.t.t.t.t.t.t.t.t.t.t.t.t.t.t.t.t.t.t.t.t.t.t.t.t.t.t.t.8 3 D =.m l j j j g s s .   3 t.t.t.t.t.t.t.t.t.t.t.t.t.t.t.t.t.",
"t.t.t.t.t.t.t.t.t.t.t.t.t.t.t.t.t.t.t.t.t.t.t.t.t.t.t.t.t.t.t.t.8 8 8 U =.{ b h j j j j ; O t.t.t.t.t.t.t.t.t.t.t.t.t.t.t.t.t.t.",
"t.t.t.t.t.t.t.t.t.t.t.t.t.t.t.t.t.t.t.t.t.t.t.t.t.t.t.t.t.t.t.8 8 8 8 8 P T R } k j j j z v t.t.t.t.t.t.t.t.t.t.t.t.t.t.t.t.t.t.",
"t.t.t.t.t.t.t.t.t.t.t.t.t.t.t.t.t.t.t.t.t.t.t.t.t.t.t.t.t.t.G 8 8 8 8 K -._ t +. .z h h h c t.t.t.t.t.t.t.t.t.t.t.t.t.t.t.t.t.t.",
"t.t.t.t.t.t.t.t.t.t.t.t.t.t.t.t.t.t.t.t.t.t.t.t.t.t.t.t.t.G 8 8 8 8 5 / 4.6.` e O. .m M v k t.t.t.t.t.t.t.t.t.t.t.t.t.t.t.t.t.t.",
"t.t.t.t.t.t.t.t.t.t.t.t.t.t.t.t.t.t.t.t.t.t.t.t.t.t.t.t.6 8 8 8 8 8 6 A #.;.5.` t T @.o...| t.t.t.t.t.t.t.t.t.t.t.t.t.t.t.t.t.t.",
"t.t.t.t.t.t.t.t.t.t.t.t.t.t.t.t.t.t.t.t.t.t.t.t.t.t.t.3 8 8 8 8 8 8 8 5 p #.;.5.>.W e t.t.t.t.t.t.t.t.t.t.t.t.t.t.t.t.t.t.t.t.t.",
"t.t.t.t.t.t.t.t.t.t.t.t.t.t.t.t.t.t.t.t.t.t.t.t.t.t.t.3 6 8 8 8 8 8 8 8 5 p #.;.6.6.( t.t.t.t.t.t.t.t.t.t.t.t.t.t.t.t.t.t.t.t.t.",
"t.t.t.t.t.t.t.t.t.t.t.t.t.t.t.t.t.t.t.t.t.t.t.t.t.t.3 6 8 8 8 8 8 8 8 8 8 3 p #.,.6.q.t.t.t.t.t.t.t.t.t.t.t.t.t.t.t.t.t.t.t.t.t.",
"t.t.t.t.t.t.t.t.t.t.t.t.t.t.t.t.t.t.t.t.t.t.t.t.t.t./ i 8 8 8 8 8 8 8 8 8 3 & p #.;.6.5.t.t.t.t.t.t.t.t.t.t.t.t.t.t.t.t.t.t.t.t.",
"t.t.t.t.t.t.t.t.t.t.t.t.t.t.t.t.t.t.t.t.t.t.t.t.t.t.e 8 8 8 8 8 8 8 8 8 3 3 3 & D &.,.1.Q 6 8 t.t.t.t.t.t.t.t.t.t.t.t.t.t.t.t.t.",
"t.t.t.t.t.t.t.t.t.t.t.t.t.t.t.t.t.t.t.t.t.t.t.t.t.t.8 6 6 6 5 4 5 5 6 5 3 3 3 t.t.t.^ L r 5 8 8 i 6.q.t.r.t.t.t.t.t.t.t.t.t.t.t.",
"t.t.t.t.t.t.t.t.t.t.t.t.t.t.t.t.t.t.t.t.t.t.t.t.t.t.$ $ % * & & * & * & & * t.t.t.t.& & 3 3 6 8 ` 3.q.9.0.e.e.e.t.t.t.t.t.t.t.t.",
"t.t.t.t.t.t.t.t.t.t.t.t.t.t.t.t.t.t.t.t.t.t.t.t.t.t.@ @ O @ $ $ = $ % 8 i t.t.t.t.t.t.t.3 3 3 % > I &.] [ 8.>.8.8.t.t.t.t.t.t.t.",
"t.t.t.t.t.t.t.t.t.t.t.t.t.t.t.t.t.t.t.t.t.t.t.t.t.t.@ @ @ @ @ @ O @ > a F ~ t.t.t.t.t.t.t.t.3 % - %.t.t.t.[ t.t.t.t.t.t.t.t.t.t.",
"t.t.t.t.t.t.t.t.t.t.t.t.t.t.t.t.t.t.t.t.t.t.t.t.t.t.$ @ @ @ @ @ @ : a < H t.t.t.t.t.t.t.t.t.t.t.t.t.t.t.t.t.t.t.t.t.t.t.t.t.t.t.",
"t.t.t.t.t.t.t.t.t.t.t.t.t.t.t.t.t.t.t.t.t.t.t.t.t.t.1 $ $ @ @ @ @ H = e ! t.t.t.t.t.t.t.t.t.t.t.t.t.t.t.t.t.t.t.t.t.t.t.t.t.t.t.",
"t.t.t.t.t.t.t.t.t.t.t.t.t.t.t.t.t.t.t.t.t.t.t.t.t.t.y 6 & = % % % E a 9 8 t.t.t.t.t.t.t.t.t.t.t.t.t.t.t.t.t.t.t.t.t.t.t.t.t.t.t.",
"t.t.t.t.t.t.t.t.t.t.t.t.t.t.t.t.t.t.t.t.t.t.t.t.t.t.w < 3 3 3 5 8 i u 9 8 8 t.t.t.t.t.t.t.t.t.t.t.t.t.t.t.t.t.t.t.t.t.t.t.t.t.t.",
"t.t.t.t.t.t.t.t.t.t.t.t.t.t.t.t.t.t.t.t.t.t.t.t.t.t.B q 3 3 3 3 6 8 5 8 8 8 8 t.t.t.t.t.t.t.t.t.t.t.t.t.t.t.t.t.t.t.t.t.t.t.t.t.",
"t.t.t.t.t.t.t.t.t.t.t.t.t.t.t.t.t.t.t.t.t.t.t.t.t.t.C w * 3 3 3 5 8 8 8 8 8 8 8 t.t.t.t.t.t.t.t.t.t.t.t.t.t.t.t.t.t.t.t.t.t.t.t.",
"t.t.t.t.t.t.t.t.t.t.t.t.t.t.t.t.t.t.t.t.t.t.t.t.t.t.A w 6 * 3 * * 8 8 8 8 8 8 8 8 t.t.t.t.t.t.t.t.t.t.t.t.t.t.t.t.t.t.t.t.t.t.t.",
"t.t.t.t.t.t.t.t.t.t.t.t.t.t.t.t.t.t.t.t.t.t.t.t.t.Z Z B 0 & 3 3 * & 8 8 8 8 8 8 8 8 t.t.t.t.t.t.t.t.t.t.t.t.t.t.t.t.t.t.t.t.t.t.",
"t.t.t.t.t.t.t.t.t.t.t.t.t.t.t.t.t.t.t.t.t.t.t.t.t.Z C B q 3 3 3 3 3 5 8 8 8 8 8 8 8 8 t.t.t.t.t.t.t.t.t.t.t.t.t.t.t.t.t.t.t.t.t.",
"t.t.t.t.t.t.t.t.t.t.t.t.t.t.t.t.t.t.t.t.t.t.t.t.C C C B 0 3 * 3 5 * 3 3 5 5 < 6 5 6 t.t.t.t.t.t.t.t.t.t.t.t.t.t.t.t.t.t.t.t.t.t.",
"t.t.t.t.t.t.t.t.t.t.t.t.t.t.t.t.t.t.t.t.t.t.t.C C C C B q 5 & 3 & * 5 3 5 7 w q w w t.t.t.t.t.t.t.t.t.t.t.t.t.t.t.t.t.t.t.t.t.t.",
"t.t.t.t.t.t.t.t.t.t.t.t.t.t.t.t.t.t.t.t.t.t.t.C C Z B w w 7 3 3 * 3 < 7 q w w w V Z Z t.t.t.t.t.t.t.t.t.t.t.t.t.t.t.t.t.t.t.t.t.",
"t.t.t.t.t.t.t.t.t.t.t.t.t.t.t.t.t.t.t.t.t.t.t.C C C B B t.t.t.t.t.t.t.t.t.B w w N V C C t.t.t.t.t.t.t.t.t.t.t.t.t.t.t.t.t.t.t.t.",
"t.t.t.t.t.t.t.t.t.t.t.t.t.t.t.t.t.t.t.t.t.t.t.C C C B w t.t.t.t.t.t.t.t.t.t.w w w B C C t.t.t.t.t.t.t.t.t.t.t.t.t.t.t.t.t.t.t.t.",
"t.t.t.t.t.t.t.t.t.t.t.t.t.t.t.t.t.t.t.t.t.t.C C Z A B B t.t.t.t.t.t.t.t.t.t.t.w w B C C t.t.t.t.t.t.t.t.t.t.t.t.t.t.t.t.t.t.t.t.",
"t.t.t.t.t.t.t.t.t.t.t.t.t.t.t.t.t.t.t.t.t.t.C C C V w t.t.t.t.t.t.t.t.t.t.t.t.t.w w C C C t.t.t.t.t.t.t.t.t.t.t.t.t.t.t.t.t.t.t.",
"t.t.t.t.t.t.t.t.t.t.t.t.t.t.t.t.t.t.t.t.t.t.C C C N w t.t.t.t.t.t.t.t.t.t.t.t.t.N w B D C t.t.t.t.t.t.t.t.t.t.t.t.t.t.t.t.t.t.t.",
"t.t.t.t.t.t.t.t.t.t.t.t.t.t.t.t.t.t.t.t.t.C C C V w w t.t.t.t.t.t.t.t.t.t.t.t.t.t.w w V C C t.t.t.t.t.t.t.t.t.t.t.t.t.t.t.t.t.t.",
"t.t.t.t.t.t.t.t.t.t.t.t.t.t.t.t.t.t.t.t.t.C C C B w t.t.t.t.t.t.t.t.t.t.t.t.t.t.t.N w B C C t.t.t.t.t.t.t.t.t.t.t.t.t.t.t.t.t.t.",
"t.t.t.t.t.t.t.t.t.t.t.t.t.t.t.t.t.t.t.t.t.y C B N w t.t.t.t.t.t.t.t.t.t.t.t.t.t.t.t.q q r C D t.t.t.t.t.t.t.t.t.t.t.t.t.t.t.t.t.",
"t.t.t.t.t.t.t.t.t.t.t.t.t.t.t.t.t.t.t.t.8 8 e r w t.t.t.t.t.t.t.t.t.t.t.t.t.t.t.t.t.3 3 3 e e t.t.t.t.t.t.t.t.t.t.t.t.t.t.t.t.t.",
"t.t.t.t.t.t.t.t.t.t.t.t.t.t.t.t.t.t.t.t.8 8 6 7 w t.t.t.t.t.t.t.t.t.t.t.t.t.t.t.t.t.t.3 3 6 8 t.t.t.t.t.t.t.t.t.t.t.t.t.t.t.t.t.",
"t.t.t.t.t.t.t.t.t.t.t.t.t.t.t.t.t.t.t.t.8 6 3 3 t.t.t.t.t.t.t.t.t.t.t.t.t.t.t.t.t.t.t.3 3 3 3 8 t.t.t.t.t.t.t.t.t.t.t.t.t.t.t.t.",
"t.t.t.t.t.t.t.t.t.t.t.t.t.t.t.t.t.t.t.t.8 6 3 3 t.t.t.t.t.t.t.t.t.t.t.t.t.t.t.t.t.t.t.t.3 3 3 8 8 t.t.t.t.t.t.t.t.t.t.t.t.t.t.t.",
"t.t.t.t.t.t.t.t.t.t.t.t.t.t.t.t.t.t.t.8 8 3 3 3 t.t.t.t.t.t.t.t.t.t.t.t.t.t.t.t.t.t.t.t.3 3 3 3 8 8 t.t.t.t.t.t.t.t.t.t.t.t.t.t.",
"t.t.t.t.t.t.t.t.t.t.t.t.t.t.t.t.t.t.6 6 6 3 3 & 3 t.t.t.t.t.t.t.t.t.t.t.t.t.t.t.t.t.t.t.3 3 3 3 3 5 8 t.t.t.t.t.t.t.t.t.t.t.t.t.",
"t.t.t.t.t.t.t.t.t.t.t.t.t.t.t.t.t.t.t.3 t.& 3 3 t.t.t.t.t.t.t.t.t.t.t.t.t.t.t.t.t.t.t.t.t.3 3 3 3 t.3 t.t.t.t.t.t.t.t.t.t.t.t.t.",
"t.t.t.t.t.t.t.t.t.t.t.t.t.t.t.t.t.t.t.t.t.t.t.t.t.t.t.t.t.t.t.t.t.t.t.t.t.t.t.t.t.t.t.t.t.t.t.t.t.t.t.t.t.t.t.t.t.t.t.t.t.t.t.t."
};
