/* XPM */
static char *ryulh_to57k[] = {
/* columns rows colors chars-per-pixel */
"64 64 146 2 ",
"   c #030202",
".  c #0F0602",
"X  c #0B0A0B",
"o  c #1E0F05",
"O  c #140E0C",
"+  c #1E1006",
"@  c #1C120D",
"#  c #0F0F10",
"$  c #1D1512",
"%  c #1C1817",
"&  c #1A1718",
"*  c #16191E",
"=  c #1A1B1F",
"-  c #2C0F03",
";  c #211712",
":  c #201814",
">  c #291D15",
",  c #271C18",
"<  c #2A1E1A",
"1  c #331F1A",
"2  c #35231D",
"3  c #1B1C20",
"4  c #201F21",
"5  c #1F2024",
"6  c #212226",
"7  c #2A2524",
"8  c #232428",
"9  c #27282C",
"0  c #2C2A2C",
"q  c #312721",
"w  c #362A25",
"e  c #3E2E26",
"r  c #342C2B",
"t  c #392F2C",
"y  c #3C322C",
"u  c #2E2F32",
"i  c #362F30",
"p  c #323235",
"a  c #383031",
"s  c #3F3A36",
"d  c #541A04",
"f  c #591D05",
"g  c #591F08",
"h  c #631F05",
"j  c #5C2109",
"k  c #432115",
"l  c #642107",
"z  c #662408",
"x  c #6D2B0E",
"c  c #793917",
"v  c #793B19",
"b  c #442F28",
"n  c #43332B",
"m  c #48372F",
"M  c #4A3D30",
"N  c #4C3C39",
"B  c #533C34",
"V  c #533F3B",
"C  c #47423F",
"Z  c #5A4835",
"A  c #52453F",
"S  c #5C433C",
"D  c #644E38",
"F  c #63443B",
"G  c #785B3C",
"H  c #3C3D40",
"J  c #454547",
"K  c #4B4544",
"L  c #4F4C4B",
"P  c #554644",
"I  c #5E4944",
"U  c #5B5C5D",
"Y  c #634A45",
"T  c #6C4D46",
"R  c #6F4F48",
"E  c #765146",
"W  c #7A5349",
"Q  c #7E584F",
"!  c #655F5B",
"~  c #735850",
"^  c #7D5A50",
"/  c #785F5A",
"(  c #67625F",
")  c #68625F",
"_  c #7C6058",
"`  c #5E5E60",
"'  c #5F6062",
"]  c #606061",
"[  c #6B6969",
"{  c #777675",
"}  c #777779",
"|  c #7B7B7B",
" . c #80411E",
".. c #844A24",
"X. c #8D532B",
"o. c #90582F",
"O. c #955E33",
"+. c #9E6A3C",
"@. c #835A4E",
"#. c #855C52",
"$. c #895F53",
"%. c #886844",
"&. c #906C45",
"*. c #9A7449",
"=. c #816055",
"-. c #8D6155",
";. c #87675E",
":. c #88665C",
">. c #916356",
",. c #936558",
"<. c #9B6A5C",
"1. c #A77544",
"2. c #A97746",
"3. c #A37555",
"4. c #8D6B61",
"5. c #9F6E60",
"6. c #9B756A",
"7. c #9F7A6F",
"8. c #A17264",
"9. c #A57668",
"0. c #A7786A",
"q. c #A87C6F",
"w. c #A37C70",
"e. c #AC7F72",
"r. c #AF8053",
"t. c #AE806C",
"y. c #AB8276",
"u. c #B18376",
"i. c #B28578",
"p. c #B5897C",
"a. c #B98C7F",
"s. c #BC9077",
"d. c #BD9179",
"f. c #7F7F81",
"g. c #848484",
"h. c #8E8E8E",
"j. c #949494",
"k. c #9C9C9C",
"l. c #BB8F82",
"z. c #BD9183",
"x. c #A4A4A4",
"c. c #ACACAC",
"v. c #B0B0AF",
"b. c #B1B1B1",
"n. c #C19386",
"m. c None",
/* pixels */
"m.m.m.m.m.m.m.m.m.m.m.m.m.m.m.m.m.m.m.m.m.m.m.m.m.m.m.m.m.m.m.m.m.m.m.m.m.m.m.m.m.m.m.m.m.m.m.m.m.m.m.m.m.m.m.m.m.m.m.m.m.m.m.m.",
"m.m.m.m.m.m.m.m.m.m.m.m.m.m.m.m.m.m.m.m.m.m.m.m.m.m.m.m.m.m.m.m.m.m.m.m.m.m.m.m.m.m.m.m.m.m.m.m.m.m.m.m.m.m.m.m.m.m.m.m.m.m.m.m.",
"m.m.m.m.m.m.m.m.m.m.m.m.m.m.m.m.m.m.m.m.m.m.m.m.m.m.m.m.m.m.m.m.m.m.m.m.m.m.m.m.m.m.m.m.m.m.m.m.m.m.m.m.m.m.m.m.m.m.m.m.m.m.m.m.",
"m.m.m.m.m.m.m.m.m.m.m.m.m.m.m.m.m.m.m.m.m.m.m.m.m.m.m.m.m.m.m.m.m.m.m.m.m.m.m.m.m.m.m.m.m.m.m.m.m.m.m.m.m.m.m.m.m.m.m.m.m.m.m.m.",
"m.m.m.m.m.m.m.m.m.m.m.m.m.m.m.m.m.m.m.m.m.m.m.m.m.m.m.m.m.m.m.m.m.m.m.m.m.m.m.m.m.m.m.m.m.m.m.m.m.m.m.m.m.m.m.m.m.m.m.m.m.m.m.m.",
"m.m.m.m.m.m.m.m.m.m.m.m.m.m.m.m.m.m.m.m.m.m.m.m.m.m.m.m.m.m.m.m.m.m.m.m.m.m.m.m.m.m.m.m.m.m.m.m.m.m.m.m.m.m.m.m.m.m.m.m.m.m.m.m.",
"m.m.m.m.m.m.m.m.m.m.m.m.m.m.m.m.m.m.m.m.m.m.m.m.m.m.m.m.m.m.m.m.m.m.m.m.m.m.m.m.m.m.m.m.m.m.m.m.m.m.m.m.m.m.m.m.m.m.m.m.m.m.m.m.",
"m.m.m.m.m.m.m.m.m.m.m.m.m.m.m.m.m.m.m.m.m.m.m.m.m.m.m.m.m.m.m.m.m.m.m.m.m.m.m.m.m.m.m.m.m.m.m.m.m.m.m.m.m.m.m.m.m.m.m.m.m.m.m.m.",
"m.m.m.m.m.m.m.m.m.m.m.m.m.m.m.m.m.m.m.m.m.m.m.m.m.m.m.m.m.m.m.m.m.m.m.m.m.m.m.m.      m.m.m.m.m.m.m.m.m.m.m.m.m.m.m.m.m.m.m.m.m.",
"m.m.m.m.m.m.m.m.m.m.m.m.m.m.m.m.m.m.m.m.m.m.m.m.m.m.m.m.m.m.m.m.m.m.m.m.m.m.                m.m.m.m.m.m.m.m.m.m.m.m.m.m.m.m.m.m.",
"m.m.m.m.m.m.m.m.m.m.m.m.m.m.m.m.m.m.m.m.m.m.m.m.m.m.m.m.m.m.m.m.m.m.m.m.m.m.    O ;   O < m.m.m.m.m.m.m.m.m.m.m.m.m.m.m.m.m.m.m.",
"m.m.m.m.m.m.m.m.m.m.m.m.m.m.m.m.m.m.m.m.m.m.m.m.m.m.m.m.m.m.m.m.m.m.m.m.m.m.  n W @.F E m.m.m.m.m.m.m.m.m.m.m.m.m.m.m.m.m.m.m.m.",
"m.m.m.m.m.m.m.m.m.m.m.m.m.m.m.m.m.m.m.m.m.m.m.m.m.m.m.m.m.m.m.m.m.m.m.m.m.m.  :.l.w.i.w.Q m.m.m.m.m.m.m.m.m.m.m.m.m.m.m.m.m.m.m.",
"m.m.m.m.m.m.m.m.m.m.m.m.m.m.m.m.m.m.m.m.m.m.m.m.m.m.m.m.m.m.m.m.m.m.m.m.m.m.< w.n.;.7.6.b m.m.m.m.m.m.m.m.m.m.m.m.m.m.m.m.m.m.m.",
"m.m.m.m.m.m.m.m.m.m.m.m.m.m.m.m.m.m.m.m.m.m.m.m.m.m.m.m.m.m.m.m.m.m.m.m.m.m.4.~ y.l.i.5.m.m.m.m.m.m.m.m.m.m.m.m.m.m.m.m.m.m.m.m.",
"m.m.m.m.m.m.m.m.m.m.m.m.m.m.m.m.m.m.m.m.m.m.m.m.m.m.m.m.m.m.m.m.m.m.m.m.m.m.^ , n I $ $ @ m.m.m.m.m.m.m.m.m.m.m.m.m.m.m.m.m.m.m.",
"m.m.m.m.m.m.m.m.m.m.m.m.m.m.m.m.m.m.m.m.m.m.m.m.m.m.m.m.m.m.m.m.m.m.m.m.m.k 5 X           m.m.m.m.m.m.m.m.m.m.m.m.m.m.m.m.m.m.m.",
"m.m.m.m.m.m.m.m.m.m.m.m.m.m.m.m.m.m.m.m.m.m.m.m.m.m.m.m.m.m.m.m.m.m.s...l j 2 * #         m.m.m.m.m.m.m.m.m.m.m.m.m.m.m.m.m.m.m.",
"m.m.m.m.m.m.m.m.m.m.m.m.m.m.m.m.m.m.m.m.m.m.m.m.m.m.m.m.m.m.m.m.z.l.s.O.l l j 2 2 - .   m.m.m.m.m.m.m.m.m.m.m.m.m.m.m.m.m.m.m.m.",
"m.m.m.m.m.m.m.m.m.m.m.m.m.m.m.m.m.m.m.m.m.m.m.m.m.m.m.m.m.m.l.l.l.l.t.r.c h l l f d d m.m.m.m.m.m.m.m.m.m.m.m.m.m.m.m.m.m.m.m.m.",
"m.m.m.m.m.m.m.m.m.m.m.m.m.m.m.m.m.m.m.m.m.m.m.m.m.m.m.m.m.l.z.z.y.9.<.3.+.X.z l l f h m.m.m.m.m.m.m.m.m.m.m.m.m.m.m.m.m.m.m.m.m.",
"m.m.m.m.m.m.m.m.m.m.m.m.m.m.m.m.m.m.m.m.m.m.m.m.m.m.m.l.l.l.z.i.5.-.R r y *...l l l l l m.m.m.m.m.m.m.m.m.m.m.m.m.m.m.m.m.m.m.m.",
"m.m.m.m.m.m.m.m.m.m.m.m.m.m.m.m.m.m.m.m.m.m.m.m.m.l.l.l.l.z.i.<.#.a 4 = 3 m +.x h l l l m.m.m.m.m.m.m.m.m.m.m.m.m.m.m.m.m.m.m.m.",
"m.m.m.m.m.m.m.m.m.m.m.m.m.m.m.m.m.m.m.m.m.m.m.m.m.l.l.l.p.0.<.#.i 3 = 3 3 7 %. .h l x O.m.m.m.m.m.m.m.m.m.m.m.m.m.m.m.m.m.m.m.m.",
"m.m.m.m.m.m.m.m.m.m.m.m.m.m.m.m.m.m.m.m.m.m.m.m.l.z.a.9.5.>.N 8 3 3 3 3 = * Z 1.c o.2.m.m.m.m.m.m.m.m.m.m.m.m.m.m.m.m.m.m.m.m.m.",
"m.m.m.m.m.m.m.m.m.m.m.m.m.m.m.m.m.m.m.m.m.m.m.m.l.a.9.<.>.N 3 3 3 3 3 = 3 3 3 D G &.m.m.m.m.m.m.m.m.m.m.m.m.m.m.m.m.m.m.m.m.m.m.",
"m.m.m.m.m.m.m.m.m.m.m.m.m.m.m.m.m.m.m.m.m.m.m.z.z.i.<.>.N 5 3 3 3 3 3 3 3 3 3 6 V m.m.m.m.m.m.m.m.m.m.m.m.m.m.m.m.m.m.m.m.m.m.m.",
"m.m.m.m.m.m.m.m.m.m.m.m.m.m.m.m.m.m.m.m.m.m.m.z.z.i.<.V 8 3 3 3 = 3 = 3 = r #.@._ m.m.m.m.m.m.m.m.m.m.m.m.m.m.m.m.m.m.m.m.m.m.m.",
"m.m.m.m.m.m.m.m.m.m.m.m.m.m.m.m.m.m.m.m.m.m.m.=.y.y.T i 5 3 3 3 3 = = 3 3 S #.r 6 6 m.m.m.m.m.m.m.m.m.m.m.m.m.m.m.m.m.m.m.m.m.m.",
"m.m.m.m.m.m.m.m.m.m.m.m.m.m.m.m.m.m.m.m.m.m.m.m.B K 3 3 3 3 3 = = 3 3 3 4 R r 3 3 6 8 m.m.m.m.m.m.m.m.m.m.m.m.m.m.m.m.m.m.m.m.m.",
"m.m.m.m.m.m.m.m.m.m.m.m.m.m.m.m.m.m.m.m.m.m.m.m.5 5 3 3 3 3 6 9 9 = 3 3 m.m.m.3 3 3 6 8 m.m.m.m.m.m.m.m.m.m.m.m.m.m.m.m.m.m.m.m.",
"m.m.m.m.m.m.m.m.m.m.m.m.m.m.m.m.m.m.m.m.m.m.m.8 8 6 3 = & % J C L q m.m.m.m.m.m.3 3 3 6 m.m.m.m.m.m.m.m.m.m.m.m.m.m.m.m.m.m.m.m.",
"m.m.m.m.m.m.m.m.m.m.m.m.m.m.m.m.m.m.m.m.m.m.m.; 4 8 3 = @ q t > K m.m.m.m.m.m.m.3 3 3 3 P m.m.m.m.m.m.m.m.m.m.m.m.m.m.m.m.m.m.m.",
"m.m.m.m.m.m.m.m.m.m.m.m.m.m.m.m.m.m.m.m.m.m.+ + + 6 = = % s t y m.m.m.m.m.m.m.m.m.3 * 3 / l.m.m.m.m.m.m.m.m.m.m.m.m.m.m.m.m.m.m.",
"m.m.m.m.m.m.m.m.m.m.m.m.m.m.m.m.m.m.m.m.m.m.+ + + ; 5 = * u J U ] m.m.m.m.m.m.m.m.3 t Y e.5.m.m.m.m.m.m.m.m.m.m.m.m.m.m.m.m.m.m.",
"m.m.m.m.m.m.m.m.m.m.m.m.m.m.m.m.m.m.m.m.m.m.+ + + ; 6 A S r y | ] 8 m.m.m.m.m.m.m.m.$.<.<.<.m.m.m.m.m.m.m.m.m.m.m.m.m.m.m.m.m.m.",
"m.m.m.m.m.m.m.m.m.m.m.m.m.m.m.m.m.m.m.m.m.m.w 2 2 Z P Q <.m.{ b.x.j.f.s m.m.m.m.m.m.m.<.<.m.m.m.m.m.m.m.m.m.m.m.m.m.m.m.m.m.m.m.",
"m.m.m.m.m.m.m.m.m.m.m.m.m.m.m.m.m.m.m.m.m.m.e e b e S -.#.| [ j.x.b.b.c.} x.m.m.m.m.m.m.m.m.m.m.m.m.m.m.m.m.m.m.m.m.m.m.m.m.m.m.",
"m.m.m.m.m.m.m.m.m.m.m.m.m.m.m.m.m.m.m.m.m.m.e b e e e B K U 9 s J | j.h.j.v.b.b.b.b.m.m.m.m.m.m.m.m.m.m.m.m.m.m.m.m.m.m.m.m.m.m.",
"m.m.m.m.m.m.m.m.m.m.m.m.m.m.m.m.m.m.m.m.m.m.e e e e e e n r 3 * 3 u p p ` g.g.g.g.j.c.b.m.m.m.m.m.m.m.m.m.m.m.m.m.m.m.m.m.m.m.m.",
"m.m.m.m.m.m.m.m.m.m.m.m.m.m.m.m.m.m.m.m.m.m.b e e e e e e e e 7 3 5 6 8 0 ` [ ( { } | k.k.k.b.m.m.m.m.m.m.m.m.m.m.m.m.m.m.m.m.m.",
"m.m.m.m.m.m.m.m.m.m.m.m.m.m.m.m.m.m.m.m.m.m.e e e e e e e n n n r 3 3 6 8 6 m.m.( ( } } } | h.x.b.b.m.m.m.m.m.m.m.m.m.m.m.m.m.m.",
"m.m.m.m.m.m.m.m.m.m.m.m.m.m.m.m.m.m.m.m.m.m.e e e e e e e e n n n w 3 3 6 8 m.m.m.m.m.m.m.m.} y.g.h.c.x.b.m.m.m.m.m.m.m.m.m.m.m.",
"m.m.m.m.m.m.m.m.m.m.m.m.m.m.m.m.m.m.m.m.m.m.n n e e e e e m.e e m n w 6 3 5 3 m.m.m.m.m.m.m.m.m.{ } | g.k.k.m.m.m.m.m.m.m.m.m.m.",
"m.m.m.m.m.m.m.m.m.m.m.m.m.m.m.m.m.m.m.m.m.m.m.n e e e b e m.m.e b n n w 7 3 m.m.m.m.m.m.m.m.m.m.m.m.m.m.m.m.m.m.m.m.m.m.m.m.m.m.",
"m.m.m.m.m.m.m.m.m.m.m.m.m.m.m.m.m.m.m.m.m.m.m.n e e e e m.m.m.m.e b m n n w m.m.m.m.m.m.m.m.m.m.m.m.m.m.m.m.m.m.m.m.m.m.m.m.m.m.",
"m.m.m.m.m.m.m.m.m.m.m.m.m.m.m.m.m.m.m.m.m.m.m.n e e e e m.m.m.m.e e n m m n m.m.m.m.m.m.m.m.m.m.m.m.m.m.m.m.m.m.m.m.m.m.m.m.m.m.",
"m.m.m.m.m.m.m.m.m.m.m.m.m.m.m.m.m.m.m.m.m.m.m.n e e e e m.m.m.m.m.e e n m m m m.m.m.m.m.m.m.m.m.m.m.m.m.m.m.m.m.m.m.m.m.m.m.m.m.",
"m.m.m.m.m.m.m.m.m.m.m.m.m.m.m.m.m.m.m.m.m.m.m.e e e e m.m.m.m.m.m.m.e n m m M m.m.m.m.m.m.m.m.m.m.m.m.m.m.m.m.m.m.m.m.m.m.m.m.m.",
"m.m.m.m.m.m.m.m.m.m.m.m.m.m.m.m.m.m.m.m.m.m.n e e e e m.m.m.m.m.m.m.e e e n m m.m.m.m.m.m.m.m.m.m.m.m.m.m.m.m.m.m.m.m.m.m.m.m.m.",
"m.m.m.m.m.m.m.m.m.m.m.m.m.m.m.m.m.m.m.m.m.m.n e e b e m.m.m.m.m.m.m.m.e e n m m m.m.m.m.m.m.m.m.m.m.m.m.m.m.m.m.m.m.m.m.m.m.m.m.",
"m.m.m.m.m.m.m.m.m.m.m.m.m.m.8 8 6 6 9 0 n e e e e e m.m.m.m.m.m.m.m.m.m.e n m m m m.m.m.m.m.m.m.m.m.m.m.m.m.m.m.m.m.m.m.m.m.m.m.",
"m.m.m.m.m.m.m.m.m.8 8 8 8 8 8 6 6 6 6 6 w e e e e e e m.m.m.m.m.m.m.m.m.e e n m m m.m.m.m.m.m.m.m.m.m.m.m.m.m.m.m.m.m.m.m.m.m.m.",
"m.m.m.m.m.m.m.m.m.8 6 9 8 6 5 3 3 = 3 3 7 b e e e e m.m.m.m.m.m.m.m.m.m.m.e e n m M m.m.m.m.m.m.m.m.m.m.m.m.m.m.m.m.m.m.m.m.m.m.",
"m.m.m.m.m.m.m.m.m.m.3 3 3 3 3 3 3 3 3 3 7 e e e e e m.m.m.m.m.m.m.m.m.m.m.m.e w n n m.m.m.m.m.m.m.m.m.m.m.m.m.m.m.m.m.m.m.m.m.m.",
"m.m.m.m.m.m.m.m.m.m.3 3 3 3 3 m.m.m.m.= = w m.m.m.m.m.m.m.m.m.m.m.m.m.m.m.m.4 3 9 6 9 m.m.m.m.m.m.m.m.m.m.m.m.m.m.m.m.m.m.m.m.m.",
"m.m.m.m.m.m.m.m.m.m.3 3 3 m.m.m.m.m.m.m.m.m.m.m.m.m.m.m.m.m.m.m.m.m.m.m.m.m.m.3 3 8 8 m.m.m.m.m.m.m.m.m.m.m.m.m.m.m.m.m.m.m.m.m.",
"m.m.m.m.m.m.m.m.m.m.m.3 3 m.m.m.m.m.m.m.m.m.m.m.m.m.m.m.m.m.m.m.m.m.m.m.m.m.m.3 = 6 8 8 m.m.m.m.m.m.m.m.m.m.m.m.m.m.m.m.m.m.m.m.",
"m.m.m.m.m.m.m.m.m.m.m.m.3 m.m.m.m.m.m.m.m.m.m.m.m.m.m.m.m.m.m.m.m.m.m.m.m.m.m.3 3 5 8 6 8 m.m.m.m.m.m.m.m.m.m.m.m.m.m.m.m.m.m.m.",
"m.m.m.m.m.m.m.m.m.m.m.m.m.m.m.m.m.m.m.m.m.m.m.m.m.m.m.m.m.m.m.m.m.m.m.m.m.m.m.m.3 3 3 9 6 5 5 m.m.m.m.m.m.m.m.m.m.m.m.m.m.m.m.m.",
"m.m.m.m.m.m.m.m.m.m.m.m.m.m.m.m.m.m.m.m.m.m.m.m.m.m.m.m.m.m.m.m.m.m.m.m.m.m.m.m.m.3 3 3 3 3 m.m.m.m.m.m.m.m.m.m.m.m.m.m.m.m.m.m.",
"m.m.m.m.m.m.m.m.m.m.m.m.m.m.m.m.m.m.m.m.m.m.m.m.m.m.m.m.m.m.m.m.m.m.m.m.m.m.m.m.m.3 3 = m.m.m.m.m.m.m.m.m.m.m.m.m.m.m.m.m.m.m.m.",
"m.m.m.m.m.m.m.m.m.m.m.m.m.m.m.m.m.m.m.m.m.m.m.m.m.m.m.m.m.m.m.m.m.m.m.m.m.m.m.m.m.m.m.m.m.m.m.m.m.m.m.m.m.m.m.m.m.m.m.m.m.m.m.m.",
"m.m.m.m.m.m.m.m.m.m.m.m.m.m.m.m.m.m.m.m.m.m.m.m.m.m.m.m.m.m.m.m.m.m.m.m.m.m.m.m.m.m.m.m.m.m.m.m.m.m.m.m.m.m.m.m.m.m.m.m.m.m.m.m."
};
