/* XPM */
static char *elox5_8txwd[] = {
/* columns rows colors chars-per-pixel */
"64 64 150 2 ",
"   c #030302",
".  c #080604",
"X  c #0C0907",
"o  c #0D0B0B",
"O  c #190A00",
"+  c #120E0C",
"@  c #17120F",
"#  c #1E1411",
"$  c #171A1F",
"%  c #1A1B1F",
"&  c #15161B",
"*  c #220C03",
"=  c #23160D",
"-  c #251915",
";  c #2E1911",
":  c #251E1B",
">  c #3E1E13",
",  c #2D221C",
"<  c #1C1D21",
"1  c #201E21",
"2  c #1F2024",
"3  c #212226",
"4  c #2A2424",
"5  c #232428",
"6  c #2C2A2C",
"7  c #362A25",
"8  c #3E2E26",
"9  c #352D2B",
"0  c #3B2E29",
"q  c #3D332D",
"w  c #2E2F33",
"e  c #343334",
"r  c #3C3537",
"t  c #36373A",
"y  c #3C3D3F",
"u  c #441706",
"i  c #4A1804",
"p  c #481B0A",
"a  c #431C0E",
"s  c #541B04",
"d  c #5B1E05",
"f  c #631F05",
"g  c #5F2006",
"h  c #642107",
"j  c #662308",
"k  c #6C2B0E",
"l  c #743414",
"z  c #7D3F1C",
"x  c #442C23",
"c  c #492D21",
"v  c #402E2A",
"b  c #43332B",
"n  c #48372F",
"m  c #49382F",
"M  c #50372F",
"N  c #433533",
"B  c #473D35",
"V  c #443B3A",
"C  c #4F3E3C",
"Z  c #573B33",
"A  c #564634",
"S  c #59423C",
"D  c #654F38",
"F  c #6A523A",
"G  c #745B3E",
"H  c #3F3F41",
"J  c #414143",
"K  c #494542",
"L  c #444548",
"P  c #48494C",
"I  c #5D4A46",
"U  c #584A48",
"Y  c #564C44",
"T  c #5B5149",
"R  c #585553",
"E  c #6C4E46",
"W  c #604D49",
"Q  c #64524E",
"!  c #7F594E",
"~  c #6A5651",
"^  c #625953",
"/  c #735952",
"(  c #7B5E56",
")  c #7E6241",
"_  c #70645E",
"`  c #5E5F62",
"'  c #606063",
"]  c #656668",
"[  c #6E6E71",
"{  c #777370",
"}  c #8F562E",
"|  c #91562D",
" . c #87643F",
".. c #996337",
"X. c #926238",
"o. c #A16B3D",
"O. c #855848",
"+. c #845D53",
"@. c #806241",
"#. c #9A7045",
"$. c #8D6154",
"%. c #83645A",
"&. c #8F695E",
"*. c #966659",
"=. c #9A695B",
"-. c #9E7458",
";. c #A57545",
":. c #A77949",
">. c #AC7A4B",
",. c #8C6C63",
"<. c #966D61",
"1. c #9F6F61",
"2. c #9B7266",
"3. c #9D786D",
"4. c #A27264",
"5. c #A57669",
"6. c #A77B6E",
"7. c #AB7C6E",
"8. c #A27E73",
"9. c #AD7E71",
"0. c #8C837E",
"q. c #AD8174",
"w. c #AE867A",
"e. c #B28679",
"r. c #B5897D",
"t. c #B98C7F",
"y. c #BC907F",
"u. c #868688",
"i. c #939394",
"p. c #9D9C9B",
"a. c #B18E84",
"s. c #BB8F82",
"d. c #BD9183",
"f. c #A6A7A9",
"g. c #AAAAAA",
"h. c #B2B3B3",
"j. c #BBBBBB",
"k. c #C09385",
"l. c #C5A8A0",
"z. c #C1B2AC",
"x. c #C4C4C5",
"c. c #CBCBCC",
"v. c #DCCBC6",
"b. c #D1CECD",
"n. c #DADADA",
"m. c #ECECEC",
"M. c #EFEFF0",
"N. c #F7F7F7",
"B. c #FFFFFF",
"V. c None",
/* pixels */
"V.V.V.V.V.V.V.V.V.V.V.V.V.V.V.V.V.V.V.V.V.V.V.V.V.V.V.V.V.V.V.V.V.V.V.V.V.V.V.V.V.V.V.V.V.V.V.V.V.V.V.V.V.V.V.V.V.V.V.V.V.V.V.V.",
"V.V.V.V.V.V.V.V.V.V.V.V.V.V.V.V.V.V.V.V.V.V.V.V.V.V.V.V.V.V.V.V.V.V.V.V.V.V.V.V.V.V.V.V.V.V.V.V.V.V.V.V.V.V.V.V.V.V.V.V.V.V.V.V.",
"V.V.V.V.V.V.V.V.V.V.V.V.V.V.V.V.V.V.V.V.V.V.V.V.V.V.V.V.V.V.V.V.V.V.V.V.V.V.V.V.V.V.V.V.V.V.V.V.V.V.V.V.V.V.V.V.V.V.V.V.V.V.V.V.",
"V.V.V.V.V.V.V.V.V.V.V.V.V.V.V.V.V.V.V.V.V.V.V.V.V.V.V.V.V.V.V.V.V.V.V.V.V.V.V.V.V.V.V.V.V.V.V.V.V.V.V.V.V.V.V.V.V.V.V.V.V.V.V.V.",
"V.V.V.V.V.V.V.V.V.V.V.V.V.V.V.V.V.V.V.V.V.V.V.V.V.V.V.V.V.V.V.V.V.V.V.V.V.V.V.V.V.V.V.V.V.V.V.V.V.V.V.V.V.V.V.V.V.V.V.V.V.V.V.V.",
"V.V.V.V.V.V.V.V.V.V.V.V.V.V.V.V.V.V.V.V.V.V.V.V.V.V.V.V.V.V.V.V.V.          V.V.V.V.V.V.V.V.V.V.V.V.V.V.V.V.V.V.V.V.V.V.V.V.V.V.",
"V.V.V.V.V.V.V.V.V.V.V.V.V.V.V.V.V.V.V.V.V.V.V.V.V.V.V.V.V.V.V.V..   . .   . . V.V.V.V.V.V.V.V.V.V.V.V.V.V.V.V.V.V.V.V.V.V.V.V.V.",
"V.V.V.V.V.V.V.V.V.V.V.V.V.V.V.V.V.V.V.V.V.V.V.V.V.V.V.V.V.V.V.V.  - Z m - Z V.V.V.V.V.V.V.V.V.V.V.V.V.V.V.V.V.V.V.V.V.V.V.V.V.V.",
"V.V.V.V.V.V.V.V.V.V.V.V.V.V.V.V.V.V.V.V.V.V.V.V.V.V.V.V.V.V.V.V.X <.7.7.9.4.V.V.V.V.V.V.V.V.V.V.V.V.V.V.V.V.V.V.V.V.V.V.V.V.V.V.",
"V.V.V.V.V.V.V.V.V.V.V.V.V.V.V.V.V.V.V.V.V.V.V.V.V.V.V.V.V.V.V.V.@ q.d./ e.%.V.V.V.V.V.V.V.V.V.V.V.V.V.V.V.V.V.V.V.V.V.V.V.V.V.V.",
"V.V.V.V.V.V.V.V.V.V.V.V.V.V.V.V.V.V.V.V.V.V.V.V.V.V.V.V.V.V.V.V.( 3.d.e.s.5.V.V.V.V.V.V.V.V.V.V.V.V.V.V.V.V.V.V.V.V.V.V.V.V.V.V.",
"V.V.V.V.V.V.V.V.V.V.V.V.V.V.V.V.V.V.V.V.V.V.V.V.V.V.V.V.V.V.V.V.2., %.%.S M 0 V.V.V.V.V.V.V.V.V.V.V.V.V.V.V.V.V.V.V.V.V.V.V.V.V.",
"V.V.V.V.V.V.V.V.V.V.V.V.V.V.V.V.V.V.V.V.V.V.V.V.V.V.V.V.V.V.V.V.V.. @ +     o u V.V.V.V.V.V.V.V.V.V.V.V.V.V.V.V.V.V.V.V.V.V.V.V.",
"V.V.V.V.V.V.V.V.V.V.V.V.V.V.V.V.V.V.V.V.V.V.V.V.V.V.V.V.V.V.V.V.V.o .       . i V.V.V.V.V.V.V.V.V.V.V.V.V.V.V.V.V.V.V.V.V.V.V.V.",
"V.V.V.V.V.V.V.V.V.V.V.V.V.V.V.V.V.V.V.V.V.V.V.V.V.V.V.V.V.V.V.V.> 5 9 #     O d V.V.V.V.V.V.V.V.V.V.V.V.V.V.V.V.V.V.V.V.V.V.V.V.",
"V.V.V.V.V.V.V.V.V.V.V.V.V.V.V.V.V.V.V.V.V.V.V.V.V.V.V.V.V.h h s s p c ~ / ; s f j V.V.V.V.V.V.V.V.V.V.V.V.V.V.V.V.V.V.V.V.V.V.V.",
"V.V.V.V.V.V.V.V.V.V.V.V.V.V.V.V.V.V.V.V.V.V.V.V.V.V.V.V.j j j h d s a 0 O.s h h h h V.V.V.V.V.V.V.V.V.V.V.V.V.V.V.V.V.V.V.V.V.V.",
"V.V.V.V.V.V.V.V.V.V.V.V.V.V.5 2 ~ d.V.V.V.V.V.s.s.V.y.>.z h h h h d d s s d h h j h j V.V.V.V.V.V.V.V.V.V.V.V.V.V.V.V.V.V.V.V.V.",
"V.V.V.V.V.V.V.5 5 5 5 5 5 5 5 V 8.d.d.s.s.s.s.d.s.s.e.-.:.z f j h j h g s s h h h k ..X.V.V.V.V.V.V.V.V.V.V.V.V.V.V.V.V.V.V.V.V.",
"h.h.h.h.V.V.< 3 5 5 5 5 3 < 5 8.d.d.d.d.d.d.s.r.e.7.C 5 A :.z f h h j h h h h h k o.@.V V.V.V.V.V.V.V.V.V.V.V.V.V.V.V.V.V.V.V.V.",
"c.p.g.p.c 2.Q < 3 3 < 2 < < 3 2.7.7.7.7.7.7.7.1.=.=.E 5 2 A :.} l h h h h h h k o.) 3 Q k.V.V.V.V.V.V.V.V.V.V.V.V.V.V.V.V.V.V.V.",
"N.n.z.m c 9.a.I 3 3 < V.V.V.V.V.V.=.*.=.*.=.=.=.=.=.*.9 2 3 q G ;.l k j f h k o.@.4 2 Q d.s.V.V.V.V.V.V.V.V.V.V.V.V.V.V.V.V.V.V.",
"B.B.B.h.a.5.q.5.N < V.V.V.V.V.V.V.V.V.V.V.V.V.V.V.V.=.E < 3 5 3 F  .#.| z z o.@.3 2 2 Q d.s.s.V.V.V.V.V.V.V.V.V.V.V.V.V.V.V.V.V.",
"B.B.B.B.B.v.l.=.V.V.V.V.V.V.V.V.V.V.V.V.V.V.V.V.V.V.V.V.< < 5 5 3 2 b F F F D 5 3 5 5 I 9.s.s.s.s.s.V.V.V.V.V.V.V.V.V.V.V.V.V.V.",
"B.B.B.B.B.B.B.B.B.V.V.V.V.V.V.V.V.V.V.V.V.V.V.V.V.V.V.V.V.< 3 5 5 5 3 < 2 2 < 5 5 5 5 9 =.4.9.s.s.s.a.V V.V.V.V.V.V.V.V.V.V.V.V.",
"B.B.B.B.B.B.B.B.B.B.B.V.V.V.V.V.V.V.V.V.V.V.V.V.V.V.V.V.V.< < 5 5 5 5 5 5 5 5 5 5 5 5 3 V.V.=.1.9.r.s.,.5 5 5 V.V.V.V.V.V.V.V.V.",
"B.B.B.B.B.B.B.B.B.B.B.B.B.B.V.V.V.V.V.V.V.V.V.V.V.V.V.V.V.V.< 3 5 5 5 5 5 5 5 5 5 5 5 5 V.V.V.V.=.4.9.+.5 < 5 5 V.V.V.V.V.V.V.V.",
"B.B.B.B.B.B.B.B.B.B.B.B.B.B.B.B.V.V.V.V.V.V.V.V.V.V.V.V.V.V.< < 3 5 5 5 5 5 5 5 5 5 5 5 V.V.V.V.V.=.$.N < < < < 3 5 5 3 V.V.V.V.",
"B.B.B.B.B.B.B.B.B.B.B.B.B.B.B.B.B.B.V.V.V.V.V.V.V.V.V.V.V.V.V.< 2 5 5 5 5 5 5 5 5 5 5 V.V.V.V.V.V.V.9 % < < < < < < < r U V.V.V.",
"V.B.B.B.B.B.B.B.B.B.B.B.B.B.B.B.B.B.B.B.V.V.V.V.V.V.V.V.V.V.V.< < 2 5 5 5 5 5 5 5 5 5 V.V.V.V.V.V.V.V.V.V.V.V.< < 4 S &.s.s.V.V.",
"V.V.V.V.B.B.B.B.B.B.B.B.B.B.B.B.B.B.B.B.B.B.B.B.V.V.V.V.V.V.V.< < < 5 5 5 5 5 5 5 5 5 V.V.V.V.V.V.V.V.V.V.V.V.V.V.O.=.1.e.s.s.V.",
"V.V.V.V.V.V.V.B.B.B.B.B.B.B.B.B.B.B.B.B.B.B.B.B.B.B.V.V.V.V.V.V.& < 2 2 5 5 5 5 5 3 5 V.V.V.V.V.V.V.V.V.V.V.V.V.V.V.V.V.5.V.V.V.",
"V.V.V.V.V.V.V.V.V.V.B.B.B.B.B.B.B.B.B.B.B.B.B.B.B.B.B.B.B.B.V.j.u.6 $ 2 5 3 5 H J H : V.V.V.V.V.V.V.V.V.V.V.V.V.V.V.V.V.V.V.V.V.",
"V.V.V.V.V.V.V.V.V.V.V.V.V.B.B.B.B.B.B.B.B.B.B.B.B.B.B.B.B.B.B.B.B.c.x.x.f.e 9 R , K = O V.V.V.V.V.V.V.V.V.V.V.V.V.V.V.V.V.V.V.V.",
"V.V.V.V.V.V.V.V.V.V.V.V.V.V.B.B.B.B.B.B.B.B.B.B.B.B.B.B.B.B.B.B.B.B.B.B.B.m.m.b.T { ^ Y V.V.V.V.V.V.V.V.V.V.V.V.V.V.V.V.V.V.V.V.",
"V.V.V.V.V.V.V.V.V.V.V.V.V.V.V.V.V.V.B.B.B.B.B.B.B.B.B.B.B.B.B.B.B.B.B.B.B.B.B.B.B.B.B.B.V.B.B.V.V.V.V.V.V.V.V.V.V.V.V.V.V.V.V.V.",
"V.V.V.V.V.V.V.V.V.V.V.V.V.V.V.V.V.V.V.V.V.V.B.B.B.B.B.B.B.B.B.B.B.B.B.B.B.B.B.B.B.B.B.B.B.B.B.B.B.B.V.V.V.V.V.V.V.V.V.V.V.V.V.V.",
"V.V.V.V.V.V.V.V.V.V.V.V.V.V.V.V.V.V.V.V.V.V.V.V.V.B.B.B.B.B.B.B.B.B.B.B.B.B.B.B.B.B.B.B.B.B.B.B.B.B.B.B.B.B.V.V.V.V.V.V.V.V.V.V.",
"V.V.V.V.V.V.V.V.V.V.V.V.V.V.V.V.V.V.V.V.V.V.V.V.V.V.V.V.V.B.V.B.B.B.B.B.B.B.B.B.B.B.B.B.B.B.B.B.B.B.B.B.B.B.B.B.B.B.B.B.B.B.V.V.",
"V.V.V.V.V.V.V.V.V.V.V.V.V.V.V.V.V.V.V.V.V.V.V.V.V.V.V.V.V.V.V.V._ 0.m.m.m.N.B.B.B.B.B.B.B.B.B.B.B.B.B.B.B.B.B.B.B.B.B.B.B.B.B.B.",
"V.V.V.V.V.V.V.V.V.V.V.V.V.V.V.V.V.V.V.V.V.V.V.V.V.V.V.V.V.V.V.V.7 7 e w 6 [ x.x.x.m.B.B.B.B.B.B.B.B.B.B.B.B.B.B.B.B.B.B.B.B.B.B.",
"V.V.V.V.V.V.V.V.V.V.V.V.V.V.V.V.V.V.V.V.V.V.V.V.V.V.V.V.V.V.V.V.x 8 7 % % < < 3 5 [ i.i.n.B.B.B.B.B.B.B.B.B.B.B.B.B.B.B.B.B.B.B.",
"V.V.V.V.V.V.V.V.V.V.V.V.V.V.V.V.V.V.V.V.V.V.V.V.V.V.V.V.V.V.V.V.b q x 4 % % < < 5 2 < < P ' ' ] n.m.B.B.B.B.B.B.B.B.B.B.B.B.B.B.",
"V.V.V.V.V.V.V.V.V.V.V.V.V.V.V.V.V.V.V.V.V.V.V.V.V.V.V.V.V.V.V.V.m q x 7 4 < % < < 3 5 5 2 2 2 2 e t L V.V.V.V.B.B.B.B.B.B.B.B.B.",
"V.V.V.V.V.V.V.V.V.V.V.V.V.V.V.V.V.V.V.V.V.V.V.V.V.V.V.V.V.V.V.V.m b q 8 7 % < % < < 3 3 5 5 2 2 3 5 3 V.V.V.V.V.V.V.V.B.B.V.B.B.",
"V.V.V.V.V.V.V.V.V.V.V.V.V.V.V.V.V.V.V.V.V.V.V.V.V.V.V.V.V.V.V.V.m b x 8 8 4 % < < < < < < < , 2 2 < V.V.V.V.V.V.V.V.V.V.V.V.V.V.",
"V.V.V.V.V.V.V.V.V.V.V.V.V.V.V.V.V.V.V.V.V.V.V.V.V.V.V.V.V.V.V.V.m m x 8 v 4 % < < < < % 3 , 7 8 8 q V.V.V.V.V.V.V.V.V.V.V.V.V.V.",
"V.V.V.V.V.V.V.V.V.V.V.V.V.V.V.V.V.V.V.V.V.V.V.V.V.V.V.V.V.V.V.V.m m b 8 8 V.V.% V.< 4 4 7 v v 8 b n n V.V.V.V.V.V.V.V.V.V.V.V.V.",
"V.V.V.V.V.V.V.V.V.V.V.V.V.V.V.V.V.V.V.V.V.V.V.V.V.V.V.V.V.V.V.n n n b 8 V.V.V.V.V.V.V.x 8 8 8 8 8 b n V.V.V.V.V.V.V.V.V.V.V.V.V.",
"V.V.V.V.V.V.V.V.V.V.V.V.V.V.V.V.V.V.V.V.V.V.V.V.V.V.V.V.V.V.V.n n n b 8 V.V.V.V.V.V.V.V.v 8 8 8 8 b n n V.V.V.V.V.V.V.V.V.V.V.V.",
"V.V.V.V.V.V.V.V.V.V.V.V.V.V.V.V.V.V.V.V.V.V.V.V.V.V.V.V.V.V.n n n n x q V.V.V.V.V.V.V.V.V.V.8 8 8 8 n n V.V.V.V.V.V.V.V.V.V.V.V.",
"V.V.V.V.V.V.V.V.V.V.V.V.V.V.V.V.V.V.V.V.V.V.V.V.V.V.V.V.V.V.n n n b q V.V.V.V.V.V.V.V.V.V.V.V.8 8 8 b n m V.V.V.V.V.V.V.V.V.V.V.",
"V.V.V.V.V.V.V.V.V.V.V.V.V.V.V.V.V.V.V.V.V.V.V.V.V.V.V.V.V.V.n n n x q V.V.V.V.V.V.V.V.V.V.V.V.V.8 8 8 n n V.V.V.V.V.V.V.V.V.V.V.",
"V.V.V.V.V.V.V.V.V.V.V.V.V.V.V.V.V.V.V.V.V.V.V.V.V.V.V.V.V.n n n b 8 8 V.V.V.V.V.V.V.V.V.V.V.V.V.V.8 8 b n n V.V.V.V.V.V.V.V.V.V.",
"V.V.V.V.V.V.V.V.V.V.V.V.V.V.V.V.V.V.V.V.V.V.V.V.V.V.V.V.V.n n n b 8 8 V.V.V.V.V.V.V.V.V.V.V.V.V.V.8 8 b n m V.V.V.V.V.V.V.V.V.V.",
"V.V.V.V.V.V.V.V.V.V.V.V.V.V.V.V.V.V.V.V.V.V.V.V.V.V.V.V.V.q n n 8 8 V.V.V.V.V.V.V.V.V.V.V.V.V.V.V.V.7 7 7 N m V.V.V.V.V.V.V.V.V.",
"V.V.V.V.V.V.V.V.V.V.V.V.V.V.V.V.V.V.V.V.V.V.V.V.V.V.V.V.V.5 9 7 8 V.V.V.V.V.V.V.V.V.V.V.V.V.V.V.V.V.< % 1 6 9 V.V.V.V.V.V.V.V.V.",
"V.V.V.V.V.V.V.V.V.V.V.V.V.V.V.V.V.V.V.V.V.V.V.V.V.V.V.V.V.5 2 4 8 V.V.V.V.V.V.V.V.V.V.V.V.V.V.V.V.V.V.< < 3 5 V.V.V.V.V.V.V.V.V.",
"V.V.V.V.V.V.V.V.V.V.V.V.V.V.V.V.V.V.V.V.V.V.V.V.V.V.V.V.5 5 < < V.V.V.V.V.V.V.V.V.V.V.V.V.V.V.V.V.V.V.< < < < 5 V.V.V.V.V.V.V.V.",
"V.V.V.V.V.V.V.V.V.V.V.V.V.V.V.V.V.V.V.V.V.V.V.V.V.V.V.V.5 3 % < V.V.V.V.V.V.V.V.V.V.V.V.V.V.V.V.V.V.V.V.< < < 3 5 V.V.V.V.V.V.V.",
"V.V.V.V.V.V.V.V.V.V.V.V.V.V.V.V.V.V.V.V.V.V.V.V.V.V.V.5 5 < < < V.V.V.V.V.V.V.V.V.V.V.V.V.V.V.V.V.V.V.V.< % < < 3 5 V.V.V.V.V.V.",
"V.V.V.V.V.V.V.V.V.V.V.V.V.V.V.V.V.V.V.V.V.V.V.V.V.V.3 3 < < < < < V.V.V.V.V.V.V.V.V.V.V.V.V.V.V.V.V.V.V.V.< % < < 3 3 2 V.V.V.V.",
"V.V.V.V.V.V.V.V.V.V.V.V.V.V.V.V.V.V.V.V.V.V.V.V.V.V.V.< V.< < < V.V.V.V.V.V.V.V.V.V.V.V.V.V.V.V.V.V.V.V.V.< < < < V.< V.V.V.V.V.",
"V.V.V.V.V.V.V.V.V.V.V.V.V.V.V.V.V.V.V.V.V.V.V.V.V.V.V.V.V.V.V.V.V.V.V.V.V.V.V.V.V.V.V.V.V.V.V.V.V.V.V.V.V.V.V.V.V.V.V.V.V.V.V.V."
};
