/* XPM */
static char *p3xoc_esvux[] = {
/* columns rows colors chars-per-pixel */
"64 64 138 2 ",
"   c #040302",
".  c #0A0604",
"X  c #0F0B09",
"o  c #160803",
"O  c #1C0E05",
"+  c #120D0B",
"@  c #1A0E0A",
"#  c #1E1006",
"$  c #1D120A",
"%  c #151211",
"&  c #1E1613",
"*  c #191718",
"=  c #16191E",
"-  c #1A1A1E",
";  c #23140B",
":  c #231913",
">  c #231D1C",
",  c #3A1E16",
"<  c #2E211E",
"1  c #31271F",
"2  c #1C1D21",
"3  c #1F2024",
"4  c #222226",
"5  c #2B2524",
"6  c #232428",
"7  c #2A2728",
"8  c #2C292A",
"9  c #312720",
"0  c #392721",
"q  c #3E2E26",
"w  c #342D2C",
"e  c #3B2E2B",
"r  c #37302B",
"t  c #3D312B",
"y  c #2E2F32",
"u  c #312E30",
"i  c #343437",
"p  c #3B3532",
"a  c #3E3739",
"s  c #393A3C",
"d  c #471603",
"f  c #4A1703",
"g  c #4C1C0A",
"h  c #541B04",
"j  c #5C1E05",
"k  c #601F06",
"l  c #40281C",
"z  c #5C2510",
"x  c #652207",
"c  c #662408",
"v  c #69260A",
"b  c #6B2A0D",
"n  c #763615",
"m  c #44332B",
"M  c #48372F",
"N  c #49382F",
"B  c #473D36",
"V  c #4E3B35",
"C  c #433D3B",
"Z  c #47423F",
"A  c #55423C",
"S  c #5A433D",
"D  c #60463C",
"F  c #6B553C",
"G  c #71573C",
"H  c #464240",
"J  c #4A4643",
"K  c #4D4D4F",
"L  c #584744",
"P  c #5E4841",
"I  c #504E4C",
"U  c #5C4C4A",
"Y  c #5E534D",
"T  c #4F4F51",
"R  c #545556",
"E  c #555659",
"W  c #5A5B5C",
"Q  c #634D49",
"!  c #66524E",
"~  c #73534A",
"^  c #79574E",
"/  c #7D594F",
"(  c #606061",
")  c #777777",
"_  c #7D7C7D",
"`  c #824622",
"'  c #8F562D",
"]  c #91572E",
"[  c #955F35",
"{  c #8F653D",
"}  c #976237",
"|  c #9E683B",
" . c #A46E3F",
".. c #825A4E",
"X. c #815B51",
"o. c #895F54",
"O. c #846643",
"+. c #886844",
"@. c #946C44",
"#. c #977147",
"$. c #997247",
"%. c #9A7349",
"&. c #876157",
"*. c #8B6154",
"=. c #8B665C",
"-. c #89685E",
";. c #926754",
":. c #9A6759",
">. c #946A5D",
",. c #9C6B5D",
"<. c #A07058",
"1. c #8B6D66",
"2. c #916E64",
"3. c #9D6E61",
"4. c #94736B",
"5. c #9D7569",
"6. c #877976",
"7. c #A27163",
"8. c #AA7A6E",
"9. c #AC7D70",
"0. c #B38352",
"q. c #AB8276",
"w. c #A28279",
"e. c #B28477",
"r. c #B38678",
"t. c #B58A7D",
"y. c #B98C7E",
"u. c #7C7E80",
"i. c #848484",
"p. c #9C8D89",
"a. c #9B9B9B",
"s. c #BB8E81",
"d. c #BC9083",
"f. c #B1938A",
"g. c #BB9D95",
"h. c #AFAFAF",
"j. c #B1B1B1",
"k. c None",
/* pixels */
"k.k.k.k.k.k.k.k.k.k.k.k.k.k.k.k.k.k.k.k.k.k.k.k.k.k.k.k.k.k.k.k.k.k.k.k.k.k.k.k.k.k.k.k.k.k.k.k.k.k.k.k.k.k.k.k.k.k.k.k.k.k.k.k.",
"k.k.k.k.k.k.k.k.k.k.k.k.k.k.k.k.k.k.k.k.k.k.k.k.k.k.k.k.k.k.k.k.k.k.k.k.k.k.k.k.k.k.k.k.k.k.k.k.k.k.k.k.k.k.k.k.k.k.k.k.k.k.k.k.",
"k.k.k.k.k.k.k.k.k.k.k.k.k.k.k.k.k.k.k.k.k.k.k.k.k.k.k.k.k.k.k.k.k.k.k.k.k.k.k.k.k.k.k.k.k.k.k.k.k.k.k.k.k.k.k.k.k.k.k.k.k.k.k.k.",
"k.k.k.k.k.k.k.k.k.k.k.k.k.k.k.k.k.k.k.k.k.k.k.k.k.k.k.k.k.k.        k.k.k.k.k.k.k.k.k.k.k.k.k.k.k.k.k.k.k.k.k.k.k.k.k.k.k.k.k.k.",
"k.k.k.k.k.k.k.k.k.k.k.k.k.k.k.k.k.k.k.k.k.k.k.k.k.k.k.k.              k.k.k.k.k.k.k.k.k.k.k.k.k.k.k.k.k.k.k.k.k.k.k.k.k.k.k.k.k.",
"k.k.k.k.k.k.k.k.k.k.k.k.k.k.k.k.k.k.k.k.k.k.k.k.k.k.k.    . 0 :   0 k.k.k.k.k.k.k.k.k.k.k.k.k.k.k.k.k.k.k.k.k.k.k.k.k.k.k.k.k.k.",
"k.k.k.k.k.k.k.k.k.k.k.k.k.k.k.k.k.k.k.k.k.k.k.k.k.k.k.  + ..,.>.*.>.k.k.k.k.k.k.k.k.k.k.k.k.k.k.k.k.k.k.k.k.k.k.k.k.k.k.k.k.k.k.",
"k.k.k.k.k.k.k.k.k.k.k.k.k.k.k.k.k.k.k.k.k.k.k.k.k.k.k.  + q.s.-.y.=.k.k.k.k.k.k.k.k.k.k.k.k.k.k.k.k.k.k.k.k.k.k.k.k.k.k.k.k.k.k.",
"k.k.k.k.k.k.k.k.k.k.k.k.k.k.k.k.k.k.k.k.k.k.k.k.k.k.k.k.P s.s.2.s.=.k.k.k.k.k.k.k.k.k.k.k.k.k.k.k.k.k.k.k.k.k.k.k.k.k.k.k.k.k.k.",
"k.k.k.k.k.k.k.k.k.k.k.k.k.k.k.k.k.k.k.k.k.k.k.k.k.k.k.k.5.V q.9.2...k.k.k.k.k.k.k.k.k.k.k.k.k.k.k.k.k.k.k.k.k.k.k.k.k.k.k.k.k.k.",
"k.k.k.k.k.k.k.k.k.k.k.k.k.k.k.k.k.k.k.k.k.k.k.k.k.k.k.k.k.. q >     % k.k.k.k.k.k.k.k.k.k.k.k.k.k.k.k.k.k.k.k.k.k.k.k.k.k.k.k.k.",
"k.k.k.k.k.k.k.k.k.k.k.k.k.k.k.k.k.k.k.k.k.k.k.k.k.k.k.k.k.          . g k.k.k.k.k.k.k.k.k.k.k.k.k.k.k.k.k.k.k.k.k.k.k.k.k.k.k.k.",
"k.k.k.k.k.k.k.k.k.k.k.k.k.k.k.k.k.k.k.k.k.k.k.k.k.k.k.k.> 6 > o     o j k.k.k.k.k.k.k.k.k.k.k.k.k.k.k.k.k.k.k.k.k.k.k.k.k.k.k.k.",
"k.k.k.k.k.k.k.k.k.k.k.k.k.k.k.k.k.k.k.k.k.k.k.k.k.k.k.h g , N V e @ f x k.k.k.k.k.k.k.k.k.k.k.k.k.k.k.k.k.k.k.k.k.k.k.k.k.k.k.k.",
"k.k.k.k.k.k.k.k.k.k.k.k.k.k.k.k.k.k.k.k.k.k.k.k.x x x j j h , L >.g j x x k.k.k.k.k.k.k.k.k.k.k.k.k.k.k.k.k.k.k.k.k.k.k.k.k.k.k.",
"k.k.k.k.k.k.k.k.k.k.k.k.k.k.k.k.k.k.k.k.k.k.k.$.b x x c x h h g z j x x x x k.k.k.k.k.k.k.k.k.k.k.k.k.k.k.k.k.k.k.k.k.k.k.k.k.k.",
"k.k.k.k.k.k.k.k.k.k.k.k.k.k.k.k.k.k.k.k.k.k.k.+.| b k x x x k j h j x x x v ` k.k.k.k.k.k.k.k.k.k.k.k.k.k.k.k.k.k.k.k.k.k.k.k.k.",
"k.k.k.k.k.k.k.k.k.k.k.k.k.k.k.k.k.k.k.k.k.k.a 7 O.| b x x x x x j j x x c ] 0.k.k.k.k.k.k.k.k.k.k.k.k.k.k.k.k.k.k.k.k.k.k.k.k.k.",
"k.k.k.k.k.k.k.k.k.k.k.k.k.k.k.k.k.k.k.k.k.k.L 2 7 O.| n v x x x x x x x ] 0.<.k.k.k.k.k.k.k.k.k.k.k.k.k.k.k.k.k.k.k.k.k.k.k.k.k.",
"k.k.k.k.k.k.k.k.k.k.k.k.k.k.k.k.k.k.k.k.k.d.7.6 4 7 G %.] x x x x x x ] %.;.8.k.k.k.k.k.k.k.k.k.k.k.k.k.k.k.k.k.k.k.k.k.k.k.k.k.",
"k.k.k.k.k.k.k.k.k.k.k.k.k.k.k.k.k.k.k.k.k.d.s.S 2 4 2 r %.} [ n v v ] %.w ^ s.s.k.k.k.k.k.k.k.k.k.k.k.k.k.k.k.k.k.k.k.k.k.k.k.k.",
"k.k.k.k.k.k.k.k.k.k.k.k.k.k.k.k.k.k.k.k.k.d.s.&.6 2 6 6 w r F @.{ { @.e 2 ^ y.s.k.k.k.k.k.k.k.k.k.k.k.k.k.k.k.k.k.k.k.k.k.k.k.k.",
"k.k.k.k.k.k.k.k.k.k.k.k.k.k.k.k.k.k.k.k.k.d.d.e.A 2 4 6 4 4 4 4 4 4 4 4 2 / s.d.k.k.k.k.k.k.k.k.k.k.k.k.k.k.k.k.k.k.k.k.k.k.k.k.",
"k.k.k.k.k.k.k.k.k.k.k.k.k.k.k.k.k.k.k.k.k.d.d.e.X.8 2 6 6 6 6 6 4 6 6 6 2 ^ s.s.k.k.k.k.k.k.k.k.k.k.k.k.k.k.k.k.k.k.k.k.k.k.k.k.",
"k.k.k.k.k.k.k.k.k.k.k.k.k.k.k.k.k.k.k.k.k.s.d.e.,.e 2 6 6 6 6 6 6 6 6 3 6 X.s.d.k.k.k.k.k.k.k.k.k.k.k.k.k.k.k.k.k.k.k.k.k.k.k.k.",
"k.k.k.k.k.k.k.k.k.k.k.k.k.k.k.k.k.k.k.k.k.s.d.e.,.= 2 6 6 6 6 6 6 6 6 3 S ,.y.d.k.k.k.k.k.k.k.k.k.k.k.k.k.k.k.k.k.k.k.k.k.k.k.k.",
"k.k.k.k.k.k.k.k.k.k.k.k.k.k.k.k.k.k.k.k.k.s.s.e.>.2 2 2 6 6 6 6 6 6 6 3 A ,.8.s.U k.k.k.k.k.k.k.k.k.k.k.k.k.k.k.k.k.k.k.k.k.k.k.",
"k.k.k.k.k.k.k.k.k.k.k.k.k.k.k.k.k.k.k.k.k.s.s.3.k.k.2 2 6 6 6 6 6 6 6 4 w *.*.Q 8 k.k.k.k.k.k.k.k.k.k.k.k.k.k.k.k.k.k.k.k.k.k.k.",
"k.k.k.k.k.k.k.k.k.k.k.k.k.k.k.k.k.k.k.k.4.d.s.,.k.k.2 2 4 6 6 6 6 6 6 6 k.3 3 3 6 k.k.k.k.k.k.k.k.k.k.k.k.k.k.k.k.k.k.k.k.k.k.k.",
"k.k.k.k.k.k.k.k.k.k.k.k.k.k.k.k.k.k.k.k.u 1.t.,.k.k.= 2 4 6 6 6 6 6 6 6 k.k.- - 4 6 k.k.k.k.k.k.k.k.k.k.k.k.k.k.k.k.k.k.k.k.k.k.",
"k.k.k.k.k.k.k.k.k.k.k.k.k.k.k.k.k.k.k.k.6 8 p w k.k.2 = 2 4 6 6 6 y y 8 > k.2 - 4 6 k.k.k.k.k.k.k.k.k.k.k.k.k.k.k.k.k.k.k.k.k.k.",
"k.k.k.k.k.k.k.k.k.k.k.k.k.k.k.k.k.k.k.k.k.3 2 = k.k.2 2 2 6 6 > w K Z J ; k.k.2 2 4 k.k.k.k.k.k.k.k.k.k.k.k.k.k.k.k.k.k.k.k.k.k.",
"k.k.k.k.k.k.k.k.k.k.k.k.k.k.k.k.k.k.k.k.k.6 2 2 k.k.- - & & & # 9 p ; Z # k.k.2 2 6 k.k.k.k.k.k.k.k.k.k.k.k.k.k.k.k.k.k.k.k.k.k.",
"k.k.k.k.k.k.k.k.k.k.k.k.k.k.k.k.k.k.k.k.k.6 4 2 k.# $ # # # # # 9 p ; Z $ k.k.- 2 4 k.k.k.k.k.k.k.k.k.k.k.k.k.k.k.k.k.k.k.k.k.k.",
"k.k.k.k.k.k.k.k.k.k.k.k.k.k.k.k.k.k.k.k.k.6 6 2 k.# # # # # # # 9 J t J - k.k.k.2 3 k.k.k.k.k.k.k.k.k.k.k.k.k.k.k.k.k.k.k.k.k.k.",
"k.k.k.k.k.k.k.k.k.k.k.k.k.k.k.k.k.k.k.k.k.6 6 2 - # # # # # # # : p s i 4 k.k.k.~ Q 6 k.k.k.k.k.k.k.k.k.k.k.k.k.k.k.k.k.k.k.k.k.",
"k.k.k.k.k.k.k.k.k.k.k.k.k.k.k.k.k.k.k.k.k.4 4 4 r ; ; : @ @ % * * - 2 3 4 2 k.:.7.t.U k.k.k.k.k.k.k.k.k.k.k.k.k.k.k.k.k.k.k.k.k.",
"k.k.k.k.k.k.k.k.k.k.k.k.k.k.k.k.k.k.k.k.k.3 2 Q 3.0 s w.T R R R R E E W R W p.w.f.g.6._ k.k.k.k.k.k.k.k.k.k.k.k.k.k.k.k.k.k.k.k.",
"k.k.k.k.k.k.k.k.k.k.k.k.k.k.k.k.k.k.k.k.& 3 ! s.9.1 s j.j.j.j.j.j.j.j.j.j.j.j.j.h.h.j.h.j.h.j.j.j.h.h.h.k.k.k.k.k.k.k.k.k.k.k.k.",
"k.k.k.k.k.k.k.k.k.k.k.k.k.k.k.k.k.k.k.# O D t.r.<.1 Z a.i.i.i.i.i.i.i.i.i.i.i.i.i.i.i.i.i.i.i.i.i.i.i.i.k.k.k.k.k.k.k.k.k.k.k.k.",
"k.k.k.k.k.k.k.k.k.k.k.k.k.k.k.k.k.k.k.k.k.:.,.,.*.N ! i.R W ( W W W W W W W ( ) ) ) ) ) ) ) ) ) ) ) ) k.k.k.k.k.k.k.k.k.k.k.k.k.",
"k.k.k.k.k.k.k.k.k.k.k.k.k.k.k.k.k.k.k.k.k.k.k.k.S M A Z - 3 3 6 6 4 4 6 6 4 4 k.k.k.k.k.k.k.k.k.k.k.k.k.k.k.k.k.k.k.k.k.k.k.k.k.",
"k.k.k.k.k.k.k.k.k.k.k.k.k.k.k.k.k.k.k.k.k.k.k.k.k.M m < 3 3 3 6 6 6 6 6 6 6 6 k.k.k.k.k.k.k.k.k.k.k.k.k.k.k.k.k.k.k.k.k.k.k.k.k.",
"k.k.k.k.k.k.k.k.k.k.k.k.k.k.k.k.k.k.k.k.k.k.k.k.M M M q < 2 3 6 6 6 6 6 6 6 6 k.k.k.k.k.k.k.k.k.k.k.k.k.k.k.k.k.k.k.k.k.k.k.k.k.",
"k.k.k.k.k.k.k.k.k.k.k.k.k.k.k.k.k.k.k.k.k.k.k.k.M M m m 4 2 6 6 6 6 6 6 6 6 6 6 k.k.k.k.k.k.k.k.k.k.k.k.k.k.k.k.k.k.k.k.k.k.k.k.",
"k.k.k.k.k.k.k.k.k.k.k.k.k.k.k.k.k.k.k.k.k.k.k.k.M M M m < 2 4 6 6 6 6 6 6 6 6 6 k.k.k.k.k.k.k.k.k.k.k.k.k.k.k.k.k.k.k.k.k.k.k.k.",
"k.k.k.k.k.k.k.k.k.k.k.k.k.k.k.k.k.k.k.k.k.k.k.k.M M M m 3 = 3 6 6 6 6 6 6 4 6 6 k.k.k.k.k.k.k.k.k.k.k.k.k.k.k.k.k.k.k.k.k.k.k.k.",
"k.k.k.k.k.k.k.k.k.k.k.k.k.k.k.k.k.k.k.k.k.k.k.k.M M M m 4 = 2 4 6 6 6 3 3 3 6 k.k.k.k.k.k.k.k.k.k.k.k.k.k.k.k.k.k.k.k.k.k.k.k.k.",
"k.k.k.k.k.k.k.k.k.k.k.k.k.k.k.k.k.k.k.k.k.k.k.k.M M M M 5 2 2 2 2 > 4 - > 5 k.k.k.k.k.k.k.k.k.k.k.k.k.k.k.k.k.k.k.k.k.k.k.k.k.k.",
"k.k.k.k.k.k.k.k.k.k.k.k.k.k.k.k.k.k.k.k.k.k.k.k.k.M M M m e k.k.k.q m t t m k.k.k.k.k.k.k.k.k.k.k.k.k.k.k.k.k.k.k.k.k.k.k.k.k.k.",
"k.k.k.k.k.k.k.k.k.k.k.k.k.k.k.k.k.k.k.k.k.k.k.k.M M M M M M k.k.k.m M M M M k.k.k.k.k.k.k.k.k.k.k.k.k.k.k.k.k.k.k.k.k.k.k.k.k.k.",
"k.k.k.k.k.k.k.k.k.k.k.k.k.k.k.k.k.k.k.k.k.k.k.k.M M M M N k.k.k.k.m M M M k.k.k.k.k.k.k.k.k.k.k.k.k.k.k.k.k.k.k.k.k.k.k.k.k.k.k.",
"k.k.k.k.k.k.k.k.k.k.k.k.k.k.k.k.k.k.k.k.k.k.k.k.M M N M M k.k.k.k.m M M M k.k.k.k.k.k.k.k.k.k.k.k.k.k.k.k.k.k.k.k.k.k.k.k.k.k.k.",
"k.k.k.k.k.k.k.k.k.k.k.k.k.k.k.k.k.k.k.k.k.k.k.M M M N N k.k.k.k.q m M M k.k.k.k.k.k.k.k.k.k.k.k.k.k.k.k.k.k.k.k.k.k.k.k.k.k.k.k.",
"k.k.k.k.k.k.k.k.k.k.k.k.k.k.k.k.k.k.k.k.k.k.k.V M N N N k.k.k.k.q M M M k.k.k.k.k.k.k.k.k.k.k.k.k.k.k.k.k.k.k.k.k.k.k.k.k.k.k.k.",
"k.k.k.k.k.k.k.k.k.k.k.k.k.k.k.k.k.k.k.k.k.k.k.t r t t t k.k.k.k.m M M M k.k.k.k.k.k.k.k.k.k.k.k.k.k.k.k.k.k.k.k.k.k.k.k.k.k.k.k.",
"k.k.k.k.k.k.k.k.k.k.k.k.k.k.k.k.k.k.k.k.k.k.k.6 6 6 4 2 k.k.k.k.5 t M M k.k.k.k.k.k.k.k.k.k.k.k.k.k.k.k.k.k.k.k.k.k.k.k.k.k.k.k.",
"k.k.k.k.k.k.k.k.k.k.k.k.k.k.k.k.k.k.k.k.k.k.k.k.6 6 4 2 k.k.k.k.2 6 7 6 k.k.k.k.k.k.k.k.k.k.k.k.k.k.k.k.k.k.k.k.k.k.k.k.k.k.k.k.",
"k.k.k.k.k.k.k.k.k.k.k.k.k.k.k.k.k.k.k.k.k.k.k.k.6 4 2 2 k.k.k.k.2 6 4 2 k.k.k.k.k.k.k.k.k.k.k.k.k.k.k.k.k.k.k.k.k.k.k.k.k.k.k.k.",
"k.k.k.k.k.k.k.k.k.k.k.k.k.k.k.k.k.k.k.k.k.k.k.k.6 6 2 k.k.k.k.k.2 6 2 k.k.k.k.k.k.k.k.k.k.k.k.k.k.k.k.k.k.k.k.k.k.k.k.k.k.k.k.k.",
"k.k.k.k.k.k.k.k.k.k.k.k.k.k.k.k.k.k.k.k.k.k.k.k.6 6 2 2 k.k.k.k.4 6 4 6 k.k.k.k.k.k.k.k.k.k.k.k.k.k.k.k.k.k.k.k.k.k.k.k.k.k.k.k.",
"k.k.k.k.k.k.k.k.k.k.k.k.k.k.k.k.k.k.k.k.k.k.k.k.6 6 6 2 k.k.k.k.6 6 6 4 6 k.k.k.k.k.k.k.k.k.k.k.k.k.k.k.k.k.k.k.k.k.k.k.k.k.k.k.",
"k.k.k.k.k.k.k.k.k.k.k.k.k.k.k.k.k.k.k.k.k.k.k.6 6 6 6 3 = k.k.k.3 3 4 4 6 6 k.k.k.k.k.k.k.k.k.k.k.k.k.k.k.k.k.k.k.k.k.k.k.k.k.k.",
"k.k.k.k.k.k.k.k.k.k.k.k.k.k.k.k.k.k.k.k.k.k.k.2 2 2 2 2 2 k.k.k.k.2 2 2 2 2 k.k.k.k.k.k.k.k.k.k.k.k.k.k.k.k.k.k.k.k.k.k.k.k.k.k."
};
