/* XPM */
static char *_d43i_qxaxf[] = {
/* columns rows colors chars-per-pixel */
"64 64 115 2 ",
"   c #040302",
".  c #0A0605",
"X  c #1E0F05",
"o  c #100F0F",
"O  c #1E1006",
"+  c #1D130C",
"@  c #1C1512",
"#  c #171A1E",
"$  c #1B1A1D",
"%  c #25170D",
"&  c #2A180D",
"*  c #3F1605",
"=  c #3E1B0E",
"-  c #261C17",
";  c #291D15",
":  c #241B18",
">  c #2A1D18",
",  c #341D15",
"<  c #3B1C11",
"1  c #33261E",
"2  c #1B1D21",
"3  c #211F22",
"4  c #1F2024",
"5  c #222226",
"6  c #2B2525",
"7  c #2A2827",
"8  c #232428",
"9  c #2D2A2C",
"0  c #332724",
"q  c #352A25",
"w  c #3E2E26",
"e  c #332C2A",
"r  c #36312E",
"t  c #3A322C",
"y  c #372F30",
"u  c #313234",
"i  c #3B3131",
"p  c #37373A",
"a  c #4F1A06",
"s  c #531A03",
"d  c #5B1D05",
"f  c #601F05",
"g  c #5C2209",
"h  c #652207",
"j  c #652308",
"k  c #402F27",
"l  c #44342C",
"z  c #48372F",
"x  c #49382F",
"c  c #403433",
"v  c #483735",
"b  c #4A3833",
"n  c #443A3A",
"m  c #7D421E",
"M  c #504132",
"N  c #55413B",
"B  c #5B433E",
"V  c #444342",
"C  c #514544",
"Z  c #555353",
"A  c #5A5A5A",
"S  c #654B43",
"D  c #66504C",
"F  c #755045",
"G  c #7A5245",
"H  c #71524A",
"J  c #78544B",
"K  c #7E584E",
"L  c #6D5753",
"P  c #715A56",
"I  c #7B5B52",
"U  c #755E59",
"Y  c #777777",
"T  c #7C7C7C",
"R  c #824622",
"E  c #8C532B",
"W  c #956137",
"Q  c #936138",
"!  c #9B6A3F",
"~  c #865E53",
"^  c #885F54",
"/  c #856441",
"(  c #916C44",
")  c #977046",
"_  c #997248",
"`  c #8E665B",
"'  c #89695F",
"]  c #93665A",
"[  c #9C6B5D",
"{  c #8D6B62",
"}  c #976C61",
"|  c #9B6D60",
" . c #957167",
".. c #9C7164",
"X. c #977268",
"o. c #817C7B",
"O. c #9D7A70",
"+. c #A17163",
"@. c #A77C6F",
"#. c #A8796B",
"$. c #AD7E70",
"%. c #AE8174",
"&. c #B28274",
"*. c #B48779",
"=. c #B98C7F",
"-. c gray51",
";. c #8E8F8F",
":. c #909090",
">. c #9D9D9D",
",. c #BB8F82",
"<. c #BC9184",
"1. c #AAA6A5",
"2. c #AEAEAE",
"3. c #C29486",
"4. c None",
/* pixels */
"4.4.4.4.4.4.4.4.4.4.4.4.4.4.4.4.4.4.4.4.4.4.4.4.4.4.4.4.4.4.4.4.4.4.4.4.4.4.4.4.4.4.4.4.4.4.4.4.4.4.4.4.4.4.4.4.4.4.4.4.4.4.4.4.",
"4.4.4.4.4.4.4.4.4.4.4.4.4.4.4.4.4.4.4.4.4.4.4.4.4.4.4.4.4.4.4.4.4.4.4.4.4.4.4.4.4.4.4.4.4.4.4.4.4.4.4.4.4.4.4.4.4.4.4.4.4.4.4.4.",
"4.4.4.4.4.4.4.4.4.4.4.4.4.4.4.4.4.4.4.4.4.4.4.4.4.4.4.4.4.4.4.4.4.4.4.4.4.4.4.4.4.4.4.4.4.4.4.4.4.4.4.4.4.4.4.4.4.4.4.4.4.4.4.4.",
"4.4.4.4.4.4.4.4.4.4.4.4.4.4.4.4.4.4.4.4.4.4.4.4.4.4.4.4.4.4.4.4.4.4.4.4.4.4.4.4.4.4.4.4.4.4.4.4.4.4.4.4.4.4.4.4.4.4.4.4.4.4.4.4.",
"4.4.4.4.4.4.4.4.4.4.4.4.4.4.4.4.4.4.4.4.4.4.4.4.4.4.4.4.4.4.4.4.4.4.4.4.4.4.4.4.4.4.4.4.4.4.4.4.4.4.4.4.4.4.4.4.4.4.4.4.4.4.4.4.",
"4.4.4.4.4.4.4.4.4.4.4.4.4.4.4.4.4.4.4.4.4.4.4.4.4.4.4.4.4.4.4.4.4.4.4.4.4.4.4.4.4.4.4.4.4.4.4.4.4.4.4.4.4.4.4.4.4.4.4.4.4.4.4.4.",
"4.4.4.4.4.4.4.4.4.4.4.4.4.4.4.4.4.4.4.4.4.4.4.4.4.4.4.4.4.4.4.4.4.4.4.4.4.4.4.4.4.4.4.4.4.4.4.4.4.4.4.4.4.4.4.4.4.4.4.4.4.4.4.4.",
"4.4.4.4.4.4.4.4.4.4.4.4.4.4.4.4.4.4.4.4.4.4.4.4.4.4.4.4.4.4.4.4.4.4.4.4.4.4.4.4.4.4.4.4.4.4.4.4.4.4.4.4.4.4.4.4.4.4.4.4.4.4.4.4.",
"4.4.4.4.4.4.4.4.4.4.4.4.4.4.4.4.4.4.4.4.4.4.4.4.4.4.4.4.4.4.4.4.4.4.4.4.4.4.4.4.4.4.4.4.4.4.4.4.4.4.4.4.4.4.4.4.4.4.4.4.4.4.4.4.",
"4.4.4.4.4.4.4.4.4.4.4.4.4.4.4.4.4.4.4.4.4.4.4.4.4.4.4.4.4.4.4.4.4.4.4.4.4.4.4.4.4.4.4.4.4.4.4.4.4.4.4.4.4.4.4.4.4.4.4.4.4.4.4.4.",
"4.4.4.4.4.4.4.4.4.4.4.4.4.4.4.4.4.4.4.4.4.4.4.4.4.4.4.4.4.4.4.4.4.4.4.4.4.4.4.4.4.4.4.4.4.4.4.4.4.4.4.4.4.4.4.4.4.4.4.4.4.4.4.4.",
"4.4.4.4.4.4.4.4.4.4.4.4.4.4.4.4.4.4.4.4.4.4.4.4.4.4.4.4.4.4.4.4.4.4.4.4.4.4.4.4.4.4.4.4.4.4.4.4.4.4.4.4.4.4.4.4.4.4.4.4.4.4.4.4.",
"4.4.4.4.4.4.4.4.4.4.4.4.4.4.4.4.4.4.4.4.4.4.4.4.4.4.4.4.4.4.4.4.4.4.4.4.4.4.4.4.4.4.4.4.4.4.4.4.4.4.4.4.4.4.4.4.4.4.4.4.4.4.4.4.",
"4.4.4.4.4.4.4.4.4.4.4.4.4.4.4.4.4.4.4.4.4.4.4.4.4.4.4.4.4.4.4.4.4.4.4.4.4.4.4.4.4.4.4.4.      4.4.4.4.4.4.4.4.4.4.4.4.4.4.4.4.4.",
"4.4.4.4.4.4.4.4.4.4.4.4.4.4.4.4.4.4.4.4.4.4.4.4.4.4.4.4.4.4.4.4.4.4.4.4.4.4.4.4.4.4.4.          4.4.4.4.4.4.4.4.4.4.4.4.4.4.4.4.",
"4.4.4.4.4.4.4.4.4.4.4.4.4.4.4.4.4.4.4.4.4.4.4.4.4.4.4.4.4.4.4.4.4.4.4.4.4.4.4.4.4.4.              4.4.4.4.4.4.4.4.4.4.4.4.4.4.4.",
"4.4.4.4.4.4.4.4.4.4.4.4.4.4.4.4.4.4.4.4.4.4.4.4.4.4.4.4.4.4.4.4.4.4.4.4.4.4.4.4.4.4.q               4.4.4.4.4.4.4.4.4.4.4.4.4.4.",
"4.4.4.4.4.4.4.4.4.4.4.4.4.4.4.4.4.4.4.4.4.4.4.4.4.4.4.4.4.4.4.4.4.4.4.4.4.4.4.4.4.4.I b   N S > 0 . 4.4.4.4.4.4.4.4.4.4.4.4.4.4.",
"4.4.4.4.4.4.4.4.4.4.4.4.4.4.4.4.4.4.4.4.4.4.4.4.4.4.4.4.4.4.4.4.4.4.4.4.4.4.4.4.4.: @ { { ,.,.] 4.4.4.4.4.4.4.4.4.4.4.4.4.4.4.4.",
"4.4.4.4.4.4.4.4.4.4.4.4.4.4.4.4.4.4.4.4.4.4.4.4.4.4.4.4.4.4.4.4.4.4.4.W h h h j <     . b @.#.4.4.4.4.4.4.4.4.4.4.4.4.4.4.4.4.4.",
"4.4.4.4.4.4.4.4.4.4.4.4.4.4.4.4.4.4.4.4.4.4.4.4.4.4.4.4.4.4.4.4.4.4 e Q h h h d < o       F [ 4.4.4.4.4.4.4.4.4.4.4.4.4.4.4.4.4.",
"4.4.4.4.4.4.4.4.4.4.4.4.4.4.4.4.4.4.4.4.4.4.4.4.4.4.4.4.4.<.3.O.9 8 7 ) E h d s s < o     @ 9 4.4.4.4.4.4.4.4.4.4.4.4.4.4.4.4.4.",
"4.4.4.4.4.4.4.4.4.4.4.4.4.4.4.4.4.4.4.4.4.4.4.4.4.4.4.,.<.,.X.p 5 8 5 t _ E d s s s < .   . , 4.4.4.4.4.4.4.4.4.4.4.4.4.4.4.4.4.",
"4.4.4.4.4.4.4.4.4.4.4.4.4.4.4.4.4.4.4.4.4.4.4.4.4.4.<.,.$.` i 4 8 8 8 4 e _ E d s s a @ . * f 4.4.4.4.4.4.4.4.4.4.4.4.4.4.4.4.4.",
"4.4.4.4.4.4.4.4.4.4.4.4.4.4.4.4.4.4.4.4.4.4.4.4.4.X.,.$.^ y 4 8 8 8 9 n n i _ E d s s a s h 4.4.4.4.4.4.4.4.4.4.4.4.4.4.4.4.4.4.",
"4.4.4.4.4.4.4.4.4.4.4.4.4.4.4.4.4.4.4.4.4.4.4.4.5 c } ^ i 5 8 8 8 8 9 ..,.L t _ E s s s d j 4.4.4.4.4.4.4.4.4.4.4.4.4.4.4.4.4.4.",
"4.4.4.4.4.4.4.4.4.4.4.4.4.4.4.4.4.4.4.4.4.4.4.5 8 2 e i 8 8 8 8 8 4 u | =.,.L t ( ( R g d 4.4.4.4.4.4.4.4.4.4.4.4.4.4.4.4.4.4.4.",
"4.4.4.4.4.4.4.4.4.4.4.4.4.4.4.4.4.4.4.4.4.4.C 5 4 2 2 5 8 8 8 8 8 8 7 J [ %.,.P 4 M Q ! R 4.4.4.4.4.4.4.4.4.4.4.4.4.4.4.4.4.4.4.",
"4.4.4.4.4.4.4.4.4.4.4.4.4.4.4.4.4.4.4.4.4.3.U 2 2 2 5 8 8 8 8 8 8 8 3 7 J [ &.,.P 5 5 4.4.4.4.4.4.4.4.4.4.4.4.4.4.4.4.4.4.4.4.4.",
"4.4.4.4.4.4.4.4.4.4.4.4.4.4.4.4.4.4.4.4.4.&.H e i 4.5 8 8 8 8 8 8 8 8 3 5 J +.$.,.U 4.4.4.4.4.4.4.4.4.4.4.4.4.4.4.4.4.4.4.4.4.4.",
"4.4.4.4.4.4.4.4.4.4.4.4.4.4.4.4.4.4.4.4.,.$.+.] +.D 5 8 8 8 8 8 8 8 8 5 2 5 J [ %.,.,.4.4.4.4.4.4.4.4.4.4.4.4.4.4.4.4.4.4.4.4.4.",
"4.4.4.4.4.4.4.4.4.4.4.4.4.4.4.4.4.4.4.4.4.<.*.4.4.0 2 4 4 5 8 5 5 8 8 2 2 2 6 K [ &.=.| 4.4.4.4.4.4.4.4.4.4.4.4.4.4.4.4.4.4.4.4.",
"4.4.4.4.4.4.4.4.4.4.4.4.4.4.4.4.4.4.4.4.4.4.4.4.4.+ O @ $ 2 2 $ 2 2 2 2 2 2 4.4.[ [ $.I 5 8 4.4.4.4.4.4.4.4.4.4.4.4.4.4.4.4.4.4.",
"4.4.4.4.4.4.4.4.4.4.4.4.4.4.4.4.4.4.4.4.4.4.4.4.O O O O % @ @ @ 2 2 2 2 2 4.4.4.4.H B b 2 5 8 4.4.4.4.4.4.4.4.4.4.4.4.4.4.4.4.4.",
"4.4.4.4.4.4.4.4.4.4.4.4.4.4.4.4.4.4.4.4.4.4.4.4.O O X O X X X O @ t V 8 4.4.4.4.4.4.# 2 2 5 8 5 C <.<.1.2.4.4.4.4.4.4.4.4.4.4.4.",
"4.4.4.4.4.4.4.4.4.4.4.4.4.4.4.4.4.4.4.4.4.4.4.4.% O O O O X X % q q - Z 4.4.4.4.4.4.4.2 2 2 5 5 H X.%.o.;.>.>.>.>.>.:.4.4.4.4.4.",
"4.4.4.4.4.4.4.4.4.4.4.4.4.4.4.4.4.4.4.4.4.4.4.4.q - @ % O O O e 0 % t 4.4.4.4.4.4.4.4.4.4.4.2 + & G | 4.Y T ;.4.4.4.4.4.4.4.4.4.",
"4.4.4.4.4.4.4.4.4.4.4.4.4.4.4.4.4.4.4.4.4.4.4.4.k 6 $ @ $ + O V 1 t A 4.4.4.4.4.4.4.4.4.4.4.4.4.4.4.4.4.4.4.-.4.4.4.4.4.4.4.4.4.",
"4.4.4.4.4.4.4.4.4.4.4.4.4.4.4.4.4.4.4.4.4.4.4.4.w 6 2 2 2 2 4 p V u 8 4.4.4.4.4.4.4.4.4.4.4.4.4.4.4.4.4.4.4.4.4.4.4.4.4.4.4.4.4.",
"4.4.4.4.4.4.4.4.4.4.4.4.4.4.4.4.4.4.4.4.4.4.4.4.w 7 2 $ $ 8 8 4 4 4 8 4.4.4.4.4.4.4.4.4.4.4.4.4.4.4.4.4.4.4.4.4.4.4.4.4.4.4.4.4.",
"4.4.4.4.4.4.4.4.4.4.4.4.4.4.4.4.4.4.4.4.4.4.4.z k 6 $ 2 $ 4 8 8 8 8 8 8 4.4.4.4.4.4.4.4.4.4.4.4.4.4.4.4.4.4.4.4.4.4.4.4.4.4.4.4.",
"4.4.4.4.4.4.4.4.4.4.4.4.4.4.4.4.4.4.4.4.4.4.4.z l 0 4 $ 2 2 8 8 8 8 8 8 8 4.4.4.4.4.4.4.4.4.4.4.4.4.4.4.4.4.4.4.4.4.4.4.4.4.4.4.",
"4.4.4.4.4.4.4.4.4.4.4.4.4.4.4.4.4.4.4.4.4.4.4.z z w 5 2 2 2 2 4 8 8 8 8 8 8 4.4.4.4.4.4.4.4.4.4.4.4.4.4.4.4.4.4.4.4.4.4.4.4.4.4.",
"4.4.4.4.4.4.4.4.4.4.4.4.4.4.4.4.4.4.4.4.4.4.4.z b l : 2 2 $ 2 4 8 8 8 8 8 8 8 4.4.4.4.4.4.4.4.4.4.4.4.4.4.4.4.4.4.4.4.4.4.4.4.4.",
"4.4.4.4.4.4.4.4.4.4.4.4.4.4.4.4.4.4.4.4.4.4.4.z z l 3 $ 2 2 $ 2 2 4 5 4 4 4 5 4.4.4.4.4.4.4.4.4.4.4.4.4.4.4.4.4.4.4.4.4.4.4.4.4.",
"4.4.4.4.4.4.4.4.4.4.4.4.4.4.4.4.4.4.4.4.4.4.z z l w 5 $ 2 2 2 2 2 2 0 q q q w l 4.4.4.4.4.4.4.4.4.4.4.4.4.4.4.4.4.4.4.4.4.4.4.4.",
"4.4.4.4.4.4.4.4.4.4.4.4.4.4.4.4.4.4.4.4.4.4.z z z w q 2 2 $ 2 2 4.4.w w k l z z z 4.4.4.4.4.4.4.4.4.4.4.4.4.4.4.4.4.4.4.4.4.4.4.",
"4.4.4.4.4.4.4.4.4.4.4.4.4.4.4.4.4.4.4.4.4.z z z z w 4.4.4.4.4.4.4.4.4.w w w l z z 4.4.4.4.4.4.4.4.4.4.4.4.4.4.4.4.4.4.4.4.4.4.4.",
"4.4.4.4.4.4.4.4.4.4.4.4.4.4.4.4.4.4.4.4.4.b z z l w 4.4.4.4.4.4.4.4.4.4.w w l z z 4.4.4.4.4.4.4.4.4.4.4.4.4.4.4.4.4.4.4.4.4.4.4.",
"4.4.4.4.4.4.4.4.4.4.4.4.4.4.4.4.4.4.4.4.4.z z z l 4.4.4.4.4.4.4.4.4.4.4.4.w w z z b 4.4.4.4.4.4.4.4.4.4.4.4.4.4.4.4.4.4.4.4.4.4.",
"4.4.4.4.4.4.4.4.4.4.4.4.4.4.4.4.4.4.4.4.z z z z w 4.4.4.4.4.4.4.4.4.4.4.4.w w z z z 4.4.4.4.4.4.4.4.4.4.4.4.4.4.4.4.4.4.4.4.4.4.",
"4.4.4.4.4.4.4.4.4.4.4.4.4.4.4.4.4.4.4.4.z z z l w 4.4.4.4.4.4.4.4.4.4.4.4.4.w w z z 4.4.4.4.4.4.4.4.4.4.4.4.4.4.4.4.4.4.4.4.4.4.",
"4.4.4.4.4.4.4.4.4.4.4.4.4.4.4.4.4.4.4.4.z z l k w 4.4.4.4.4.4.4.4.4.4.4.4.4.w w l z z 4.4.4.4.4.4.4.4.4.4.4.4.4.4.4.4.4.4.4.4.4.",
"4.4.4.4.4.4.4.4.4.4.4.4.4.4.4.4.4.4.4.4.z z l w w 4.4.4.4.4.4.4.4.4.4.4.4.4.4.w w z z z 4.4.4.4.4.4.4.4.4.4.4.4.4.4.4.4.4.4.4.4.",
"4.4.4.4.4.4.4.4.4.4.4.4.4.4.4.4.4.4.4.e z z k w 4.4.4.4.4.4.4.4.4.4.4.4.4.4.4.0 0 q z z 4.4.4.4.4.4.4.4.4.4.4.4.4.4.4.4.4.4.4.4.",
"4.4.4.4.4.4.4.4.4.4.4.4.4.4.4.4.4.4.4.5 7 0 k k 4.4.4.4.4.4.4.4.4.4.4.4.4.4.4.2 2 4 9 e 4.4.4.4.4.4.4.4.4.4.4.4.4.4.4.4.4.4.4.4.",
"4.4.4.4.4.4.4.4.4.4.4.4.4.4.4.4.4.4.4.8 5 3 q 4.4.4.4.4.4.4.4.4.4.4.4.4.4.4.4.4.2 2 4 8 8 4.4.4.4.4.4.4.4.4.4.4.4.4.4.4.4.4.4.4.",
"4.4.4.4.4.4.4.4.4.4.4.4.4.4.4.4.4.4.8 8 2 2 2 4.4.4.4.4.4.4.4.4.4.4.4.4.4.4.4.4.2 2 2 2 8 4.4.4.4.4.4.4.4.4.4.4.4.4.4.4.4.4.4.4.",
"4.4.4.4.4.4.4.4.4.4.4.4.4.4.4.4.4.4.8 5 2 2 2 4.4.4.4.4.4.4.4.4.4.4.4.4.4.4.4.4.4.2 2 2 5 8 4.4.4.4.4.4.4.4.4.4.4.4.4.4.4.4.4.4.",
"4.4.4.4.4.4.4.4.4.4.4.4.4.4.4.4.4.8 8 4 2 2 2 4.4.4.4.4.4.4.4.4.4.4.4.4.4.4.4.4.4.2 $ 2 2 4 8 8 4.4.4.4.4.4.4.4.4.4.4.4.4.4.4.4.",
"4.4.4.4.4.4.4.4.4.4.4.4.4.4.4.4.4.4 4 2 2 2 2 4.4.4.4.4.4.4.4.4.4.4.4.4.4.4.4.4.4.4.2 2 2 2 4 4 5 4.4.4.4.4.4.4.4.4.4.4.4.4.4.4.",
"4.4.4.4.4.4.4.4.4.4.4.4.4.4.4.4.4.4.4.4.4.4.4.4.4.4.4.4.4.4.4.4.4.4.4.4.4.4.4.4.4.4.4.4.4.4.4.4.4.4.4.4.4.4.4.4.4.4.4.4.4.4.4.4.",
"4.4.4.4.4.4.4.4.4.4.4.4.4.4.4.4.4.4.4.4.4.4.4.4.4.4.4.4.4.4.4.4.4.4.4.4.4.4.4.4.4.4.4.4.4.4.4.4.4.4.4.4.4.4.4.4.4.4.4.4.4.4.4.4.",
"4.4.4.4.4.4.4.4.4.4.4.4.4.4.4.4.4.4.4.4.4.4.4.4.4.4.4.4.4.4.4.4.4.4.4.4.4.4.4.4.4.4.4.4.4.4.4.4.4.4.4.4.4.4.4.4.4.4.4.4.4.4.4.4."
};
