/* XPM */
static char *ig0gw_ww1yq[] = {
/* columns rows colors chars-per-pixel */
"64 64 139 2 ",
"   c #040302",
".  c #0A0604",
"X  c #0F0B09",
"o  c #160803",
"O  c #1C0E05",
"+  c #120D0B",
"@  c #1A0E0A",
"#  c #1E1006",
"$  c #1D120A",
"%  c #151211",
"&  c #1E1613",
"*  c #191718",
"=  c #16191E",
"-  c #1A1A1E",
";  c #23140B",
":  c #231913",
">  c #231D1C",
",  c #3A1E16",
"<  c #2E211E",
"1  c #31271F",
"2  c #1C1D21",
"3  c #1F2024",
"4  c #222226",
"5  c #2A2524",
"6  c #232428",
"7  c #2A2728",
"8  c #2C292A",
"9  c #312720",
"0  c #392721",
"q  c #362A24",
"w  c #3C2D26",
"e  c #342D2C",
"r  c #3A2E2C",
"t  c #37302B",
"y  c #3C312C",
"u  c #2E2F32",
"i  c #312E30",
"p  c #343437",
"a  c #3B3532",
"s  c #3E3739",
"d  c #393A3C",
"f  c #471603",
"g  c #4A1703",
"h  c #4C1C0A",
"j  c #541B04",
"k  c #5C1E05",
"l  c #601F06",
"z  c #40281C",
"x  c #5C2510",
"c  c #652207",
"v  c #662408",
"b  c #69260A",
"n  c #6B2A0D",
"m  c #763615",
"M  c #43332A",
"N  c #48372F",
"B  c #49382F",
"V  c #473D36",
"C  c #4E3B35",
"Z  c #433D3B",
"A  c #47423F",
"S  c #55423C",
"D  c #5A433D",
"F  c #60463C",
"G  c #6B553C",
"H  c #71573C",
"J  c #464240",
"K  c #4A4643",
"L  c #4D4D4F",
"P  c #584744",
"I  c #5E4841",
"U  c #504E4C",
"Y  c #5C4C4A",
"T  c #5E534D",
"R  c #4F4F51",
"E  c #545556",
"W  c #555659",
"Q  c #5A5B5C",
"!  c #634D49",
"~  c #66524E",
"^  c #73534A",
"/  c #79574E",
"(  c #7D594F",
")  c #606061",
"_  c #777777",
"`  c #7D7C7D",
"'  c #824622",
"]  c #8F562D",
"[  c #91572E",
"{  c #955F35",
"}  c #8F653D",
"|  c #976237",
" . c #9E683B",
".. c #A46E3F",
"X. c #825A4E",
"o. c #815B51",
"O. c #895F54",
"+. c #846643",
"@. c #886844",
"#. c #946C44",
"$. c #977147",
"%. c #997247",
"&. c #9A7349",
"*. c #876157",
"=. c #8B6154",
"-. c #8B665C",
";. c #89685E",
":. c #926754",
">. c #9A6759",
",. c #946A5D",
"<. c #9C6B5D",
"1. c #A07058",
"2. c #8B6D66",
"3. c #916E64",
"4. c #9D6E61",
"5. c #94736B",
"6. c #9D7569",
"7. c #877976",
"8. c #A27163",
"9. c #AA7A6E",
"0. c #AC7D70",
"q. c #B38352",
"w. c #AB8276",
"e. c #A28279",
"r. c #B28477",
"t. c #B38678",
"y. c #B58A7D",
"u. c #B98C7E",
"i. c #7C7E80",
"p. c #848484",
"a. c #9C8D89",
"s. c #9B9B9B",
"d. c #BB8E81",
"f. c #BC9083",
"g. c #B1938A",
"h. c #BB9D95",
"j. c #AFAFAF",
"k. c #B1B1B1",
"l. c None",
/* pixels */
"l.l.l.l.l.l.l.l.l.l.l.l.l.l.l.l.l.l.l.l.l.l.l.l.l.l.l.l.l.l.l.l.l.l.l.l.l.l.l.l.l.l.l.l.l.l.l.l.l.l.l.l.l.l.l.l.l.l.l.l.l.l.l.l.",
"l.l.l.l.l.l.l.l.l.l.l.l.l.l.l.l.l.l.l.l.l.l.l.l.l.l.l.l.l.l.l.l.l.l.l.l.l.l.l.l.l.l.l.l.l.l.l.l.l.l.l.l.l.l.l.l.l.l.l.l.l.l.l.l.",
"l.l.l.l.l.l.l.l.l.l.l.l.l.l.l.l.l.l.l.l.l.l.l.l.l.l.l.l.l.l.l.l.l.l.l.l.l.l.l.l.l.l.l.l.l.l.l.l.l.l.l.l.l.l.l.l.l.l.l.l.l.l.l.l.",
"l.l.l.l.l.l.l.l.l.l.l.l.l.l.l.l.l.l.l.l.l.l.l.l.l.l.l.l.l.l.l.        l.l.l.l.l.l.l.l.l.l.l.l.l.l.l.l.l.l.l.l.l.l.l.l.l.l.l.l.l.",
"l.l.l.l.l.l.l.l.l.l.l.l.l.l.l.l.l.l.l.l.l.l.l.l.l.l.l.l.l.              l.l.l.l.l.l.l.l.l.l.l.l.l.l.l.l.l.l.l.l.l.l.l.l.l.l.l.l.",
"l.l.l.l.l.l.l.l.l.l.l.l.l.l.l.l.l.l.l.l.l.l.l.l.l.l.l.l.      0 :   0 l.l.l.l.l.l.l.l.l.l.l.l.l.l.l.l.l.l.l.l.l.l.l.l.l.l.l.l.l.",
"l.l.l.l.l.l.l.l.l.l.l.l.l.l.l.l.l.l.l.l.l.l.l.l.l.l.l.l.  X ( <.>.-.,.l.l.l.l.l.l.l.l.l.l.l.l.l.l.l.l.l.l.l.l.l.l.l.l.l.l.l.l.l.",
"l.l.l.l.l.l.l.l.l.l.l.l.l.l.l.l.l.l.l.l.l.l.l.l.l.l.l.l.  + w.d.;.u.-.l.l.l.l.l.l.l.l.l.l.l.l.l.l.l.l.l.l.l.l.l.l.l.l.l.l.l.l.l.",
"l.l.l.l.l.l.l.l.l.l.l.l.l.l.l.l.l.l.l.l.l.l.l.l.l.l.l.l.l.I u.d.2.u.,.l.l.l.l.l.l.l.l.l.l.l.l.l.l.l.l.l.l.l.l.l.l.l.l.l.l.l.l.l.",
"l.l.l.l.l.l.l.l.l.l.l.l.l.l.l.l.l.l.l.l.l.l.l.l.l.l.l.l.l.6.C w.w.3.X.l.l.l.l.l.l.l.l.l.l.l.l.l.l.l.l.l.l.l.l.l.l.l.l.l.l.l.l.l.",
"l.l.l.l.l.l.l.l.l.l.l.l.l.l.l.l.l.l.l.l.l.l.l.l.l.l.l.l.l.l.. r > .   % l.l.l.l.l.l.l.l.l.l.l.l.l.l.l.l.l.l.l.l.l.l.l.l.l.l.l.l.",
"l.l.l.l.l.l.l.l.l.l.l.l.l.l.l.l.l.l.l.l.l.l.l.l.l.l.l.l.l.l.          . g l.l.l.l.l.l.l.l.l.l.l.l.l.l.l.l.l.l.l.l.l.l.l.l.l.l.l.",
"l.l.l.l.l.l.l.l.l.l.l.l.l.l.l.l.l.l.l.l.l.l.l.l.l.l.l.l.l.< 3 > .     o k l.l.l.l.l.l.l.l.l.l.l.l.l.l.l.l.l.l.l.l.l.l.l.l.l.l.l.",
"l.l.l.l.l.l.l.l.l.l.l.l.l.l.l.l.l.l.l.l.l.l.l.l.l.l.l.l.j j , B S r @ g c l.l.l.l.l.l.l.l.l.l.l.l.l.l.l.l.l.l.l.l.l.l.l.l.l.l.l.",
"l.l.l.l.l.l.l.l.l.l.l.l.l.l.l.l.l.l.l.l.l.l.l.l.l.c c c k j j , P ,.h k c c l.l.l.l.l.l.l.l.l.l.l.l.l.l.l.l.l.l.l.l.l.l.l.l.l.l.",
"l.l.l.l.l.l.l.l.l.l.l.l.l.l.l.l.l.l.l.l.l.l.l.l...n c c c c k j h x k c c c c l.l.l.l.l.l.l.l.l.l.l.l.l.l.l.l.l.l.l.l.l.l.l.l.l.",
"l.l.l.l.l.l.l.l.l.l.l.l.l.l.l.l.l.l.l.l.l.l.l.l.+. .n c c c c k k j k c c c b ' l.l.l.l.l.l.l.l.l.l.l.l.l.l.l.l.l.l.l.l.l.l.l.l.",
"l.l.l.l.l.l.l.l.l.l.l.l.l.l.l.l.l.l.l.l.l.l.l.s 5 +. .n c c c c c k k c c c [ q.l.l.l.l.l.l.l.l.l.l.l.l.l.l.l.l.l.l.l.l.l.l.l.l.",
"l.l.l.l.l.l.l.l.l.l.l.l.l.l.l.l.l.l.l.l.l.l.l.P 4 8 +. .m b c c c c c c b [ q.1.l.l.l.l.l.l.l.l.l.l.l.l.l.l.l.l.l.l.l.l.l.l.l.l.",
"l.l.l.l.l.l.l.l.l.l.l.l.l.l.l.l.l.l.l.l.l.l.d.6.6 3 8 H $.[ c c c c c c [ %.:.9.l.l.l.l.l.l.l.l.l.l.l.l.l.l.l.l.l.l.l.l.l.l.l.l.",
"l.l.l.l.l.l.l.l.l.l.l.l.l.l.l.l.l.l.l.l.l.l.f.u.D 2 4 2 y &.| | m b b [ %.e / u.d.l.l.l.l.l.l.l.l.l.l.l.l.l.l.l.l.l.l.l.l.l.l.l.",
"l.l.l.l.l.l.l.l.l.l.l.l.l.l.l.l.l.l.l.l.l.l.d.d.*.4 4 4 3 8 e G #.} } #.e 2 ( u.d.l.l.l.l.l.l.l.l.l.l.l.l.l.l.l.l.l.l.l.l.l.l.l.",
"l.l.l.l.l.l.l.l.l.l.l.l.l.l.l.l.l.l.l.l.l.l.d.f.t.S 2 4 6 6 3 6 4 4 4 4 4 4 / d.f.l.l.l.l.l.l.l.l.l.l.l.l.l.l.l.l.l.l.l.l.l.l.l.",
"l.l.l.l.l.l.l.l.l.l.l.l.l.l.l.l.l.l.l.l.l.l.d.f.t.X.8 3 6 6 6 6 6 6 6 5 4 2 / d.d.l.l.l.l.l.l.l.l.l.l.l.l.l.l.l.l.l.l.l.l.l.l.l.",
"l.l.l.l.l.l.l.l.l.l.l.l.l.l.l.l.l.l.l.l.l.l.d.f.t.>.a 2 6 6 6 6 6 6 6 6 4 4 o.d.f.l.l.l.l.l.l.l.l.l.l.l.l.l.l.l.l.l.l.l.l.l.l.l.",
"l.l.l.l.l.l.l.l.l.l.l.l.l.l.l.l.l.l.l.l.l.l.d.f.t.>.2 2 6 6 6 6 6 6 6 6 3 S 4.u.d.l.l.l.l.l.l.l.l.l.l.l.l.l.l.l.l.l.l.l.l.l.l.l.",
"l.l.l.l.l.l.l.l.l.l.l.l.l.l.l.l.l.l.l.l.l.l.d.d.r.>.= 2 3 6 6 4 6 6 6 6 4 C <.0.d.Y l.l.l.l.l.l.l.l.l.l.l.l.l.l.l.l.l.l.l.l.l.l.",
"l.l.l.l.l.l.l.l.l.l.l.l.l.l.l.l.l.l.l.l.l.l.d.u.8.l.l.2 2 6 6 6 4 6 6 6 5 8 :.O.! 8 l.l.l.l.l.l.l.l.l.l.l.l.l.l.l.l.l.l.l.l.l.l.",
"l.l.l.l.l.l.l.l.l.l.l.l.l.l.l.l.l.l.l.l.l.5.d.d.4.l.l.2 - 4 6 6 6 6 6 6 6 l.3 3 2 4 l.l.l.l.l.l.l.l.l.l.l.l.l.l.l.l.l.l.l.l.l.l.",
"l.l.l.l.l.l.l.l.l.l.l.l.l.l.l.l.l.l.l.l.l.i 2.y.>.l.l.2 2 4 6 6 6 6 4 4 6 l.l.2 2 4 6 l.l.l.l.l.l.l.l.l.l.l.l.l.l.l.l.l.l.l.l.l.",
"l.l.l.l.l.l.l.l.l.l.l.l.l.l.l.l.l.l.l.l.l.4 8 a e l.l.2 2 2 4 6 6 6 u u 8 > l.2 2 3 6 l.l.l.l.l.l.l.l.l.l.l.l.l.l.l.l.l.l.l.l.l.",
"l.l.l.l.l.l.l.l.l.l.l.l.l.l.l.l.l.l.l.l.l.l.3 2 2 l.l.2 2 2 4 6 > p R J K # l.l.2 2 6 l.l.l.l.l.l.l.l.l.l.l.l.l.l.l.l.l.l.l.l.l.",
"l.l.l.l.l.l.l.l.l.l.l.l.l.l.l.l.l.l.l.l.l.l.6 2 2 l.l.2 - & : & # 1 a ; A # l.l.2 2 4 l.l.l.l.l.l.l.l.l.l.l.l.l.l.l.l.l.l.l.l.l.",
"l.l.l.l.l.l.l.l.l.l.l.l.l.l.l.l.l.l.l.l.l.l.6 4 2 l.# # $ # O O O 1 a ; A ; l.l.2 2 4 l.l.l.l.l.l.l.l.l.l.l.l.l.l.l.l.l.l.l.l.l.",
"l.l.l.l.l.l.l.l.l.l.l.l.l.l.l.l.l.l.l.l.l.l.6 6 2 l.# # # # # # O 1 K t K * l.l.l.- 3 l.l.l.l.l.l.l.l.l.l.l.l.l.l.l.l.l.l.l.l.l.",
"l.l.l.l.l.l.l.l.l.l.l.l.l.l.l.l.l.l.l.l.l.l.6 6 3 - # # # # # # # : a d p 4 l.l.l.^ ! 6 l.l.l.l.l.l.l.l.l.l.l.l.l.l.l.l.l.l.l.l.",
"l.l.l.l.l.l.l.l.l.l.l.l.l.l.l.l.l.l.l.l.l.l.4 4 4 r ; ; : O @ @ * * - 3 4 4 2 l.>.8.u.Y l.l.l.l.l.l.l.l.l.l.l.l.l.l.l.l.l.l.l.l.",
"l.l.l.l.l.l.l.l.l.l.l.l.l.l.l.l.l.l.l.l.l.l.3 2 ! 4.0 Z i.R E E W W W Q E E W a.e.g.h.7.i.l.l.l.l.l.l.l.l.l.l.l.l.l.l.l.l.l.l.l.",
"l.l.l.l.l.l.l.l.l.l.l.l.l.l.l.l.l.l.l.l.l.& 2 ~ f.9.0 Z k.k.k.k.k.k.k.k.k.k.k.k.j.k.j.j.k.j.j.k.k.j.j.j.j.l.l.l.l.l.l.l.l.l.l.l.",
"l.l.l.l.l.l.l.l.l.l.l.l.l.l.l.l.l.l.l.l.# O D u.t.<.z V s.p.p.p.p.p.p.p.p.p.p.p.p.p.p.p.p.p.p.p.p.p.p.p.p.l.l.l.l.l.l.l.l.l.l.l.",
"l.l.l.l.l.l.l.l.l.l.l.l.l.l.l.l.l.l.l.l.l.l.l.<.<.=.B T p.E Q Q ) Q Q Q Q Q Q ) _ _ _ _ _ _ _ _ _ _ _ _ l.l.l.l.l.l.l.l.l.l.l.l.",
"l.l.l.l.l.l.l.l.l.l.l.l.l.l.l.l.l.l.l.l.l.l.l.l.l.F N S J - 3 4 6 4 6 6 4 4 6 4 l.l.l.l.l.l.l.l.l.l.l.l.l.l.l.l.l.l.l.l.l.l.l.l.",
"l.l.l.l.l.l.l.l.l.l.l.l.l.l.l.l.l.l.l.l.l.l.l.l.l.l.N M q 4 2 6 6 6 6 6 6 6 6 6 l.l.l.l.l.l.l.l.l.l.l.l.l.l.l.l.l.l.l.l.l.l.l.l.",
"l.l.l.l.l.l.l.l.l.l.l.l.l.l.l.l.l.l.l.l.l.l.l.l.l.N N N M > 2 5 6 6 6 6 6 6 6 6 l.l.l.l.l.l.l.l.l.l.l.l.l.l.l.l.l.l.l.l.l.l.l.l.",
"l.l.l.l.l.l.l.l.l.l.l.l.l.l.l.l.l.l.l.l.l.l.l.l.l.N N N M > 2 4 6 6 6 6 6 6 6 6 6 l.l.l.l.l.l.l.l.l.l.l.l.l.l.l.l.l.l.l.l.l.l.l.",
"l.l.l.l.l.l.l.l.l.l.l.l.l.l.l.l.l.l.l.l.l.l.l.l.l.N N N M 5 - 2 3 6 6 6 6 6 4 6 6 l.l.l.l.l.l.l.l.l.l.l.l.l.l.l.l.l.l.l.l.l.l.l.",
"l.l.l.l.l.l.l.l.l.l.l.l.l.l.l.l.l.l.l.l.l.l.l.l.l.N N N M q 2 2 3 6 6 6 4 3 3 6 6 6 l.l.l.l.l.l.l.l.l.l.l.l.l.l.l.l.l.l.l.l.l.l.",
"l.l.l.l.l.l.l.l.l.l.l.l.l.l.l.l.l.l.l.l.l.l.l.l.l.N N N M M l.2 2 2 3 3 2 2 5 l.l.l.l.l.l.l.l.l.l.l.l.l.l.l.l.l.l.l.l.l.l.l.l.l.",
"l.l.l.l.l.l.l.l.l.l.l.l.l.l.l.l.l.l.l.l.l.l.l.l.l.N N V N M l.l.l.l.q 0 q q w l.l.l.l.l.l.l.l.l.l.l.l.l.l.l.l.l.l.l.l.l.l.l.l.l.",
"l.l.l.l.l.l.l.l.l.l.l.l.l.l.l.l.l.l.l.l.l.l.l.l.l.N N N N N l.l.l.l.w M M N l.l.l.l.l.l.l.l.l.l.l.l.l.l.l.l.l.l.l.l.l.l.l.l.l.l.",
"l.l.l.l.l.l.l.l.l.l.l.l.l.l.l.l.l.l.l.l.l.l.l.l.l.N N N N N l.l.l.w M N V N l.l.l.l.l.l.l.l.l.l.l.l.l.l.l.l.l.l.l.l.l.l.l.l.l.l.",
"l.l.l.l.l.l.l.l.l.l.l.l.l.l.l.l.l.l.l.l.l.l.l.l.l.N N N N l.l.l.l.M M N N N l.l.l.l.l.l.l.l.l.l.l.l.l.l.l.l.l.l.l.l.l.l.l.l.l.l.",
"l.l.l.l.l.l.l.l.l.l.l.l.l.l.l.l.l.l.l.l.l.l.l.l.l.N N N N l.l.l.l.w M N V l.l.l.l.l.l.l.l.l.l.l.l.l.l.l.l.l.l.l.l.l.l.l.l.l.l.l.",
"l.l.l.l.l.l.l.l.l.l.l.l.l.l.l.l.l.l.l.l.l.l.l.l.N N N N N l.l.l.l.w N N N l.l.l.l.l.l.l.l.l.l.l.l.l.l.l.l.l.l.l.l.l.l.l.l.l.l.l.",
"l.l.l.l.l.l.l.l.l.l.l.l.l.l.l.l.l.l.l.l.l.l.l.l.N N N B V l.l.l.l.M N N N l.l.l.l.l.l.l.l.l.l.l.l.l.l.l.l.l.l.l.l.l.l.l.l.l.l.l.",
"l.l.l.l.l.l.l.l.l.l.l.l.l.l.l.l.l.l.l.l.l.l.l.l.y y y y w l.l.l.l.M N N N l.l.l.l.l.l.l.l.l.l.l.l.l.l.l.l.l.l.l.l.l.l.l.l.l.l.l.",
"l.l.l.l.l.l.l.l.l.l.l.l.l.l.l.l.l.l.l.l.l.l.l.l.6 6 6 4 2 l.l.l.l.5 y N N l.l.l.l.l.l.l.l.l.l.l.l.l.l.l.l.l.l.l.l.l.l.l.l.l.l.l.",
"l.l.l.l.l.l.l.l.l.l.l.l.l.l.l.l.l.l.l.l.l.l.l.l.l.6 6 4 2 l.l.l.l.2 6 8 5 l.l.l.l.l.l.l.l.l.l.l.l.l.l.l.l.l.l.l.l.l.l.l.l.l.l.l.",
"l.l.l.l.l.l.l.l.l.l.l.l.l.l.l.l.l.l.l.l.l.l.l.l.l.6 4 2 2 l.l.l.l.2 6 4 2 l.l.l.l.l.l.l.l.l.l.l.l.l.l.l.l.l.l.l.l.l.l.l.l.l.l.l.",
"l.l.l.l.l.l.l.l.l.l.l.l.l.l.l.l.l.l.l.l.l.l.l.l.l.6 4 2 l.l.l.l.l.2 6 2 l.l.l.l.l.l.l.l.l.l.l.l.l.l.l.l.l.l.l.l.l.l.l.l.l.l.l.l.",
"l.l.l.l.l.l.l.l.l.l.l.l.l.l.l.l.l.l.l.l.l.l.l.l.l.6 6 3 2 l.l.l.l.4 6 4 6 l.l.l.l.l.l.l.l.l.l.l.l.l.l.l.l.l.l.l.l.l.l.l.l.l.l.l.",
"l.l.l.l.l.l.l.l.l.l.l.l.l.l.l.l.l.l.l.l.l.l.l.l.l.6 6 4 2 l.l.l.l.6 6 6 6 6 l.l.l.l.l.l.l.l.l.l.l.l.l.l.l.l.l.l.l.l.l.l.l.l.l.l.",
"l.l.l.l.l.l.l.l.l.l.l.l.l.l.l.l.l.l.l.l.l.l.l.l.6 6 6 6 3 2 l.l.l.3 3 3 4 6 6 l.l.l.l.l.l.l.l.l.l.l.l.l.l.l.l.l.l.l.l.l.l.l.l.l.",
"l.l.l.l.l.l.l.l.l.l.l.l.l.l.l.l.l.l.l.l.l.l.l.l.3 2 2 2 2 2 l.l.l.l.- 2 2 2 2 l.l.l.l.l.l.l.l.l.l.l.l.l.l.l.l.l.l.l.l.l.l.l.l.l."
};
