/* XPM */
static char *dxoxy_sj8jg[] = {
/* columns rows colors chars-per-pixel */
"64 64 150 2 ",
"   c #030201",
".  c #090705",
"X  c #0D0B0B",
"o  c #1D0E04",
"O  c #110C0A",
"+  c #1E1006",
"@  c #15100E",
"#  c #141517",
"$  c #16191E",
"%  c #1A1B1E",
"&  c #201209",
"*  c #201610",
"=  c #201916",
"-  c #2A1E17",
";  c #221E1E",
":  c #281E1A",
">  c #25201F",
",  c #2F201B",
"<  c #32241B",
"1  c #1B1C20",
"2  c #211F23",
"3  c #1F2024",
"4  c #222226",
"5  c #2B2422",
"6  c #232428",
"7  c #2B2729",
"8  c #2C292B",
"9  c #342520",
"0  c #392721",
"q  c #342923",
"w  c #3E2E26",
"e  c #332C2B",
"r  c #3C312D",
"t  c #2D2E31",
"y  c #353234",
"u  c #3E3738",
"i  c #37383B",
"p  c #471703",
"a  c #4D1803",
"s  c #571C04",
"d  c #511E0A",
"f  c #621E04",
"g  c #5A210B",
"h  c #642106",
"j  c #672409",
"k  c #6B290C",
"l  c #753616",
"z  c #7B3D1B",
"x  c #44332C",
"c  c #48372F",
"v  c #49382F",
"b  c #413933",
"n  c #4A3A35",
"m  c #403E3E",
"M  c #503F35",
"N  c #5A3E35",
"B  c #7E411E",
"V  c #47423E",
"C  c #4E443E",
"Z  c #584835",
"A  c #54413C",
"S  c #59423D",
"D  c #634135",
"F  c #604C37",
"G  c #654F38",
"H  c #6B493F",
"J  c #444445",
"K  c #4E4742",
"L  c #4D4946",
"P  c #4D4B4C",
"I  c #514640",
"U  c #534944",
"Y  c #5C4A44",
"T  c #504E4E",
"R  c #5B534E",
"E  c #4E4E50",
"W  c #515254",
"Q  c #565658",
"!  c #5C5C5C",
"~  c #654942",
"^  c #67534F",
"/  c #73524A",
"(  c #7D584F",
")  c #6B5651",
"_  c #615D5B",
"`  c #745751",
"'  c #735951",
"]  c #7E6057",
"[  c #7F6158",
"{  c #666462",
"}  c #6F6763",
"|  c #6F6864",
" . c #6D6C6C",
".. c #74716F",
"X. c #757575",
"o. c #787370",
"O. c #7A7A7A",
"+. c #80431F",
"@. c #814521",
"#. c #8F572E",
"$. c #965D32",
"%. c #976034",
"&. c #996337",
"*. c #91663E",
"=. c #9F683A",
"-. c #845C52",
";. c #826341",
":. c #977147",
">. c #836056",
",. c #8B6054",
"<. c #80645D",
"1. c #8B685F",
"2. c #936457",
"3. c #93675B",
"4. c #9A695B",
"5. c #A07447",
"6. c #A57849",
"7. c #AD7C4D",
"8. c #A06D5E",
"9. c #A7785F",
"0. c #AB7A58",
"q. c #8E6D63",
"w. c #9F7366",
"e. c #99756A",
"r. c #817F7E",
"t. c #A27264",
"y. c #A67668",
"u. c #A7786B",
"i. c #AA7A6D",
"p. c #A37E73",
"a. c #AC7F72",
"s. c #AC8276",
"d. c #B08275",
"f. c #B68872",
"g. c #B58678",
"h. c #B58B7E",
"j. c #B88B7E",
"k. c #848484",
"l. c #8B8784",
"z. c #8C8C8C",
"x. c #949494",
"c. c #99999A",
"v. c #BB8F82",
"b. c #BC9083",
"n. c #A3A3A3",
"m. c #A8A7A7",
"M. c #ABABAB",
"N. c #B2B2B2",
"B. c #C39588",
"V. c None",
/* pixels */
"V.V.V.V.V.V.V.V.V.V.V.V.V.V.V.V.V.V.V.V.V.V.V.V.V.V.V.V.V.V.V.V.V.V.V.V.V.V.V.V.V.V.V.V.V.V.V.V.V.V.V.V.V.V.V.V.V.V.V.V.V.V.V.V.",
"V.V.V.V.V.V.V.V.V.V.V.V.V.V.V.V.V.V.V.V.V.V.V.V.V.V.V.V.V.V.V.V.V.V.V.V.V.V.V.V.V.V.V.V.V.V.V.V.V.V.V.V.V.V.V.V.V.V.V.V.V.V.V.V.",
"V.V.V.V.V.V.V.V.V.V.V.V.V.V.V.V.V.V.V.V.V.V.V.V.V.V.V.V.V.V.V.V.V.V.V.V.V.V.V.V.V.V.V.V.V.V.V.V.V.V.V.V.V.V.V.V.V.V.V.V.V.V.V.V.",
"V.V.V.V.V.V.V.V.V.V.V.V.V.V.V.V.V.V.V.V.V.V.V.V.V.V.V.V.V.V.V.V.V.V.V.V.V.V.V.V.V.V.V.V.V.V.V.V.V.V.V.V.V.V.V.V.V.V.V.V.V.V.V.V.",
"V.V.V.V.V.V.V.V.V.V.V.V.V.V.V.V.V.V.V.V.V.V.V.V.V.V.V.V.V.V.V.V.V.V.V.V.V.V.V.V.V.V.V.V.V.V.V.V.V.V.V.V.V.V.V.V.V.V.V.V.V.V.V.V.",
"V.V.V.V.V.V.V.V.V.V.V.V.V.V.V.V.V.V.V.V.V.V.V.V.V.V.V.V.V.V.V.V.V.V.V.V.V.V.V.V.V.V.V.V.V.V.V.V.V.V.V.V.V.V.V.V.V.V.V.V.V.V.V.V.",
"V.V.V.V.V.V.V.V.V.V.V.V.V.V.V.V.V.V.V.V.V.V.V.V.V.V.V.V.V.V.V.V.V.V.V.V.V.V.V.V.V.V.V.V.V.V.V.V.V.V.V.V.V.V.V.V.V.V.V.V.V.V.V.V.",
"V.V.V.V.V.V.V.V.V.V.V.V.V.V.V.V.V.V.V.V.V.V.V.V.V.V.V.V.V.V.V.V.V.V.V.V.V.V.V.V.V.V.V.V.V.V.V.V.V.V.V.V.V.V.V.V.V.V.V.V.V.V.V.V.",
"V.V.V.V.V.V.V.V.V.V.V.V.V.V.V.V.V.V.V.V.V.V.V.V.V.V.V.V.V.V.V.V.V.V.V.V.V.V.V.V.V.              V.V.V.V.V.V.V.V.V.V.V.V.V.V.V.V.",
"V.V.V.V.V.V.V.V.V.V.V.V.V.V.V.V.V.V.V.V.V.V.V.V.V.V.V.V.V.V.V.V.V.V.V.V.V.V.V.V.    . O   . O V.V.V.V.V.V.V.V.V.V.V.V.V.V.V.V.V.",
"V.V.V.V.V.V.V.V.V.V.V.V.V.V.V.V.V.V.V.V.V.V.V.V.V.V.V.V.V.V.V.V.V.V.V.V.V.V.V.V.  < N ~ w N 2.V.V.V.V.V.V.V.V.V.V.V.V.V.V.V.V.V.",
"V.V.V.V.V.V.V.V.V.V.V.V.V.V.V.V.V.V.V.V.V.V.V.V.V.V.V.V.V.V.V.V.V.V.V.V.V.V.V.V.  -.g.d.d.i.2.V.V.V.V.V.V.V.V.V.V.V.V.V.V.V.V.V.",
"V.V.V.V.V.V.V.V.V.V.V.V.V.V.V.V.V.V.V.V.V.V.V.V.V.V.V.V.V.V.V.V.V.V.V.V.V.V.V.V.@ e.B.[ e.e.9 V.V.V.V.V.V.V.V.V.V.V.V.V.V.V.V.V.",
"V.V.V.V.V.V.V.V.V.V.V.V.V.V.V.V.V.V.V.V.V.V.V.V.V.V.V.V.V.V.V.V.V.V.V.V.V.V.V.V.` q.h.v.b.i.V.V.V.V.V.V.V.V.V.V.V.V.V.V.V.V.V.V.",
"V.V.V.V.V.V.V.V.V.V.V.V.V.V.V.V.V.V.V.V.V.V.V.V.V.V.V.V.V.V.v.V.V.V.V.V.V.V.V.V.t.< ~ ] x 0 0 V.V.V.V.V.V.V.V.V.V.V.V.V.V.V.V.V.",
"V.V.V.V.V.V.V.V.V.V.V.V.V.V.V.V.V.V.V.V.V.V.V.V.V.V.V.V.v.v.v.v.v.V.V.V.V.V.V.V.6 X . X       V.V.V.V.V.V.V.V.V.V.V.V.V.V.V.V.V.",
"V.V.V.V.V.V.V.V.V.V.V.V.V.V.V.V.V.V.V.V.V.V.V.V.V.V.V.V.v.v.b.v.v.b.b.V.V.z h g 2 # .   .     V.V.V.V.V.V.V.V.V.V.V.V.V.V.V.V.V.",
"V.V.V.V.V.V.V.V.V.V.V.V.V.V.V.V.V.V.V.V.V.V.V.V.V.V.V.b.v.v.i.d.b.b.b.j.y.#.f h d 5 : o       V.V.V.V.V.V.V.V.V.V.V.V.V.V.V.V.V.",
"V.V.V.V.V.V.V.V.V.V.V.V.V.V.V.V.V.V.V.V.V.V.V.V.V.V.V.s.v.u.4.4.s.g.j.b.f.7.l f j s d a p V.V.V.V.V.V.V.V.V.V.V.V.V.V.V.V.V.V.V.",
"V.V.V.V.V.V.V.V.V.V.V.V.V.V.V.V.V.V.V.V.V.V.V.V.V.V.6 u ` -.V.V.4.( y.j.i.0.$.z j j h s h V.V.V.V.V.V.V.V.V.V.V.V.V.V.V.V.V.V.V.",
"V.V.V.V.V.V.V.V.V.V.V.V.V.V.V.V.V.V.V.V.V.V.V.V.V.V.4 3 1 S V.V.V.8 / t.-.M F 6.B h j f h h V.V.V.V.V.V.V.V.V.V.V.V.V.V.V.V.V.V.",
"V.V.V.V.V.V.V.V.V.V.V.V.V.V.V.V.V.V.V.V.V.V.V.V.V.6 1 1 1 V.V.6 6 6 8 y 8 % $ Z $.j h j h h V.V.V.V.V.V.V.V.V.V.V.V.V.V.V.V.V.V.",
"V.V.V.V.V.V.V.V.V.V.V.V.V.V.V.V.V.V.V.V.V.V.V.+ = 4 1 1 1 V.V.6 6 6 4 1 1 1 % e :.z f h j @.V.V.V.V.V.V.V.V.V.V.V.V.V.V.V.V.V.V.",
"V.V.V.V.V.V.V.V.V.V.V.V.V.V.V.V.V.V.V.V.V.V.V.o * 3 1 1 V.V.6 6 6 3 1 1 % % % $ G =.k @.&.V.V.V.V.V.V.V.V.V.V.V.V.V.V.V.V.V.V.V.",
"V.V.V.V.V.V.V.V.V.V.V.V.V.V.V.V.V.V.V.V.V.V.V.< 2 1 1 1 6 6 6 6 1 1 % 1 1 1 1 % 5 ;.*.5.V.V.V.V.V.V.V.V.V.V.V.V.V.V.V.V.V.V.V.V.",
"V.V.V.V.V.V.V.V.V.V.V.V.V.V.V.V.V.V.V.V.V.V.V.p.e n 7 4 6 6 6 3 1 1 1 1 1 1 1 1 1 % 4 V.V.V.V.V.V.V.V.V.V.V.V.V.V.V.V.V.V.V.V.V.",
"V.V.V.V.V.V.V.V.V.V.V.V.V.V.V.V.V.V.V.V.V.V.V.w.-.4.V.4 6 6 6 4 1 1 1 1 1 1 1 % 1 4 1 V.V.V.V.V.V.V.V.V.V.V.V.V.V.V.V.V.V.V.V.V.",
"V.V.V.V.V.V.V.V.V.V.V.V.V.V.V.V.V.V.V.V.V.V.V.4.4.D & 2 W ! 7 1 1 1 1 1 % 1 1 7 S 3.<.V.V.V.V.V.V.V.V.V.V.V.V.V.V.V.V.V.V.V.V.V.",
"V.V.V.V.V.V.V.V.V.V.V.V.V.V.V.V.V.V.V.V.V.V.V.V.V.o q L { y 1 1 1 1 1 1 1 1 2 -.4.1.^ 4 6 V.V.V.V.V.V.V.V.V.V.V.V.V.V.V.V.V.V.V.",
"V.V.V.V.V.V.V.V.V.V.V.V.V.V.V.V.V.V.V.V.V.V.V.V.V._  .k.z.i % % 1 1 3 1 1 1 V.V.~ 6 % % 1 6 6 V.V.V.V.V.V.V.V.V.V.V.V.V.V.V.V.V.",
"V.V.V.V.V.V.V.V.V.V.V.V.V.V.V.V.V.V.V.V.V.V.V.V. .W Q k.N.x.4 % J L P , V.V.V.V.V.% 1 1 1 3 4 6 V.V.V.V.V.V.V.V.V.V.V.V.V.V.V.V.",
"V.V.V.V.V.V.V.V.V.V.V.V.V.V.V.V.V.V.V.V.V.V.V.V.5 ; - ..x.M.V - u > V q V.V.V.V.V.V.V.1 1 1 1 3 1 ) V.V.V.V.V.V.V.V.V.V.V.V.V.V.",
"V.V.V.V.V.V.V.V.V.V.V.V.V.V.V.V.V.V.V.V.V.V.V.+ + + & C k.M.l.u < < V.V.V.V.V.V.V.V.V.V.V.1 1 1 $ ) v.V.V.V.V.V.V.V.V.V.V.V.V.V.",
"V.V.V.V.V.V.V.V.V.V.V.V.V.V.V.V.V.V.V.V.V.V.V.+ + + + < X.k.m.O.T m t V.V.V.V.V.V.V.V.V.V.V.1 1 % ' u.4.V.V.V.V.V.V.V.V.V.V.V.V.",
"V.V.V.V.V.V.V.V.V.V.V.V.V.V.V.V.V.V.V.V.V.V.V.+ + + + o b X.n.N.P 4 6 6 V.V.V.V.V.V.V.V.V.V.V.V.n 4.4.V.V.V.V.V.V.V.V.V.V.V.V.V.",
"V.V.V.V.V.V.V.V.V.V.V.V.V.V.V.V.V.V.V.V.V.V.V.< < < < < < { r.n...r 8 6 6 6 V.V.V.V.V.V.V.V.V.V.V.V.V.V.V.V.V.V.V.V.V.V.V.V.V.V.",
"V.V.V.V.V.V.V.V.V.V.V.V.V.V.V.V.V.V.V.V.V.V.V.w w w w w w n  .z.m.| x r 8 6 6 V.V.V.V.V.V.V.V.V.V.V.V.V.V.V.V.V.V.V.V.V.V.V.V.V.",
"V.V.V.V.V.V.V.V.V.V.V.V.V.V.V.V.V.V.V.V.V.V.V.w w w w w w 0 C O.c.x.A v v r 6 6 V.V.V.V.V.V.V.V.V.V.V.V.V.V.V.V.V.V.V.V.V.V.V.V.",
"V.V.V.V.V.V.V.V.V.V.V.V.V.V.V.V.V.V.V.V.V.V.V.w w w w w w w x { r.m.} x v v r 6 6 V.V.V.V.V.V.V.V.V.V.V.V.V.V.V.V.V.V.V.V.V.V.V.",
"V.V.V.V.V.V.V.V.V.V.V.V.V.V.V.V.V.V.V.V.V.V.V.w w w w w w w 5 J O.z.z.C x v v r 7 7 V.V.V.V.V.V.V.V.V.V.V.V.V.V.V.V.V.V.V.V.V.V.",
"V.V.V.V.V.V.V.V.V.V.V.V.V.V.V.V.V.V.V.V.V.V.V.x w w w w r V.1 1 P X.x.s.r x x x x v v V.V.V.V.V.V.V.V.V.V.V.V.V.V.V.V.V.V.V.V.V.",
"V.V.V.V.V.V.V.V.V.V.V.V.V.V.V.V.V.V.V.V.V.V.w w w w w w V.V.V.1 6  .k.z.R r w x x v c c V.V.V.V.V.V.V.V.V.V.V.V.V.V.V.V.V.V.V.V.",
"V.V.V.V.V.V.V.V.V.V.V.V.V.V.V.V.V.V.V.V.V.x w w w w w w V.V.V.V.V.J  .c.r.U w w x x c c c V.V.V.V.V.V.V.V.V.V.V.V.V.V.V.V.V.V.V.",
"V.V.V.V.V.V.V.V.V.V.V.V.V.V.V.V.V.V.V.V.V.w w w w w w w V.V.V.V.V.V.W k.x.o.n w w x x c v V.V.V.V.V.V.V.V.V.V.V.V.V.V.V.V.V.V.V.",
"V.V.V.V.V.V.V.V.V.V.V.V.V.V.V.V.V.V.V.V.x w w w w w w V.V.V.V.V.V.V.V.O.z.N.V.w w w w x x V.V.V.V.V.V.V.V.V.V.V.V.V.V.V.V.V.V.V.",
"V.V.V.V.V.V.V.V.V.V.V.V.V.V.V.V.V.V.V.x w w w w w w V.V.V.V.V.V.V.V.V.r.O.x.N.V.w w w x c n V.V.V.V.V.V.V.V.V.V.V.V.V.V.V.V.V.V.",
"V.V.V.V.V.V.V.V.V.V.V.V.V.V.V.V.V.V.V.x w w w w w V.V.V.V.V.V.V.V.V.V.V.O.O.n.N.V.w w w x v V.V.V.V.V.V.V.V.V.V.V.V.V.V.V.V.V.V.",
"V.V.V.V.V.V.V.V.V.V.V.V.V.V.6 6 y v x w w w w w V.V.V.V.V.V.V.V.V.V.V.V.V.O.z.M.V.w w w x v V.V.V.V.V.V.V.V.V.V.V.V.V.V.V.V.V.V.",
"V.V.V.V.V.V.V.V.V.V.V.6 6 6 4 4 e x w w w w w w V.V.V.V.V.V.V.V.V.V.V.V.V.O.O.z.N.Y 0 w x n V.V.V.V.V.V.V.V.V.V.V.V.V.V.V.V.V.V.",
"V.V.V.V.V.V.V.6 6 4 3 4 3 1 1 1 % 0 x w w w w V.V.V.V.V.V.V.V.V.V.V.V.V.V.V.X.k.M.V.9 x w x v V.V.V.V.V.V.V.V.V.V.V.V.V.V.V.V.V.",
"V.V.V.V.V.V.V.3 1 1 1 1 1 1 1 1 1 e w w w w V.V.V.V.V.V.V.V.V.V.V.V.V.V.V.V.V.X.z.V.% 5 5 5 e V.V.V.V.V.V.V.V.V.V.V.V.V.V.V.V.V.",
"V.V.V.V.V.V.V.1 1 1 1 1 % 1 1 V.V.V.V.V.V.V.V.V.V.V.V.V.V.V.V.V.V.V.V.V.V.V.V.V.V.V.V.1 1 1 4 V.V.V.V.V.V.V.V.V.V.V.V.V.V.V.V.V.",
"V.V.V.V.V.V.V.1 1 1 1 1 1 V.V.V.V.V.V.V.V.V.V.V.V.V.V.V.V.V.V.V.V.V.V.V.V.V.V.V.V.V.V.1 1 1 1 V.V.6 6 V.V.V.V.V.V.V.V.V.V.V.V.V.",
"V.V.V.V.V.V.V.V.1 % 1 V.V.V.V.V.V.V.V.V.V.V.V.V.V.V.V.V.V.V.V.V.V.V.V.V.V.V.V.V.V.V.V.1 1 1 4 6 6 4 4 V.V.V.V.V.V.V.V.V.V.V.V.V.",
"V.V.V.V.V.V.V.V.1 1 1 V.V.V.V.V.V.V.V.V.V.V.V.V.V.V.V.V.V.V.V.V.V.V.V.V.V.V.V.V.V.V.V.V.1 % 1 4 4 1 V.V.V.V.V.V.V.V.V.V.V.V.V.V.",
"V.V.V.V.V.V.V.V.V.1 1 V.V.V.V.V.V.V.V.V.V.V.V.V.V.V.V.V.V.V.V.V.V.V.V.V.V.V.V.V.V.V.V.V.1 1 1 1 1 V.V.V.V.V.V.V.V.V.V.V.V.V.V.V.",
"V.V.V.V.V.V.V.V.V.1 1 V.V.V.V.V.V.V.V.V.V.V.V.V.V.V.V.V.V.V.V.V.V.V.V.V.V.V.V.V.V.V.V.V.V.1 1 1 V.V.V.V.V.V.V.V.V.V.V.V.V.V.V.V.",
"V.V.V.V.V.V.V.V.V.V.V.V.V.V.V.V.V.V.V.V.V.V.V.V.V.V.V.V.V.V.V.V.V.V.V.V.V.V.V.V.V.V.V.V.V.V.V.V.V.V.V.V.V.V.V.V.V.V.V.V.V.V.V.V.",
"V.V.V.V.V.V.V.V.V.V.V.V.V.V.V.V.V.V.V.V.V.V.V.V.V.V.V.V.V.V.V.V.V.V.V.V.V.V.V.V.V.V.V.V.V.V.V.V.V.V.V.V.V.V.V.V.V.V.V.V.V.V.V.V.",
"V.V.V.V.V.V.V.V.V.V.V.V.V.V.V.V.V.V.V.V.V.V.V.V.V.V.V.V.V.V.V.V.V.V.V.V.V.V.V.V.V.V.V.V.V.V.V.V.V.V.V.V.V.V.V.V.V.V.V.V.V.V.V.V.",
"V.V.V.V.V.V.V.V.V.V.V.V.V.V.V.V.V.V.V.V.V.V.V.V.V.V.V.V.V.V.V.V.V.V.V.V.V.V.V.V.V.V.V.V.V.V.V.V.V.V.V.V.V.V.V.V.V.V.V.V.V.V.V.V.",
"V.V.V.V.V.V.V.V.V.V.V.V.V.V.V.V.V.V.V.V.V.V.V.V.V.V.V.V.V.V.V.V.V.V.V.V.V.V.V.V.V.V.V.V.V.V.V.V.V.V.V.V.V.V.V.V.V.V.V.V.V.V.V.V.",
"V.V.V.V.V.V.V.V.V.V.V.V.V.V.V.V.V.V.V.V.V.V.V.V.V.V.V.V.V.V.V.V.V.V.V.V.V.V.V.V.V.V.V.V.V.V.V.V.V.V.V.V.V.V.V.V.V.V.V.V.V.V.V.V.",
"V.V.V.V.V.V.V.V.V.V.V.V.V.V.V.V.V.V.V.V.V.V.V.V.V.V.V.V.V.V.V.V.V.V.V.V.V.V.V.V.V.V.V.V.V.V.V.V.V.V.V.V.V.V.V.V.V.V.V.V.V.V.V.V."
};
