/* XPM */
static char *ziwvf_f4q8k[] = {
/* columns rows colors chars-per-pixel */
"64 64 136 2 ",
"   c #040302",
".  c #0B0502",
"X  c gray4",
"o  c #1C0E04",
"O  c #110D0B",
"+  c #180F0A",
"@  c #1E1006",
"#  c #15100E",
"$  c #1D120C",
"%  c #1A1412",
"&  c #15181D",
"*  c #1A1A1E",
"=  c #210C03",
"-  c #21150C",
";  c #28150E",
":  c #2B180D",
">  c #221A16",
",  c #2C1F16",
"<  c #201A18",
"1  c #3C1E14",
"2  c #31261E",
"3  c #3B251C",
"4  c #1C1D21",
"5  c #201F21",
"6  c #1F2024",
"7  c #222225",
"8  c #2B2624",
"9  c #232428",
"0  c #2A2629",
"q  c #2B2A2C",
"w  c #322721",
"e  c #352A26",
"r  c #3D2B25",
"t  c #332B2B",
"y  c #3D312D",
"u  c #2B2D31",
"i  c #353132",
"p  c #3D3631",
"a  c #3A3B3D",
"s  c #4C1904",
"d  c #431C0E",
"f  c #541B04",
"g  c #5B1E05",
"h  c #631F05",
"j  c #5F2006",
"k  c #642107",
"l  c #682509",
"z  c #6C2A0D",
"x  c #753515",
"c  c #452C21",
"v  c #492F27",
"b  c #44332B",
"n  c #48372F",
"m  c #49382F",
"M  c #413331",
"N  c #423B36",
"B  c #4A3B35",
"V  c #453C3C",
"C  c #4A3B39",
"Z  c #533A32",
"A  c #553F3B",
"S  c #4F4031",
"D  c #46413E",
"F  c #4D423B",
"G  c #504133",
"H  c #5D423D",
"J  c #6A543A",
"K  c #73593D",
"L  c #7A5C3D",
"P  c #404143",
"I  c #4B4543",
"U  c #4C4845",
"Y  c #47484A",
"T  c #4F4C4A",
"R  c #5F4B45",
"E  c #5F544E",
"W  c #4E4E50",
"Q  c #6D4F47",
"!  c #6A524D",
"~  c #715247",
"^  c #7A574E",
"/  c #6A5551",
"(  c #725A54",
")  c #7C5E54",
"_  c #7D625C",
"`  c #727375",
"'  c #767678",
"]  c #7C7C7B",
"[  c #864924",
"{  c #925A30",
"}  c #91673F",
"|  c #9D673B",
" . c #9E683B",
".. c #825B4E",
"X. c #8B5E4F",
"o. c #875F52",
"O. c #846543",
"+. c #9E6F42",
"@. c #8C6156",
"#. c #89695F",
"$. c #926A5F",
"%. c #9B695B",
"&. c #A67444",
"*. c #AA7746",
"=. c #A06D5E",
"-. c #AE7F56",
";. c #836760",
":. c #976D61",
">. c #9C6E61",
",. c #9F7366",
"<. c #967368",
"1. c #A16F60",
"2. c #A47465",
"3. c #A5776A",
"4. c #A7796B",
"5. c #A97A6C",
"6. c #A67D72",
"7. c #B48555",
"8. c #AD8175",
"9. c #AE857A",
"0. c #B28477",
"q. c #B38578",
"w. c #B5897C",
"e. c #B98C7F",
"r. c #968D8B",
"t. c #949596",
"y. c #98999A",
"u. c #BB8F82",
"i. c #A8938D",
"p. c #BD9083",
"a. c #A79F9D",
"s. c #B29F9A",
"d. c #B8A59F",
"f. c #ABABAC",
"g. c #B2B2B2",
"h. c None",
/* pixels */
"h.h.h.h.h.h.h.h.h.h.h.h.h.h.h.h.h.h.h.h.h.h.h.h.h.h.h.h.h.h.h.h.h.h.h.h.h.h.h.h.h.h.h.h.h.h.h.h.h.h.h.h.h.h.h.h.h.h.h.h.h.h.h.h.",
"h.h.h.h.h.h.h.h.h.h.h.h.h.h.h.h.h.h.h.h.h.h.h.h.h.h.h.h.h.h.h.h.h.h.h.h.h.h.h.h.h.h.h.h.h.h.h.h.h.h.h.h.h.h.h.h.h.h.h.h.h.h.h.h.",
"h.h.h.h.h.h.h.h.h.h.h.h.h.h.h.h.h.h.h.h.h.h.h.h.h.h.h.h.h.h.h.h.h.h.h.h.h.h.h.h.h.h.h.h.h.h.h.h.h.h.h.h.h.h.h.h.h.h.h.h.h.h.h.h.",
"h.h.h.h.h.h.h.h.h.h.h.h.h.h.h.h.h.h.h.h.h.h.h.h.h.h.h.h.h.h.h.h.h.h.h.h.h.h.h.h.h.h.h.h.h.h.h.h.h.h.h.h.h.h.h.h.h.h.h.h.h.h.h.h.",
"h.h.h.h.h.h.h.h.h.h.h.h.h.h.h.h.h.h.h.h.h.h.h.h.h.h.h.h.h.          h.h.h.h.h.h.h.h.h.h.h.h.h.h.h.h.h.h.h.h.h.h.h.h.h.h.h.h.h.h.",
"h.h.h.h.h.h.h.h.h.h.h.h.h.h.h.h.h.h.h.h.h.h.h.h.h.h.h.h.    .         h.h.h.h.h.h.h.h.h.h.h.h.h.h.h.h.h.h.h.h.h.h.h.h.h.h.h.h.h.",
"h.h.h.h.h.h.h.h.h.h.h.h.h.h.h.h.h.h.h.h.h.h.h.h.h.h.h.    % Z r % Z h.h.h.h.h.h.h.h.h.h.h.h.h.h.h.h.h.h.h.h.h.h.h.h.h.h.h.h.h.h.",
"h.h.h.h.h.h.h.h.h.h.h.h.h.h.h.h.h.h.h.h.h.h.h.h.h.h.h.  O :.4.4.3.2.h.h.h.h.h.h.h.h.h.h.h.h.h.h.h.h.h.h.h.h.h.h.h.h.h.h.h.h.h.h.",
"h.h.h.h.h.h.h.h.h.h.h.h.h.h.h.h.h.h.h.h.h.h.h.h.h.h.h.  % q.u.( w.) h.h.h.h.h.h.h.h.h.h.h.h.h.h.h.h.h.h.h.h.h.h.h.h.h.h.h.h.h.h.",
"h.h.h.h.h.h.h.h.h.h.h.h.h.h.h.h.h.h.h.h.h.h.h.h.h.h.h.h.) 6.p.9.u.2.h.h.h.h.h.h.h.h.h.h.h.h.h.h.h.h.h.h.h.h.h.h.h.h.h.h.h.h.h.h.",
"h.h.h.h.h.h.h.h.h.h.h.h.h.h.h.h.h.h.h.h.h.h.h.h.h.h.h.h.:.w <.;.Q H M h.h.h.h.h.h.h.h.h.h.h.h.h.h.h.h.h.h.h.h.h.h.h.h.h.h.h.h.h.",
"h.h.h.h.h.h.h.h.h.h.h.h.h.h.h.h.h.h.h.h.h.h.h.h.h.h.h.h.h.  > O     X s h.h.h.h.h.h.h.h.h.h.h.h.h.h.h.h.h.h.h.h.h.h.h.h.h.h.h.h.",
"h.h.h.h.h.h.h.h.h.h.h.h.h.h.h.h.h.h.h.h.h.h.h.h.h.h.h.h.h.X         . s h.h.h.h.h.h.h.h.h.h.h.h.h.h.h.h.h.h.h.h.h.h.h.h.h.h.h.h.",
"h.h.h.h.h.h.h.h.h.h.h.h.h.h.h.h.h.h.h.h.h.h.h.h.h.h.h.h.1 7 e O     = k h.h.h.h.h.h.h.h.h.h.h.h.h.h.h.h.h.h.h.h.h.h.h.h.h.h.h.h.",
"h.h.h.h.h.h.h.h.h.h.h.h.h.h.h.h.h.h.h.h.h.h.h.h.h.h.k f f d v ! R ; s k k h.h.h.h.h.h.h.h.h.h.h.h.h.h.h.h.h.h.h.h.h.h.h.h.h.h.h.",
"h.h.h.h.h.h.h.h.h.h.h.h.h.h.h.h.h.h.h.h.h.h.h.h.k k k k g f 1 B X.f g k k h.h.h.h.h.h.h.h.h.h.h.h.h.h.h.h.h.h.h.h.h.h.h.h.h.h.h.",
"h.h.h.h.h.h.h.h.h.h.h.h.h.h.h.h.h.h.h.h.h.h.h.*.x k k k k g f f f g k k k k h.h.h.h.h.h.h.h.h.h.h.h.h.h.h.h.h.h.h.h.h.h.h.h.h.h.",
"h.h.h.h.h.h.h.h.h.h.h.h.h.h.h.h.h.h.h.h.h.h.h.J &.x k k k k k k f f k k k z { h.h.h.h.h.h.h.h.h.h.h.h.h.h.h.h.h.h.h.h.h.h.h.h.h.",
"h.h.h.h.h.h.h.h.h.h.h.h.h.h.h.h.h.h.h.h.h.h.V 7 J &.z h k k k k k k k k z  .7.h.h.h.h.h.h.h.h.h.h.h.h.h.h.h.h.h.h.h.h.h.h.h.h.h.",
"h.h.h.h.h.h.h.h.h.h.h.h.h.h.h.h.h.h.h.h.h.h.! 7 7 J &.L z k k k k k k z  .-.%.h.h.h.h.h.h.h.h.h.h.h.h.h.h.h.h.h.h.h.h.h.h.h.h.h.",
"h.h.h.h.h.h.h.h.h.h.h.h.h.h.h.h.h.h.h.h.h.u.6.0 6 9 S } +.z l k k k z  .O.X.0.h.h.h.h.h.h.h.h.h.h.h.h.h.h.h.h.h.h.h.h.h.h.h.h.h.",
"h.h.h.h.h.h.h.h.h.h.h.h.h.h.h.h.h.h.h.h.h.u.e.Q 4 6 6 q } }  .[ x x  .O.7 ^ u.u.h.h.h.h.h.h.h.h.h.h.h.h.h.h.h.h.h.h.h.h.h.h.h.h.",
"h.h.h.h.h.h.h.h.h.h.h.h.h.h.h.h.h.h.h.h.h.u.u.$.t 6 9 6 6 6 G ^ K L K 8 4 ^ u.u.h.h.h.h.h.h.h.h.h.h.h.h.h.h.h.h.h.h.h.h.h.h.h.h.",
"h.h.h.h.h.h.h.h.h.h.h.h.h.h.h.h.h.h.h.h.h.u.p.w.H 4 9 9 9 9 6 4 6 6 6 9 7 ^ e.h.h.h.h.h.h.h.h.h.h.h.h.h.h.h.h.h.h.h.h.h.h.h.h.h.",
"h.h.h.h.h.h.h.h.h.h.h.h.h.h.h.h.h.h.h.h.h.u.p.q.@.y 4 9 9 9 9 9 9 9 9 7 * ^ u.u.h.h.h.h.h.h.h.h.h.h.h.h.h.h.h.h.h.h.h.h.h.h.h.h.",
"h.h.h.h.h.h.h.h.h.h.h.h.h.h.h.h.h.h.h.h.h.u.p.0.%.t 4 9 9 9 9 9 9 9 9 7 t @.e.u.h.h.h.h.h.h.h.h.h.h.h.h.h.h.h.h.h.h.h.h.h.h.h.h.",
"h.h.h.h.h.h.h.h.h.h.h.h.h.h.h.h.h.h.h.h.h.u.u.0.h.& 4 7 9 9 9 9 9 9 9 6 H 2.w.p.h.h.h.h.h.h.h.h.h.h.h.h.h.h.h.h.h.h.h.h.h.h.h.h.",
"h.h.h.h.h.h.h.h.h.h.h.h.h.h.h.h.h.h.h.h.h.u.u.0.%.4 4 4 9 9 9 9 9 9 9 6 A %.4.9.I h.h.h.h.h.h.h.h.h.h.h.h.h.h.h.h.h.h.h.h.h.h.h.",
"h.h.h.h.h.h.h.h.h.h.h.h.h.h.h.h.h.h.h.h.p.p.e.>.h.h.* 4 9 9 9 9 9 9 9 9 7 Q Q C 9 h.h.h.h.h.h.h.h.h.h.h.h.h.h.h.h.h.h.h.h.h.h.h.",
"h.h.h.h.h.h.h.h.h.h.h.h.h.h.h.h.h.h.h.h._ u.e.>.h.h.4 4 7 9 9 9 9 9 9 9 9 * * 4 7 h.h.h.h.h.h.h.h.h.h.h.h.h.h.h.h.h.h.h.h.h.h.h.",
"h.h.h.h.h.h.h.h.h.h.h.h.h.h.h.h.h.h.h.h.9 ( 6.@.h.h.4 * 6 9 9 9 9 9 6 9 h.h.4 4 7 9 h.h.h.h.h.h.h.h.h.h.h.h.h.h.h.h.h.h.h.h.h.h.",
"h.h.h.h.h.h.h.h.h.h.h.h.h.h.h.h.h.h.h.h.9 7 6 4 h.h.4 4 4 9 9 9 q a a i > h.* 4 7 9 h.h.h.h.h.h.h.h.h.h.h.h.h.h.h.h.h.h.h.h.h.h.",
"h.h.h.h.h.h.h.h.h.h.h.h.h.h.h.h.h.h.h.h.h.7 4 4 h.h.4 * * 9 9 % q U y I @ h.h.4 4 7 h.h.h.h.h.h.h.h.h.h.h.h.h.h.h.h.h.h.h.h.h.h.",
"h.h.h.h.h.h.h.h.h.h.h.h.h.h.h.h.h.h.h.h.h.9 4 4 h.- * * % - - @ 2 p $ D @ h.h.* 4 9 h.h.h.h.h.h.h.h.h.h.h.h.h.h.h.h.h.h.h.h.h.h.",
"h.h.h.h.h.h.h.h.h.h.h.h.h.h.h.h.h.h.h.h.h.9 9 4 h.@ @ @ @ @ @ @ w p - D $ h.h.4 4 9 h.h.h.h.h.h.h.h.h.h.h.h.h.h.h.h.h.h.h.h.h.h.",
"h.h.h.h.h.h.h.h.h.h.h.h.h.h.h.h.h.h.h.h.h.9 7 4 h.@ @ @ @ @ @ @ 2 T D U * h.h.h.4 7 9 h.h.h.h.h.h.h.h.h.h.h.h.h.h.h.h.h.h.h.h.h.",
"h.h.h.h.h.h.h.h.h.h.h.h.h.h.h.h.h.h.h.h.h.9 9 7 & o @ o = @ @ $ - 0 u q 9 h.h.h.@._ u h.h.h.h.h.h.h.h.h.h.h.h.h.h.h.h.h.h.h.h.h.",
"h.h.h.h.h.h.h.h.h.h.h.h.h.h.h.h.h.h.h.h.h.7 7 9 H : , e # # % * * 4 6 6 9 6 h.%.2.u./ h.h.h.h.h.h.h.h.h.h.h.h.h.h.h.h.h.h.h.h.h.",
"h.h.h.h.h.h.h.h.h.h.h.h.h.h.h.h.h.h.h.h.h.4 7 #.3.r P t.` ` ' ' ' ' ' ' ' ' a.i.s.d.r.y.g.g.g.g.g.g.g.h.h.h.h.h.h.h.h.h.h.h.h.h.",
"h.h.h.h.h.h.h.h.h.h.h.h.h.h.h.h.h.h.h.@ $ 7 #.p.4.3 N f.g.f.f.f.f.f.g.f.f.f.f.f.f.f.f.f.f.f.f.f.f.f.f.f.h.h.h.h.h.h.h.h.h.h.h.h.",
"h.h.h.h.h.h.h.h.h.h.h.h.h.h.h.h.h.h.h.h.o ~ 0.5.=.c G y.] ] ] ] ] ] 8.' ] ] ] ] ] ] ] ] ] ] ] ] ] ] ] ] h.h.h.h.h.h.h.h.h.h.h.h.",
"h.h.h.h.h.h.h.h.h.h.h.h.h.h.h.h.h.h.h.h.h.h.%.%...m ! ' P Y Y Y Y Y Y Y Y W W h.h.h.h.h.h.h.h.h.h.h.h.h.h.h.h.h.h.h.h.h.h.h.h.h.",
"h.h.h.h.h.h.h.h.h.h.h.h.h.h.h.h.h.h.h.h.h.h.h.h.A b B i & 6 9 7 6 9 6 6 6 6 6 h.h.h.h.h.h.h.h.h.h.h.h.h.h.h.h.h.h.h.h.h.h.h.h.h.",
"h.h.h.h.h.h.h.h.h.h.h.h.h.h.h.h.h.h.h.h.h.h.h.h.h.m b 2 4 6 9 9 9 9 9 9 9 6 u h.h.h.h.h.h.h.h.h.h.h.h.h.h.h.h.h.h.h.h.h.h.h.h.h.",
"h.h.h.h.h.h.h.h.h.h.h.h.h.h.h.h.h.h.h.h.h.h.h.h.n n b e 5 4 9 9 9 9 9 9 9 9 9 9 h.h.h.h.h.h.h.h.h.h.h.h.h.h.h.h.h.h.h.h.h.h.h.h.",
"h.h.h.h.h.h.h.h.h.h.h.h.h.h.h.h.h.h.h.h.h.h.h.h.n n n b 7 4 7 9 9 9 9 9 9 9 9 9 h.h.h.h.h.h.h.h.h.h.h.h.h.h.h.h.h.h.h.h.h.h.h.h.",
"h.h.h.h.h.h.h.h.h.h.h.h.h.h.h.h.h.h.h.h.h.h.h.h.n n n b 7 * 5 9 9 9 9 9 9 9 9 9 h.h.h.h.h.h.h.h.h.h.h.h.h.h.h.h.h.h.h.h.h.h.h.h.",
"h.h.h.h.h.h.h.h.h.h.h.h.h.h.h.h.h.h.h.h.h.h.h.h.n n n b 7 * 7 9 9 9 9 9 9 9 9 9 h.h.h.h.h.h.h.h.h.h.h.h.h.h.h.h.h.h.h.h.h.h.h.h.",
"h.h.h.h.h.h.h.h.h.h.h.h.h.h.h.h.h.h.h.h.h.h.h.h.m n n b 7 * 4 7 7 7 7 * 4 7 9 h.h.h.h.h.h.h.h.h.h.h.h.h.h.h.h.h.h.h.h.h.h.h.h.h.",
"h.h.h.h.h.h.h.h.h.h.h.h.h.h.h.h.h.h.h.h.h.h.h.h.B n n n q < * 4 < 7 8 7 7 e h.h.h.h.h.h.h.h.h.h.h.h.h.h.h.h.h.h.h.h.h.h.h.h.h.h.",
"h.h.h.h.h.h.h.h.h.h.h.h.h.h.h.h.h.h.h.h.h.h.h.h.n n n n n b h.h.h.b b b v b h.h.h.h.h.h.h.h.h.h.h.h.h.h.h.h.h.h.h.h.h.h.h.h.h.h.",
"h.h.h.h.h.h.h.h.h.h.h.h.h.h.h.h.h.h.h.h.h.h.h.h.n n n n n n h.h.h.b n n n n h.h.h.h.h.h.h.h.h.h.h.h.h.h.h.h.h.h.h.h.h.h.h.h.h.h.",
"h.h.h.h.h.h.h.h.h.h.h.h.h.h.h.h.h.h.h.h.h.h.h.h.n n n n n h.h.h.h.b B n n h.h.h.h.h.h.h.h.h.h.h.h.h.h.h.h.h.h.h.h.h.h.h.h.h.h.h.",
"h.h.h.h.h.h.h.h.h.h.h.h.h.h.h.h.h.h.h.h.h.h.h.m n n n n h.h.h.h.r b n n h.h.h.h.h.h.h.h.h.h.h.h.h.h.h.h.h.h.h.h.h.h.h.h.h.h.h.h.",
"h.h.h.h.h.h.h.h.h.h.h.h.h.h.h.h.h.h.h.h.h.h.h.m n n n n h.h.h.h.r n n n h.h.h.h.h.h.h.h.h.h.h.h.h.h.h.h.h.h.h.h.h.h.h.h.h.h.h.h.",
"h.h.h.h.h.h.h.h.h.h.h.h.h.h.h.h.h.h.h.h.h.h.h.y y y y y h.h.h.h.b n n n h.h.h.h.h.h.h.h.h.h.h.h.h.h.h.h.h.h.h.h.h.h.h.h.h.h.h.h.",
"h.h.h.h.h.h.h.h.h.h.h.h.h.h.h.h.h.h.h.h.h.h.h.9 9 9 7 4 h.h.h.h.8 y m m h.h.h.h.h.h.h.h.h.h.h.h.h.h.h.h.h.h.h.h.h.h.h.h.h.h.h.h.",
"h.h.h.h.h.h.h.h.h.h.h.h.h.h.h.h.h.h.h.h.h.h.h.h.9 9 7 4 h.h.h.h.* 9 0 9 h.h.h.h.h.h.h.h.h.h.h.h.h.h.h.h.h.h.h.h.h.h.h.h.h.h.h.h.",
"h.h.h.h.h.h.h.h.h.h.h.h.h.h.h.h.h.h.h.h.h.h.h.h.9 9 4 4 h.h.h.h.6 9 6 * h.h.h.h.h.h.h.h.h.h.h.h.h.h.h.h.h.h.h.h.h.h.h.h.h.h.h.h.",
"h.h.h.h.h.h.h.h.h.h.h.h.h.h.h.h.h.h.h.h.h.h.h.h.9 7 4 h.h.h.h.h.6 9 6 h.h.h.h.h.h.h.h.h.h.h.h.h.h.h.h.h.h.h.h.h.h.h.h.h.h.h.h.h.",
"h.h.h.h.h.h.h.h.h.h.h.h.h.h.h.h.h.h.h.h.h.h.h.h.9 9 6 4 h.h.h.h.9 9 7 9 h.h.h.h.h.h.h.h.h.h.h.h.h.h.h.h.h.h.h.h.h.h.h.h.h.h.h.h.",
"h.h.h.h.h.h.h.h.h.h.h.h.h.h.h.h.h.h.h.h.h.h.h.h.9 9 7 4 h.h.h.h.9 9 9 7 9 h.h.h.h.h.h.h.h.h.h.h.h.h.h.h.h.h.h.h.h.h.h.h.h.h.h.h.",
"h.h.h.h.h.h.h.h.h.h.h.h.h.h.h.h.h.h.h.h.h.h.h.9 9 9 9 6 * h.h.h.6 6 7 7 9 9 h.h.h.h.h.h.h.h.h.h.h.h.h.h.h.h.h.h.h.h.h.h.h.h.h.h.",
"h.h.h.h.h.h.h.h.h.h.h.h.h.h.h.h.h.h.h.h.h.h.h.6 4 4 4 4 4 h.h.h.h.4 4 4 4 4 h.h.h.h.h.h.h.h.h.h.h.h.h.h.h.h.h.h.h.h.h.h.h.h.h.h."
};
