/* XPM */
static char *fb7fh_8hpwi[] = {
/* columns rows colors chars-per-pixel */
"64 64 139 2 ",
"   c #030202",
".  c #0F0602",
"X  c #0B0A0B",
"o  c #160900",
"O  c #1E0F05",
"+  c #140E0C",
"@  c #1E1006",
"#  c #1C120C",
"$  c #0F0F10",
"%  c #1C1614",
"&  c #1C1817",
"*  c #16191E",
"=  c #1A1A1D",
"-  c #2C0F03",
";  c #26150B",
":  c #211713",
">  c #221913",
",  c #291D14",
"<  c #231D1B",
"1  c #2A1E1A",
"2  c #331F1A",
"3  c #2B211C",
"4  c #33231D",
"5  c #3D271C",
"6  c #1C1D21",
"7  c #211F21",
"8  c #1F2024",
"9  c #212226",
"0  c #2B2525",
"q  c #232428",
"w  c #29272A",
"e  c #27282B",
"r  c #2C292C",
"t  c #332A26",
"y  c #3E2E26",
"u  c #352D2B",
"i  c #3D2F28",
"p  c #3D322C",
"a  c #373234",
"s  c #3D3331",
"d  c #3C3A39",
"f  c #541A04",
"g  c #591D05",
"h  c #591F08",
"j  c #631F05",
"k  c #5C2109",
"l  c #432115",
"z  c #642107",
"x  c #662408",
"c  c #6D2B0E",
"v  c #743414",
"b  c #793917",
"n  c #402F27",
"m  c #442F28",
"M  c #403027",
"N  c #45342C",
"B  c #48372F",
"V  c #5C3B2F",
"C  c #433636",
"Z  c #473837",
"A  c #4A3D30",
"S  c #443E3A",
"D  c #493C3B",
"F  c #5A4835",
"G  c #55413F",
"H  c #5A423E",
"J  c #63443B",
"K  c #6A473B",
"L  c #624E38",
"P  c #7A5D3E",
"I  c #403F40",
"U  c #464342",
"Y  c #4D4141",
"T  c #4C4946",
"R  c #5E4641",
"E  c #534B44",
"W  c #5E4841",
"Q  c #5A5551",
"!  c #624A45",
"~  c #62504D",
"^  c #6F514A",
"/  c #765146",
"(  c #74534B",
")  c #7A544A",
"_  c #77584C",
"`  c #6E5954",
"'  c #735850",
"]  c #7A5850",
"[  c #767676",
"{  c #7A7A7A",
"}  c #80411E",
"|  c #864B25",
" . c #874A29",
".. c #8F562D",
"X. c #91572E",
"o. c #90582F",
"O. c #9F693C",
"+. c #835A4E",
"@. c #886844",
"#. c #906C45",
"$. c #9A7348",
"%. c #8A6155",
"&. c #85675F",
"*. c #89655A",
"=. c #8A685B",
"-. c #9B6A5C",
";. c #A77544",
":. c #A97746",
">. c #A16D5D",
",. c #8D6D64",
"<. c #9E6F61",
"1. c #9D7266",
"2. c #9A756B",
"3. c #9F7A6F",
"4. c #9D7A70",
"5. c #A16F60",
"6. c #A27365",
"7. c #A47669",
"8. c #A97C6E",
"9. c #A37C70",
"0. c #AC7E71",
"q. c #AF815E",
"w. c #AD8276",
"e. c #B18376",
"r. c #B28679",
"t. c #B58A7C",
"y. c #B88C7E",
"u. c #848484",
"i. c #8B8B8B",
"p. c #929292",
"a. c gray61",
"s. c #BB8E81",
"d. c #BD9183",
"f. c #A1A09F",
"g. c #A5A5A5",
"h. c #AEADAD",
"j. c #B2B2B2",
"k. c #C19386",
"l. c None",
/* pixels */
"l.l.l.l.l.l.l.l.l.l.l.l.l.l.l.l.l.l.l.l.l.l.l.l.l.l.l.l.l.l.l.l.l.l.l.l.l.l.l.l.l.l.l.l.l.l.l.l.l.l.l.l.l.l.l.l.l.l.l.l.l.l.l.l.",
"l.l.l.l.l.l.l.l.l.l.l.l.l.l.l.l.l.l.l.l.l.l.l.l.l.l.l.l.l.l.l.l.l.l.l.l.l.l.l.l.l.l.l.l.l.l.l.l.l.l.l.l.l.l.l.l.l.l.l.l.l.l.l.l.",
"l.l.l.l.l.l.l.l.l.l.l.l.l.l.l.l.l.l.l.l.l.l.l.l.l.l.l.l.l.l.l.l.l.l.l.l.l.l.l.l.l.l.l.l.l.l.l.l.l.l.l.l.l.l.l.l.l.l.l.l.l.l.l.l.",
"l.l.l.l.l.l.l.l.l.l.l.l.l.l.l.l.l.l.l.l.l.l.l.l.l.l.l.l.l.l.l.l.l.l.l.l.l.l.l.l.l.l.l.l.l.l.l.l.l.l.l.l.l.l.l.l.l.l.l.l.l.l.l.l.",
"l.l.l.l.l.l.l.l.l.l.l.l.l.l.l.l.l.l.l.l.l.l.l.l.l.l.l.l.l.l.l.l.l.l.l.l.l.l.l.l.l.l.l.l.l.l.l.l.l.l.l.l.l.l.l.l.l.l.l.l.l.l.l.l.",
"l.l.l.l.l.l.l.l.l.l.l.l.l.l.l.l.l.l.l.l.l.l.l.l.l.l.l.l.l.l.l.l.l.l.l.l.l.l.l.l.l.l.l.l.l.l.l.l.l.l.l.l.l.l.l.l.l.l.l.l.l.l.l.l.",
"l.l.l.l.l.l.l.l.l.l.l.l.l.l.l.l.l.l.l.l.l.l.l.l.l.l.l.l.l.l.l.l.l.l.l.l.l.l.l.l.l.l.l.l.l.l.l.l.l.l.l.l.l.l.l.l.l.l.l.l.l.l.l.l.",
"l.l.l.l.l.l.l.l.l.l.l.l.l.l.l.l.l.l.l.l.l.l.l.l.l.l.l.l.l.l.l.l.l.l.l.l.l.l.l.l.l.l.l.l.l.l.l.l.l.l.l.l.l.l.l.l.l.l.l.l.l.l.l.l.",
"l.l.l.l.l.l.l.l.l.l.l.l.l.l.l.l.l.l.l.l.l.l.l.l.l.l.l.l.l.l.l.l.l.l.l.l.l.l.l.l.l.l.      l.l.l.l.l.l.l.l.l.l.l.l.l.l.l.l.l.l.l.",
"l.l.l.l.l.l.l.l.l.l.l.l.l.l.l.l.l.l.l.l.l.l.l.l.l.l.l.l.l.l.l.l.l.l.l.l.l.l.l.l.                l.l.l.l.l.l.l.l.l.l.l.l.l.l.l.l.",
"l.l.l.l.l.l.l.l.l.l.l.l.l.l.l.l.l.l.l.l.l.l.l.l.l.l.l.l.l.l.l.l.l.l.l.l.l.l.l.l.    + :   + 1 l.l.l.l.l.l.l.l.l.l.l.l.l.l.l.l.l.",
"l.l.l.l.l.l.l.l.l.l.l.l.l.l.l.l.l.l.l.l.l.l.l.l.l.l.l.l.l.l.l.l.l.l.l.l.l.l.l.l.  N ) +.J / l.l.l.l.l.l.l.l.l.l.l.l.l.l.l.l.l.l.",
"l.l.l.l.l.l.l.l.l.l.l.l.l.l.l.l.l.l.l.l.l.l.l.l.l.l.l.l.l.l.l.l.l.l.l.l.l.l.l.l.  *.s.9.r.0.) l.l.l.l.l.l.l.l.l.l.l.l.l.l.l.l.l.",
"l.l.l.l.l.l.l.l.l.l.l.l.l.l.l.l.l.l.l.l.l.l.l.l.l.l.l.l.l.l.l.l.l.l.l.l.l.l.l.l.1 9.d.,.3.2.m l.l.l.l.l.l.l.l.l.l.l.l.l.l.l.l.l.",
"l.l.l.l.l.l.l.l.l.l.l.l.l.l.l.l.l.l.l.l.l.l.l.l.l.l.l.l.l.l.l.l.l.l.l.l.l.l.l.l.,.' w.s.r.5.l.l.l.l.l.l.l.l.l.l.l.l.l.l.l.l.l.l.",
"l.l.l.l.l.l.l.l.l.l.l.l.l.l.l.l.l.l.l.l.l.l.l.l.l.l.l.l.l.l.l.l.l.l.l.l.l.l.l.l._ 1 i R % % # l.l.l.l.l.l.l.l.l.l.l.l.l.l.l.l.l.",
"l.l.l.l.l.l.l.l.l.l.l.l.l.l.l.l.l.l.l.l.l.l.l.l.l.l.l.l.l.l.l.l.l.l.l.l.l.l.l.l q X           l.l.l.l.l.l.l.l.l.l.l.l.l.l.l.l.l.",
"l.l.l.l.l.l.l.l.l.l.l.l.l.l.l.l.l.l.l.l.l.l.l.l.l.l.l.l.l.l.l.l.l.l.d.d.>.z x k 2 = $         l.l.l.l.l.l.l.l.l.l.l.l.l.l.l.l.l.",
"l.l.l.l.l.l.l.l.l.l.l.l.l.l.l.l.l.l.l.l.l.l.l.l.l.l.l.l.l.l.l.y.r.y.w.q. .v x z g 4 4 - .   l.l.l.l.l.l.l.l.l.l.l.l.l.l.l.l.l.l.",
"l.l.l.l.l.l.l.l.l.l.l.l.l.l.l.l.l.l.l.l.l.l.l.l.l.l.l.l.l.s.e.7.-.( Z L P $.X.x x z g f f l.l.l.l.l.l.l.l.l.l.l.l.l.l.l.l.l.l.j.",
"l.l.l.l.l.l.l.l.l.l.l.l.l.l.l.l.l.l.l.l.l.l.l.l.l.l.l.l.l.t.-.-.R q Z ^ Y p $.X.x z j g z l.l.l.l.l.l.l.l.l.l.l.l.l.l.l.l.j.h.p.",
"l.l.l.l.l.l.l.l.l.l.l.l.l.l.l.l.l.l.l.l.l.l.l.l.l.l.l.l.l.7.-.R q s 7.s.2.r u $.| j x x z z l.l.l.l.l.l.l.l.l.l.l.l.l.l.h.g.i.[ ",
"l.l.l.l.l.l.l.l.l.l.l.l.l.l.l.l.l.l.l.l.l.l.l.l.l.l.l.l.r.1.R q q C 7.y.d.` * A O.c j x x z l.l.l.l.l.l.l.l.l.l.l.l.l.j.p.{ [ l.",
"l.l.l.l.l.l.l.l.l.l.l.l.l.l.l.l.l.l.l.l.l.l.l.l.l.l.l.l.8.J q q 8 C -.r.d.` 6 w @.b j x c o.l.l.l.l.l.l.l.l.l.l.l.j.g.i.{ l.l.l.",
"l.l.l.l.l.l.l.l.l.l.l.l.l.l.l.l.l.l.l.l.l.l.l.l.l.l.l.l.! q q q 8 s -.0.d.` 6 6 F ;.b X.;.l.l.l.l.l.l.l.l.l.l.l.j.j.p.[ l.l.l.l.",
"l.l.l.l.l.l.l.l.l.l.l.l.l.l.l.l.l.l.l.l.l.l.l.l.l.l.l.q q q q q 6 s <.<.s.` 6 6 6 L P #.l.l.l.l.l.l.l.l.l.l.l.j.g.p.[ l.l.l.l.l.",
"l.l.l.l.l.l.l.l.l.l.l.l.l.l.l.l.l.l.l.l.l.l.l.l.l.l.l.q q q q q = 9 ( 5.s.4.a q 6 6 6 l.l.l.l.l.l.l.l.l.l.l.j.g.{ l.l.l.l.l.l.l.",
"l.l.l.l.l.l.l.l.l.l.l.l.l.l.l.l.l.l.l.l.l.l.l.l.l.l.l.q q q q 6 6 * V 5.s.d.Y 8 q l.l.l.l.l.l.l.l.l.l.l.j.g.u.{ l.l.l.l.l.l.l.l.",
"l.l.l.l.l.l.l.l.l.l.l.l.l.l.l.l.l.l.l.l.l.l.l.l.l.l.q q q q q 6 6 * R 5.s.s.Q l.l.l.l.l.l.l.l.l.l.l.l.j.g.u.[ l.l.l.l.l.l.l.l.l.",
"l.l.l.l.l.l.l.l.l.l.l.l.l.l.l.l.l.l.l.l.l.l.l.l.l.l.q q q q 6 = * 6 u %.s.,.a l.l.l.l.l.l.l.l.l.l.l.h.p.u.[ l.l.l.l.l.l.l.l.l.l.",
"l.l.l.l.l.l.l.l.l.l.l.l.l.l.l.l.l.l.l.l.l.l.l.l.l.q q q q 6 6 q q w 7 ] *.r q q l.l.l.l.l.l.l.l.l.h.i.[ [ l.l.l.l.l.l.l.l.l.l.l.",
"l.l.l.l.l.l.l.l.l.l.l.l.l.l.l.l.l.l.l.l.l.l.l.l.q q 9 < & & % d T T s V ( q q q q l.l.l.j.l.l.j.h.i.[ l.l.l.l.l.l.l.l.l.l.l.l.l.",
"l.l.l.l.l.l.l.l.l.l.l.l.l.l.l.l.l.l.l.l.l.l.l.l.& > @ @ O O , s , s 4 l.s 6 q q q q l.l.l.h.j.a.u.[ l.l.l.l.l.l.l.l.l.l.l.l.l.l.",
"l.l.l.l.l.l.l.l.l.l.l.l.l.l.l.l.l.l.l.l.l.l.l.O @ @ @ @ O O t S 3 S l.l.l.6 6 q q e ( K @ E f.i.[ l.l.l.l.l.l.l.l.l.l.l.l.l.l.l.",
"l.l.l.l.l.l.l.l.l.l.l.l.l.l.l.l.l.l.l.l.l.l.O O @ @ @ @ O O , U S < l.l.l.l.= 6 q 8 D 0.5 o Q { l.l.l.l.l.l.l.l.l.l.l.l.l.l.l.l.",
"l.l.l.l.l.l.l.l.l.l.l.l.l.l.l.l.l.l.l.l.l.l.O ; @ @ @ @ # % % = 6 8 q l.l.l.l.6 6 6 ,.s.=._ l.[ l.l.l.l.l.l.l.l.l.l.l.l.l.l.l.l.",
"l.l.l.l.l.l.l.l.l.l.l.l.l.l.l.l.l.l.l.l.l.l.< = = & = & 6 6 6 6 6 q q q l.l.l.l.6 w r.0.7.l.l.l.l.l.l.l.l.l.l.l.l.l.l.l.l.l.l.l.",
"l.l.l.l.l.l.l.l.l.l.l.l.l.l.l.l.l.l.l.l.l.l.A y 0 7 6 6 6 6 6 6 = q q q q l.l.l.& 3 1.-.-.l.l.l.l.l.l.l.l.l.l.l.l.l.l.l.l.l.l.l.",
"l.l.l.l.l.l.l.l.l.l.l.l.l.l.l.l.l.l.l.l.l.l.B n n 0 6 6 7 q q q 6 6 q q q q l.l.@ ; l.l.l.l.l.l.l.l.l.l.l.l.l.l.l.l.l.l.l.l.l.l.",
"l.l.l.l.l.l.l.l.l.l.l.l.l.l.l.l.l.l.l.l.l.l.l.N n y 9 q q q q q 6 6 6 q q q q l.l.l.l.l.l.l.l.l.l.l.l.l.l.l.l.l.l.l.l.l.l.l.l.l.",
"l.l.l.l.l.l.l.l.l.l.l.l.l.l.l.l.l.l.l.l.l.l.l.B N n y t 0 w q q q q 6 8 q q q q l.l.l.l.l.l.l.l.l.l.l.l.l.l.l.l.l.l.l.l.l.l.l.l.",
"l.l.l.l.l.l.l.l.l.l.l.l.l.l.l.l.l.l.l.l.l.l.l.B B N n y y t q q q q q 8 q 9 q q q l.l.l.l.l.l.l.l.l.l.l.l.l.l.l.l.l.l.l.l.l.l.l.",
"l.l.l.l.l.l.l.l.l.l.l.l.l.l.l.l.l.l.l.l.l.l.l.l.B B M y y y t q q q q q q q q 9 9 l.l.l.l.l.l.l.l.l.l.l.l.l.l.l.l.l.l.l.l.l.l.l.",
"l.l.l.l.l.l.l.l.l.l.l.l.l.l.l.l.l.l.l.l.l.l.l.l.B A B y y y n t w q q q q q w q 6 l.l.l.l.l.l.l.l.l.l.l.l.l.l.l.l.l.l.l.l.l.l.l.",
"l.l.l.l.l.l.l.l.l.l.l.l.l.l.l.l.l.l.l.l.l.l.l.l.l.B B M y y y l.y 0 q q q q t < l.l.l.l.l.l.l.l.l.l.l.l.l.l.l.l.l.l.l.l.l.l.l.l.",
"l.l.l.l.l.l.l.l.l.l.l.l.l.l.l.l.l.l.l.l.l.l.l.l.l.B B y y y l.l.l.y 0 q q e t t l.l.l.l.l.l.l.l.l.l.l.l.l.l.l.l.l.l.l.l.l.l.l.l.",
"l.l.l.l.l.l.l.l.l.l.l.l.l.l.l.l.l.l.l.l.l.l.l.l.l.B B y y y l.l.l.l.y t t y p N l.l.l.l.l.l.l.l.l.l.l.l.l.l.l.l.l.l.l.l.l.l.l.l.",
"l.l.l.l.l.l.l.l.l.l.l.l.l.l.l.l.l.l.l.l.l.l.l.l.l.B N n y y l.l.l.l.l.y y y N B B l.l.l.l.l.l.l.l.l.l.l.l.l.l.l.l.l.l.l.l.l.l.l.",
"l.l.l.l.l.l.l.l.l.l.l.l.l.l.l.l.l.l.l.l.l.l.l.l.l.B N M y l.l.l.l.l.l.l.y y N B B l.l.l.l.l.l.l.l.l.l.l.l.l.l.l.l.l.l.l.l.l.l.l.",
"l.l.l.l.l.l.l.l.l.l.l.l.l.l.l.l.l.l.l.l.l.l.l.l.B B B M y l.l.l.l.l.l.l.n y n N B l.l.l.l.l.l.l.l.l.l.l.l.l.l.l.l.l.l.l.l.l.l.l.",
"l.l.l.l.l.l.l.l.l.l.l.l.l.l.l.l.l.l.l.l.l.l.l.l.B B N M y l.l.l.l.l.l.l.l.y y N B B l.l.l.l.l.l.l.l.l.l.l.l.l.l.l.l.l.l.l.l.l.l.",
"l.l.l.l.l.l.l.l.l.l.l.l.l.l.l.l.q q q q q r B B B N A n l.l.l.l.l.l.l.l.l.l.y M B B A l.l.l.l.l.l.l.l.l.l.l.l.l.l.l.l.l.l.l.l.l.",
"l.l.l.l.l.l.l.l.l.l.l.q q q q q q q q q q r N B B A N n y l.l.l.l.l.l.l.l.l.y y M B B l.l.l.l.l.l.l.l.l.l.l.l.l.l.l.l.l.l.l.l.l.",
"l.l.l.l.l.l.l.l.l.l.l.q q q q q 8 6 q q 8 7 0 M m y y y l.l.l.l.l.l.l.l.l.l.l.y i N A B l.l.l.l.l.l.l.l.l.l.l.l.l.l.l.l.l.l.l.l.",
"l.l.l.l.l.l.l.l.l.l.l.l.q 6 6 6 6 6 6 6 6 6 0 n y i i y l.l.l.l.l.l.l.l.l.l.l.l.y i N N l.l.l.l.l.l.l.l.l.l.l.l.l.l.l.l.l.l.l.l.",
"l.l.l.l.l.l.l.l.l.l.l.l.6 6 6 6 6 l.l.l.l.6 = t l.l.l.l.l.l.l.l.l.l.l.l.l.l.l.l.6 6 q q q l.l.l.l.l.l.l.l.l.l.l.l.l.l.l.l.l.l.l.",
"l.l.l.l.l.l.l.l.l.l.l.l.6 6 6 l.l.l.l.l.l.l.l.l.l.l.l.l.l.l.l.l.l.l.l.l.l.l.l.l.l.6 6 q q l.l.l.l.l.l.l.l.l.l.l.l.l.l.l.l.l.l.l.",
"l.l.l.l.l.l.l.l.l.l.l.l.l.6 6 l.l.l.l.l.l.l.l.l.l.l.l.l.l.l.l.l.l.l.l.l.l.l.l.l.l.6 6 q q q l.l.l.l.l.l.l.l.l.l.l.l.l.l.l.l.l.l.",
"l.l.l.l.l.l.l.l.l.l.l.l.l.l.6 l.l.l.l.l.l.l.l.l.l.l.l.l.l.l.l.l.l.l.l.l.l.l.l.l.l.6 6 6 q q q l.l.l.l.l.l.l.l.l.l.l.l.l.l.l.l.l.",
"l.l.l.l.l.l.l.l.l.l.l.l.l.l.l.l.l.l.l.l.l.l.l.l.l.l.l.l.l.l.l.l.l.l.l.l.l.l.l.l.l.l.6 6 6 q q 6 8 l.l.l.l.l.l.l.l.l.l.l.l.l.l.l.",
"l.l.l.l.l.l.l.l.l.l.l.l.l.l.l.l.l.l.l.l.l.l.l.l.l.l.l.l.l.l.l.l.l.l.l.l.l.l.l.l.l.l.l.6 6 6 6 6 l.l.l.l.l.l.l.l.l.l.l.l.l.l.l.l.",
"l.l.l.l.l.l.l.l.l.l.l.l.l.l.l.l.l.l.l.l.l.l.l.l.l.l.l.l.l.l.l.l.l.l.l.l.l.l.l.l.l.l.l.6 6 6 l.l.l.l.l.l.l.l.l.l.l.l.l.l.l.l.l.l.",
"l.l.l.l.l.l.l.l.l.l.l.l.l.l.l.l.l.l.l.l.l.l.l.l.l.l.l.l.l.l.l.l.l.l.l.l.l.l.l.l.l.l.l.l.l.l.l.l.l.l.l.l.l.l.l.l.l.l.l.l.l.l.l.l.",
"l.l.l.l.l.l.l.l.l.l.l.l.l.l.l.l.l.l.l.l.l.l.l.l.l.l.l.l.l.l.l.l.l.l.l.l.l.l.l.l.l.l.l.l.l.l.l.l.l.l.l.l.l.l.l.l.l.l.l.l.l.l.l.l."
};
