/* XPM */
static char *_gqj4_aqb24[] = {
/* columns rows colors chars-per-pixel */
"32 32 70 1 ",
"  c #06382A",
". c #0C3D2D",
"X c #113E31",
"o c #144E1F",
"O c #0F4426",
"+ c #0E412A",
"@ c #104625",
"# c #134B23",
"$ c #11452B",
"% c #164C2C",
"& c #1C4C2E",
"* c #165121",
"= c #195425",
"- c #1D5B24",
"; c #17502C",
": c #1B522B",
"> c #1E5B2D",
", c #154134",
"< c #184434",
"1 c #1B4B32",
"2 c #1B423A",
"3 c #205F2B",
"4 c #22463E",
"5 c #2A6E26",
"6 c #24642C",
"7 c #27692C",
"8 c #2A6D2C",
"9 c #2C7226",
"0 c #2E7429",
"q c #337C26",
"w c #3A7F26",
"e c #307528",
"r c #327828",
"t c #334E4C",
"y c #3D574D",
"u c #3C5252",
"i c #415555",
"p c #425951",
"a c #485A5B",
"s c #505D5F",
"d c #4F5C60",
"f c #555F63",
"g c #596067",
"h c #62656E",
"j c #67696F",
"k c #6B6A74",
"l c #746E7B",
"z c #74727C",
"x c #368123",
"c c #3C8423",
"v c #428623",
"b c #458923",
"n c #4C8C22",
"m c #518E22",
"M c #569022",
"N c #5A9222",
"B c #7A7580",
"V c #7E7984",
"C c #817C86",
"Z c #837E88",
"A c #85818A",
"S c #89858C",
"D c #8C898F",
"F c #8F8B92",
"G c #908E93",
"H c #949296",
"J c #969598",
"K c #989799",
"L c #9A999A",
"P c None",
/* pixels */
"PPPPPPPPPPPPPPPPPPxxPPPcccPPPPPP",
"PPPPPPPPPPPPPPPPbnbbbPnMMxPPPPPP",
"PPPPPPPPPcnnPPcnNNMnMcMMc8PPPPPP",
"PPPPPccPcbnNMcnbbNnnmxcc07PPPPPP",
"PPPcnMNMnnmnvvNMcbcxcmMMx8PPPPPP",
"PPPwcnNNNnNv08cbcbMcnNmbr88PPPPP",
"PPPmncbbNNncwr0qcMbcbcxxq80r8r07",
"PPmNMmbvbvrcnmcqxqrqqxxx08q0rx8;",
"PvMbnNNnqrxbbcxxq0qc08008868x9=O",
"PercMnv08qcMc0rqrrmNb73887$3-*O+",
"PPqxx07>0xnb00nx0rNNbx7>:;#*#+ P",
"Pxxq06;7qxx5;9nnrrnnxxr7<@#+#+PP",
">85:>++>807##0qbq0xcr68>..+#+.PP",
"P+$++;o+>>+=#>8rx00x5$;+XX#@+.PP",
"PP.@+>-*#+#=-#7863886$OOys%@..PP",
"PPP+*#:@###--#%1XX>>+#o#pk&...PP",
"PP+#3=$t1.X%=#.tt.++@@..pjX...PP",
"P...$%<ky udX..ih:O$14..pk3##.PP",
"PPP..@,kfXhl2..uk&.,hkP2gg@@.XPP",
"PPPPPPPPBPPlPP az,.PCBPVziPPPPPP",
"PPPPPPPPlBPCVPPzz2PPGVCCPPPPPPPP",
"PPPPPPPPPACGJHASFPPPGGAPPPPPPPPP",
"PPPPPPPPPPPGHLKJHVPPGJZPPPPPPPPP",
"PPPPPPPPPPPPPPGGKFVPGHVPPPPPPPPP",
"PPPPPPPPPPPPPPPPHKGSJGPPPPPPPPPP",
"PPPPPPPPPPPPPPPPPGLHJGPPPPPPPPPP",
"PPPPPPPPPPPPPPPPPGLGKAPPPPPPPPPP",
"PPPPPPPPPPPPPPPPPPKHLDPPPPPPPPPP",
"PPPPPPPPPPPPPPPPPPPJGLFPPPPPPPPP",
"PPPPPPPPPPPPPPPPPPPPGLKAPPPPPPPP",
"PPPPPPPPPPPPPPPPPPPPGJLGPPPPPPPP",
"PPPPPPPPPPPPPPPPPPPPGJLLPPPPPPPP"
};
