/* XPM */
static char *tng44_t9ow8[] = {
/* columns rows colors chars-per-pixel */
"64 64 130 2 ",
"   c #0A3E27",
".  c #06382B",
"X  c #0B3C2D",
"o  c #103E2F",
"O  c #0D3C30",
"+  c #143F34",
"@  c #144E1F",
"#  c #16501F",
"$  c #0E4326",
"%  c #0E412A",
"&  c #104626",
"*  c #134B23",
"=  c #194F26",
"-  c #11452C",
";  c #154B2B",
":  c #1B4C2C",
">  c #175122",
",  c #195424",
"<  c #1D5B25",
"1  c #17502A",
"2  c #1A532B",
"3  c #1E5B2C",
"4  c #174434",
"5  c #194632",
"6  c #1D4935",
"7  c #1C443A",
"8  c #205F27",
"9  c #22552B",
"0  c #205E2D",
"q  c #21473C",
"w  c #254A3D",
"e  c #245734",
"r  c #245C32",
"t  c #2A5139",
"y  c #2E5A3C",
"u  c #345B3E",
"i  c #385E3F",
"p  c #236426",
"a  c #276A26",
"s  c #2A6D26",
"d  c #23642A",
"f  c #27692C",
"g  c #296D2C",
"h  c #2D7427",
"j  c #2F7827",
"k  c #2D732A",
"l  c #327726",
"z  c #337C26",
"x  c #3B7E26",
"c  c #307729",
"v  c #38772A",
"b  c #337828",
"n  c #3B7B29",
"m  c #276430",
"M  c #286730",
"N  c #326B35",
"B  c #37643E",
"V  c #347037",
"C  c #377239",
"Z  c #407E28",
"A  c #48793F",
"S  c #264940",
"D  c #2E4D45",
"F  c #334F4C",
"G  c #2F5241",
"H  c #335541",
"J  c #395E41",
"K  c #36554C",
"L  c #3F584D",
"P  c #3C5252",
"I  c #3A6043",
"U  c #415F4B",
"Y  c #415654",
"T  c #425B51",
"R  c #455959",
"E  c #4B5B5C",
"W  c #406D45",
"Q  c #4E774B",
"!  c #446551",
"~  c #4D6055",
"^  c #55635D",
"/  c #576D5B",
"(  c #517454",
")  c #5E735E",
"_  c #535E62",
"`  c #576065",
"'  c #586166",
"]  c #516963",
"[  c #5E646B",
"{  c #576C68",
"}  c #63666D",
"|  c #65696D",
" . c #666770",
".. c #6C6B74",
"X. c #6F6E78",
"o. c #716F76",
"O. c #746F7B",
"+. c #6C7174",
"@. c #747777",
"#. c #76737E",
"$. c #75797E",
"%. c #368123",
"&. c #3B8323",
"*. c #3B802A",
"=. c #428624",
"-. c #4A8626",
";. c #458923",
":. c #4B8B23",
">. c #528E22",
",. c #588F23",
"<. c #569022",
"1. c #5A9222",
"2. c #5D8156",
"3. c #7B7681",
"4. c #7E7A84",
"5. c #827D87",
"6. c #847F89",
"7. c #7D8381",
"8. c #828485",
"9. c #86828A",
"0. c #89868D",
"q. c #8B888F",
"w. c #8E8A91",
"e. c #918E94",
"r. c #8F9192",
"t. c #949296",
"y. c #979598",
"u. c #989799",
"i. c #9C9C9C",
"p. c None",
/* pixels */
"p.p.p.p.p.p.p.p.p.p.p.p.p.p.p.p.p.p.p.p.p.p.p.p.p.p.p.p.p.p.p.p.p.p.p.p.p.p.p.p.p.p.p.p.p.p.p.p.p.p.p.p.p.p.p.p.p.p.p.p.p.p.p.p.",
"p.p.p.p.p.p.p.p.p.p.p.p.p.p.p.p.p.p.p.p.p.p.p.p.p.p.p.p.p.p.p.p.p.p.p.p.p.p.p.p.p.p.p.p.p.p.p.p.p.p.p.p.p.p.p.p.p.p.p.p.p.p.p.p.",
"p.p.p.p.p.p.p.p.p.p.p.p.p.p.p.p.p.p.p.p.p.p.p.p.p.p.p.p.p.p.p.p.p.p.p.p.p.p.p.p.p.p.p.p.p.p.p.p.p.p.p.p.p.p.p.p.p.p.p.p.p.p.p.p.",
"p.p.p.p.p.p.p.p.p.p.p.p.p.p.p.p.p.p.p.p.p.p.p.p.p.p.p.p.p.p.p.p.p.p.p.p.p.p.p.p.p.p.p.p.p.p.p.p.p.p.p.p.p.p.p.p.p.p.p.p.p.p.p.p.",
"p.p.p.p.p.p.p.p.p.p.p.p.p.p.p.p.p.p.p.p.p.p.p.p.p.p.p.p.p.p.p.p.p.p.p.p.p.p.p.p.p.p.p.p.p.p.p.p.p.p.p.p.p.p.p.p.p.p.p.p.p.p.p.p.",
"p.p.p.p.p.p.p.p.p.p.p.p.p.p.p.p.p.p.p.p.p.p.p.p.p.p.p.p.p.p.p.p.p.p.p.p.p.p.p.p.p.p.p.p.p.p.p.p.p.p.p.p.p.p.p.p.p.p.p.p.p.p.p.p.",
"p.p.p.p.p.p.p.p.p.p.p.p.p.p.p.p.p.p.p.p.p.p.p.p.p.p.p.p.p.p.p.p.p.p.p.p.p.p.p.p.p.p.p.p.p.p.p.p.p.p.p.p.p.p.p.p.p.p.p.p.p.p.p.p.",
"p.p.p.p.p.p.p.p.p.p.p.p.p.p.p.p.p.p.p.p.p.p.p.p.p.p.p.p.p.p.p.p.p.p.p.p.p.p.p.p.p.p.p.p.p.p.p.p.p.p.p.p.p.p.p.p.p.p.p.p.p.p.p.p.",
"p.p.p.p.p.p.p.p.p.p.p.p.p.p.p.p.p.p.p.p.p.p.p.p.p.p.p.p.p.p.p.p.p.p.p.p.p.p.p.p.p.p.p.p.p.p.p.p.p.p.p.p.p.p.p.p.p.p.p.p.p.p.p.p.",
"p.p.p.p.p.p.p.p.p.p.p.p.p.p.p.p.p.p.p.p.p.p.p.p.p.p.p.p.p.p.p.p.p.p.p.p.p.%.p.p.p.p.p.p.p.p.p.p.p.p.p.p.p.p.p.p.p.p.p.p.p.p.p.p.",
"p.p.p.p.p.p.p.p.p.p.p.p.p.p.p.p.p.p.p.p.p.p.%.p.&.&.z b p.p.%.&.&.p.p.p.<.&.j p.p.p.p.p.p.p.p.p.p.p.p.p.p.p.p.p.p.p.p.p.p.p.p.p.",
"p.p.p.p.p.p.p.p.p.p.p.p.p.p.p.p.p.p.p.p.p.:.;.<.1.;.%.z k &.:.<.:.%.;.1.>.z g M g p.p.p.p.p.p.p.p.p.p.p.p.p.p.p.p.p.p.p.p.p.p.p.",
"p.p.p.p.p.p.p.p.p.p.p.p.p.p.p.p.p.p.p.p.&.&.<.<.>.<.=.b c :.1.1.:.;.;.;.z k g k j k k k g p.p.p.p.p.p.p.p.p.p.p.p.p.p.p.p.p.p.p.",
"p.p.p.p.p.p.p.p.p.p.p.p.p.p.p.p.p.p.p.:.<.:.:.;.x v v h z 1.1.1.1.:.:.;.&.k k %.&.z k k k g g g g p.p.p.p.p.p.p.p.p.p.p.p.p.p.p.",
"p.p.p.p.p.;.;.p.p.;.&.p.=.>.;.p.p.:.:.<.1.1.:.&.%.g M c %.;.1.1.1.1.1.1.=.k k &.<.=.%.%.%.z z j c k p.p.p.p.p.p.p.p.p.p.p.p.p.p.",
"p.p.p.p.p.:.1.<.:.<.<.;.z :.1.&.>.1.>.<.1.>.%.b k g M k z =.>.x x >.:.&.l k j %.=.;.&.:.<.<.;.&.%.%.k p.p.p.p.p.p.p.p.p.p.p.p.p.",
"p.p.p.p.p.p.>.1.1.,.1.:.c n <.>.1.>.z =.1.<.=.z %.z b b b b c z z l *.=.%.&.&.&.%.%.;.:.;.&.%.%.%.%.%.g g g p.p.p.p.p.p.p.p.p.p.",
"p.p.p.p.p.;.<.1.=.=.,.=.c -.:.=.v c x >.1.1.;.&.;.<.<.1.1.;.=.z z z n =.<.<.1.;.%.%.%.%.>.<.<.;.&.z k g k b k k g g p.p.p.p.p.p.",
"p.p.p.p.:.1.1.;.x >.=.n -.:.b k v >.<.1.1.:.;.:.1.1.:.=.1.1.1.>.z k %.j =.<.1.;.&.%.j %.&.<.1.1.n g g k %.%.b %.%.j k g k g p.p.",
"p.p.p.p.;.:.;.%.v v v <.1.=.k z :.<.>.1.<.z &.:.<.1.<.b n :.1.1.:.k j z ;.1.1.1.<.&.%.k %.;.1.>.%.k g z %.%.%.%.%.%.b z %.k g p.",
"p.p.p.p.p.h h g k k %.<.;.j k k b &.<.1.1.n h -.1.1.:.z c b >.1.1.b k &.<.1.1.<.&.%.z g b <.:.&.b k g j %.z z %.%.%.%.b k f m p.",
"p.p.p.p.* < h z z k b z j k z k k ;.<.<.<.Z M =.:.;.%.j z l %.1.1.z k =.<.<.1.1.&.j g g b %.z l g f k j k k %.%.j c g f 2 ; % - ",
"p.p.p.@ > d j %.j k j k k %.%.k g b &.&.z b k b %.l h k k c g l =.%.k &.;.>.1.;.%.b g g z k g g g g %.%.g k j g f f 2 ; * * % p.",
"p.p.p.* & < l z %.j z %.j k p < d f k k k z g k k d d g g 0 1 f z k b %.;.>.&.%.%.b f k b g g 0 2 f %.f 8 d < 1 3 ; X $ * % p.p.",
"p.p.p.p.$ 1 d g 3 - 0 c f 1 > * X ; 0 f g d g d < , d 3 ; ; m h k k %.%.j %.%.%.k 2 - d g 3 ; 0 2 < p , 8 d * $ - X X X X p.p.p.",
"p.p.p.p.$ * 0 d ;   - < < 3 1 * w + S J , > , # @ , H ; = u J 1 - 2 k k j j k 0 1 & q 5 % % 3 3 4 > # p f , & @ * $ O p.p.p.p.p.",
"p.p.p.p.$ 2 0 % - , $ - * 3 3 X P ' E 4 * * * - q K } , 9 ^ t & * % 2 2 3 e 5 & $ X P _ 2 * > 7 T , < f < $ = & % X p.p.p.p.p.p.",
"p.p.p.p.p.p.p.X 2 0 - Y R D 4 $ 6 { K 2 * %   % D +.#.6 T ' ; - % % - % 4 [ S % X O S | 2 $ H } H * 1 -   X X X O p.p.p.p.p.p.p.",
"p.p.p.p.p.p.p.p.- $ % 5 G R } G < n x &.z s s l j V ( y ! I g 0 3 h k f r Q 2 - O O 4 X.E Y ..' 4 X X X p.p.p.p.p.p.p.p.p.p.p.p.",
"p.p.p.p.p.p.p.p.p.p.p.- - % T A &.:.;.;.1.>.:.%.;.=.%.l g b %.k k ;.>.&.j j z d p.p.p.8.@.@.p.p.d d p.p.p.p.p.p.p.p.p.p.p.p.p.p.",
"p.p.p.p.p.p.p.p.p.a %.;.;.&.=.*.1.>.x ;.1.>.z h =.>.:.c k *.&.z z <.1.<.&.k j %.p.p.7.2.n *.p.z z g g k k p.p.p.p.k g p.p.p.p.p.",
"p.p.p.p.p.p.p.p.p.* # %.;.:.n -.:.l n 1.>.z f 3 z >.n c &.=.k g k &.:.<.=.k k %.k k V b %.%.&.&.&.b h %.%.g c &.:.=.k g p.p.p.p.",
"p.p.p.p.p.p.p.p.p.p.< h ;.n c z 2 ; %.;.z 0 * - z b k z %.f 1 3 g j ;.<.=.k k k k %.j g k =.:.&.<.&.&.;.%.g n <.<.&.j j g p.p.p.",
"p.p.p.p.p.p.p.p.p.# s c z p f 2 X X f l 3 2 < ; h k k h 0 1 , - 0 g %.&.v k &.*.k k z k k ;.<.%.=.&.&.&.%.k &.;.%.%.j k g p.p.p.",
"p.p.p.p.p.p.p.p.p.p.- - ; o & % ; - - * 1 f p $ 6 2 2 ; S , < < ; M k b x >.<.1.=.k g k j :.<.%.%.=.&.%.z %.%.%.j k f m 2 p.p.p.",
"p.p.p.p.p.p.p.p.p.p.p.X X   X % 3 f ; % * B y 1 % X - S  .H > p I / n z :.>.:.>.%.j g g k &.&.%.j ;.z k z l d f d 2 ; - O p.p.p.",
"p.p.p.p.p.p.p.p.p.p.p.p.p.p.p.X X ; 1 * X D P - ; 4 * : _ ..9 u ..) b l s c ;.%.j k g k h %.%.l g %.k g g d * % % & $ X O p.p.p.",
"p.p.p.p.p.p.p.p.p.p.p.p.p.p.p.p.p.p.X X ; - R D 4 _ 6 X R O.~ ....N d 0 8 g x z j j j j g %.%.1 2 k f f d > $ X X X % * p.p.p.p.",
"p.p.p.p.p.p.p.p.p.p.p.p.p.p.p.p.p.p.O X ; , 6 [ E X.P . ] 9.O...B # * * f f k g h f f g f 3 1 X 2 3 - * > * X $ - X O p.p.p.p.p.",
"p.p.p.p.p.p.p.p.p.p.p.p.p.p.p.p.p.p.p.p.X = - D o.4.P . { q.X.H @ * - , # > , u L 4 4 1 ; X X X - O % $ X $ * *   X p.p.p.p.p.p.",
"p.p.p.p.p.p.p.p.p.p.p.p.p.p.p.p.p.p.p.p.p.O $ X R 5.R + $.w.R X X X T L $ X D .. .4 $ & $ * * @ * & $ X $ * * $ O p.p.p.p.p.p.p.",
"p.p.p.p.p.p.p.p.p.p.p.p.p.p.p.p.p.p.p.p.p.p.O X 7 4.3.p.9.e.P X X D  .S . F X. .G - & & $ * * * * X X $ * * $ X p.p.p.p.p.p.p.p.",
"p.p.p.p.p.p.p.p.p.p.p.p.p.p.p.p.p.p.p.p.p.p.p.p.p.q.5.p.t.5._ p.F .._ + K 4.#.E p.p.p.X O X X $ * * @ * & % p.p.p.p.p.p.p.p.p.p.",
"p.p.p.p.p.p.p.p.p.p.p.p.p.p.p.p.p.p.p.p.p.p.p.p.p.w.9.p.i.5.p.p.5.O.p.p.e.6.p.p.p.p.p.p.p.p.O X $ * & - p.p.p.p.p.p.p.p.p.p.p.p.",
"p.p.p.p.p.p.p.p.p.p.p.p.p.p.p.p.p.p.p.p.p.p.p.p.p.p.u.9.t.w.4.5.3.p.p.p.y.6.p.p.p.p.p.p.p.p.p.p.p.p.p.p.p.p.p.p.p.p.p.p.p.p.p.p.",
"p.p.p.p.p.p.p.p.p.p.p.p.p.p.p.p.p.p.p.p.p.p.p.p.p.p.i.u.t.t.q.6.p.p.p.e.w.4.p.p.p.p.p.p.p.p.p.p.p.p.p.p.p.p.p.p.p.p.p.p.p.p.p.p.",
"p.p.p.p.p.p.p.p.p.p.p.p.p.p.p.p.p.p.p.p.p.p.p.p.p.p.i.i.t.t.q.p.p.p.p.i.9.p.p.p.p.p.p.p.p.p.p.p.p.p.p.p.p.p.p.p.p.p.p.p.p.p.p.p.",
"p.p.p.p.p.p.p.p.p.p.p.p.p.p.p.p.p.p.p.p.p.p.p.p.p.p.y.u.u.t.9.p.p.p.i.u.5.p.p.p.p.p.p.p.p.p.p.p.p.p.p.p.p.p.p.p.p.p.p.p.p.p.p.p.",
"p.p.p.p.p.p.p.p.p.p.p.p.p.p.p.p.p.p.p.p.p.p.p.p.p.p.y.u.t.q.p.p.p.p.i.w.3.p.p.p.p.p.p.p.p.p.p.p.p.p.p.p.p.p.p.p.p.p.p.p.p.p.p.p.",
"p.p.p.p.p.p.p.p.p.p.p.p.p.p.p.p.p.p.p.p.p.p.p.p.p.p.t.u.t.4.p.p.p.i.u.q.p.p.p.p.p.p.p.p.p.p.p.p.p.p.p.p.p.p.p.p.p.p.p.p.p.p.p.p.",
"p.p.p.p.p.p.p.p.p.p.p.p.p.p.p.p.p.p.p.p.p.p.p.p.p.p.t.t.q.p.p.p.p.i.t.9.p.p.p.p.p.p.p.p.p.p.p.p.p.p.p.p.p.p.p.p.p.p.p.p.p.p.p.p.",
"p.p.p.p.p.p.p.p.p.p.p.p.p.p.p.p.p.p.p.p.p.p.p.p.p.p.i.y.5.p.p.p.i.u.w.p.p.p.p.p.p.p.p.p.p.p.p.p.p.p.p.p.p.p.p.p.p.p.p.p.p.p.p.p.",
"p.p.p.p.p.p.p.p.p.p.p.p.p.p.p.p.p.p.p.p.p.p.p.p.p.p.i.i.q.p.p.p.i.t.q.p.p.p.p.p.p.p.p.p.p.p.p.p.p.p.p.p.p.p.p.p.p.p.p.p.p.p.p.p.",
"p.p.p.p.p.p.p.p.p.p.p.p.p.p.p.p.p.p.p.p.p.p.p.p.p.p.i.y.w.#.p.t.t.t.9.p.p.p.p.p.p.p.p.p.p.p.p.p.p.p.p.p.p.p.p.p.p.p.p.p.p.p.p.p.",
"p.p.p.p.p.p.p.p.p.p.p.p.p.p.p.p.p.p.p.p.p.p.p.p.p.p.y.t.y.9.9.w.w.w.p.p.p.p.p.p.p.p.p.p.p.p.p.p.p.p.p.p.p.p.p.p.p.p.p.p.p.p.p.p.",
"p.p.p.p.p.p.p.p.p.p.p.p.p.p.p.p.p.p.p.p.p.p.p.p.p.p.u.u.i.t.e.w.w.5.p.p.p.p.p.p.p.p.p.p.p.p.p.p.p.p.p.p.p.p.p.p.p.p.p.p.p.p.p.p.",
"p.p.p.p.p.p.p.p.p.p.p.p.p.p.p.p.p.p.p.p.p.p.p.p.p.p.y.i.i.u.u.t.9.p.p.p.p.p.p.p.p.p.p.p.p.p.p.p.p.p.p.p.p.p.p.p.p.p.p.p.p.p.p.p.",
"p.p.p.p.p.p.p.p.p.p.p.p.p.p.p.p.p.p.p.p.p.p.p.p.p.p.y.i.i.i.u.u.9.p.p.p.p.p.p.p.p.p.p.p.p.p.p.p.p.p.p.p.p.p.p.p.p.p.p.p.p.p.p.p.",
"p.p.p.p.p.p.p.p.p.p.p.p.p.p.p.p.p.p.p.p.p.p.p.p.p.p.e.u.i.i.y.u.t.p.p.p.p.p.p.p.p.p.p.p.p.p.p.p.p.p.p.p.p.p.p.p.p.p.p.p.p.p.p.p.",
"p.p.p.p.p.p.p.p.p.p.p.p.p.p.p.p.p.p.p.p.p.p.p.p.p.p.p.w.u.i.t.u.u.9.p.p.p.p.p.p.p.p.p.p.p.p.p.p.p.p.p.p.p.p.p.p.p.p.p.p.p.p.p.p.",
"p.p.p.p.p.p.p.p.p.p.p.p.p.p.p.p.p.p.p.p.p.p.p.p.p.p.p.w.u.u.t.t.u.t.p.p.p.p.p.p.p.p.p.p.p.p.p.p.p.p.p.p.p.p.p.p.p.p.p.p.p.p.p.p.",
"p.p.p.p.p.p.p.p.p.p.p.p.p.p.p.p.p.p.p.p.p.p.p.p.p.p.p.p.i.i.i.u.y.u.9.p.p.p.p.p.p.p.p.p.p.p.p.p.p.p.p.p.p.p.p.p.p.p.p.p.p.p.p.p.",
"p.p.p.p.p.p.p.p.p.p.p.p.p.p.p.p.p.p.p.p.p.p.p.p.p.p.p.p.i.i.i.i.u.u.0.p.p.p.p.p.p.p.p.p.p.p.p.p.p.p.p.p.p.p.p.p.p.p.p.p.p.p.p.p.",
"p.p.p.p.p.p.p.p.p.p.p.p.p.p.p.p.p.p.p.p.p.p.p.p.p.p.p.p.i.i.i.i.i.u.q.p.p.p.p.p.p.p.p.p.p.p.p.p.p.p.p.p.p.p.p.p.p.p.p.p.p.p.p.p."
};
