/* XPM */
static char *_co8t_t22ag[] = {
/* columns rows colors chars-per-pixel */
"32 64 127 2 ",
"   c #07392B",
".  c #0B3C2D",
"X  c #123E33",
"o  c #154F1F",
"O  c #0F4426",
"+  c #0E412A",
"@  c #104625",
"#  c #134A24",
"$  c #11452B",
"%  c #18462F",
"&  c #154B2C",
"*  c #1B4E2D",
"=  c #175125",
"-  c #1A5525",
";  c #1D5A25",
":  c #17502A",
">  c #1A542B",
",  c #1E5A2B",
"<  c #164234",
"1  c #1A4634",
"2  c #1E4B33",
"3  c #1C433A",
"4  c #205E26",
"5  c #20512C",
"6  c #215D2B",
"7  c #224E37",
"8  c #22463F",
"9  c #274D3C",
"0  c #284E3B",
"q  c #235532",
"w  c #2A5D31",
"e  c #30553E",
"r  c #325B3C",
"t  c #206026",
"y  c #276A23",
"u  c #2A6F27",
"i  c #24642A",
"p  c #27682C",
"a  c #296D2C",
"s  c #2D7326",
"d  c #2D7329",
"f  c #337426",
"g  c #337C26",
"h  c #3A7D26",
"j  c #31762A",
"k  c #317828",
"l  c #3A7A29",
"z  c #2A6830",
"x  c #326D35",
"c  c #3B6C3E",
"v  c #377731",
"b  c #3D7736",
"n  c #407F27",
"m  c #417D2F",
"M  c #274C40",
"N  c #2B4C43",
"B  c #2E4C48",
"V  c #2E5641",
"C  c #325146",
"Z  c #36524A",
"A  c #3E5A4D",
"S  c #3D5452",
"D  c #3F5951",
"F  c #3F6D42",
"G  c #445E4E",
"H  c #425656",
"J  c #445A54",
"K  c #485F53",
"L  c #46575A",
"P  c #465A5A",
"I  c #4B5A5D",
"U  c #505D5F",
"Y  c #44684A",
"T  c #4A7645",
"R  c #507749",
"E  c #4D6C53",
"W  c #4C645B",
"Q  c #557453",
"!  c #607B5E",
"~  c #4F5C60",
"^  c #535E63",
"/  c #4F6261",
"(  c #556163",
")  c #596265",
"_  c #516962",
"`  c #5E636A",
"'  c #5E716D",
"]  c #62666D",
"[  c #62696A",
"{  c #6B786E",
"}  c #646670",
"|  c #656870",
" . c #6C6B74",
".. c #706C76",
"X. c #756E7B",
"o. c #647070",
"O. c #6A7A70",
"+. c #6F7079",
"@. c #73727B",
"#. c #78717E",
"$. c #737C79",
"%. c #368124",
"&. c #3C8424",
"*. c #3B8228",
"=. c #428624",
"-. c #4B8725",
";. c #458923",
":. c #4B8B23",
">. c #44832B",
",. c #518E22",
"<. c #569022",
"1. c #5A9222",
"2. c #4D8144",
"3. c #7E7783",
"4. c #7D7983",
"5. c #817C87",
"6. c #837F88",
"7. c #86828A",
"8. c #89858D",
"9. c #86888B",
"0. c #8E8B92",
"q. c #918E94",
"w. c #949296",
"e. c #979598",
"r. c #989799",
"t. c #9B9B9B",
"y. c None",
/* pixels */
"y.y.y.y.y.y.y.y.y.y.y.y.y.y.y.y.y.y.y.y.y.y.y.y.y.y.y.y.y.y.y.y.",
"y.y.y.y.y.y.y.y.y.y.y.y.y.y.y.y.y.y.y.y.y.y.y.y.y.y.y.y.y.y.y.y.",
"y.y.y.y.y.y.y.y.y.y.y.y.y.y.y.y.y.*.d y.y.y.y.y.y.y.y.y.y.y.y.y.",
"y.y.y.y.y.y.y.y.y.y.y.y.y.y.y.y.=.<.&.d y.y.y.y.y.y.y.y.y.y.y.y.",
"y.y.y.y.y.y.y.y.y.y.y.y.y.&.:.;.<.:.&.g d y.y.y.y.y.y.y.y.y.y.y.",
"y.y.y.y.y.y.y.y.y.y.y.y.y.;.1.1.;.=.<.&.g k z y.y.y.y.y.y.y.y.y.",
"y.y.y.y.y.y.y.y.y.y.y.y.;.;.:.<.;.1.>.d k k a y.y.y.y.y.y.y.y.y.",
"y.y.y.y.y.y.y.y.y.y.y.:.1.;.;.,.1.=.a d %.d d u y.y.y.y.y.y.y.y.",
"y.y.y.y.y.y.y.y.y.y.y.;.:.;.:.:.:.*.k %.g g %.%.a y.y.y.y.y.y.y.",
"y.y.y.y.y.y.y.y.y.,.<.;.;.:.;.:.%.%.k %.%.%.%.g a y.y.y.y.y.y.y.",
"y.y.y.y.y.y.y.%.:.<.;.:.<.<.,.&.%.%.a g %.d %.g i y.y.y.y.y.y.y.",
"y.y.y.y.y.y.y.%.;.;.:.<.<.<.&.g d d j %.d a d p - ; y.y.y.y.y.y.",
"y.y.y.y.y.y.y.k g %.h &.;.:.%.d a k 6 a d a p 6 i a y.y.y.y.y.y.",
"y.y.y.y.y.y.y.a a a a %.&.&.%.%.d g i & > ; ; i p a y.y.y.y.y.y.",
"y.y.y.y.y.y.y.y.> & , a k d a a d u > O + $ % + $ ; y.y.y.y.y.y.",
"y.y.y.y.y.y.y.y.  + @ & > : % w t - o o # e Z . @ # y.y.y.y.y.y.",
"y.y.y.y.y.y.y.y.y.> O O .   < ^ 1 # # O . H K @ # + y.y.y.y.y.y.",
"y.y.y.y.y.y.y.;.:.:.f & < . < | B .   X . S G O @ y.y.y.y.y.y.y.",
"y.y.y.y.y.y.=.<.1.1.1.h a , 2 @.H . .   @ ( A o # y.y.y.y.y.y.y.",
"y.y.y.y.y.d %.:.1.;.:.;.g s v O.F d p > q [ w ; y.y.y.-.y.y.y.y.",
"y.y.y.y.y.y.t f h s k %.k g *.>.>.g g g x [ m ;.j j ,.,.d y.y.y.",
"y.y.y.y.y.y.y.; y g g k &.&.&.:.<.=.d k x Q =.1.-.g =.j d %.y.y.",
"y.y.y.y.y.=.:.=.&.<.<.:.1.;.;.,.;.%.d a j ;.:.:.,.g d j ;.*.d y.",
"y.y.y.y.;.<.1.;.%.:.1.1.:.&.g :.%.d z d h ;.:.&.,.=.a h -.i 6 z ",
"y.y.y.%.&.<.1.&.&.1.,.:.%.k d %.g a ; p k u s =.:.g j &.> @ @ 6 ",
"y.y.k g &.,.=.%.&.=.j d j k d g d - # o ; - ; k g k =.g $ + # + ",
"y.y.a a d j d g %.%.k d g g d i - +   O V Z > z s %.&.k > + @ . ",
"y.y.; ; i , > d a d k g g j c - + . . B ` < . , a d s i p $ . y.",
"y.; q Z # + . > + % > p 6 V | N     B ] B . . + & > : $ - O . y.",
"@ = 2 L 1 @ . . O O $ M X X ] ) 2 C  .H . . # * . > , + @ . y.y.",
"y.. + 0 P % @   < ; 6 ) < & K X. . .^ X . # - $ > t # + @ . . y.",
"y.y.y.+ H U $ X J > 5 ] * # H 4.X.^ X   . . $ @ @ O @ # # @ . . ",
"y.y.y.y.3 | q i Y % % R 6 @ I 6.^ < : , & i k g i & # # + + . y.",
"y.y.y.y.y.! >.%.d , i ,.-.g 2.$.A , &.:.g &.<.;.%.a , , $ . y.y.",
"y.g l z l *.,.:.g a d =.1.,.g >.>.s g ,.;.%.:.1.&.%.%.g p y.y.y.",
"y.*.,.*.d %.<.:.%.h -.:.1.,.d =.,.g d g &.s g :.=.%.d %.d a y.y.",
"y.d =.=.d *.:.%.k &.;.:.1.l j %.:.;.j d %.k a g %.d a %.d a y.y.",
"y.&.=.d d %.%.k a k k *.l l =.b &.g a a d a > p p & , d %.a y.y.",
"y.d 6 % p k %.%., % s k g ;.i J T a a i > & + > % + + , k d d y.",
"y.+ + & : d %.g > @ @ a l i . Z  .E 6 # + # + + : i & 6 d k d y.",
"y.y.+ > - t d , $ = = G ] X O 1 @. .2 + # 9 X @ i - * a d d a p ",
"y.y.y.X @ & & $ 8 9 # Y  .< O . ( 7.S   N I X + @ . : , p 6 : & ",
"y.y.y.y.. + & C S S   S X.N + O P 7.P   S L + O . @ @ $ $ # # O ",
"y.y.y.y.y.# # < ~ ] 5 7 3.) < O W 8.} < 3 ` 1 # o @ 9 & # + + y.",
"y.y.y.y.y.. . + 1 } K , O.6.S   _ r.@.3 y.7.S + + 3 ^ < + + y.y.",
"y.y.y.y.y.y.+ @ . ^  .* E 8.@.S o.t.4.y.y.q.(     ~ J # @ O y.y.",
"y.y.y.y.y.y.y.. y.y.7.A * $.w.6.9.t.7.y.y.8.y.y.9.#.J y.y.y.y.y.",
"y.y.y.y.y.y.y.y.y.y.w.o.< y.t.q.r.r.5.y.0.8.8.t.8.y.y.y.y.y.y.y.",
"y.y.y.y.y.y.y.y.y.y.t.w. .y.t.w.r.e.7.4.w.e.e.8.y.y.y.y.y.y.y.y.",
"y.y.y.y.y.y.y.y.y.y.y.t.7.y.y.e.e.e.8.0.r.r.8.y.y.y.y.y.y.y.y.y.",
"y.y.y.y.y.y.y.y.y.y.y.t.w.3.8.w.e.r.e.0.w.5.y.y.y.y.y.y.y.y.y.y.",
"y.y.y.y.y.y.y.y.y.y.y.y.t.7.6.0.q.e.t.w.4.y.y.y.y.y.y.y.y.y.y.y.",
"y.y.y.y.y.y.y.y.y.y.y.y.t.w.7.0.q.w.r.8.y.y.y.y.y.y.y.y.y.y.y.y.",
"y.y.y.y.y.y.y.y.y.y.y.y.y.t.e.t.w.w.0.y.y.y.y.y.y.y.y.y.y.y.y.y.",
"y.y.y.y.y.y.y.y.y.y.y.y.y.t.e.w.e.t.8.y.y.y.y.y.y.y.y.y.y.y.y.y.",
"y.y.y.y.y.y.y.y.y.y.y.y.y.y.e.e.w.e.8.y.y.y.y.y.y.y.y.y.y.y.y.y.",
"y.y.y.y.y.y.y.y.y.y.y.y.y.y.e.e.e.w.5.y.y.y.y.y.y.y.y.y.y.y.y.y.",
"y.y.y.y.y.y.y.y.y.y.y.y.y.t.e.r.e.w.5.y.y.y.y.y.y.y.y.y.y.y.y.y.",
"y.y.y.y.y.y.y.y.y.y.y.y.y.t.e.t.e.w.5.y.y.y.y.y.y.y.y.y.y.y.y.y.",
"y.y.y.y.y.y.y.y.y.y.y.y.y.e.e.t.e.0.5.y.y.y.y.y.y.y.y.y.y.y.y.y.",
"y.y.y.y.y.y.y.y.y.y.y.y.y.0.r.r.r.w.7.y.y.y.y.y.y.y.y.y.y.y.y.y.",
"y.y.y.y.y.y.y.y.y.y.y.y.y.e.t.e.t.w.8.y.y.y.y.y.y.y.y.y.y.y.y.y.",
"y.y.y.y.y.y.y.y.y.y.y.y.y.t.r.r.e.w.r.8.y.y.y.y.y.y.y.y.y.y.y.y.",
"y.y.y.y.y.y.y.y.y.y.y.y.y.t.e.t.e.e.t.w.y.y.y.y.y.y.y.y.y.y.y.y."
};
