/* XPM */
static char *_w7lk_1sbmu[] = {
/* columns rows colors chars-per-pixel */
"32 64 154 2 ",
"   c #073A29",
".  c #0B3C2D",
"X  c #0D3C30",
"o  c #123E33",
"O  c #0F4426",
"+  c #0E422A",
"@  c #104626",
"#  c #124A24",
"$  c #12442C",
"%  c #19472F",
"&  c #154C2C",
"*  c #1B4C2C",
"=  c #165025",
"-  c #195426",
";  c #1D5A26",
":  c #17502C",
">  c #1B552C",
",  c #1E5B2B",
"<  c #154134",
"1  c #194434",
"2  c #1B4933",
"3  c #1B443A",
"4  c #1E4A39",
"5  c #1C5331",
"6  c #1F5830",
"7  c #235E26",
"8  c #22542C",
"9  c #215D2C",
"0  c #22453F",
"q  c #234A3C",
"w  c #205234",
"e  c #245F30",
"r  c #285C35",
"t  c #31573C",
"y  c #355E3D",
"u  c #236325",
"i  c #2E6725",
"p  c #276925",
"a  c #296D26",
"s  c #23632B",
"d  c #2B6729",
"f  c #26692C",
"g  c #2A6D2C",
"h  c #306A29",
"j  c #2D7526",
"k  c #2F7925",
"l  c #2D7329",
"z  c #307726",
"x  c #337C26",
"c  c #3B7C26",
"v  c #317629",
"b  c #327828",
"n  c #3B7B2A",
"m  c #266131",
"M  c #2B6532",
"N  c #2F6936",
"B  c #2A6038",
"V  c #326D36",
"C  c #34623D",
"Z  c #417F27",
"A  c #40723D",
"S  c #487E3A",
"D  c #507D3C",
"F  c #244741",
"G  c #2B4C44",
"H  c #334E4B",
"J  c #335545",
"K  c #345945",
"L  c #385B46",
"P  c #34514A",
"I  c #39544D",
"U  c #395C48",
"Y  c #375650",
"T  c #3C5352",
"R  c #3E5850",
"E  c #3D6A43",
"W  c #3F7140",
"Q  c #405A4C",
"!  c #405356",
"~  c #445B53",
"^  c #455759",
"/  c #465859",
"(  c #4B5C5D",
")  c #456E47",
"_  c #45634F",
"`  c #467245",
"'  c #457842",
"]  c #46744A",
"[  c #52764F",
"{  c #567F4E",
"}  c #416051",
"|  c #496254",
" . c #4B615E",
".. c #506D57",
"X. c #526E59",
"o. c #527353",
"O. c #58775D",
"+. c #5E7F59",
"@. c #535E62",
"#. c #556464",
"$. c #586363",
"%. c #566D61",
"&. c #5B6D62",
"*. c #5E646A",
"=. c #5E6B6C",
"-. c #5E7163",
";. c #5F7F62",
":. c #63656E",
">. c #626C6C",
",. c #617366",
"<. c #64746B",
"1. c #666B72",
"2. c #6C6B75",
"3. c #756E7B",
"4. c #6E7077",
"5. c #737577",
"6. c #75727D",
"7. c #79737F",
"8. c #777D7B",
"9. c #368123",
"0. c #3C8324",
"q. c #3E822B",
"w. c #428524",
"e. c #4A8624",
"r. c #458923",
"t. c #4B8B23",
"y. c #44852D",
"u. c #528E22",
"i. c #569022",
"p. c #5A9222",
"a. c #5A902B",
"s. c #608459",
"d. c #708D56",
"f. c #638361",
"g. c #6C8069",
"h. c #71856E",
"j. c #74886C",
"k. c #7A8B68",
"l. c #7B7681",
"z. c #7C7B82",
"x. c #817C86",
"c. c #847F89",
"v. c #7E8085",
"b. c #86838B",
"n. c #89868D",
"m. c #8C8C8F",
"M. c #8C8590",
"N. c #8E8B91",
"B. c #908E93",
"V. c #949296",
"C. c #969598",
"Z. c #989799",
"A. c #9A9A9B",
"S. c None",
/* pixels */
"S.S.S.S.S.S.S.S.S.S.S.S.r.0.g S.S.S.S.9.9.S.S.S.S.S.S.S.S.S.S.S.",
"S.S.S.S.S.S.S.S.S.S.S.w.p.t.g S.S.S.r.r.0.9.9.S.S.S.S.S.S.S.S.S.",
"S.S.S.S.S.S.S.S.S.S.S.r.i.n g g 9.r.i.i.u.9.9.l S.S.S.S.S.S.S.S.",
"S.S.S.S.S.S.S.S.S.S.r.i.u.l g M l 0.0.0.9.v x v S.S.S.S.S.S.S.S.",
"S.S.S.S.S.S.S.S.S.S.r.i.0.v l l l g g l l l l l M S.S.S.S.S.S.S.",
"S.S.S.S.S.S.S.S.S.9.x 0.0.v 9.x g f 9 ; 6 s m g b x l S.S.S.S.S.",
"S.S.S.S.S.S.S.S.r.t.9.l l l x l l f # = > $ P N v k l S.S.S.S.S.",
"S.S.S.S.S.S.S.S.b t.0.b m C > 6 l 9.g b l 9 U 4 ; s g g S.S.S.S.",
"S.S.S.S.S.S.S.i.n v 9.a 2 $.2 + : g v v l x l : # u g M S.S.S.S.",
"S.S.S.S.S.S.S.p.c g l = < *.2 + @ & f g 9.x v v k 9.v s S.S.S.S.",
"S.S.S.S.S.S.9.v f = $ + 3 1.1 = = + $ 9 l x 9.x 9.9.v > S.S.S.S.",
"S.S.S.S.0.t.0.9.l f 9 & 1 >.9 s & @ t I , x 9.l l l g & S.S.S.S.",
"S.S.S.S.t.i.t.y.l 9.l s K :.8 $ X $ &.T & > 9 w > > & . S.S.S.S.",
"S.S.S.S.r.p.r.b 9.x : & X.2.< S.S.F 1.3   O * / 2 # # + S.S.S.S.",
"S.S.S.0.0.0.9.f 9 = @ O  .7.S.S.S.S.8.0 S.  U 7.S.+ @ O S.S.S.S.",
"S.S.0.i.t.l e & . & ; # >.x.S.p.S.n { S.S.S.6.S.S.S.S.S.S.S.S.S.",
"S.S.u.t.l > & % 1 > ; S.S.k.p.p.t.l x S.S.7.b.S.S.S.S.S.S.S.S.S.",
"S.S.w.g & + $ H @.^ S.S.<.d.t.0.9.l g g #.b.S.S.S.S.S.S.S.S.S.S.",
"S.S.u # - @ @ . 3 *.>.M A y.x 9.9.f : 9 o.S.S.S.S.S.S.S.S.S.S.S.",
"S.S.. & $ S.S.S.$ N O.D u.r.g l f & @ @ 5 S.S.S.S.S.S.S.S.S.S.S.",
"S.S.S.S.S.S.S.S.c g ` y.w.9.f w & # #   + $ l k k S.S.S.S.S.S.S.",
"S.S.S.S.S.S.S.i.u.Z n l l s 2 @.% $ P 1 + & 0.r.l f S.S.S.S.S.S.",
"S.S.S.S.S.S.w.e.i 8 $ - 9 # > *.o 4 2.T & Z e.h # < $ S.S.S.S.S.",
"S.S.S.S.S.S.g > + . 3 1 $ X 2 4.L N 5.| z r.d & , l g g l M S.S.",
"S.S.S.S.S.S.+ @ @ @ * G ^ ~ s g.5.[ 8.[ w.r.b z l x b b v l S.S.",
"S.S.S.S.S.S.S.. X . . 3 :.o.0.a.j.n.h.y.r.w.j 0.w.b x l l x l S.",
"S.S.S.S.S.S.S.S.. S.$ : %.o.c u.y.f.s.x k s h u.p.x u & > x v g ",
"S.S.S.S.S.S.t.t.S.S.v l ,.( @ 9 g r 8._ 5 f t.t.x 9 @ + $ 6 > f ",
"S.S.S.S.S.0.t.p.t.r.u.k ] 1.3 O + 3 z.1.R l x l - @ @ @ + X . & ",
"S.S.S.t.t.i.r.r.r.t.t.l g O.$.$ . 3 v.3.G s > < . o @ @ . . . S.",
"S.S.S.t.i.p.r.9.x v v b k V -.K : 4 z.#.X P <   F G < + + . S.S.",
"S.S.S.9.r.r.0.9.9.g x v b f } o.j g <.~ : R ^ Y G <   O S.S.S.S.",
"S.S.S.t.i.n l 9.0.j v v f & ^ o.9.l V ) x ;.>.r l g : X S.S.S.S.",
"S.S.S.e.n v 9.9.0.w.e.w.; @ y S l l c v z ' V 0.u.9.f S.S.S.S.S.",
"S.S.S.x t.u.9.v r.u.t.w.i 7 t.t.9.9.l l z b 9.u.w.l l S.S.S.S.S.",
"S.S.r.r.i.0.f 9.u.r.b b c u.t.0.t.0.z x x x r.0.l l c S.S.S.S.S.",
"S.r.i.0.l > + d 0.z x x w.t.t.u.p.e.x l l y.t.x x 9.9.v S.S.S.S.",
"S.t.w.l & . X + > e > d w.0.c w.w.h s : f v b g 9.9.x l g S.S.S.",
"9.x p s - + X * 4 ^ < l 0.b b j u - & O + > s : g , > > ; . S.S.",
"9.l - f u @ $ / 1.l.P = ; u u ; ; s > O + > , + + . = 9 # . . S.",
"S.u O + + @ @ 1 3 =.b.Y     S.<.V * @ . @ $ q % @ $ & = @ . . S.",
"S.. + . . @ +   . o =.b.T S.S.M.4.3 O . # Q @.< X o J # @ $ S.S.",
"S.. X X . + . . . . 3 n.n.S.S.S.b.@.G G . ~ Q . X 3 P . @ @ S.S.",
"S.. . . + + . S.S.S.S.S.N.c.S.S.C.z.2.2.S.%.~   o ( G . . S.S.S.",
"S.S.S.S.S.S.S.S.S.S.S.S.C.B.S.S.A.b.l.7.S.B.>.S.2.S.S.. S.S.S.S.",
"S.S.S.S.S.S.S.S.S.S.S.S.S.Z.V.b.Z.Z.N.7.S.A.m.S.S.S.S.S.S.S.S.S.",
"S.S.S.S.S.S.S.S.S.S.S.S.S.S.A.C.V.Z.N.S.S.A.n.S.S.S.S.S.S.S.S.S.",
"S.S.S.S.S.S.S.S.S.S.S.S.S.S.S.V.V.B.b.S.S.V.x.S.S.S.S.S.S.S.S.S.",
"S.S.S.S.S.S.S.S.S.S.S.S.S.S.S.N.Z.N.x.S.S.C.S.S.S.S.S.S.S.S.S.S.",
"S.S.S.S.S.S.S.S.S.S.S.S.S.S.S.B.A.N.x.S.C.n.S.S.S.S.S.S.S.S.S.S.",
"S.S.S.S.S.S.S.S.S.S.S.S.S.S.S.B.Z.N.c.C.N.S.S.S.S.S.S.S.S.S.S.S.",
"S.S.S.S.S.S.S.S.S.S.S.S.S.S.S.B.Z.B.N.N.S.S.S.S.S.S.S.S.S.S.S.S.",
"S.S.S.S.S.S.S.S.S.S.S.S.S.S.S.S.Z.C.B.x.S.S.S.S.S.S.S.S.S.S.S.S.",
"S.S.S.S.S.S.S.S.S.S.S.S.S.S.S.S.Z.C.N.S.S.S.S.S.S.S.S.S.S.S.S.S.",
"S.S.S.S.S.S.S.S.S.S.S.S.S.S.S.S.V.C.n.S.S.S.S.S.S.S.S.S.S.S.S.S.",
"S.S.S.S.S.S.S.S.S.S.S.S.S.S.S.S.V.V.n.S.S.S.S.S.S.S.S.S.S.S.S.S.",
"S.S.S.S.S.S.S.S.S.S.S.S.S.S.S.V.A.C.n.S.S.S.S.S.S.S.S.S.S.S.S.S.",
"S.S.S.S.S.S.S.S.S.S.S.S.S.S.S.B.A.C.M.S.S.S.S.S.S.S.S.S.S.S.S.S.",
"S.S.S.S.S.S.S.S.S.S.S.S.S.S.S.S.A.C.N.S.S.S.S.S.S.S.S.S.S.S.S.S.",
"S.S.S.S.S.S.S.S.S.S.S.S.S.S.S.S.A.C.V.S.S.S.S.S.S.S.S.S.S.S.S.S.",
"S.S.S.S.S.S.S.S.S.S.S.S.S.S.S.S.A.C.Z.S.S.S.S.S.S.S.S.S.S.S.S.S.",
"S.S.S.S.S.S.S.S.S.S.S.S.S.S.S.S.C.A.V.l.S.S.S.S.S.S.S.S.S.S.S.S.",
"S.S.S.S.S.S.S.S.S.S.S.S.S.S.S.S.V.Z.B.c.S.S.S.S.S.S.S.S.S.S.S.S.",
"S.S.S.S.S.S.S.S.S.S.S.S.S.S.S.S.C.C.C.c.S.S.S.S.S.S.S.S.S.S.S.S."
};
