/* XPM */
static char *_fj19_n76sf[] = {
/* columns rows colors chars-per-pixel */
"64 64 143 2 ",
"   c #07382B",
".  c #0B3C2D",
"X  c #0F3E30",
"o  c #133F34",
"O  c #144E1F",
"+  c #17521F",
"@  c #0E4327",
"#  c #0E412A",
"$  c #104626",
"%  c #134B23",
"&  c #194F23",
"*  c #11452B",
"=  c #18472F",
"-  c #154B2B",
";  c #1A4C2B",
":  c #175123",
">  c #1A5524",
",  c #1E5C25",
"<  c #175029",
"1  c #1A532C",
"2  c #1E5B2A",
"3  c #164234",
"4  c #1A4336",
"5  c #1D4934",
"6  c #1C4439",
"7  c #215F27",
"8  c #21502E",
"9  c #215E2B",
"0  c #214D32",
"q  c #264B3D",
"w  c #275136",
"e  c #295434",
"r  c #295139",
"t  c #2F5A38",
"y  c #305739",
"u  c #226225",
"i  c #266925",
"p  c #296D26",
"a  c #24642A",
"s  c #27692C",
"d  c #2A6D2C",
"f  c #356926",
"g  c #2D7425",
"h  c #2F7822",
"j  c #2D7329",
"k  c #2F7828",
"l  c #317626",
"z  c #337C26",
"x  c #3B7E26",
"c  c #307629",
"v  c #317828",
"b  c #306E33",
"n  c #254740",
"m  c #2B4B44",
"M  c #2F4D48",
"N  c #304F45",
"B  c #324E4A",
"V  c #345444",
"C  c #3C5B45",
"Z  c #33534A",
"A  c #3A544C",
"S  c #395A4D",
"D  c #3B5452",
"F  c #3F5A50",
"G  c #396143",
"H  c #3F6448",
"J  c #415C4C",
"K  c #405455",
"L  c #445A55",
"P  c #465959",
"I  c #4C5B5D",
"U  c #426B43",
"Y  c #47634E",
"T  c #477447",
"R  c #4F7D40",
"E  c #517A49",
"W  c #476050",
"Q  c #4E6B54",
"!  c #4F6059",
"~  c #53625D",
"^  c #556B5F",
"/  c #577356",
"(  c #5E765E",
")  c #607B5C",
"_  c #4F5B60",
"`  c #525D62",
"'  c #556363",
"]  c #596560",
"[  c #5B6A63",
"{  c #5C6469",
"}  c #5E6968",
"|  c #606867",
" . c #62666C",
".. c #626C6C",
"X. c #686D6E",
"o. c #656670",
"O. c #656C70",
"+. c #6C6B75",
"@. c #706E77",
"#. c #746E7B",
"$. c #657570",
"%. c #6D7476",
"&. c #707375",
"*. c #747E75",
"=. c #74737B",
"-. c #78737F",
";. c #79787E",
":. c #368223",
">. c #3B8323",
",. c #3D812D",
"<. c #428623",
"1. c #458923",
"2. c #4C8C23",
"3. c #438328",
"4. c #4B852E",
"5. c #518E22",
"6. c #528A2C",
"7. c #569022",
"8. c #5A9222",
"9. c #498632",
"0. c #54813D",
"q. c #5C8055",
"w. c #66865F",
"e. c #778575",
"r. c #7A7580",
"t. c #7D7A83",
"y. c #817C87",
"u. c #837E88",
"i. c #7F8186",
"p. c #818386",
"a. c #85838A",
"s. c #8A868E",
"d. c #858888",
"f. c #8B898F",
"g. c #8C8791",
"h. c #8E8A91",
"j. c #918E93",
"k. c #8F9092",
"l. c #949296",
"z. c #969598",
"x. c #989799",
"c. c #9B9B9C",
"v. c None",
/* pixels */
"v.v.v.v.v.v.v.v.v.v.v.v.v.v.v.v.v.v.v.v.v.v.v.v.v.v.v.v.v.v.v.v.v.v.v.v.v.v.v.v.v.v.v.v.v.v.v.v.v.v.v.v.v.v.v.v.v.v.v.v.v.v.v.v.",
"v.v.v.v.v.v.v.v.v.v.v.v.v.v.v.v.v.v.v.v.v.v.v.v.v.v.v.2.>.v v.v.v.v.v.v.v.v.v.v.v.j v.v.v.v.v.v.v.v.v.v.v.v.v.v.v.v.v.v.v.v.v.v.",
"v.v.v.v.v.v.v.v.v.v.v.v.v.v.v.v.v.v.v.v.v.v.v.v.v.1.7.7.7.<.>.x j v.v.v.v.v.:.>.1.>.v j v.v.v.v.v.v.v.v.v.v.v.v.v.v.v.v.v.v.v.v.",
"v.v.v.v.v.v.v.v.v.v.v.v.v.v.v.v.v.v.v.v.v.v.v.v.>.7.8.8.5.1.7.>.z j d v.v.:.1.8.7.>.:.z j v.v.v.j j d d v.v.v.v.v.v.v.v.v.v.v.v.",
"v.v.v.v.v.v.v.v.v.v.v.v.v.v.v.v.v.v.v.v.v.v.v.:.>.2.8.7.7.1.<.z :.:.k j :.:.7.8.2.:.:.v z k p j >.1.k s j s d v.v.v.v.v.v.v.v.v.",
"v.v.v.v.v.v.v.v.v.v.v.v.v.v.v.v.v.v.v.v.v.v.:.:.2.8.2.>.<.2.v d k z j k :.2.7.<.:.k j v 1.1.x >.2.1.j z z j d 1 . v.v.v.v.v.v.v.",
"v.v.v.v.v.v.v.v.v.v.v.v.v.v.v.v.v.v.v.v.:.>.>.z :.2.8.>.>.z d d c v ,.1.>.1.z j j k z 2.2.1.2.5.5.z k :.:.k 9 < $ # v.v.v.v.v.v.",
"v.v.v.v.v.v.v.v.v.v.v.v.v.v.v.v.v.v.v.v.>.2.5.>.k z 1.>.k j k 1.5.7.7.1.z j j c :.2.7.8.1.k x 2.,.z :.:.:.j & @ $ v.v.v.v.v.v.v.",
"v.v.v.v.v.v.v.v.v.v.v.v.v.v.v.v.v.v.v.v.>.2.8.1.,.j d j j z 2.7.2.8.<.j d z :.:.1.1.2.7.x 2 $ k z :.:.z j > $ @ # v.v.v.v.v.v.v.",
"v.v.v.v.v.v.v.v.v.v.v.v.v.v.v.v.v.v.>.1.7.2.<.1.5.>.j v z z 1.>.<.>.j d k z :.:.:.:.>.z > $ < g :.:.z j 1 $ $ @ X v.v.v.v.v.v.v.",
"v.v.v.v.v.v.v.v.v.v.v.v.v.v.v.v.v.>.2.7.8.1.z 2.<.j v :.v j j j j j d j p 2 a j k j s - % % # 9 z k d b a - O # X v.v.v.v.v.v.v.",
"v.v.v.v.v.v.v.v.v.v.v.v.v.v.v.v.z c >.1.7.1.:.z c j z <.2.:.k d d j j p > # - # 1 1 # # $ . @ $ s s a 1 # # % #   v.v.v.v.v.v.v.",
"v.v.v.v.v.v.v.v.v.v.v.v.v.v.v.>.:.z k z <.8.5.>.x >.>.1.8.>.:.x z j z k 1 # u , $ # . . $ $ > : , - # # $ $ & $ # v.v.v.v.v.v.v.",
"v.v.v.v.v.v.v.v.v.v.>.<.1.>.2.7.>.<.v d <.8.8.5.1.2.8.1.2.,.j k j z k 9 $ * < , # 3 * - , s a - 2 < % + $ $ $ % $ v.v.v.v.v.v.v.",
"v.v.v.v.v.v.v.v.v.7.7.7.7.2.7.<.1.5.z j 1.8.1.2.>.5.8.8.>.c s 1 2 d , * % e q . 5 I M $ - - . - a > + $ $ $ $ $ . v.v.v.v.v.v.v.",
"v.v.v.v.v.v.v.2.<.8.8.<.1.<.:.>.5.1.z v >.1.k :.x :.2.7.>.k 2 # # - % # # - V w ~ ' 3 . . . . * $ # @ # $ $ $ . v.v.v.v.v.v.v.v.",
"v.v.v.v.v.v.7.2.1.2.<.z z j 2 , v k 7 d k 9 - a x k k :.k 2 # $ % $ . $ *   A [ _ o   X # X # . # @ $ % - $ # v.v.v.v.v.v.v.v.v.",
"v.v.v.v.v.v.2.<.2.>.c j s , : > - # X - 1 # < < a z z j 1 . < 7 + * . % % ; [ X.5 # 1 i j d s 1 $ : % % 1 # . v.v.v.v.v.v.v.v.v.",
"v.v.v.v.v.v.v.v.z a , , < % u 7 % # . X . w 1 & $ a j < # % > < * K 6 $ % ~ &.q.3.<.:.:.:.:.z s 2 1 9 j j s v.v.v.v.v.v.v.v.v.v.",
"v.v.v.v.v.v.v.v.v.# $ $ . # > & # : , # . M ! $ # # . # $ $ # # . I D o K ) 9.7.8.2.>.>.1.:.:.k s j z 2.>.d v.v.v.v.v.v.v.v.v.v.",
"v.v.v.v.v.v.v.v.v.v.v.v.v.. . # @ - > .   D o.6 @ @ # $ # . @ % r o.B _ e.9.7.8.<.>.5.7.2.:.:.j z :.1.,.k v.v.v.v.v.v.v.v.v.v.v.",
"v.v.v.v.v.v.v.v.v.v.v.v.v.v.. # O O & . . m o.6 @ & @ $ # @ % # L X.Y 0.6.7.7.>.1.7.5.2.2.:.k k :.z k j j v.v.v.v.v.v.v.v.v.v.v.",
"v.v.v.v.v.v.v.v.v.v.v.v.v.v.. . @ @ . . X o o.D   % O & @ . # s 3.6.2.7.7.2.>.>.2.1.:.:.:.:.k j z d s a 1 v.v.v.v.v.v.v.v.v.v.v.",
"v.v.v.v.v.v.v.v.v.v.v.v.v.v.v.. . . . X v.v.r.` m   @ # . . = z 5.8.5.2.1.:.:.>.z k j j k k , $ a 1 3 $ # v.v.v.v.v.v.v.v.v.v.v.",
"v.v.v.v.v.v.v.v.2.7.>.:.:.>.v.v.v.v.v.v.v.v.v.#.-.v.v.X v.v., :.x x k k g i , 2 1 2 1 1 1 1 % # # % % & # v.v.v.v.j s v.d b v.v.",
"v.v.v.<.2.2.>.1.8.5.>.:.:.2.<.:.v.v.v.v.v.v.v.v.t.r.v.v.v.v.v.v.b a s a : % . @ % % $ % @ # # # # @ @ . v.v.v.v.:.k d d d d d v.",
"v.v.2.8.5.1.>.1.5.:.k s j <.5.<.>.2.8.8.1.:.v.v.y.g.a.v.v.v.v.v.O.Z > & % O $ # @ % : $ @ # . . . . . v.v.v.v.:.v d k k d j s v.",
"p :.2.5.>.k c 1.:.k a > , j 3.2.>.1.8.8.7.>.:.:.v.s.j.g.h.v.v.:.E ..M # @ & - - # # @ X . X   . . v.v.v.:.:.z v k j v k j 2 # X ",
": a z :.j c 2.2.:.d u x >.p d j k :.7.7.1.:.j v :.v.( q.w.e.,.:.x U { o < z z g s 1 3 v.v.v.v.v.v.v.v.:.:.v j v z z d j 9 $ % # ",
"v.$ 9 d s x 2.x p 9 >.7.3.z <.:.k z >.,.1.1.j d z :.k z :.T / k u 5 { 6 - g k z k j d :.:.:.:.:.v.:.:.:.:.j d k k j 9 < 3 % % # ",
"v.# $ $ 1 d c a - < p l j >.2.:.p d j c z :.j s p v z k u , Q G @ 0 { 6 # > d k :.:.:.:.1.:.z j k v d d s 9 $ < , > $ . # $ # v.",
"v.. . $ . 2 2 . $ % O , z x x i - - 1 1 1 s s 2 > a p a : + Y { r G r.C 7 , , u z :.:.2.8.5.>.j d j d 1 $ % $ . - # . # . v.v.v.",
"v.v.v.# @ $ $ - > # $ > s s 9 - $ % # # # # V ! = . & + % # 4 %.[ t p.W , a > % 7 i :.:.1.7.>.>.k j d 2 - O $ N B @ * # v.v.v.v.",
"v.v.v.. % % @ < i > . # $ # * % % . # $ # * ! #.` * % O # . @ V ;.[ d.W O : % $ + + u h h x :.z g 9 - 3 * * N P ; $ . . v.v.v.v.",
"v.v.v.v.. # $ 2 d s > $ % % O O @ # $ - . . ; _ @.` 3 . . O $ - &.h.k.L @ . . $ O + h h d a 2 < % - M D M ` I ; . . . v.v.v.v.v.",
"v.v.v.v.v.v.# , s a , > u + % @ < i l d a $ @ 3 ` y...m $ $ @ $ [ x.k.D . # # # % + , g h 7 $ O t ' @._ { ~ 5 # . . v.v.v.v.v.v.",
"v.v.v.v.v.v.v.$ > - % + u , # ; >.2.8.<.j , @ . o $.j.a.' 3 # # ' x.i.0 2 a > # # % O % * . = L +.' J J 0 $ . v.v.v.v.v.v.v.v.v.",
"v.v.v.v.v.v.v.v.. . . $ & : ; l 7.8.8.1.x x > 1 - : U f.k.{ 4 S d.h.^ : > 1 $ # X   # @ . 4 ' =.B X . . v.v.v.v.v.v.v.v.v.v.v.v.",
"v.v.v.v.v.v.v.v.v.v.. . = f 5.5.5.8.5.2.7.<.k j s & @ S k.z.t.k.j.[ > @ . . . v.X X X   3 ..=.B . . v.v.v.v.v.v.v.v.v.v.v.v.v.v.",
"v.v.v.v.v.v.v.v.v.v.v.k x 5.2.<.8.5.>.5.<.z z z , . .   S z.c.z...& $ . X X v.v.v.v.  m O.t.v.v.v.v.v.v.v.v.v.v.v.v.v.v.v.v.v.v.",
"v.v.v.v.v.v.v.:.:.2.5.z c z :.:.<.:.x :.z z :.p - . * . o %.c.h.L   . . . v.v.v.v.v.v.@.-.v.v.v.v.v.v.v.v.v.v.v.v.v.v.v.v.v.v.v.",
"v.v.v.v.v.v.k z k <.8.7.,.c z z :.z p j d k i - . 5 P o   Z g.l.'   . . v.v.v.v.v.v.v.y.-.v.v.v.v.v.v.v.v.v.v.v.v.v.v.v.v.v.v.v.",
"v.v.v.v.v.v.j a 2 p 3.1.>.j v :.j 7 $ - - 1 $ 5 6 I -.{ n 3 i.z.u.v.v.v.v.v.v.v.v.v.j.t.v.v.v.v.v.v.v.v.v.v.v.v.v.v.v.v.v.v.v.v.",
"v.v.v.v.v.v.$ % # - a s a 9 2 9 9 X . $ $ n 5 V C N { f.t.D a.c.g.v.v.v.v.v.v.v.v.j.s.-.v.v.v.v.v.v.v.v.v.v.v.v.v.v.v.v.v.v.v.v.",
"v.v.v.v.v.v.v.v.. X . # * X . * K _ 3 % r +.P @ % . v.y.z.l.s.z.h.v.v.v.v.v.v.v.z.h.t.v.v.v.v.v.v.v.v.v.v.v.v.v.v.v.v.v.v.v.v.v.",
"v.v.v.v.v.v.v.v.v.v.v.v.v.v.v.v.v.+.' m r ;.;.; @ v.v.v.l.x.l.h.j.r.v.v.v.v.v.x.h.v.v.v.v.v.v.v.v.v.v.v.v.v.v.v.v.v.v.v.v.v.v.v.",
"v.v.v.v.v.v.v.v.v.v.v.v.v.v.v.v.v.v.r.+.@.t.f.! v.v.v.v.s.z.c.j.j.u.v.v.v.j.x.l.v.v.v.v.v.v.v.v.v.v.v.v.v.v.v.v.v.v.v.v.v.v.v.v.",
"v.v.v.v.v.v.v.v.v.v.v.v.v.v.v.v.v.v.v.v.v.i.f.k.s.v.v.v.v.l.c.x.l.a.v.v.l.x.h.v.v.v.v.v.v.v.v.v.v.v.v.v.v.v.v.v.v.v.v.v.v.v.v.v.",
"v.v.v.v.v.v.v.v.v.v.v.v.v.v.v.v.v.v.v.v.v.v.s.l.l.j.h.v.v.h.c.c.j.h.y.j.x.f.v.v.v.v.v.v.v.v.v.v.v.v.v.v.v.v.v.v.v.v.v.v.v.v.v.v.",
"v.v.v.v.v.v.v.v.v.v.v.v.v.v.v.v.v.v.v.v.v.v.v.v.v.h.l.y.v.h.x.c.j.z.j.l.h.v.v.v.v.v.v.v.v.v.v.v.v.v.v.v.v.v.v.v.v.v.v.v.v.v.v.v.",
"v.v.v.v.v.v.v.v.v.v.v.v.v.v.v.v.v.v.v.v.v.v.v.v.v.h.j.l.u.h.z.x.h.c.z.h.t.v.v.v.v.v.v.v.v.v.v.v.v.v.v.v.v.v.v.v.v.v.v.v.v.v.v.v.",
"v.v.v.v.v.v.v.v.v.v.v.v.v.v.v.v.v.v.v.v.v.v.v.v.v.v.h.l.h.l.z.j.h.z.j.a.v.v.v.v.v.v.v.v.v.v.v.v.v.v.v.v.v.v.v.v.v.v.v.v.v.v.v.v.",
"v.v.v.v.v.v.v.v.v.v.v.v.v.v.v.v.v.v.v.v.v.v.v.v.v.v.v.h.l.z.l.j.x.j.h.a.v.v.v.v.v.v.v.v.v.v.v.v.v.v.v.v.v.v.v.v.v.v.v.v.v.v.v.v.",
"v.v.v.v.v.v.v.v.v.v.v.v.v.v.v.v.v.v.v.v.v.v.v.v.v.v.v.v.h.l.l.z.x.h.j.s.v.v.v.v.v.v.v.v.v.v.v.v.v.v.v.v.v.v.v.v.v.v.v.v.v.v.v.v.",
"v.v.v.v.v.v.v.v.v.v.v.v.v.v.v.v.v.v.v.v.v.v.v.v.v.v.v.v.v.h.l.c.l.g.z.f.v.v.v.v.v.v.v.v.v.v.v.v.v.v.v.v.v.v.v.v.v.v.v.v.v.v.v.v.",
"v.v.v.v.v.v.v.v.v.v.v.v.v.v.v.v.v.v.v.v.v.v.v.v.v.v.v.v.v.v.h.x.l.h.x.j.v.v.v.v.v.v.v.v.v.v.v.v.v.v.v.v.v.v.v.v.v.v.v.v.v.v.v.v.",
"v.v.v.v.v.v.v.v.v.v.v.v.v.v.v.v.v.v.v.v.v.v.v.v.v.v.v.v.v.v.j.z.l.h.c.l.v.v.v.v.v.v.v.v.v.v.v.v.v.v.v.v.v.v.v.v.v.v.v.v.v.v.v.v.",
"v.v.v.v.v.v.v.v.v.v.v.v.v.v.v.v.v.v.v.v.v.v.v.v.v.v.v.v.v.v.j.x.l.h.c.h.r.v.v.v.v.v.v.v.v.v.v.v.v.v.v.v.v.v.v.v.v.v.v.v.v.v.v.v.",
"v.v.v.v.v.v.v.v.v.v.v.v.v.v.v.v.v.v.v.v.v.v.v.v.v.v.v.v.v.v.j.c.l.j.l.h.y.v.v.v.v.v.v.v.v.v.v.v.v.v.v.v.v.v.v.v.v.v.v.v.v.v.v.v.",
"v.v.v.v.v.v.v.v.v.v.v.v.v.v.v.v.v.v.v.v.v.v.v.v.v.v.v.v.v.v.j.x.l.h.j.z.f.v.v.v.v.v.v.v.v.v.v.v.v.v.v.v.v.v.v.v.v.v.v.v.v.v.v.v.",
"v.v.v.v.v.v.v.v.v.v.v.v.v.v.v.v.v.v.v.v.v.v.v.v.v.v.v.v.v.v.v.x.h.j.l.x.j.y.v.v.v.v.v.v.v.v.v.v.v.v.v.v.v.v.v.v.v.v.v.v.v.v.v.v.",
"v.v.v.v.v.v.v.v.v.v.v.v.v.v.v.v.v.v.v.v.v.v.v.v.v.v.v.v.v.v.v.h.j.x.x.z.j.s.v.v.v.v.v.v.v.v.v.v.v.v.v.v.v.v.v.v.v.v.v.v.v.v.v.v.",
"v.v.v.v.v.v.v.v.v.v.v.v.v.v.v.v.v.v.v.v.v.v.v.v.v.v.v.v.v.v.v.h.l.c.c.z.c.x.y.v.v.v.v.v.v.v.v.v.v.v.v.v.v.v.v.v.v.v.v.v.v.v.v.v.",
"v.v.v.v.v.v.v.v.v.v.v.v.v.v.v.v.v.v.v.v.v.v.v.v.v.v.v.v.v.v.v.h.z.c.c.x.c.c.u.v.v.v.v.v.v.v.v.v.v.v.v.v.v.v.v.v.v.v.v.v.v.v.v.v."
};
