/* XPM */
static char *zo7co_58txf[] = {
/* columns rows colors chars-per-pixel */
"32 64 130 2 ",
"   c #736D7A",
".  c #746E7B",
"X  c #756F7C",
"o  c #77717D",
"O  c #78727E",
"+  c #78737F",
"@  c #79737F",
"#  c #7A7480",
"$  c #7A7580",
"%  c #7A7581",
"&  c #7B7680",
"*  c #7B7681",
"=  c #7C7782",
"-  c #7D7783",
";  c #7D7883",
":  c #7E7883",
">  c #7E7983",
",  c #7E7984",
"<  c #7F7A84",
"1  c #7F7A85",
"2  c #807B85",
"3  c #807B86",
"4  c #807C85",
"5  c #817C86",
"6  c #827D87",
"7  c #827E87",
"8  c #837F87",
"9  c #827E88",
"0  c #837E88",
"q  c #837F88",
"w  c #847F88",
"e  c #848088",
"r  c #848089",
"t  c #858089",
"y  c #858189",
"u  c #858289",
"i  c #85818A",
"p  c #86818A",
"a  c #86828A",
"s  c #86838A",
"d  c #87838A",
"f  c #86828B",
"g  c #87828B",
"h  c #87838B",
"j  c #87848B",
"k  c #87838C",
"l  c #88848B",
"z  c #88858B",
"x  c #88848C",
"c  c #88858C",
"v  c #88848D",
"b  c #89858D",
"n  c #89868C",
"m  c #89868D",
"M  c #89878D",
"N  c #8A878D",
"B  c #89858E",
"V  c #8A868E",
"C  c #8B878F",
"Z  c #8A888D",
"A  c #8B888E",
"S  c #8B898E",
"D  c #8B888F",
"F  c #8C898F",
"G  c #8C8790",
"H  c #8C8890",
"J  c #8C8990",
"K  c #8D8990",
"L  c #8D8991",
"P  c #8D8A90",
"I  c #8D8B90",
"U  c #8D8A91",
"Y  c #8E8A91",
"T  c #8E8A92",
"R  c #8E8B92",
"E  c #8F8B92",
"W  c #8E8C91",
"Q  c #8F8C92",
"!  c #8F8D92",
"~  c #8F8C93",
"^  c #908D92",
"/  c #908C93",
"(  c #908D93",
")  c #908E93",
"_  c #918F93",
"`  c #918E94",
"'  c #918F94",
"]  c #928F94",
"[  c #928F95",
"{  c #929094",
"}  c #929095",
"|  c #939095",
" . c #939195",
".. c #939196",
"X. c #949295",
"o. c #949196",
"O. c #949296",
"+. c #949396",
"@. c #959397",
"#. c #959496",
"$. c #959497",
"%. c #969497",
"&. c #969597",
"*. c #969498",
"=. c #969598",
"-. c #979598",
";. c #979698",
":. c #979699",
">. c #989699",
",. c #989799",
"<. c #98979A",
"1. c #999899",
"2. c #99989A",
"3. c #99999A",
"4. c #9A999A",
"5. c #9A999B",
"6. c #9A9A9B",
"7. c #9B9A9B",
"8. c #9B9B9B",
"9. c #9B9B9C",
"0. c #9C9B9C",
"q. c #9C9C9C",
"w. c #9C9C9D",
"e. c #9D9C9D",
"r. c #9D9D9D",
"t. c #9D9E9D",
"y. c #9E9E9D",
"u. c #9E9E9E",
"i. c #9E9F9E",
"p. c None",
/* pixels */
"p.p.p.p.p.p.p.p.p.p.p.p.p.p.p.p.p.p.p.p.p.p.p.p.p.p.p.p.p.p.p.p.",
"p.p.p.p.p.p.p.p.p.p.p.p.p.p.p.p.p.p.p.p.p.p.p.p.p.p.p.p.p.p.p.p.",
"p.p.p.p.p.p.p.p.p.p.p.p.p.p.p.p.p.p.p.p.p.p.p.p.p.p.p.p.p.p.p.p.",
"p.p.p.p.p.p.p.p.p.p.p.p.p.p.p.p.p.p.p.p.p.p.p.p.p.p.p.p.p.p.p.p.",
"p.p.p.p.p.p.p.p.p.p.p.p.p.p.p.p.p.p.p.p.p...n p.p.p.p.p.p.p.p.p.",
"p.p.p.p.p.p.p.p.p.p.p.p.p.p.p.p.p.p.p.p.p.=.S p.p.p.p.p.H p.p.p.",
"p.p.p.p.p.p.p.p.p.p.p.p.p.p.p.p.p.p.p.p.p.2.j p.p.p.p.p.B p.p.p.",
"p.p.p.p.p.p.p.p.p.p.p.p.p.p.p.p.p.p.p.p.p.9.q p.p.p.p.p.o p.p.p.",
"p.p.p.p.p.p.p.p.p.p.p.p.p.p.p.p.p.p.p.p.p.3.0 p.p.p.p.p.7 p.p.p.",
"p.p.p.p.p.p.p.p.p.p.p.p.p.p.p.p.p.p.p.p.p.T p p.p.p.p.p.c p.p.p.",
"p.p.p.p.p.p.p.p.p.p.p.p.2.M p.p.p.p.p.p.p.B g p.p.p.p.p.z p.p.p.",
"p.p.t p.p.p.p.p.H p.p.p.y.N p.p.p.p.p.p.p.& @ p.p.p.p.p.z p.p.p.",
"p.p.$ p.< p.p.p.p.p.p.p.7.e p.p.p.p.p.p.p.;.P p.p.p.p.p.z p.p.p.",
"p.p.1 p.2 p.p.p.H p.p.p.O.5 p.p.p.p.p.p.p.E V p.p.p.p.p.n p.p.p.",
"p.p.g p.2 p.p.p.H 7 p.p.C 5 p.p.p.p.p.p.p.6 < p.p.p.p.1.u p.p.p.",
"p.p.3 p.: p.p.p.p.X . p.+ # p.p.p.p.p.p.p.{ j p.p.p.p.+.p.p.p.p.",
"p.p.  O % ; p.p.p.p.9 p.a , p.p.p.p.p.p.p.i.-.p.p.p.;.c p.p.p.p.",
"p.p.p.b a # p.p.p.p.E b ..5 p.p.p.p.p.p.p.u.&.; p.J Y p.p.p.p.p.",
"p.p.p.p.5.x p.p.p.p.p.*.=.0 p.p.p.p.p.p.p.t.>.H H H p.p.p.p.p.p.",
"p.p.p.p.i.{ p.p.p.p.p.-.:.N p.p.p.p.p.p.p.p.@.k p.p.p.p.p.p.p.p.",
"p.p.p.p.:.Q p.p.p.p.p.O.=.n p.p.p.p.p.p.p.p.6.0 p.p.p.p.p.p.p.p.",
"p.p.p.p.9.&.3 p.p.p.p.p.6.e p.p.p.p.p.p.p.p.9.q p.p.p.p.p.p.p.p.",
"p.p.p.p.y.4.b p.p.p.p.p.9.r p.p.p.p.p.p.p.p.9.q p.p.p.p.p.p.p.p.",
"p.p.p.p.y.9.R p.p.p.p.p.e.N p.p.p.p.p.p.p.p...7 p.p.p.p.p.p.p.p.",
"p.p.p.p.@.o.H p.p.p.p.p.o.s p.p.p.p.p.p.p.5.Y 5 p.p.p.p.p.p.p.p.",
"p.p.p.p.C C 9 p.p.p.p.p.3.0 p.p.p.p.p.p.p.0.H , p.p.p.p.p.p.p.p.",
"p.p.p.p.p.; * p.p.p.p.p.9.x p.p.p.p.p.p.p.N > p.p.p.p.p.p.p.p.p.",
"p.p.. p.p.< = p.p.p.p.p.t.} - p.p.p.p.p.p.B 1 p.p.p.p.p.p.p.p.p.",
"p.p.7 p.p.! 8 p.p.p.p.p.p.,.k + p.p.p.p.p.-.q p.p.p.p.p.p.p.p.p.",
"p.p.c p.p.6.M p.p.p.p.p.p.p.5.) b c 7 p.p.,.0 p.p.p.p.p.p.p.p.p.",
"p.p.m p.p.q.A p.p.p.p.p.p.p.p.( / ..%.g p.@.l p.p.p.p.p.t p.p.p.",
"p.p.-.p.Q >.Z p.p.p.p.p.p.p.p.p.p.p.$.:.v ( s p.p.p.p.p.1 p.p.p.",
"p.p.p.3.5.O.V p.p.p.p.p.p.p.p.p.p.p.p.2.@.[ 0 p.p.p.p.p.2 p.p.p.",
"p.p.p.2.7.q.>.I p.p.p.p.p.p.p.p.p.p.p.%.7.x p.p.p.p.p.p.* p.p.p.",
"p.p.p.p.p.$.0.e.D p.p.p.p.p.p.p.p.p.p.%.q.w p.p.* p.p.p.p.p.p.p.",
"p.p.p.p.p.p.| 2.O.B i p.p.p.p.p.p.p.p.[ w.N p.p.2 p.p.p.p.p.p.p.",
"p.p.p.p.p.p.p.p.} ] } p p.p.p.p.p.p.p.J ,.A p.p.1 p.p.5 p.p.p.p.",
"p.p.p.p.p.p.p.p.p.,.@.$.D p.p.p.p.p.p.~ O.A p.p.y p.6 p.p.p.p.p.",
"p.p.p.p.p.p.p.p.p.p.q.:.<.x p.p.p.p.p...Y y p.p.| 6 p.p.p.p.p.p.",
"p.p.p.p.p.p.p.p.p.p.p.=.2.C p.p.p.p.p.:.L 5 p.p.P p.p.p.p.p.p.p.",
"p.p.p.p.p.p.p.p.p.p.p.0.+.B * p.p.p.p.9.~ 6 p.p.d p.p.p.p.p.p.p.",
"p.p.p.p.p.p.p.p.p.p.p.p.K ` n p.p.p.p.r.-.l p.p.y p.p.p.p.p.p.p.",
"p.p.p.p.p.p.p.p.p.p.p.p.K <.A p.p.p.p.r.r.Z p.p.c p.p.p.p.p.p.p.",
"p.p.p.p.p.p.p.p.p.p.p.p.| e.A p.p.p.p.3.y.A p.p.c p.p.p.p.p.p.p.",
"p.p.p.p.p.p.p.p.p.p.p.p.w.u.S p.p.p.p.=.u.A p.p.j p.p.p.p.p.p.p.",
"p.p.p.p.p.p.p.p.p.p.p.p.r.6.^ p.p.p.1.=.u.Z p.p.3 p.p.p.p.p.p.p.",
"p.p.p.p.p.p.p.p.p.p.p.p.t.2.P p.p.p.8.=.e.W p.p.e p.p.p.p.p.p.p.",
"p.p.p.p.p.p.p.p.p.p.p.p.%.7.C p.p.p.p.2.2.O.e p.c p.p.p.p.p.p.p.",
"p.p.p.p.p.p.p.p.p.p.p.p.Y o.V p.p.p.p.r.2. .;.M s p.p.p.p.p.p.p.",
"p.p.p.p.p.p.p.p.p.p.p.p.%.O.B p.p.p.p.p.r.,.2.#.h p.p.p.p.p.p.p.",
"p.p.p.p.p.p.p.p.p.p.p.p.w.:.Q p.p.p.p.p.p.r.=.2.q p.p.p.p.p.p.p.",
"p.p.p.p.p.p.p.p.p.p.p.p.r.r._ p.p.p.p.p.p.r.%.7.Z p.p.p.p.p.p.p.",
"p.p.p.p.p.p.p.p.p.p.p.p.e.e.+.p.p.p.p.p.p.p...e.' p.p.p.p.p.p.p.",
"p.p.p.p.p.p.p.p.p.p.p.p.7.:.8.u p.p.p.p.p.p.@.t.2.4 p.p.p.p.p.p.",
"p.p.p.p.p.p.p.p.p.p.p.p.2.=.u.W p.p.p.p.p.G R 9.0.q p.p.p.p.p.p.",
"p.p.p.p.p.p.p.p.p.p.p.p.p.*.u.] @ p.p.p.p.Y ' 9.7.0 p.p.p.p.p.p.",
"p.p.p.p.p.p.p.p.p.p.p.p.p.*.t.@.i p.p.p.J O.-.>.o.3 p.p.p.p.p.p.",
"p.p.p.p.p.p.p.p.p.p.p.p.p.0.r.7.U V F Y +.%.-.} p p.p.p.p.p.p.p.",
"p.p.p.p.p.p.p.p.p.p.p.p.p.p.0.3.L @.q.` O.-.o.P # p.p.p.p.p.p.p.",
"p.p.p.p.p.p.p.p.p.p.p.p.p.p.p.T ( @.u.@.T ] | { p.p.p.p.p.p.p.p.",
"p.p.p.p.p.p.p.p.p.p.p.p.p.p.p.T 2.O.@.| ] R / X.p.p.p.p.p.p.p.p.",
"p.p.p.p.p.p.p.p.p.p.p.p.p.p.p.p.o.*.U J Q Q O.+.p.p.p.p.p.p.p.p.",
"p.p.p.p.p.p.p.p.p.p.p.p.p.p.p.p.p.p.J H ( Q @.( p.p.p.p.p.p.p.p.",
"p.p.p.p.p.p.p.p.p.p.p.p.p.p.p.p.p.p.p.Y <.( @.! p.p.p.p.p.p.p.p."
};
