/* XPM */
static char *cz5n6_psfu9[] = {
/* columns rows colors chars-per-pixel */
"64 64 156 2 ",
"   c #07392B",
".  c #0B3C2D",
"X  c #123E33",
"o  c #16511F",
"O  c #19561F",
"+  c #0F4427",
"@  c #0E422A",
"#  c #104626",
"$  c #134B23",
"%  c #184E26",
"&  c #11452B",
"*  c #154B2B",
"=  c #1A4C2C",
"-  c #165122",
";  c #1A5524",
":  c #1D5B25",
">  c #175029",
",  c #1A542B",
"<  c #1E5A2A",
"1  c #154134",
"2  c #1A4733",
"3  c #1D4E35",
"4  c #1B4439",
"5  c #1D4B38",
"6  c #1F5433",
"7  c #215F25",
"8  c #21522B",
"9  c #215E2B",
"0  c #285D2F",
"q  c #234D36",
"w  c #22463E",
"e  c #284F3C",
"r  c #225432",
"t  c #2A5436",
"y  c #2B5339",
"u  c #2D5D3B",
"i  c #335B3D",
"p  c #236325",
"a  c #296527",
"s  c #276927",
"d  c #2A6D23",
"f  c #23632A",
"g  c #28622A",
"h  c #27692B",
"j  c #296D2C",
"k  c #326E25",
"l  c #316528",
"z  c #336C2C",
"x  c #2E7526",
"c  c #2D7429",
"v  c #317326",
"b  c #3C7526",
"n  c #337C26",
"m  c #3B7E25",
"M  c #317629",
"N  c #317928",
"B  c #3A7B28",
"V  c #276231",
"C  c #2A6232",
"Z  c #2D6C32",
"A  c #34613D",
"S  c #347233",
"D  c #3A7435",
"F  c #36703A",
"G  c #254741",
"H  c #244841",
"J  c #2C4C46",
"K  c #2F4C48",
"L  c #314F47",
"P  c #324E4A",
"I  c #2F5240",
"U  c #335246",
"Y  c #385943",
"T  c #35534C",
"R  c #3C554E",
"E  c #3F5A4C",
"W  c #3C5452",
"Q  c #3F5955",
"!  c #3B6142",
"~  c #435E4C",
"^  c #425655",
"/  c #445B54",
"(  c #4A5D56",
")  c #455758",
"_  c #465C5A",
"`  c #4B5B5B",
"'  c #416F46",
"]  c #45604D",
"[  c #436D48",
"{  c #477746",
"}  c #48724C",
"|  c #4E6D54",
" . c #4C615F",
".. c #506F55",
"X. c #52675A",
"o. c #576A5F",
"O. c #4C7650",
"+. c #577A5A",
"@. c #62765C",
"#. c #535E62",
"$. c #585F66",
"%. c #4F6361",
"&. c #546163",
"*. c #596564",
"=. c #566B67",
"-. c #5C6C63",
";. c #5D656A",
":. c #5F6B6D",
">. c #63666D",
",. c #636A6C",
"<. c #617067",
"1. c #607B64",
"2. c #6B7F6F",
"3. c #666670",
"4. c #6B6A74",
"5. c #706F76",
"6. c #736E7A",
"7. c #657270",
"8. c #6C7677",
"9. c #6E7379",
"0. c #727F76",
"q. c #74737C",
"w. c #78747E",
"e. c #757D7D",
"r. c #7A787E",
"t. c #368123",
"y. c #3B8423",
"u. c #428623",
"i. c #4A8626",
"p. c #458923",
"a. c #4B8C22",
"s. c #528E22",
"d. c #569022",
"f. c #5B9322",
"g. c #5B893C",
"h. c #5B8944",
"j. c #5F8656",
"k. c #688267",
"l. c #6F8073",
"z. c #7D7783",
"x. c #7C7C82",
"c. c #817C86",
"v. c #847F89",
"b. c #808484",
"n. c #85838A",
"m. c #8A868E",
"M. c #8B898F",
"N. c #8B8590",
"B. c #8E8A91",
"V. c #918E94",
"C. c #949196",
"Z. c #979598",
"A. c #989799",
"S. c #979998",
"D. c #9C9B9C",
"F. c None",
/* pixels */
"F.F.F.F.F.F.F.F.F.F.F.F.F.F.F.F.F.F.F.F.F.F.F.F.F.F.t.y.y.y.N N N c F.F.F.F.F.F.F.F.F.F.F.F.F.F.F.F.F.F.F.F.F.F.F.F.F.F.F.F.F.F.",
"F.F.F.F.F.F.F.F.F.F.F.F.F.F.F.F.F.F.F.F.F.F.F.F.p.a.y.y.a.d.y.y.t.t.c F.F.F.F.F.F.F.F.F.F.F.F.F.F.F.F.F.F.F.F.F.F.F.F.F.F.F.F.F.",
"F.F.F.F.F.F.F.F.F.F.F.F.F.F.F.F.F.F.F.F.F.F.s.d.f.f.f.p.t.p.f.d.a.y.t.c j F.F.F.F.F.F.F.F.F.F.F.F.F.F.F.F.F.F.F.F.F.F.F.F.F.F.F.",
"F.F.F.F.F.F.F.F.F.F.F.F.F.F.F.F.F.F.F.F.F.y.d.f.f.f.f.d.s.y.s.d.f.d.y.n j j Z j j F.F.F.F.F.j j Z j Z j Z F.F.F.F.F.F.F.F.F.F.F.",
"F.F.F.F.F.F.F.F.F.F.F.F.F.F.F.F.F.F.F.F.t.u.f.f.d.a.y.p.p.y.t.p.d.d.t.c j c N c j N j F.F.j j c c N n c j j j j j F.F.F.F.F.F.F.",
"F.F.F.F.F.F.F.F.F.F.F.F.F.F.F.F.F.F.F.F.t.a.f.p.y.t.y.y.y.y.t.t.s.d.t.c c c t.t.N N N j j c t.t.t.t.y.n j c j j j j F.F.F.F.F.F.",
"F.F.F.F.F.F.F.F.F.F.F.F.F.F.F.F.F.y.t.t.t.y.y.t.s.d.d.d.d.p.t.n i.a.t.c j j j c n t.t.N y.p.p.y.y.a.p.t.c c c c N j , F.F.F.F.F.",
"F.F.F.F.F.F.F.F.F.F.F.F.F.F.F.t.t.y.p.a.p.y.t.t.d.d.a.a.p.t.t.x p.y.c c t.t.N j N t.t.p.f.f.f.d.d.y.t.t.N c c N t.c ; . . F.F.F.",
"F.F.F.F.F.F.F.F.F.F.F.F.F.F.t.t.t.s.f.d.y.n t.t.p.y.t.n y.n c n y.t.t.t.t.t.t.N c y.d.s.s.d.s.y.y.t.t.c t.x j t.c j p $ . F.F.F.",
"F.F.F.F.F.F.F.F.F.F.F.F.F.t.t.y.d.f.f.y.N j N x t.n M N N M B d.u.p.s.y.t.t.y.n n t.y.t.t.t.t.N N c c N t.c c c : O p - . F.F.F.",
"F.F.F.F.F.F.F.F.F.F.F.F.F.t.t.y.f.f.s.t.N j N j c c n y.a.d.f.s.u.i.f.d.y.t.t.y.p.y.t.t.N t.t.N c c t.t.c j j h $ + $ $ . F.F.F.",
"F.F.F.F.F.F.F.F.F.F.F.F.F.t.t.t.y.p.p.p.t.x t.n N y.a.d.f.s.u.t.t.a.f.f.u.t.y.s.f.y.t.t.x c t.t.t.N c j j c j > . . . . F.F.F.F.",
"F.F.F.F.F.F.F.F.F.F.F.F.F.t.t.c t.t.y.d.a.p.p.y.i.d.f.d.a.y.y.a.a.a.f.s.y.n p.f.f.p.t.t.N j c t.t.t.c j j c < @ @ * = F.F.F.F.F.",
"F.F.F.F.F.F.F.F.F.F.F.F.F.t.y.n c N n n p.d.s.d.f.f.d.y.d.u.u.a.p.t.y.n c c u.d.d.d.s.t.c N N t.t.N j j 9 , , f c n c F.F.F.F.F.",
"F.F.F.F.F.F.F.F.F.F.F.F.t.p.d.s.n N n c c a.f.f.f.f.p.t.p.y.t.N t.t.N c c c i.p.y.p.a.N j t.t.N c f f , & , h c c n c F.F.F.F.F.",
"F.F.F.F.F.F.F.F.F.F.F.t.y.d.f.f.s.t.N j N a.f.f.f.a.y.N N t.N c c j c N c N p.d.a.a.y.x h f , , , < ; + @ V j c c Z j j F.F.F.F.",
"F.F.F.F.F.p.F.F.t.s.d.p.p.a.f.f.f.y.j h N y.f.s.m N c 9 f c c < Z ! < , < c y.y.y.t.c f * + + . & ; > @ & h j c t.c c N c F.F.F.",
"F.F.F.F.t.p.a.y.d.f.d.p.d.d.f.f.a.y.B N n y.a.p.M h 9 & 3 u , > ! *.. + = j N N N f & @ & , < = @ @ @ + @ 9 N c t.N N t.c j F.F.",
"F.p.a.a.p.y.p.f.f.f.f.y.a.f.d.p.s.f.d.y.c c n t.M r $ = K 1 + ; / 5.r * 2 X.u , > @ $ % h N N c >   @ @ & V t.N c c t.N h * F.F.",
"F.p.d.f.f.p.a.f.f.s.p.t.a.a.N p l b m : * r u V g L 4 i , & . + Q z.{ f r ;.2 $ @ , N n y.u.t.c h * < h j j c N c t.N f * . F.F.",
"F.y.a.d.p.n n a.i.y.t.N f p % & # & * ; ; 1 U y  .#.#.i ; h h < / N.l.Z Z o.J + > u.y.y.d.u.N c c c t.y.t.c N c j f > $ $ + F.F.",
"F.y.a.p.N f f c c p , $ + $ $ < f , ; % $ & y y ( 5.i 7 c t.t.x | m.n.} h | 3.6 n y.a.y.y.t.n t.N x N p.p.i.a.y.N & & $ $ @ F.F.",
"F.a.y.t.Z * + 7 h > $ # + . . + q 7., $ $ # $ t &.4.g x n n n t.S l.B.b.F | q.D t.y.d.t.t.t.p.y.t.t.c c t.u.f.p.n @ # & . . F.F.",
"F.u.t.f < > @ $ p < . . . @ + . 0 0.4 & p x s $ ] @.i.y.t.c c N N S +.1.O.{ n.j.y.a.p.y.y.a.d.d.y.y.N j Z n a.t., @ $ $ . $ @ . ",
"F.F.c @ @ $ & . & & 9 g 9 % 9 s i.g.z u.s.t.t.t.n a.f.d.t.n j j t.N c j j Z k.h.f.d.u.a.d.f.f.f.p.t.n c j c n j . , : $ . o + . ",
"F.F.F.F.F.& & h u.i.d.f.d.u.f.f.s.p.a.s.a.p.a.p.t.y.d.u.t.x j c p.t.t.t.c j n d.f.f.f.f.d.y.d.f.u.n c h < & % & & ; $ . . # . F.",
"F.F.F.F.p.m n t.s.s.f.f.f.d.i.s.u.n u.s.d.f.f.a.t.y.p.t.t.c c n p.d.d.y.n j y.d.f.f.f.f.p.t.p.a.y.c h < @ @ + + o 2 w . . . F.F.",
"F.F.F.s.f.d.y.n n v i.a.p.u.c M B y.d.d.p.p.i.y.t.t.t.t.t.t.t.t.t.d.f.p.t.c y.d.f.f.f.d.y.t.t.t.N j p - $ $ $ + & ` J   . F.F.F.",
"F.F.n d.s.y.n c M j M B t.y.y.p.s.s.p.y.n n c t.s.y.N N y.a.a.a.p.d.f.a.t.c n d.p.a.a.u.t.N N h < ; $ $ & . . J #.K . . F.F.F.F.",
"F.F.c n t.t.c : f c j c u.s.y.p.y.y.p.y.c c Z u.f.y.c Z s.f.f.s.p.p.y.t.n j c y.t.N N N c j h ; $ + @ @ .   K 4.4.4 F.F.F.F.F.F.",
"F.F.F.c h s ; o - p j v s.d.u.n n a.f.p.c h c t.y.c j c s.s.f.s.t.y.t.t.n c c c c j c N c f > + @ @ - @   K 4.6.F.F.F.F.F.F.F.F.",
"F.F.F.F.- - o x d 7 p M i.y.c m i.p.y.N c c c c c c c u.s.a.u.m p.d.m < t.n c Z c n n n c h * $ $ $ 6 _ _ q.z.F.F.F.F.F.F.F.F.F.",
"F.F.F.F.F.o d s.d.u.s.s.u.c n d.s.y.c c c h 7 < j B s.f.u.N x % m y.h @ h n c j c t.t.N j j * - $ 1 &.N.m.M.F.F.F.F.F.F.F.F.F.F.",
"F.F.F.F.F.o d p.s.s.s.p.M j t.p.y.t.n N j , $ . * k f.b , p @ & * & - ; $ > = h N n n c V * @ - @ W 6.z.m.F.F.F.F.F.F.F.F.F.F.F.",
"F.F.F.F.s.m n u.s.a.d.p.c j n t.n c c h < $ $ #   = 9 & . & & ; & # ; a ; @ @ > c j j < * @ ; $ J 6.6.6.F.F.F.F.F.F.F.F.F.F.F.F.",
"F.F.a.s.a.N c t.B u.d.u.t.c N c n N h , ; : - + . . . # $ # # @ $ y R , ; $ @ . . @ & @ . + * T q.n.6.F.F.F.F.F.F.F.F.F.F.F.F.F.",
"F.F.u.n j p ; 7 c t.y.t.c h j c n f + ; O : - .   . ; $ @ . H = $ ^ 3.J 1 . @ $ @ . $ $ @ 4 :.N.m.z.F.F.F.F.F.F.F.F.F.F.F.F.F.F.",
"F.F.F.c : o ; d M d d j h h p V p # $ $ % $ + . . , h ; q H :.W 1 _ 6.#.1 @ & @ $ $ $ @ T x.B.v.<.[ F.F.F.F.F.F.F.F.F.F.F.F.F.F.",
"F.F.F.F.F.F.; d s o $ > * $ # & X . @ 5 P w P J % 9 Y ` P #.9. .1 K n.x.W K T G @ @ . T n.B.b.O.Z h Z j Z f F.F.F.F.F.F.F.F.F.F.",
"F.F.F.F.F.F.F.F.$ * U I % . & r U . 5 E $.X 4 ) ( ;.T ;.;.W x.x.K   =.D.z.^ =. . .4 _ n.B.x.! j j j h > , V 6 F.F.F.F.F.F.F.F.F.",
"F.F.F.F.F.F.F.F.F.& q ~ / y q ,./ & R U ;.1 . X ) &.9.W 7.8.B.m._ . %.S.x._ n.x.x.:.N.N.x.! h h a j j , . * & F.F.F.F.F.F.F.F.F.",
"F.F.F.F.F.F.F.F.F.F.F.@ X H &.c.x.r.x.5.4.1 G G 4 ) W 9.Q e.A.M.4.1 %.C.q.` Z.Z.B.m.N.<.A h h f - ; p o @ F.F.F.F.F.F.F.F.F.F.F.",
"F.F.F.F.F.F.F.F.F.F.F.F.. . 4  .x.x.b.n.c.#.` 3.F.^ P T x.e.S.A.z.$.q.C.x.:.D.C.M.m.-., $ < > ; < + $ $ F.F.F.F.F.F.F.F.F.F.F.F.",
"F.F.F.F.F.F.F.F.F.F.F.F.F.F.. F.F.F.H Q N.v.z.6.F.F.3.` q.V.A.A.B.c.n.Z.D.S.D.C.N.e.0 f = $ $ a f @ & . F.F.F.F.F.F.F.F.F.F.F.F.",
"F.F.F.F.F.F.F.F.F.F.F.F.F.F.F.F.F.F.F.F.F.A.C.n.w.F.F.6.6.c.Z.S.D.C.Z.D.D.D.Z.B.x.i : ! ,.~ q & @   F.F.F.F.F.F.F.F.F.F.F.F.F.F.",
"F.F.F.F.F.F.F.F.F.F.F.F.F.F.F.F.F.F.F.F.F.F.F.C.B.c.F.F.6.z.Z.Z.D.A.D.D.D.D.B.B.X.8 ~ >.) J X . . . F.F.F.F.F.F.F.F.F.F.F.F.F.F.",
"F.F.F.F.F.F.F.F.F.F.F.F.F.F.F.F.F.F.F.F.F.F.F.F.Z.V.m.n.w.m.A.B.C.D.D.D.D.A.D.C.x.q.5.J . . . . . F.F.F.F.F.F.F.F.F.F.F.F.F.F.F.",
"F.F.F.F.F.F.F.F.F.F.F.F.F.F.F.F.F.F.F.F.F.F.F.F.F.V.Z.A.B.Z.V.B.Z.D.D.D.D.D.C.x.F.F.F.. F.F.F.F.F.F.F.F.F.F.F.F.F.F.F.F.F.F.F.F.",
"F.F.F.F.F.F.F.F.F.F.F.F.F.F.F.F.F.F.F.F.F.F.F.F.F.F.B.Z.C.V.B.C.D.D.D.D.A.N.F.F.F.F.F.F.F.F.F.F.F.F.F.F.F.F.F.F.F.F.F.F.F.F.F.F.",
"F.F.F.F.F.F.F.F.F.F.F.F.F.F.F.F.F.F.F.F.F.F.F.F.F.F.F.V.C.Z.A.Z.D.D.D.D.C.F.F.F.F.F.F.F.F.F.F.F.F.F.F.F.F.F.F.F.F.F.F.F.F.F.F.F.",
"F.F.F.F.F.F.F.F.F.F.F.F.F.F.F.F.F.F.F.F.F.F.F.F.F.F.F.F.A.Z.D.Z.D.D.D.C.z.F.F.F.F.F.F.F.F.F.F.F.F.F.F.F.F.F.F.F.F.F.F.F.F.F.F.F.",
"F.F.F.F.F.F.F.F.F.F.F.F.F.F.F.F.F.F.F.F.F.F.F.F.F.F.F.F.F.A.A.Z.D.D.Z.C.F.F.F.F.F.F.F.F.F.F.F.F.F.F.F.F.F.F.F.F.F.F.F.F.F.F.F.F.",
"F.F.F.F.F.F.F.F.F.F.F.F.F.F.F.F.F.F.F.F.F.F.F.F.F.F.F.F.F.Z.D.Z.D.D.Z.Z.c.F.F.F.F.F.F.F.F.F.F.F.F.F.F.F.F.F.F.F.F.F.F.F.F.F.F.F.",
"F.F.F.F.F.F.F.F.F.F.F.F.F.F.F.F.F.F.F.F.F.F.F.F.F.F.F.F.F.D.D.Z.D.D.C.C.c.F.F.F.F.F.F.F.F.F.F.F.F.F.F.F.F.F.F.F.F.F.F.F.F.F.F.F.",
"F.F.F.F.F.F.F.F.F.F.F.F.F.F.F.F.F.F.F.F.F.F.F.F.F.F.F.F.F.Z.A.V.A.D.Z.B.N.F.F.F.F.F.F.F.F.F.F.F.F.F.F.F.F.F.F.F.F.F.F.F.F.F.F.F.",
"F.F.F.F.F.F.F.F.F.F.F.F.F.F.F.F.F.F.F.F.F.F.F.F.F.F.F.F.F.F.A.B.C.D.S.Z.C.F.F.F.F.F.F.F.F.F.F.F.F.F.F.F.F.F.F.F.F.F.F.F.F.F.F.F.",
"F.F.F.F.F.F.F.F.F.F.F.F.F.F.F.F.F.F.F.F.F.F.F.F.F.F.F.F.F.F.C.B.B.V.Z.D.C.z.F.F.F.F.F.F.F.F.F.F.F.F.F.F.F.F.F.F.F.F.F.F.F.F.F.F.",
"F.F.F.F.F.F.F.F.F.F.F.F.F.F.F.F.F.F.F.F.F.F.F.F.F.F.F.F.F.F.C.V.Z.V.A.D.D.n.F.F.F.F.F.F.F.F.F.F.F.F.F.F.F.F.F.F.F.F.F.F.F.F.F.F.",
"F.F.F.F.F.F.F.F.F.F.F.F.F.F.F.F.F.F.F.F.F.F.F.F.F.F.F.F.F.F.B.A.D.Z.Z.D.D.B.F.F.F.F.F.F.F.F.F.F.F.F.F.F.F.F.F.F.F.F.F.F.F.F.F.F.",
"F.F.F.F.F.F.F.F.F.F.F.F.F.F.F.F.F.F.F.F.F.F.F.F.F.F.F.F.F.F.V.A.D.C.C.Z.D.V.F.F.F.F.F.F.F.F.F.F.F.F.F.F.F.F.F.F.F.F.F.F.F.F.F.F.",
"F.F.F.F.F.F.F.F.F.F.F.F.F.F.F.F.F.F.F.F.F.F.F.F.F.F.F.F.F.F.B.B.B.C.Z.Z.A.B.F.F.F.F.F.F.F.F.F.F.F.F.F.F.F.F.F.F.F.F.F.F.F.F.F.F.",
"F.F.F.F.F.F.F.F.F.F.F.F.F.F.F.F.F.F.F.F.F.F.F.F.F.F.F.F.F.F.B.Z.Z.A.C.Z.Z.N.F.F.F.F.F.F.F.F.F.F.F.F.F.F.F.F.F.F.F.F.F.F.F.F.F.F.",
"F.F.F.F.F.F.F.F.F.F.F.F.F.F.F.F.F.F.F.F.F.F.F.F.F.F.F.F.F.F.V.Z.S.A.C.Z.C.M.F.F.F.F.F.F.F.F.F.F.F.F.F.F.F.F.F.F.F.F.F.F.F.F.F.F.",
"F.F.F.F.F.F.F.F.F.F.F.F.F.F.F.F.F.F.F.F.F.F.F.F.F.F.F.F.F.B.V.A.D.C.A.A.B.m.F.F.F.F.F.F.F.F.F.F.F.F.F.F.F.F.F.F.F.F.F.F.F.F.F.F."
};
