/* XPM */
static char *_pwat_jm2b3[] = {
/* columns rows colors chars-per-pixel */
"64 64 249 2 ",
"   c #391707",
".  c #2E1612",
"X  c #3C2215",
"o  c #362016",
"O  c #392825",
"+  c #180907",
"@  c #451B06",
"#  c #491C14",
"$  c #47230B",
"%  c #54270D",
"&  c #472718",
"*  c #532C17",
"=  c #58331C",
"-  c #663718",
";  c #74391C",
":  c #662B14",
">  c #462A23",
",  c #48322A",
"<  c #57382B",
"1  c #593C33",
"2  c #483936",
"3  c #673C28",
"4  c #743D24",
"5  c #1A4B0C",
"6  c #365C19",
"7  c #295313",
"8  c #386617",
"9  c #397418",
"0  c #2F660F",
"q  c #314F24",
"w  c #396726",
"e  c #4C711B",
"r  c #515030",
"t  c #6B432B",
"y  c #7A4728",
"u  c #684738",
"i  c #784C37",
"p  c #6A5139",
"a  c #77523A",
"s  c #695F2F",
"d  c #486428",
"f  c #5B7C25",
"g  c #576539",
"h  c #4F742F",
"j  c #6B7739",
"k  c #78773D",
"l  c #6A7233",
"z  c #5F5A15",
"x  c #674C45",
"c  c #6C5246",
"v  c #775848",
"b  c #6C5957",
"n  c #775C55",
"m  c #6B7747",
"M  c #77754A",
"N  c #7A655B",
"B  c #707050",
"V  c #746363",
"C  c #7B6563",
"Z  c #7C6B6A",
"A  c #7C6866",
"S  c #7C7365",
"D  c #615C50",
"F  c #8F3B12",
"G  c #874927",
"H  c #89522D",
"J  c #874D33",
"K  c #895538",
"L  c #975937",
"P  c #9A4E28",
"I  c #A55629",
"U  c #8F6D3B",
"Y  c #B9662A",
"T  c #A6643A",
"R  c #B46A36",
"E  c #BA7138",
"W  c #A7521C",
"Q  c #C87739",
"!  c #CB712C",
"~  c #C25E1A",
"^  c #875C46",
"/  c #925B43",
"(  c #89634B",
")  c #976548",
"_  c #866659",
"`  c #966B57",
"'  c #9A735A",
"]  c #8B784E",
"[  c #A76A47",
"{  c #B87648",
"}  c #A77659",
"|  c #B87C56",
" . c #A9704B",
".. c #836C6C",
"X. c #886B66",
"o. c #936E63",
"O. c #84736C",
"+. c #8B736C",
"@. c #8A7867",
"#. c #987869",
"$. c #846E71",
"%. c #896E71",
"&. c #8B7474",
"*. c #8D7B73",
"=. c #887777",
"-. c #937B73",
";. c #977B78",
":. c #A87B67",
">. c #AB7F6D",
",. c #C47B45",
"<. c #C17D54",
"1. c #518418",
"2. c #54882D",
"3. c #68882A",
"4. c #648634",
"5. c #768F30",
"6. c #72A238",
"7. c #78864A",
"8. c #71934B",
"9. c #6F9C56",
"0. c #889339",
"q. c #80A23E",
"w. c #899649",
"e. c #898757",
"r. c #94885B",
"t. c #8C9559",
"y. c #958F4D",
"u. c #BB825A",
"i. c #A89051",
"p. c #988968",
"a. c #999569",
"s. c #9C827B",
"d. c #978678",
"f. c #9A9475",
"g. c #8B8C6B",
"h. c #BA8765",
"j. c #A78779",
"k. c #B98D77",
"l. c #A69679",
"z. c #AD9571",
"x. c #A9A571",
"c. c #A2A252",
"v. c #C9834B",
"b. c #D28547",
"n. c #CB8552",
"m. c #C78758",
"M. c #D38D58",
"N. c #D5915C",
"B. c #D9935E",
"V. c #CD915D",
"C. c #C78C68",
"Z. c #CB9168",
"A. c #D49364",
"S. c #DB9B6B",
"D. c #D89868",
"F. c #C79677",
"G. c #DC9D72",
"H. c #D39C76",
"J. c #D08E62",
"K. c #E29D69",
"L. c #E19E72",
"P. c #DCA16C",
"I. c #DCA37B",
"U. c #DAA378",
"Y. c #C7A17E",
"T. c #E5A16D",
"R. c #E3A474",
"E. c #E2A57B",
"W. c #EBAC7C",
"Q. c #E5AA7B",
"!. c #F0B07A",
"~. c #937D83",
"^. c #998687",
"/. c #998B90",
"(. c #A48B84",
"). c #AC8D84",
"_. c #A48D8B",
"`. c #AD938B",
"'. c #A99487",
"]. c #B3958C",
"[. c #B89789",
"{. c #A89798",
"}. c #B79C94",
"|. c #AA8E88",
" X c #B5A58A",
".X c #BBA29C",
"XX c #BBA397",
"oX c #ACA684",
"OX c #AB9BA6",
"+X c #B6A6A9",
"@X c #B5A9B6",
"#X c #B8AFB9",
"$X c #C69983",
"%X c #CF9E86",
"&X c #CCA488",
"*X c #D7A687",
"=X c #C7A799",
"-X c #D5AB96",
";X c #DAB29A",
":X c #D5BB88",
">X c #E5AB83",
",X c #EAAD83",
"<X c #E3AE8B",
"1X c #E4A883",
"2X c #ECB28B",
"3X c #E9B188",
"4X c #F2B68A",
"5X c #ECB693",
"6X c #ECBA95",
"7X c #E8B99B",
"8X c #F2BB95",
"9X c #F2BD9A",
"0X c #E9AE8A",
"qX c #C4ABA5",
"wX c #CBB3AA",
"eX c #D9B7A7",
"rX c #CEB9B9",
"tX c #E8BDA5",
"yX c #F0BFA2",
"uX c #F3C29C",
"iX c #F0C296",
"pX c #EDC3A8",
"aX c #F2C3A3",
"sX c #F6C9AB",
"dX c #F5CCB3",
"fX c #FCD3B9",
"gX c #EDCBB2",
"hX c #D6C0BC",
"jX c #BCB5C4",
"kX c #C3BCCB",
"lX c #CAC7D8",
"zX c #D1CCD9",
"xX c #DCD4DA",
"cX c #E7D4CF",
"vX c #D1CFE1",
"bX c #D5D4E5",
"nX c #DCDCEC",
"mX c #DAD8E6",
"MX c #E2DEE9",
"NX c #E3E2EE",
"BX c #E9E3E9",
"VX c #E5E6F1",
"CX c #E6E8F4",
"ZX c #EBEBF5",
"AX c #EDEEF9",
"SX c #E8E9F7",
"DX c #EEF1FD",
"FX c #F1F3FD",
"GX c #DFE1ED",
/* pixels */
"AXAXZXZXZXZXZXZXZXZXZXZXZXZXZXZXZXZXFXZXZXZXZXFXZXZXFXZXFXZXZXZXZXZXZXZXFXZXFXZXZXAXZXAXZXZXZXZXAXAXZXZXZXZXZXZXZXZXZXZXZXZXZXZX",
"AXZXZXZXZXZXZXZXZXZXZXZXZXZXZXZXZXZXBXFXZXFXZXZXZXZXFXZXFXBXZXFXZXFXFXZXBXFXZXZXAXZXZXZXZXZXZXZXZXZXZXZXZXZXAXZXZXZXZXZXZXZXZXZX",
"ZXAXZXZXZXZXZXZXZXZXZXZXZXZXZXZXZXZXZXZXZXZXFXZXZXZXZXZXZXFXZXZXZXZXZXZXZXZXFXZXZXAXZXAXAXZXZXAXZXAXZXZXZXZXZXZXZXZXZXZXZXSXSXZX",
"AXZXZXZXZXZXZXBXZXZXZXZXZXZXZXZXZXZXZXZXZXZXBXFXZXZXFXZXZXFXZXFXZXFXFXZXFXZXFXZXAXAXAXAXZXAXZXZXZXZXZXAXZXZXZXZXBXAXZXZXSXSXSXZX",
"ZXZXZXZXZXZXZXZXBXZXZXZXZXZXZXZXZXZXZXZXZXZXZXZXFXBXFXZXZXZXZXZXZXFXZXFXZXZXZXFXSXMXZXSXZXAXZXAXAXZXZXZXZXZXZXZXZXZXZXSXZXSXSXZX",
"ZXZXZXZXZXZXZXZXZXZXZXZXZXZXZXZXZXZXZXFXZXZXFXZXZXFXZXZXZXFXZXFXZXZXZXZXZXFXZXZXMX$X-XMXcXBXAXSXZXZXZXZXZXZXZXZXZXZXSXSXSXSXSXSX",
"ZXZXAXZXZXZXZXZXZXZXZXZXZXZXZXZXZXZXZXZXZXFXFXZXZXZXZXFXZXFXZXZXZXFXZXZXFXZXZXFXzXT | .XrXxXSXAXZXZXZXZXZXZXZXZXZXZXSXZXZXZXSXSX",
"ZXZXZXZXBXZXZXZXZXZXZXZXZXZXZXZXZXZXZXZXFXBXZXZXFXZXZXZXFXBXFXZXZXZXFXZXZXZXFXBXkXI { [ $XeXBXAXAXZXZXZXZXZXZXZXZXZXZXZXSXZXZXZX",
"ZXZXZXZXZXZXZXZXZXZXZXZXZXZXZXZXZXZXZXZXZXZXZXZXZXZXZXAXAXZXAXAXFXZXFXZXAXAXFXxX>.P <.{ <.>.eXmXFXZXZXZXZXZXZXZXBXSXSXSXSXZXZXZX",
"ZXZXZXZXZXBXCXZXBXZXZXZXZXZXZXZXZXZXZXZXZXZXZXZXZXAXZXZXZXZXAXZXZXZXZXZXAXFXgX1XL [ <.R | <.:.kXAXZXAXAXZXZXZXZXZXZXBXZXZXZXSXVX",
"ZXZXZXCXZXZXCXCXZXZXZXBXZXZXBXZXZXZXZXZXZXZXZXFXFXZXAXZXZXAXZXZXZXZXZXFXFXyXT.L.[ | { 4 4  .4 @XZXZXZXZXZXZXZXZXZXVXZXZXSXVXSXZX",
"ZXCXCXZXCXCXCXZXZXZXZXZXZXZXZXZXZXZXZXZXZXZXZXZXZXZXZXZXAXZXZXZXZXZXBXFXcX!.K.<. .} 4 # > 1 > _ rXBXZXZXZXZXZXZXZXZXZXZXZXZXZXZX",
"ZXZXZXVXZXZXCXCXCXZXBXZXZXZXZXZXZXZXZXZXZXZXZXZXFXZXZXZXZXZXZXZXFXFXAXZX<X{ { <.L 4 # > O O > 3 k.DXFXZXZXZXZXZXZXZXZXZXZXZXNXSX",
"ZXVXZXZXCXZXZXZXCXCXZXZXZXBXZXZXZXZXZXZXZXZXAXZXBXZXBXFXAXDXFXDXBXcXxXcXT F P 4 / L = # > O 1 > } qXNXFXZXZXZXZXZXZXZXSXZXZXZXSX",
"VXZXZXZXZXCXZXZXCXZXZXCXZXBXZXZXZXZXZXZXAXZXSXAXDXFXFXFXMXcXeX&XJ.<.,.H.Y ~ ! F 4 T { 3 < ^ / J P # < zXFXZXZXZXBXSXZXBXSXSXZXZX",
"ZXZXZXVXCXZXCXCXZXCXZXCXZXZXZXZXZXZXZXZXZXAXDXMXcX-XZ.M.J.b.M.M.D.L.1XH.Y P R ! F : <.%X>.>.<.! - # @ ` FXBXZXZXZXZXZXZXSXSXSXBX",
"ZXVXSXVXSXZXVXSXZXZXVXVXZXZXZXZXZXZXZXZXAXBXeXC.H.J.<.<.K.B.-X1X<X1X0XA.W F # I P 4 D.| <.<.! Y . 3 J [ NXAXZXCXZXCXZXCXZXZXVXZX",
"SXSXVXSXZXVXZXZXZXVXZXZXZXZXZXBXZXZXZXDXcX%XJ.F.D.G.L.0XL.L.1XE.1X0X<XJ.,.~ : G F T { J K ,.! P o O : J mXAXZXZXZXCXZXCXCXCXZXVX",
"ZXVXVXVXZXZXVXVXZXZXVXZXVXVXZXZXCXBXFXxX%XG.*X*XH.G.D.*XH.L.<X1X1X5X1X%XK.~ : R Y P [ J ) ! ,.G . . 4 / xXDXZXZXCXCXCXCXVXVXVXSX",
"ZXZXSXZXVXSXVXSXCXBXZXZXZXZXZXZXZXAXBX%X1XL.E.G.H.D.S.E.J.L.H.L.0X<X%X*XZ.! ; E P [ D./ C.P G / . + ; ` xXZXCXCXCXZXZXCXZXZXZXVX",
"SXVXSXVXZXVXZXVXZXVXZXZXZXZXZXZXSXFX-XG.1XG.L.N.S.S.R.L.N.P.V.I.1X*X1XC.F.v.W Q.<.<XJ.4 F.h.= 3 . + 4 _ kXZXCXZXSXCXCXCXVXSXSXCX",
"ZXZXZXZXVXZXZXSXZXBXZXVXBXZXZXZXAXxXH.L.L.G.L.D.D.N.K.R.B.A.n.,X1X<X<XF.;XW.,XI.L.1X<.L I.F.i / n . 4 X.OXZXZXCXSXCXCXCXVXVXCXCX",
"VXZXSXSXVXSXVXVXZXVXZXVXVXSXZXMXAX;X1XL.L.E.E.D.S.N.M.D.T.Z.v.R.1X9X%XC.I.4XaXD.,XB.C.T Q.{ ` / >.v 3 _ s.CXCXCXCXVXCXVXVXVXNXVX",
"ZXNXVXVXVXVXVXVXVXVXVXVXBXZXZXZXcXL.L.L.K.L.L.D.S.M.M.N.Q.u.{ R.0X9XL.<.3XiX3XW.{ L.<.L D.T  .) ) >.o.^ &.nXZXVXCXVXVXVXVXVXVXNX",
"NXVXVXVXNXSXNXSXNXVXVXVXBXSXSXSXeX0X1XL.L.L.L.K.A.,.<.B.K.<.{ ,X9X0XD.n.6XiXW.D.  ' D. .{ & & t K ' =Xv N GXZXVXVXNXVXVXVXVXGXVX",
"NXVXSXNXnXNXSXNXNXNXVXVXSXVXZXxX<X9XL.L.L.L.1XL.A.,.<.<.B.[ { 9X4XL.M.{ ;X3XS.S.` } W.m.) . u J i a =X_ x xXZXVXCXGXVXVXVXVXVXGX",
"SXNXNXSXnXNXSXNXVXVXVXVXVXBXSX-XL.0XL.D.1X<.L.K.A.[ ,.L.K.T <.uXL.!.K.I iXU.b.Q F.F.K.{ K V F.t 3 3 p.` b xXZXCXVXGXVXVXVXVXNXVX",
"ZXNXZXNXnXNXNXSXNXNXBXVXVXVXNXC.0X2X1X1X0XB.B.B.<.<. .A.W.[ Z.4XK.8XK.R pXZ.Q b.| Z.R.<.; b v * t = ( n c mXZXCXVXGXnXSXVXVXVXNX",
"NXNXSXNXnXNXSXnXmXmXnXGXMXSXrXJ.0X0X0X,X,XB.K.K.,.<.| <.,X[ H.8X!.uXW.v.7Xm.n.K.,.G.U.A.a u < t t * v ^ x nXCXNXCXGXnXVXVXVXVXVX",
"VXVXNXnXnXNXnXnXvXvXnXnXbXnX$XD.0X4X4X0X,XK.<.K.,.,.| J.A.| 7XaX8X6XQ.Z.:Xu.v.W.J.S.D.D.^ u < t t $ a ( b bXNXMXnXGXnXVXVXVXVXGX",
"NXnXmXmXbXnXnXbXkXvXbXvXbXkXJ.1X0X4X4X0X0XW.<.B.b.,.<.<.M.J.tXaXsX8X>XP.6X| u.4XA.A.V.C.i 1 v y - * v _ x lXGXbXbXnXnXCXVXVXVXGX",
"mXvXlXlXvXnXvXlXkXkXvXlXlX$X<.0X0X0X4X0X8X1XT.K.,.Q B.<.<.<XeXdXaX7XU.U.<X| u.W.A.A.<.| i < s y = t ( _ 2 jXnXvXlXvXbXGXVXVXVXnX",
"lXkXjXjXlXvXlXjXkXjXkXkXkX| | 5X2X4X,XW.,XW.R.0XK.Q m.H.{ F.;XdX7XI.Z.u.H.F.u.Z.N.E.D.u.< < v t > a _ v r /.vXkXkXkXvXmXnXnXnXnX",
"jX#X@X@XjXkXjXjXjX@XkXkXqX .[ 2X9X8X8X4X2X,XR.4XT.,.{ m.| >.-XpX7XU.<Xk.h.-Xh.F.A.h.F.' & = u , , N v r b /.kXkXjXkXkXvXvXbXvXlX",
"+XqX{.OXOXjX@X@X@X@X@X@X%X} T 2X5X0XyX9X,XW.R.5X4XK.,. .Z./ F.gXtXI.<XF.u.Y.&Xk.A.u.o . * ^ < o 1 N u > C /.#X@XOXOX+XkXkXkXkXjX",
"=X}.+X{.{.OXOXOX@XOX{.{.$X) C.5X5X9X9X8X0X,X2X,X5X4X{  .F.# ' dX<XZ.*X;XZ.D.;X&XV.,Xp.] y u 2 O u ( 1 O =./.{.{._._.{.OX@X@XOXOX",
"+XXXwXqXqX(./.OX@XOX/.}.%XJ | <X5XsX8XL.2XQ.6X9X6X0XH.K C.H ) gX7XZ.*XdXU.Z.&X&XC.I.*.[.) 2 2 u _ c . O d././.^.^.^.{.{.{.{.~./.",
"wXwXqX+XqX( d.OX/.~.~.$X>.^ J C.sXcXsX,X5X5XR.W.sXV.<.[ y - T 7X7XH.Z.:X*XH.h.Y.;XF.& c x 2 c v p , o X.s.~.~.^.d.d.{./.~.~.~.~.",
"wXqX=X.X`.v b _.OX~.~.%X:./ / .XfXyXyX2X6XaX8XR.6XG.T H * $ - iX<XV.u.U.;X*Xu.h.Y.cX-Xp.d.@.v < X X x -.^ Z =.^.=.s.{./.%.~.~.~.",
"].].).d.~.%.X.&.{.~.~.%X` J %.dXcX9X5X9X1XR.2X,X<X*X[ % % % : u.pXD.u.V.I.( } i.i.;XwXXX(.a r X   & V -.x X.=.*.+.=.OX~.$.~.~.~.",
"qX}.j.-.s._.;.X.;.~.F.$X/ ^ |.yXsXsXQ.<X,XR.Q.yXP.h.H % X   % P U.Z.V.E i.@ t U U  .' p.p p v c X u .._ v S =.=.O.*.'.^.=.~.=.=.",
"=X.X+X}.j.).;.n X.X.>.} / _ -X9X,XsXR.*XyXK.6X7XP.L - $     * y V.P.v.n.R $ = - H G H a N *.*.=.v ).>.^ v V =.=.O.O.d.d.=.=.=.=.",
"-XwXwXqX`.(.`.b , _ %X/ ^ ~.yXyXL.S.E.5XiXD.Q.aXY.y $ $ & o & % ) P.v.V.T H @   t ( _ @.~.=.$.-.&X&X:.( +.b S S Z S d.*.=.~.=.$.",
";X;XwX+X}.}.~.n _ >.F./ ^ $XL.0X1XD.,X8XyX,XS.m.F.4 + * t X & = y N.m.E T L @ , f.d.O.S Z Z d.Y.I.k.:.v n b Z V V N p.@.$.$.$.Z ",
"tXeX=X=X].v d.^.F.%X` v $XR.G.N.Q S.uX4XpXpXZ.L [ $   = ( t = = t z.A.E { H 4 ] f.O.V V V ..;XP.| } :.n v b Z V b N p.@.C ..Z ..",
"eXeX).qX}.N '.j.F.:.3 k.S.R | V.S.Q.iXR.R.>Xu.y - $ % - ( } K - = ] b.v.E L y M d.S V V V &.6XR.J.[ _ x c V V V b N p.@.V ......",
"eXqX.XwXqX}.&X$X:.J i tXF.F.7XG.M.R.U.6XP.m.H @.K = - t y ) U 3 v @.I.E v.T - U f.S V Z V S aX!.M.^ N u u Z V b b S j.X.V $.$.Z ",
".X.X}.|.$X[.k.>.v 3 -.tX7XdXu.H.V.P.b.Z.u.) j.=XW F H ; * t p v *.A eXQ.n.u.; H f...V Z V wX4X{ L u c c +.Z V V V S l...Z %.$.$.",
"}.+X].[.).>.o.` c ` ;.tX0XyX%XH.F.U.S.[ ) j.+XA.F v.[ = @ $ < O.Z b  XW.v.Y G ; d.=.V V S fXU.K ) v u c &.$.C V V %.f.@.Z &.%.$.",
"qX}.>.~.>.o.i x _ %.%.=XyX5XH.<X1XF.:.].=X}.:XY ! iXT % @ * _ ].^.$.(.3XE E U - #.S V b {.fXI.) h.u i _ ;.$.Z V C ..l.@.$.&.%.$.",
"].~.#.o._ n ^ ).~.#.~.%.tX9X7XE.<.) #.).=X.XU.W R.7XH @   v {.].wX+XwXgXE { y y ( O.V V cXgXk.a u t i ;.;.$.Z A C O.l.*...%.%.%.",
"~.n n u b ].}.qXrX#.#.>.=XdXyX0XS. .;.).=X.XU.! <Xk.- * u (.j.-..XXXwX;XN.T I T a O.V g.=XF.t   & < x d.&.$.Z V V %.l.*.X.%.X.%.",
">.}.[.|.&.>._ ;.}.{.#.o.>.tXyXfXF.<.k.).=X=X*XR H. .* - n _.`.=X].`.[.k.W.v.v.u.) /.O.*.:XK X >   u ;.&.&...V V V O.l.-...X.X.X.",
"].].].).o.#.X.X.X._ ..c o.;XfX-X$XE.h.k.[.].z.R  .u.y / u &.}.#.j.).[..X6XT.M.u.T '.+Xd.Y.y $ $ u d.&.+...C b N Z *.'.*.X.X.X.X.",
"qXqX].(.(.).>.>.;.o.;.X.o.k.eX$XpXuXL.&X=X].].:.L | L ) _ -.{...N -.}._.;XiXN.{ } ( ].j.j.' t p '.^.X.O.X.C C X...*.l.+.V X.X._ ",
"x. X'..X(.].).>.$X[.1 #.j.' ;.&XfXfXfX,XtXgX-X(.j.H K ' +.#.p. X.X]..X^.=XsXD.H.K J [.`.;.].r.'.'.d.-.@.C C C O.X.-.(.%.n X.n V ",
"8.9.x.XX).^.`.l.`._ x ^.}.].^ } 8XdXcXiXW.;XF.s.j.` y s y.y.0.i.[.k.( v y.iXP.V.L K r.p.l.'.p.}.l.' x.d.O.X.#.-.&.s.'.g...X.N V ",
"1.6.t.oXf.@.e.0.p.}.a.N d.)._ #.` 7X&X#.j.gX=X-.#.>.` U 0.5.0.3.i.h.>.^ z Q.!.N.V.i.i.k M B e.@.X.B h @.*.@.e.6.f.].f.f.s.s.s.^.",
"2.9.8.t.f.g.7.7.e.r.w.m y.w.-.}.j.[.o.2 x =XV x ( u l 5.2.e 3.d 3.c.c.0.1.x.sX!.P.c.0.l 3.l 3.k d.g.M N g.j 0 0 h /./.oXXXXXz.oX",
"2.9 2.8.9.8.8.g.v x.c.y.0.3.q.l.'.N O.N n j.] o.&Xk.3.e d 7 q 4.w.q.5.5.0.c.iXfXi.z f e e e e 2.M j f e.m f w q 5 h 9.9. X8.w.3.",
"w q w h 4.h r _ @.c.5.3.3.4.1.4.a.).@.#.&.n N ' l.=X0.d M g d h h 4.d d 1.3.0.z.] d 7 q q 6 6 9 f 5.e a.w 0 9.h w w w 9 9 0 0 5 ",
"r q q 2.j M (.;.p.U 3.1.9 1.6.2.e.a.x.z.k.p.l.a.c.=Xj.p.l.z.w.m 7.k d m y.U p.h.z.e.j l 7.f 5 7 8 l M M B q 7 w 2.2.2.9 9 9 5 5 ",
"g p.9.8.6 q V ;.j.u.U 6 0 e e h 7.8.7.s e.e.y.w.1.z.wX`.t.8.t.x.x. Xr.a.p.p.l.r. Xz.a.z.c.7.d q 5 w l M D w q 5 w w 9 9 9.9.9.2.",
"^.}.l.m g D _.).}.l.p r f d 0 9 6 h g p M r #.M y.l l.}.r q g S s.XXa.a.s s j m r.t.] ] a.9.g.g b S m a.g w D w w w 0 9 2.9.6.2."
};
