/* XPM */
static char *zu9kg_b285n[] = {
/* columns rows colors chars-per-pixel */
"32 64 110 2 ",
"   c #0B3C2D",
".  c #123F32",
"X  c #144F1F",
"o  c #17521F",
"O  c #19551F",
"+  c #0E4424",
"@  c #0E4229",
"#  c #114626",
"$  c #144C23",
"%  c #184F24",
"&  c #11452A",
"*  c #164E2B",
"=  c #175122",
"-  c #1A5523",
";  c #1C5A24",
":  c #165029",
">  c #1C542A",
",  c #1F5D2A",
"<  c #164134",
"1  c #194632",
"2  c #1A433A",
"3  c #205429",
"4  c #205E2B",
"5  c #274D3C",
"6  c #245137",
"7  c #2F5D36",
"8  c #2F523F",
"9  c #2D5A3B",
"0  c #226325",
"q  c #266824",
"w  c #286C26",
"e  c #236429",
"r  c #27692B",
"t  c #2A6E2B",
"y  c #2D7424",
"u  c #2F7827",
"i  c #2D7429",
"p  c #2F7828",
"a  c #307622",
"s  c #337C25",
"d  c #3B7E27",
"f  c #30742A",
"g  c #317828",
"h  c #3C7B28",
"j  c #2C6D30",
"k  c #306C34",
"l  c #3E683E",
"z  c #367231",
"x  c #387831",
"c  c #407E29",
"v  c #2C4C45",
"b  c #315541",
"n  c #305941",
"m  c #395E40",
"M  c #345348",
"N  c #3B574D",
"B  c #3B6148",
"V  c #415B4D",
"C  c #415655",
"Z  c #445A54",
"A  c #4B5D59",
"S  c #48624F",
"D  c #476B4D",
"F  c #457643",
"G  c #4F7A46",
"H  c #457249",
"J  c #4B6453",
"K  c #496950",
"L  c #4C615C",
"P  c #546A5B",
"I  c #546161",
"U  c #5A6169",
"Y  c #5F7B62",
"T  c #656D71",
"R  c #6C6A74",
"E  c #746E7B",
"W  c #73747A",
"Q  c #777879",
"!  c #787D7C",
"~  c #368123",
"^  c #3B8423",
"/  c #428624",
"(  c #4A8725",
")  c #448823",
"_  c #4C8B23",
"`  c #428528",
"'  c #4C872B",
"]  c #518E22",
"[  c #598B2C",
"{  c #569022",
"}  c #5B9222",
"|  c #4D8630",
" . c #6B8951",
".. c #779258",
"X. c #79925D",
"o. c #7F807E",
"O. c #7A7480",
"+. c #7D7983",
"@. c #817D87",
"#. c #837F88",
"$. c #86828A",
"%. c #89868D",
"&. c #8B888F",
"*. c #8E8B92",
"=. c #908E93",
"-. c #949396",
";. c #979598",
":. c #989799",
">. c #9C9C9C",
",. c None",
/* pixels */
",.,.,.,.,.,.,.,.,.,.,.,.,.,.,.,.,.,.,.,.,.,.,.,.,.,.,.,.,.,.,.,.",
",.,.,.,.,.,.,.,.,.,.,.,.,.,.,.,.,.,.,.,.,.,.,.,.,.,.,.,.,.,.,.,.",
",.,.,.,.,.,.,.,.,.,.,.,.,.,.,.,./ ^ ,.,.,.,.,.,.,.,.,.,.,.,.,.,.",
",.,.,.,.,.,.,.,.,.,.,.,.,.,.,./ ] ] ^ g t j t ,.,.,.,.,.,.,.,.,.",
",.,.,.,.,.,.,.,.,.,.,.,.,.,.~ _ } } } ^ p i i i ,.,.,.,.,.,.,.,.",
",.,.,.,.,.,.,.,.,.,.,.,.,.~ ~ _ } } ] s p s i i t ,.,.,.,.,.,.,.",
",.,.,.,.,.,.,.,.,.,.,.,.~ ~ ) { } { c i / / u s t ,.,.,.,.,.,.,.",
",.,.,.,.,.,.,.,.,.,.,._ ^ ) { } } } ] _ } { ~ u t i ,.,.,.,.,.,.",
",.,.,.,.,.,.,.,.,.,.{ } { } ) ^ _ ( { } } ) ~ y y s i ,.,.,.,.,.",
",.,.,.,.,.,.,.,.^ ] ] _ { } } ) g s _ } _ ~ a 0 O q i ,.,.,.,.,.",
",.,.,.,.,.,.,.,.) ^ _ _ ) _ { ~ s ] } { a q O = ; o ; ,.,.,.,.,.",
",.,.,.,.,.,.,.,.~ ] } } { / ~ ^ ] } } d w > @ , 0 X o ,.,.,.,.,.",
",.,.,.,.,.,.,.,.,.{ _ { _ g s ~ ^ ) / i t > 8 7 o - % ,.,.,.,.,.",
",.,.,.,.,.,.,.,._ } { _ ) / ^ s i ~ ~ i e B J 3 % e = ,.,.,.,.,.",
",.,.,.,.,.,.,.,.) _ { } } _ ^ p g s i k K J > ; % * X ,.,.,.,.,.",
",.,.,.,.,.,.,.,.,.,.) { } ^ ~ i i t k P m : + $ @ + % ,.,.,.,.,.",
",.,.,.,.,.,.,.,.,.,.{ } } ( ~ s j H P 9 r % @ @ & ,.,.,.,.,.,.,.",
",.,.,.,.,.,.,.,.,.{ } } { { ) ) i Y L > 4 & & ,.,.,.,.,.,.,.,.,.",
",.,.,.,.,.,.,.,.^ } } _ ] ^ { _ i Y L @ * e i ~ ,.,.,.,.,.,.,.,.",
",.,.,.,.,.,.,.,.{ } _ ^ ^ ) { ^ u H D w s ~ / ) ~ ,.,.,.,.,.,.,.",
",.,.,.,.,.,.,.,.{ ( G ` _ _ h i ~ i i ) { _ } } ) ^ ~ ~ s w ,.,.",
",.,.,.,.,.,.,.,._  .Q [ } / t i s i ^ } } } } } { { ^ ~ w #   ,.",
",.,.,.,.,.,.,.,._ X.o.[ ] ^ ) _ ) ~ ^ { } } ] ^ _ ) g w r -     ",
",.,.,.,.,.,.,._ } ..! z ^ _ { _ ) ~ ) _ ) ) ) ~ g w 4 e r -   ,.",
",.,.,.,.,.,._ } { | F g ^ ) ^ ^ _ { } } ] ) ~ w 0 $ $ 0 ; + $ X ",
",.,.,.,.,._ _ } { ~ ~ s g ~ / { } } _ { } { d a y $ ; 0 % # o ,.",
",.,.,.,.] { { ) _ _ ~ ~ f ^ _ { { ) i d ] c i x 9 * r - @ & ,.,.",
",.,.,._ } { } { ^ d s s ( ^ f ^ ^ ~ i p f B 0 S Z $ - @ @ ,.,.,.",
",.,.,./ _ ] _ ^ p h _ ) ) s s ~ ~ ~ u ~ l m X C S 0 :   ,.,.,.,.",
",.,.,.,._ _ ~ f ` { _ ~ ~ s i g p ~ ~ y V b + C Z : * ,.,.,.,.,.",
",.,.,._ } ] ^ ( } ] ^ ~ s i t t w p u ; M 2 + V R ,.,.,.,.,.,.,.",
",.,.,._ { / s ) } _ s p h / s y e r , + N v + Z ,.,.,.,.,.,.,.,.",
",.,.,.^ s s p s / ] ` c d ^ y r r n v + b I C T ,.,.,.,.,.,.,.,.",
",.,.,.q O - ; i g c } ( a u o > @ C R v @ M $.#.,.,.,.,.,.,.,.,.",
",.,.,.& X X ; ; 0 e h f w - 5 .   b E C   ,.*.@.,.,.,.,.,.,.,.,.",
",.,.,.,.  # 0 4 o - e 4 & v U 1 X > W A ,.,.*.@.,.,.,.,.,.,.,.,.",
",.,.,.,.,.# & & # $ % % N R Z + + 6 -.O.,.,.=.@.,.,.,.,.,.,.,.,.",
",.,.,.,.,.,.    $ 4 ; 3 R W A N & ,.>.-.$.=.$.,.,.,.,.,.,.,.,.,.",
",.,.,.,.,.,.,.  % ; $ 1 W $.+.+.,.,.*.-.=.+.,.,.,.,.,.,.,.,.,.,.",
",.,.,.,.,.,.,.,.+ #   2 $.:.&.$.,.,.,.*.*.,.,.,.,.,.,.,.,.,.,.,.",
",.,.,.,.,.,.,.,.,.,.,.,.>.>.;.@.,.,.,.-.*.,.,.,.,.,.,.,.,.,.,.,.",
",.,.,.,.,.,.,.,.,.,.,.,.>.>.=.,.,.,.,.>.-.,.,.,.,.,.,.,.,.,.,.,.",
",.,.,.,.,.,.,.,.,.,.,.,.>.>.-.,.,.,.>.>.*.,.,.,.,.,.,.,.,.,.,.,.",
",.,.,.,.,.,.,.,.,.,.,.,.:.>.:.&.-.>.>.=.,.,.,.,.,.,.,.,.,.,.,.,.",
",.,.,.,.,.,.,.,.,.,.,.,.,.-.:.>.>.:.&.+.,.,.,.,.,.,.,.,.,.,.,.,.",
",.,.,.,.,.,.,.,.,.,.,.,.,.>.:.-.:.$.,.,.,.,.,.,.,.,.,.,.,.,.,.,.",
",.,.,.,.,.,.,.,.,.,.,.,.>.>.>.;.&.,.,.,.,.,.,.,.,.,.,.,.,.,.,.,.",
",.,.,.,.,.,.,.,.,.,.,.,.>.>.>.*.,.,.,.,.,.,.,.,.,.,.,.,.,.,.,.,.",
",.,.,.,.,.,.,.,.,.,.,.,.>.>.>.$.,.,.,.,.,.,.,.,.,.,.,.,.,.,.,.,.",
",.,.,.,.,.,.,.,.,.,.,.,.>.>.>.#.,.,.,.,.,.,.,.,.,.,.,.,.,.,.,.,.",
",.,.,.,.,.,.,.,.,.,.,.,.=.:.:.$.,.,.,.,.,.,.,.,.,.,.,.,.,.,.,.,.",
",.,.,.,.,.,.,.,.,.,.,.,.=.:.-.@.,.,.,.,.,.,.,.,.,.,.,.,.,.,.,.,.",
",.,.,.,.,.,.,.,.,.,.,.,.>.>.>.$.,.,.,.,.,.,.,.,.,.,.,.,.,.,.,.,.",
",.,.,.,.,.,.,.,.,.,.,.,.>.>.:.&.,.,.,.,.,.,.,.,.,.,.,.,.,.,.,.,.",
",.,.,.,.,.,.,.,.,.,.,.,.>.-.;.$.,.,.,.,.,.,.,.,.,.,.,.,.,.,.,.,.",
",.,.,.,.,.,.,.,.,.,.,.,.,.:.>.$.,.,.,.,.,.,.,.,.,.,.,.,.,.,.,.,.",
",.,.,.,.,.,.,.,.,.,.,.,.,.:.>.-.,.,.,.,.,.,.,.,.,.,.,.,.,.,.,.,.",
",.,.,.,.,.,.,.,.,.,.,.,.,.:.>.:.$.,.,.,.,.,.,.,.,.,.,.,.,.,.,.,.",
",.,.,.,.,.,.,.,.,.,.,.,.,.-.>.>.*.,.,.,.,.,.,.,.,.,.,.,.,.,.,.,.",
",.,.,.,.,.,.,.,.,.,.,.,.,.,.>.>.>.#.,.,.,.,.,.,.,.,.,.,.,.,.,.,.",
",.,.,.,.,.,.,.,.,.,.,.,.,.,.-.>.>.$.,.,.,.,.,.,.,.,.,.,.,.,.,.,.",
",.,.,.,.,.,.,.,.,.,.,.,.,.,.=.:.>.&.,.,.,.,.,.,.,.,.,.,.,.,.,.,.",
",.,.,.,.,.,.,.,.,.,.,.,.,.,.-.:.:.=.O.,.,.,.,.,.,.,.,.,.,.,.,.,.",
",.,.,.,.,.,.,.,.,.,.,.,.,.,.:.>.:.*.@.,.,.,.,.,.,.,.,.,.,.,.,.,."
};
