/* XPM */
static char *ud4j1_5risn[] = {
/* columns rows colors chars-per-pixel */
"64 64 163 2 ",
"   c #0B3C2D",
".  c #103F2F",
"X  c #0F3E31",
"o  c #143F35",
"O  c #134D1F",
"+  c #16521F",
"@  c #18531F",
"#  c #0F4426",
"$  c #0F4821",
"%  c #0E4229",
"&  c #104626",
"*  c #134B23",
"=  c #184E24",
"-  c #11452B",
";  c #18472E",
":  c #154B2A",
">  c #1B4C2D",
",  c #175121",
"<  c #1A5423",
"1  c #1E5B24",
"2  c #17502A",
"3  c #1B532A",
"4  c #1E5A2B",
"5  c #154233",
"6  c #194633",
"7  c #1C4B32",
"8  c #1B453B",
"9  c #215D24",
"0  c #21552A",
"q  c #235D2C",
"w  c #214F35",
"e  c #234C3C",
"r  c #235434",
"t  c #225339",
"y  c #2B533A",
"u  c #2E5939",
"i  c #236324",
"p  c #2A6620",
"a  c #266A24",
"s  c #2B6D23",
"d  c #236329",
"f  c #29612E",
"g  c #276A2A",
"h  c #2A6D2C",
"j  c #336A23",
"k  c #306628",
"l  c #356C2B",
"z  c #2E7425",
"x  c #2F7823",
"c  c #2D7329",
"v  c #337422",
"b  c #3C7323",
"n  c #337C25",
"m  c #3C7E25",
"M  c #32752A",
"N  c #347928",
"B  c #3B7A2A",
"V  c #2D6734",
"C  c #2D6933",
"Z  c #326D34",
"A  c #34643B",
"S  c #357235",
"D  c #3C7239",
"F  c #407625",
"G  c #437D23",
"H  c #447C2E",
"J  c #2D4D45",
"K  c #334E4C",
"L  c #2E5041",
"P  c #325343",
"I  c #385745",
"U  c #3D5F45",
"Y  c #3D5551",
"T  c #3D6444",
"R  c #3F6D43",
"E  c #405F48",
"W  c #415656",
"Q  c #435A54",
"!  c #4C5F5C",
"~  c #406E44",
"^  c #43604A",
"/  c #466B4C",
"(  c #496A4D",
")  c #4A7447",
"_  c #477049",
"`  c #507E4A",
"'  c #4A6353",
"]  c #4D6B53",
"[  c #4B645C",
"{  c #52665D",
"}  c #526C5B",
"|  c #527351",
" . c #5D705E",
".. c #687F5D",
"X. c #515D61",
"o. c #4D6460",
"O. c #586663",
"+. c #536A65",
"@. c #5C6C63",
"#. c #5D646A",
"$. c #5D6C6B",
"%. c #577262",
"&. c #5D7861",
"*. c #5B716B",
"=. c #626B6B",
"-. c #6A7B6F",
";. c #686673",
":. c #666D70",
">. c #6C6E73",
",. c #6F6C78",
"<. c #726D79",
"1. c #667173",
"2. c #6B7373",
"3. c #707377",
"4. c #707D75",
"5. c #73747C",
"6. c #78737F",
"7. c #767A7C",
"8. c #797C7E",
"9. c #358123",
"0. c #3C8324",
"q. c #3B8128",
"w. c #428524",
"e. c #4A8625",
"r. c #458923",
"t. c #4C8C22",
"y. c #4A8828",
"u. c #518625",
"i. c #528E22",
"p. c #588F23",
"a. c #569022",
"s. c #5B9222",
"d. c #5E912E",
"f. c #438431",
"g. c #4B873C",
"h. c #588C32",
"j. c #558346",
"k. c #789459",
"l. c #69886B",
"z. c #728965",
"x. c #6E8172",
"c. c #7A837E",
"v. c #7B7581",
"b. c #7C7D82",
"n. c #817C86",
"m. c #837F88",
"M. c #7E8183",
"N. c #808684",
"B. c #85818A",
"V. c #89858D",
"C. c #86898A",
"Z. c #8A8A8D",
"A. c #8D938D",
"S. c #8C8790",
"D. c #8E8A91",
"F. c #918E94",
"G. c #8E9392",
"H. c #949296",
"J. c #979598",
"K. c #98979A",
"L. c #9C9B9C",
"P. c #A09F9F",
"I. c None",
/* pixels */
"I.I.I.I.I.I.I.I.I.I.I.I.I.I.I.I.I.I.I.I.I.I.I.I.I.I.I.I.I.I.I.I.I.I.I.I.I.I.I.I.I.I.I.I.I.I.I.I.I.I.I.I.I.I.I.I.I.I.I.I.I.I.I.I.",
"I.I.I.I.I.I.I.I.I.I.I.I.I.I.I.I.I.I.I.I.I.I.I.I.I.I.I.I.I.I.I.I.I.9.I.c I.I.I.I.c c h c I.I.I.I.I.I.I.I.I.I.I.I.I.I.I.I.I.I.I.I.",
"I.I.I.I.I.I.I.I.I.I.I.I.I.I.I.I.I.I.I.I.I.I.I.I.I.I.I.I.I.I.I.0.t.0.0.c C I.I.M t.y.q.9.c h I.I.I.I.I.I.I.I.I.I.I.I.I.I.I.I.I.I.",
"I.I.I.I.I.I.I.I.I.I.I.I.I.I.I.I.I.I.I.I.I.I.I.I.I.I.I.I.I.I.0.t.a.s.a.9.c c M r.s.s.a.r.m h c c h I.I.,   I.I.I.I.I.I.I.I.I.I.I.",
"I.I.I.I.I.I.I.I.I.I.I.I.I.I.I.I.I.I.I.I.I.I.0.t.t.t.0.c n t.a.r.a.s.0.n 9.c c y.s.r.a.t.n c 9.9.c h g 3 # # I.I.I.I.I.I.I.I.I.I.",
"I.I.I.I.I.I.I.I.I.I.I.I.I.I.I.I.I.I.I.I.0.t.s.s.s.s.a.c c y.a.w.a.r.9.0.c c 0.a.s.a.w.0.c c x n 9.N h 2 # # I.I.I.I.I.I.I.I.I.I.",
"I.I.I.I.I.I.I.I.I.I.I.I.I.I.I.I.I.I.I.r.t.s.a.s.s.s.i.9.h M a.a.0.9.0.0.M w.s.a.r.r.9.n n 9.m 9.9.x 9 # X I.I.I.I.I.I.I.I.I.I.I.",
"I.I.I.I.I.I.I.I.I.I.I.I.I.I.I.I.I.0.0.t.s.t.0.i.s.a.0.9.N r.r.w.x c y.i.e.t.t.a.r.0.q.9.9.c c 9.c 4 & % I.I.I.I.I.I.I.I.I.I.I.I.",
"I.I.I.I.I.I.I.I.I.I.I.I.I.I.I.w.i.s.t.0.s.w.r.i.a.0.0.q.t.r.9.N h n t.s.i.9.9.0.a.s.t.q.) C d 1 :     I.I.I.I.I.I.I.I.I.I.I.I.I.",
"I.I.I.I.I.I.I.I.I.I.I.I.I.I.r.a.a.a.t.r.a.i.r.t.r.t.w.t.a.9.w.a.0.N r.a.t.0.c c q.t.9.S =.7 & % &   I.I.I.I.I.I.I.I.I.I.I.I.I.I.",
"I.I.I.I.I.I.I.I.I.I.0.I.r.r.t.s.t.0.m t.i.r.0.r.a.a.0.9.9.9.s.t.n q.r.r.a.0.M A c c d t #.5 # 4 1 I.I.I.I.I.I.I.I.I.I.I.I.I.I.I.",
"I.I.I.I.I.I.I.I.I.I.r.i.a.a.t.t.t.9.c m 0.9.a.r.n n c c N 0.r.0.y.s.a.t.w.n _ Q d 3 % > #.7 1 d & X I.I.I.I.I.I.I.I.I.I.I.I.I.I.",
"I.I.I.I.I.I.I.I.I.I.I.r.r.t.s.t.9.c x 0.t.0.M x n n c c M a.t.0.i.s.s.r.n R v.W X % 2 7 1.7 & * 2 : # #   I.I.I.I.I.I.I.I.I.I.I.",
"I.I.I.I.I.I.I.I.I.I.I.I.a.r.t.w.c h m t.p.9.c g h c c 4 g w.s.r.m 0.t.q.g ' S.W   4 4 t :.7 2 , i 9 : #     I.I.I.I.I.I.I.I.I.I.",
"I.I.I.I.I.I.I.I.I.I.0.0.0.t.t.0.m e.r.G r.w.9.s 6 [ w - A c w.M 4 & g c 2 Y n.Y % 2 & [ $.0 g < < , * # & X I.I.I.I.I.I.I.I.I.I.",
"I.I.I.I.I.I.I.I.r.a.a.s.s.a.a.s.r.v B A _ l x i & K [ 7 +.R d : 2 3 & : $ ' B.W % # q M.u , < % % * # * %   I.I.I.I.I.I.I.I.I.I.",
"I.I.I.I.I.I.I.a.a.t.s.a.t.9.v w.v p E =.,.=.u * & - O.T ,.3.> * d 1 * * # o.J.' O 4 x.$.- & %           & * I.I.I.I.I.I.I.I.I.I.",
"I.I.I.I.I.I.w.t.G 0.t.9.v p 0 p p = o X.6.v.E & & $ } @.:.5.7 & # # % #   o.F.' 0 -.1.7 #     # % X     & % I.I.I.I.I.I.I.I.I.I.",
"I.I.I.I.I.= 9 9 9 j v z @     : :     . =.m.W   & * } c.b.8.> & %       # } K.7.4.} q d =   % & % # $ * * I.I.I.I.I.I.I.I.I.I.I.",
"I.I.I.I.I.I.    * , @ , &       . *   # W F.W   % % 7 N.H.M.0 9 &   $ # $ ] D.B.U O < <     X   # O + + I.I.I.I.I.I.I.I.I.I.I.I.",
"I.I.I.I.I.I.I.I.I.&     X         * O   [ F.W * *   # } F.b.> & %   %     w C.:.      %     I.I.I.I.I.I.I.I.I.I.I.I.I.I.I.I.I.I.",
"I.I.I.I.I.I.I.I.I.I.I.I.I.I.I.I.    O O  .H.Y   & * % o $.8.> * # X I.    8 Z.1.o % - I.h B I.I.I.I.I.I.I.I.I.I.I.I.I.I.I.I.I.I.",
"I.I.I.I.I.I.I.I.I.I.I.I.I.0.I.I.b k :   [ / =     #     +.8.> &   I.I.I.I.I.F.N.D x N q.a.r.c m c I.I.I.I.I.I.I.I.I.I.I.I.I.I.I.",
"I.I.I.I.I.I.I.I.I.I.I.I.t.s.t.t.s.p.M : : @ @ O $       $.N.o   I.I.I.I.t.f.Z.7.H t.r.i.t.w.0.M c d < I.I.I.I.I.I.I.I.I.I.I.I.I.",
"I.I.I.I.I.I.I.I.I.r.t.0.i.s.s.i.p.s.e.v < s G @   . # 3 N.b.> *   I.0.a.a.r.z.` q.s.s.r.t.a.a.w.c c i I.I.I.I.I.I.I.I.I.I.I.I.I.",
"I.I.I.I.I.I.I.I.I.t.s.i.r.t.s.a.a.s.m c m p.s.G j F j l A.8.= = & c t.s.a.t.r.0.t.r.y.t.s.s.r.9.N c d @ I.I.I.I.I.I.I.I.I.I.I.I.",
"I.I.I.I.I.I.I.I.0.0.t.t.0.c 0.a.w.r.0.M t.r.a.a.t.s.t.d.A.m.L - s i.s.y.a.r.0.r.a.t.t.r.i.0.9.c h 9 , * & I.I.I.I.I.I.I.I.I.I.I.",
"I.I.I.I.r.r.r.t.a.a.0.0.i.0.N 0.w.m M u.a.9.n v r.s.i.m l.J. .M s.s.s.w.9.0.0.s.a.y.a.r.9.c c d 1 2 * # * 1 , I.I.I.I.I.I.I.I.I.",
"I.I.I.t.i.p.t.t.a.a.N 0.w.e.p.G 9.r.w.N m B / 3 n t.q.h j.k.h.t.s.p.p.0.c x z d c h B c c g 1 + , # % & a M i + I.I.I.I.I.I.I.I.",
"I.I.z s p v p.t.r.B z 9.m M B 9 a w.a.0.c | ;.7 n t.w.G s.s.e.0.t.0.M M d R / 5 - 3 3 2 & & & 2 * & < d x c 1 &   I.I.I.I.I.I.I.",
"I.I.I.O O * 3 j x x 9.n n i.s.F = 1 m v f 2.3.7 < j u.e.t.s.e.N c Z Z ~ ' ,.v.5 $ # # $ 2 < z x x h d g g 1 &   I.I.I.I.I.I.I.I.",
"I.I.I.I.I.&     * + 1 1 @ v w.0.3 % # * 5 M.M.5 * O = 9 9 s N x 1 U =.2.<.B.1.X # # %     1 z c c 9 , 2 1 * % I.I.I.I.I.I.I.I.I.",
"I.I.I.I.I.& %   %     # - * & 4 @ . K W K b.B.K % # #   % * i 9 i < P v.b.F.o.  - 3 f k j b i a a 1 # %   %   I.I.I.I.I.I.I.I.I.",
"I.I.I.I.I.%         & * &   * * # . J { ,.B.L.7.L $   X   #   & 3 & 5 b.D.b.J X b i.t.a.s.e.c m 9.a , # X   I.I.I.I.I.I.I.I.I.I.",
"I.I.I.I.I.I.I.I.I.    # & %   & -     ; W 5.L.F.3.Q I.I.I.I.  & # % o b.L.v.o : m G s 9 4 2 3 4 3 # * % X I.I.I.I.I.I.I.I.I.I.I.",
"I.I.I.I.I.I.I.I.I.I.I.X                   [ H.H.m.S.B.I.I.I.I.      I.n.J.b.o X % -   o 5 * * O # %     I.I.I.I.I.I.I.I.I.I.I.I.",
"I.I.I.I.I.I.I.I.I.I.I.I.I.I.I.I.I.I.I.I.I.I.I.I.V.F.H.B.I.I.I.I.I.I.I.B.D.M.5 : I : 3 { y & * * * # % I.I.I.I.I.I.I.I.I.I.I.I.I.",
"I.I.I.I.I.I.I.I.I.I.I.I.I.I.I.I.I.I.I.I.I.I.I.I.I.K.H.H.D.I.I.I.I.I.g.C.B.M.V V =.e { I # %   # # # & I.I.I.I.I.I.I.I.I.I.I.I.I.",
"I.I.I.I.I.I.I.I.I.I.I.I.I.I.I.I.I.I.I.I.I.I.I.I.I.I.P.K.K.B.I.I.c n f.C.n.7.Z C 2.=.T 3 : X I.I.I.I.I.I.I.I.I.I.I.I.I.I.I.I.I.I.",
"I.I.I.I.I.I.I.I.I.I.I.I.I.I.I.I.I.I.I.I.I.I.I.I.I.I.I.J.L.V.I.I.9 i S Z.S.3.V q 2.^ g w.s.I.I.I.I.I.I.I.I.I.I.I.I.I.I.I.I.I.I.I.",
"I.I.I.I.I.I.I.I.I.I.I.I.I.I.I.I.I.I.I.I.I.I.I.I.I.I.I.L.H.V.v.I.O # r A.F.5.> w 2.l w.w.s.r.9.I.I.I.I.I.I.I.I.I.I.I.I.I.I.I.I.I.",
"I.I.I.I.I.I.I.I.I.I.I.I.I.I.I.I.I.I.I.I.I.I.I.I.I.I.I.I.D.D.n.I.I.  8 G.K.8.r e ..u.s.i.p.9.9.p I.I.I.I.I.I.I.I.I.I.I.I.I.I.I.I.",
"I.I.I.I.I.I.I.I.I.I.I.I.I.I.I.I.I.I.I.I.I.I.I.I.I.I.I.I.D.F.n.I.I.I.I.L.P.N.S M e.r.t.s.u.9 z p * I.I.I.I.I.I.I.I.I.I.I.I.I.I.I.",
"I.I.I.I.I.I.I.I.I.I.I.I.I.I.I.I.I.I.I.I.I.I.I.I.I.I.I.I.F.L.B.I.I.I.I.K.P.c.H e.i O 9 G s.s % & & I.I.I.I.I.I.I.I.I.I.I.I.I.I.I.",
"I.I.I.I.I.I.I.I.I.I.I.I.I.I.I.I.I.I.I.I.I.I.I.I.I.I.I.I.L.L.F.I.I.I.I.J.P.&., < O &   = j < -     I.I.I.I.I.I.I.I.I.I.I.I.I.I.I.",
"I.I.I.I.I.I.I.I.I.I.I.I.I.I.I.I.I.I.I.I.I.I.I.I.I.I.I.I.L.L.F.I.I.I.L.J.P.4.& % ; -             I.I.I.I.I.I.I.I.I.I.I.I.I.I.I.I.",
"I.I.I.I.I.I.I.I.I.I.I.I.I.I.I.I.I.I.I.I.I.I.I.I.I.I.I.I.P.L.D.I.I.I.L.J.L.D.I.I.5.I.I.I.I.I.I.I.I.I.I.I.I.I.I.I.I.I.I.I.I.I.I.I.",
"I.I.I.I.I.I.I.I.I.I.I.I.I.I.I.I.I.I.I.I.I.I.I.I.I.I.I.I.H.L.V.I.I.I.I.K.L.H.B.I.V.I.I.I.I.I.I.I.I.I.I.I.I.I.I.I.I.I.I.I.I.I.I.I.",
"I.I.I.I.I.I.I.I.I.I.I.I.I.I.I.I.I.I.I.I.I.I.I.I.I.I.I.I.D.H.V.I.I.I.I.L.L.H.J.V.B.I.I.I.I.I.I.I.I.I.I.I.I.I.I.I.I.I.I.I.I.I.I.I.",
"I.I.I.I.I.I.I.I.I.I.I.I.I.I.I.I.I.I.I.I.I.I.I.I.I.I.I.I.H.H.V.I.I.I.I.I.L.J.L.H.B.I.I.I.I.I.I.I.I.I.I.I.I.I.I.I.I.I.I.I.I.I.I.I.",
"I.I.I.I.I.I.I.I.I.I.I.I.I.I.I.I.I.I.I.I.I.I.I.I.I.I.I.I.L.L.D.I.I.I.I.I.I.L.J.L.B.I.I.I.I.I.I.I.I.I.I.I.I.I.I.I.I.I.I.I.I.I.I.I.",
"I.I.I.I.I.I.I.I.I.I.I.I.I.I.I.I.I.I.I.I.I.I.I.I.I.I.I.I.L.L.H.I.I.I.I.I.I.L.J.L.Z.I.I.I.I.I.I.I.I.I.I.I.I.I.I.I.I.I.I.I.I.I.I.I.",
"I.I.I.I.I.I.I.I.I.I.I.I.I.I.I.I.I.I.I.I.I.I.I.I.I.I.I.I.L.L.J.I.I.I.I.I.I.I.H.L.F.I.I.I.I.I.I.I.I.I.I.I.I.I.I.I.I.I.I.I.I.I.I.I.",
"I.I.I.I.I.I.I.I.I.I.I.I.I.I.I.I.I.I.I.I.I.I.I.I.I.I.I.I.L.L.L.B.I.I.I.I.I.I.H.L.L.b.I.I.I.I.I.I.I.I.I.I.I.I.I.I.I.I.I.I.I.I.I.I.",
"I.I.I.I.I.I.I.I.I.I.I.I.I.I.I.I.I.I.I.I.I.I.I.I.I.I.I.I.K.J.L.D.I.I.I.I.I.D.D.L.L.m.I.I.I.I.I.I.I.I.I.I.I.I.I.I.I.I.I.I.I.I.I.I.",
"I.I.I.I.I.I.I.I.I.I.I.I.I.I.I.I.I.I.I.I.I.I.I.I.I.I.I.I.I.J.L.H.v.I.I.I.I.D.F.L.L.m.I.I.I.I.I.I.I.I.I.I.I.I.I.I.I.I.I.I.I.I.I.I.",
"I.I.I.I.I.I.I.I.I.I.I.I.I.I.I.I.I.I.I.I.I.I.I.I.I.I.I.I.I.J.L.H.B.I.I.I.D.H.J.K.H.n.I.I.I.I.I.I.I.I.I.I.I.I.I.I.I.I.I.I.I.I.I.I.",
"I.I.I.I.I.I.I.I.I.I.I.I.I.I.I.I.I.I.I.I.I.I.I.I.I.I.I.I.I.L.L.L.D.Z.D.D.H.H.J.H.B.I.I.I.I.I.I.I.I.I.I.I.I.I.I.I.I.I.I.I.I.I.I.I.",
"I.I.I.I.I.I.I.I.I.I.I.I.I.I.I.I.I.I.I.I.I.I.I.I.I.I.I.I.I.I.L.L.D.H.L.F.H.J.H.D.v.I.I.I.I.I.I.I.I.I.I.I.I.I.I.I.I.I.I.I.I.I.I.I.",
"I.I.I.I.I.I.I.I.I.I.I.I.I.I.I.I.I.I.I.I.I.I.I.I.I.I.I.I.I.I.I.D.F.H.L.J.D.F.H.F.I.I.I.I.I.I.I.I.I.I.I.I.I.I.I.I.I.I.I.I.I.I.I.I.",
"I.I.I.I.I.I.I.I.I.I.I.I.I.I.I.I.I.I.I.I.I.I.I.I.I.I.I.I.I.I.I.D.L.H.H.H.F.D.F.H.I.I.I.I.I.I.I.I.I.I.I.I.I.I.I.I.I.I.I.I.I.I.I.I.",
"I.I.I.I.I.I.I.I.I.I.I.I.I.I.I.I.I.I.I.I.I.I.I.I.I.I.I.I.I.I.I.I.H.H.D.D.D.D.H.J.I.I.I.I.I.I.I.I.I.I.I.I.I.I.I.I.I.I.I.I.I.I.I.I.",
"I.I.I.I.I.I.I.I.I.I.I.I.I.I.I.I.I.I.I.I.I.I.I.I.I.I.I.I.I.I.I.I.I.I.D.V.F.D.H.D.I.I.I.I.I.I.I.I.I.I.I.I.I.I.I.I.I.I.I.I.I.I.I.I.",
"I.I.I.I.I.I.I.I.I.I.I.I.I.I.I.I.I.I.I.I.I.I.I.I.I.I.I.I.I.I.I.I.I.I.I.D.L.F.J.D.I.I.I.I.I.I.I.I.I.I.I.I.I.I.I.I.I.I.I.I.I.I.I.I."
};
